%
M48
M72
T01C0.01575
T02C0.01969
T03C0.02756
T04C0.03307
T05C0.04000
%
T01
X29300Y86470
X53257Y74013
T02
X48300Y71513
X43300Y71513
X36300Y65513
X36300Y53013
X39300Y47013
X44300Y49013
X47800Y53513
X51800Y43013
X52300Y34013
X63800Y51013
X61300Y59013
X72800Y37013
X77800Y40513
X53300Y98513
X53800Y103513
X64800Y124013
X49800Y138013
X31300Y133013
X29800Y110513
X28300Y100513
X16800Y55013
X17800Y48513
X17800Y41513
X10300Y28013
X30400Y36613
X30800Y47013
T03
X41300Y132013
T04
X47002Y125600
X57330Y120180
X63956Y110580
X65362Y99001
X61226Y88095
X52495Y80360
X41170Y77569
X29845Y80360
X21114Y88095
X16978Y99001
X18384Y110580
X25010Y120180
X35338Y125600
T05
X11170Y9100
X21170Y9100
X31170Y9100
X41170Y9100
X51170Y9100
X61170Y9100
X71170Y9100
X71170Y152407
X61170Y152407
X11170Y152407
M30
