G75*
%MOIN*%
%OFA0B0*%
%FSLAX25Y25*%
%IPPOS*%
%LPD*%
%AMOC8*
5,1,8,0,0,1.08239X$1,22.5*
%
%ADD10C,0.00300*%
%ADD11C,0.00600*%
%ADD12C,0.00000*%
D10*
X0020262Y0021932D02*
X0022197Y0019997D01*
X0022197Y0019513D01*
X0022197Y0022416D02*
X0020262Y0022416D01*
X0020262Y0021932D01*
X0023208Y0019513D02*
X0025143Y0019513D01*
X0024176Y0019513D02*
X0024176Y0022416D01*
X0025143Y0021448D01*
X0026155Y0020965D02*
X0026638Y0020481D01*
X0028090Y0020481D01*
X0028090Y0019513D02*
X0028090Y0022416D01*
X0026638Y0022416D01*
X0026155Y0021932D01*
X0026155Y0020965D01*
X0027122Y0020481D02*
X0026155Y0019513D01*
X0027306Y0040163D02*
X0028273Y0040163D01*
X0028757Y0040647D01*
X0026822Y0042582D01*
X0026822Y0040647D01*
X0027306Y0040163D01*
X0028757Y0040647D02*
X0028757Y0042582D01*
X0028273Y0043066D01*
X0027306Y0043066D01*
X0026822Y0042582D01*
X0029769Y0043066D02*
X0031703Y0043066D01*
X0031703Y0040163D01*
X0031703Y0041615D02*
X0030736Y0041615D01*
X0032715Y0041615D02*
X0033199Y0041131D01*
X0034650Y0041131D01*
X0034650Y0040163D02*
X0034650Y0043066D01*
X0033199Y0043066D01*
X0032715Y0042582D01*
X0032715Y0041615D01*
X0034269Y0057163D02*
X0036203Y0060066D01*
X0037215Y0059582D02*
X0037215Y0058615D01*
X0037699Y0058131D01*
X0039150Y0058131D01*
X0038183Y0058131D02*
X0037215Y0057163D01*
X0036203Y0057163D02*
X0034269Y0060066D01*
X0037215Y0059582D02*
X0037699Y0060066D01*
X0039150Y0060066D01*
X0039150Y0057163D01*
X0043269Y0048066D02*
X0045203Y0045163D01*
X0043269Y0045163D02*
X0045203Y0048066D01*
X0046215Y0048066D02*
X0048150Y0048066D01*
X0047183Y0048066D02*
X0047183Y0045163D01*
X0052045Y0029416D02*
X0051562Y0028932D01*
X0051562Y0028448D01*
X0052045Y0027965D01*
X0053013Y0027965D01*
X0053497Y0028448D01*
X0053497Y0028932D01*
X0053013Y0029416D01*
X0052045Y0029416D01*
X0052045Y0027965D02*
X0051562Y0027481D01*
X0051562Y0026997D01*
X0052045Y0026513D01*
X0053013Y0026513D01*
X0053497Y0026997D01*
X0053497Y0027481D01*
X0053013Y0027965D01*
X0054508Y0026513D02*
X0056443Y0026513D01*
X0057455Y0026513D02*
X0058422Y0027481D01*
X0057938Y0027481D02*
X0059390Y0027481D01*
X0059390Y0026513D02*
X0059390Y0029416D01*
X0057938Y0029416D01*
X0057455Y0028932D01*
X0057455Y0027965D01*
X0057938Y0027481D01*
X0056443Y0028448D02*
X0055476Y0029416D01*
X0055476Y0026513D01*
X0055145Y0067713D02*
X0056113Y0067713D01*
X0056597Y0068197D01*
X0054662Y0070132D01*
X0054662Y0068197D01*
X0055145Y0067713D01*
X0056597Y0068197D02*
X0056597Y0070132D01*
X0056113Y0070616D01*
X0055145Y0070616D01*
X0054662Y0070132D01*
X0057608Y0070132D02*
X0058092Y0070616D01*
X0059059Y0070616D01*
X0059543Y0070132D01*
X0060555Y0070132D02*
X0060555Y0069165D01*
X0061038Y0068681D01*
X0062490Y0068681D01*
X0062490Y0067713D02*
X0062490Y0070616D01*
X0061038Y0070616D01*
X0060555Y0070132D01*
X0061522Y0068681D02*
X0060555Y0067713D01*
X0059543Y0067713D02*
X0057608Y0069648D01*
X0057608Y0070132D01*
X0057608Y0067713D02*
X0059543Y0067713D01*
X0031990Y0067681D02*
X0030538Y0067681D01*
X0030055Y0068165D01*
X0030055Y0069132D01*
X0030538Y0069616D01*
X0031990Y0069616D01*
X0031990Y0066713D01*
X0031022Y0067681D02*
X0030055Y0066713D01*
X0029043Y0066713D02*
X0027108Y0068648D01*
X0027108Y0069132D01*
X0027592Y0069616D01*
X0028559Y0069616D01*
X0029043Y0069132D01*
X0029043Y0066713D02*
X0027108Y0066713D01*
X0026097Y0066713D02*
X0024162Y0066713D01*
X0025129Y0066713D02*
X0025129Y0069616D01*
X0026097Y0068648D01*
X0013650Y0050066D02*
X0013650Y0047163D01*
X0013650Y0048131D02*
X0012199Y0048131D01*
X0011715Y0048615D01*
X0011715Y0049582D01*
X0012199Y0050066D01*
X0013650Y0050066D01*
X0010703Y0050066D02*
X0010703Y0047163D01*
X0010703Y0048615D02*
X0009736Y0048615D01*
X0010703Y0050066D02*
X0008769Y0050066D01*
X0007757Y0049098D02*
X0006789Y0050066D01*
X0006789Y0047163D01*
X0005822Y0047163D02*
X0007757Y0047163D01*
D11*
X0022619Y0028876D02*
X0024981Y0028876D01*
X0024981Y0024151D02*
X0022619Y0024151D01*
X0025119Y0070651D02*
X0027481Y0070651D01*
X0027481Y0075376D02*
X0025119Y0075376D01*
X0054619Y0025376D02*
X0056981Y0025376D01*
X0056981Y0020651D02*
X0054619Y0020651D01*
X0055619Y0071651D02*
X0057981Y0071651D01*
X0057981Y0076376D02*
X0055619Y0076376D01*
D12*
X0041300Y0044613D02*
X0041250Y0044613D01*
X0041233Y0044597D01*
X0041233Y0044563D01*
X0041250Y0044547D01*
X0041300Y0044547D01*
X0041300Y0044513D02*
X0041300Y0044613D01*
X0041208Y0044613D02*
X0041141Y0044613D01*
X0041116Y0044613D02*
X0041066Y0044613D01*
X0041049Y0044597D01*
X0041049Y0044563D01*
X0041066Y0044547D01*
X0041116Y0044547D01*
X0041082Y0044547D02*
X0041049Y0044513D01*
X0041024Y0044513D02*
X0040957Y0044513D01*
X0040990Y0044513D02*
X0040990Y0044613D01*
X0041024Y0044580D01*
X0041116Y0044613D02*
X0041116Y0044513D01*
X0041175Y0044513D02*
X0041175Y0044613D01*
X0040932Y0044613D02*
X0040865Y0044613D01*
X0040840Y0044613D02*
X0040790Y0044613D01*
X0040773Y0044597D01*
X0040773Y0044563D01*
X0040790Y0044547D01*
X0040840Y0044547D01*
X0040840Y0044513D02*
X0040840Y0044613D01*
X0040898Y0044613D02*
X0040898Y0044513D01*
X0040748Y0044513D02*
X0040681Y0044513D01*
X0040655Y0044530D02*
X0040639Y0044513D01*
X0040605Y0044513D01*
X0040589Y0044530D01*
X0040589Y0044547D01*
X0040605Y0044563D01*
X0040622Y0044563D01*
X0040605Y0044563D02*
X0040589Y0044580D01*
X0040589Y0044597D01*
X0040605Y0044613D01*
X0040639Y0044613D01*
X0040655Y0044597D01*
X0040714Y0044613D02*
X0040714Y0044513D01*
X0040748Y0044580D02*
X0040714Y0044613D01*
X0040563Y0044613D02*
X0040513Y0044613D01*
X0040497Y0044597D01*
X0040497Y0044563D01*
X0040513Y0044547D01*
X0040563Y0044547D01*
X0040530Y0044547D02*
X0040497Y0044513D01*
X0040563Y0044513D02*
X0040563Y0044613D01*
X0038300Y0050513D02*
X0038300Y0050613D01*
X0038250Y0050613D01*
X0038233Y0050597D01*
X0038233Y0050563D01*
X0038250Y0050547D01*
X0038300Y0050547D01*
X0038208Y0050613D02*
X0038141Y0050613D01*
X0038116Y0050613D02*
X0038066Y0050613D01*
X0038049Y0050597D01*
X0038049Y0050563D01*
X0038066Y0050547D01*
X0038116Y0050547D01*
X0038082Y0050547D02*
X0038049Y0050513D01*
X0038024Y0050513D02*
X0037957Y0050513D01*
X0037990Y0050513D02*
X0037990Y0050613D01*
X0038024Y0050580D01*
X0038116Y0050613D02*
X0038116Y0050513D01*
X0038175Y0050513D02*
X0038175Y0050613D01*
X0037932Y0050613D02*
X0037865Y0050613D01*
X0037840Y0050613D02*
X0037790Y0050613D01*
X0037773Y0050597D01*
X0037773Y0050563D01*
X0037790Y0050547D01*
X0037840Y0050547D01*
X0037840Y0050513D02*
X0037840Y0050613D01*
X0037898Y0050613D02*
X0037898Y0050513D01*
X0037748Y0050513D02*
X0037681Y0050513D01*
X0037655Y0050530D02*
X0037639Y0050513D01*
X0037605Y0050513D01*
X0037589Y0050530D01*
X0037589Y0050547D01*
X0037605Y0050563D01*
X0037622Y0050563D01*
X0037605Y0050563D02*
X0037589Y0050580D01*
X0037589Y0050597D01*
X0037605Y0050613D01*
X0037639Y0050613D01*
X0037655Y0050597D01*
X0037714Y0050613D02*
X0037714Y0050513D01*
X0037748Y0050580D02*
X0037714Y0050613D01*
X0037563Y0050613D02*
X0037513Y0050613D01*
X0037497Y0050597D01*
X0037497Y0050563D01*
X0037513Y0050547D01*
X0037563Y0050547D01*
X0037530Y0050547D02*
X0037497Y0050513D01*
X0037563Y0050513D02*
X0037563Y0050613D01*
X0019800Y0046113D02*
X0019750Y0046113D01*
X0019733Y0046097D01*
X0019733Y0046063D01*
X0019750Y0046047D01*
X0019800Y0046047D01*
X0019800Y0046013D02*
X0019800Y0046113D01*
X0019708Y0046113D02*
X0019641Y0046113D01*
X0019616Y0046113D02*
X0019566Y0046113D01*
X0019549Y0046097D01*
X0019549Y0046063D01*
X0019566Y0046047D01*
X0019616Y0046047D01*
X0019582Y0046047D02*
X0019549Y0046013D01*
X0019524Y0046013D02*
X0019457Y0046013D01*
X0019490Y0046013D02*
X0019490Y0046113D01*
X0019524Y0046080D01*
X0019616Y0046113D02*
X0019616Y0046013D01*
X0019675Y0046013D02*
X0019675Y0046113D01*
X0019432Y0046113D02*
X0019365Y0046113D01*
X0019340Y0046113D02*
X0019290Y0046113D01*
X0019273Y0046097D01*
X0019273Y0046063D01*
X0019290Y0046047D01*
X0019340Y0046047D01*
X0019340Y0046013D02*
X0019340Y0046113D01*
X0019398Y0046113D02*
X0019398Y0046013D01*
X0019248Y0046013D02*
X0019181Y0046013D01*
X0019155Y0046030D02*
X0019139Y0046013D01*
X0019105Y0046013D01*
X0019089Y0046030D01*
X0019089Y0046047D01*
X0019105Y0046063D01*
X0019122Y0046063D01*
X0019105Y0046063D02*
X0019089Y0046080D01*
X0019089Y0046097D01*
X0019105Y0046113D01*
X0019139Y0046113D01*
X0019155Y0046097D01*
X0019214Y0046113D02*
X0019214Y0046013D01*
X0019248Y0046080D02*
X0019214Y0046113D01*
X0019063Y0046113D02*
X0019013Y0046113D01*
X0018997Y0046097D01*
X0018997Y0046063D01*
X0019013Y0046047D01*
X0019063Y0046047D01*
X0019030Y0046047D02*
X0018997Y0046013D01*
X0019063Y0046013D02*
X0019063Y0046113D01*
M02*
