G75*
%MOIN*%
%OFA0B0*%
%FSLAX25Y25*%
%IPPOS*%
%LPD*%
%AMOC8*
5,1,8,0,0,1.08239X$1,22.5*
%
%ADD10R,0.05800X0.03000*%
%ADD11R,0.03000X0.05800*%
%ADD12C,0.06800*%
%ADD13R,0.02769X0.04737*%
%ADD14R,0.05524X0.03950*%
%ADD15R,0.03950X0.05524*%
%ADD16R,0.04737X0.02769*%
%ADD17R,0.06706X0.04343*%
%ADD18C,0.10800*%
%ADD19C,0.20485*%
%ADD20R,0.05800X0.03300*%
%ADD21C,0.05918*%
D10*
X0024270Y0030360D03*
X0024270Y0033509D03*
X0024270Y0036659D03*
X0024270Y0039809D03*
X0024270Y0042958D03*
X0024270Y0046108D03*
X0024270Y0049257D03*
X0024270Y0052407D03*
X0058070Y0052407D03*
X0058070Y0049257D03*
X0058070Y0046108D03*
X0058070Y0042958D03*
X0058070Y0039809D03*
X0058070Y0036659D03*
X0058070Y0033509D03*
X0058070Y0030360D03*
D11*
X0052194Y0024483D03*
X0049044Y0024483D03*
X0045894Y0024483D03*
X0042745Y0024483D03*
X0039595Y0024483D03*
X0036446Y0024483D03*
X0033296Y0024483D03*
X0030146Y0024483D03*
X0030146Y0058283D03*
X0033296Y0058283D03*
X0036446Y0058283D03*
X0039595Y0058283D03*
X0042745Y0058283D03*
X0045894Y0058283D03*
X0049044Y0058283D03*
X0052194Y0058283D03*
D12*
X0011170Y0012100D02*
X0011170Y0006100D01*
X0021170Y0006100D02*
X0021170Y0012100D01*
X0031170Y0012100D02*
X0031170Y0006100D01*
X0041170Y0006100D02*
X0041170Y0012100D01*
X0051170Y0012100D02*
X0051170Y0006100D01*
X0061170Y0006100D02*
X0061170Y0012100D01*
X0071170Y0012100D02*
X0071170Y0006100D01*
X0071170Y0149407D02*
X0071170Y0155407D01*
X0061170Y0155407D02*
X0061170Y0149407D01*
X0011170Y0149407D02*
X0011170Y0155407D01*
D13*
X0014300Y0139057D03*
X0011741Y0131970D03*
X0016859Y0131970D03*
X0025556Y0113470D03*
X0028115Y0120557D03*
X0030674Y0113470D03*
X0031643Y0090754D03*
X0029083Y0083667D03*
X0026524Y0090754D03*
X0017833Y0073653D03*
X0015274Y0080739D03*
X0012715Y0073653D03*
X0013086Y0093813D03*
X0010527Y0100899D03*
X0007968Y0093813D03*
X0038241Y0156057D03*
X0040800Y0148970D03*
X0043359Y0156057D03*
X0070914Y0116072D03*
X0073473Y0123159D03*
X0076032Y0116072D03*
X0073666Y0103639D03*
X0071107Y0096553D03*
X0076225Y0096553D03*
X0068824Y0081360D03*
X0071383Y0074273D03*
X0066265Y0074273D03*
X0047859Y0085757D03*
X0045300Y0078670D03*
X0042741Y0085757D03*
D14*
X0036517Y0083862D03*
X0036517Y0090949D03*
X0027558Y0100274D03*
X0027558Y0107361D03*
X0007922Y0119557D03*
X0007922Y0126643D03*
X0023500Y0063657D03*
X0023500Y0056570D03*
X0009774Y0058919D03*
X0009774Y0051832D03*
X0049918Y0149057D03*
X0049918Y0156143D03*
X0066292Y0067433D03*
X0066292Y0060346D03*
X0072800Y0060357D03*
X0072800Y0053270D03*
D15*
X0061043Y0065513D03*
X0053957Y0065513D03*
X0050543Y0092013D03*
X0043457Y0092013D03*
X0059060Y0096647D03*
X0066146Y0096647D03*
X0066206Y0114147D03*
X0059119Y0114147D03*
X0068501Y0131872D03*
X0075587Y0131872D03*
X0032343Y0149013D03*
X0032343Y0155513D03*
X0025257Y0155513D03*
X0025257Y0149013D03*
X0017440Y0066187D03*
X0010354Y0066187D03*
X0009457Y0029113D03*
X0015857Y0022513D03*
X0016543Y0029113D03*
X0022943Y0022513D03*
X0058157Y0024713D03*
X0065243Y0024713D03*
D16*
X0072343Y0137899D03*
X0072343Y0143017D03*
X0065257Y0140458D03*
D17*
X0048847Y0128285D03*
X0048847Y0121592D03*
X0036643Y0121592D03*
X0036643Y0128285D03*
D18*
X0041495Y0140271D03*
X0057243Y0136334D03*
X0062617Y0123273D03*
X0063117Y0105557D03*
X0062617Y0087840D03*
X0057243Y0074779D03*
X0041495Y0070842D03*
X0025747Y0074779D03*
X0019123Y0087840D03*
X0018623Y0105557D03*
X0019123Y0123273D03*
X0025747Y0136334D03*
D19*
X0042745Y0105557D03*
D20*
X0019300Y0153413D03*
X0019300Y0156613D03*
D21*
X0065800Y0038013D03*
X0047000Y0017813D03*
M02*
