%
M48
M72
T01C0.01575
T02C0.01969
T03C0.04000
T04C0.04724
T05C0.19685
%
T01
X41900Y78670
X31800Y118013
T02
X29000Y126413
X32200Y144013
X44200Y117613
X50000Y116613
X50600Y144213
X72800Y66213
X63200Y54613
X63200Y49213
X59000Y57213
X61000Y61213
X50200Y39813
X50200Y34213
X49000Y50813
X40400Y52613
X33200Y52613
X29800Y39613
X34600Y31413
X41200Y31413
X19000Y53213
X18800Y43013
X9600Y34013
X11000Y22613
X73200Y40213
T03
X11170Y9100
X21170Y9100
X31170Y9100
X41170Y9100
X51170Y9100
X61170Y9100
X71170Y9100
X71170Y152407
X61170Y152407
X11170Y152407
T04
X25747Y136334
X19123Y123273
X18623Y105557
X19123Y87840
X25747Y74779
X41495Y70842
X57243Y74779
X62617Y87840
X63117Y105557
X62617Y123273
X57243Y136334
X41495Y140271
T05
X42745Y105557
M30
