%
M48
M72
T01C0.01575
T02C0.01772
T03C0.01969
T04C0.04000
T05C0.04724
T06C0.19685
%
T01
X19000Y56213
X30257Y29513
X41900Y78670
X31800Y118013
T02
X43800Y117613
X40343Y52013
X33257Y46013
X35757Y39513
X42800Y31013
X47800Y30613
X50800Y40470
X18400Y49813
X16400Y45413
T03
X18600Y38713
X11000Y22613
X9600Y34013
X29800Y39613
X30200Y64013
X46600Y52613
X52400Y35213
X63200Y49213
X63200Y54613
X61000Y61213
X59000Y57213
X72800Y66213
X73200Y40213
X50000Y116613
X50600Y144213
X32200Y144013
X29000Y126413
T04
X11170Y9100
X21170Y9100
X31170Y9100
X41170Y9100
X51170Y9100
X61170Y9100
X71170Y9100
X71170Y152407
X61170Y152407
X11170Y152407
T05
X25747Y136334
X19123Y123273
X18623Y105557
X19123Y87840
X25747Y74779
X41495Y70842
X57243Y74779
X62617Y87840
X63117Y105557
X62617Y123273
X57243Y136334
X41495Y140271
T06
X42745Y105557
M30
