G75*
%MOIN*%
%OFA0B0*%
%FSLAX25Y25*%
%IPPOS*%
%LPD*%
%AMOC8*
5,1,8,0,0,1.08239X$1,22.5*
%
%ADD10C,0.06000*%
%ADD11C,0.10000*%
%ADD12R,0.03150X0.04724*%
%ADD13R,0.04724X0.03150*%
%ADD14C,0.03369*%
%ADD15C,0.01000*%
%ADD16C,0.00600*%
%ADD17C,0.01600*%
%ADD18C,0.02975*%
%ADD19C,0.03172*%
%ADD20C,0.00800*%
D10*
X0011170Y0006100D02*
X0011170Y0012100D01*
X0021170Y0012100D02*
X0021170Y0006100D01*
X0031170Y0006100D02*
X0031170Y0012100D01*
X0041170Y0012100D02*
X0041170Y0006100D01*
X0051170Y0006100D02*
X0051170Y0012100D01*
X0061170Y0012100D02*
X0061170Y0006100D01*
X0071170Y0006100D02*
X0071170Y0012100D01*
X0071170Y0149407D02*
X0071170Y0155407D01*
X0061170Y0155407D02*
X0061170Y0149407D01*
X0011170Y0149407D02*
X0011170Y0155407D01*
D11*
X0025747Y0136334D03*
X0019123Y0123273D03*
X0018623Y0105557D03*
X0019123Y0087840D03*
X0025747Y0074779D03*
X0041495Y0070842D03*
X0057243Y0074779D03*
X0062617Y0087840D03*
X0063117Y0105557D03*
X0062617Y0123273D03*
X0057243Y0136334D03*
X0041495Y0140271D03*
D12*
X0039943Y0083413D03*
X0032857Y0083413D03*
X0033257Y0058013D03*
X0033257Y0052013D03*
X0033257Y0046013D03*
X0035757Y0039513D03*
X0040343Y0046013D03*
X0040343Y0052013D03*
X0040343Y0058013D03*
X0042843Y0039513D03*
X0037343Y0029513D03*
X0030257Y0029513D03*
D13*
X0050800Y0040470D03*
X0050800Y0047557D03*
D14*
X0046600Y0052613D03*
X0052400Y0035213D03*
X0063200Y0049213D03*
X0063200Y0054613D03*
X0061000Y0061213D03*
X0059000Y0057213D03*
X0072800Y0066213D03*
X0073200Y0040213D03*
X0050000Y0116613D03*
X0050600Y0144213D03*
X0032200Y0144013D03*
X0029000Y0126413D03*
X0030200Y0064013D03*
X0029800Y0039613D03*
X0018600Y0038713D03*
X0011000Y0022613D03*
X0009600Y0034013D03*
D15*
X0057243Y0074779D02*
X0030700Y0100322D01*
X0030700Y0109813D01*
X0037200Y0118313D01*
X0037200Y0125013D01*
X0032200Y0144013D01*
D16*
X0029000Y0126413D02*
X0029000Y0119813D01*
X0025600Y0116413D01*
X0015400Y0116413D01*
X0009600Y0110613D01*
X0009600Y0034013D01*
X0013000Y0035813D02*
X0011000Y0037813D01*
X0011000Y0109813D01*
X0016200Y0115013D01*
X0028800Y0115013D01*
X0031800Y0118013D01*
X0050000Y0116613D02*
X0053200Y0113413D01*
X0068200Y0113413D01*
X0072800Y0108813D01*
X0072800Y0066213D01*
X0074800Y0069613D02*
X0074800Y0109413D01*
X0069400Y0114813D01*
X0057600Y0114813D01*
X0050600Y0121813D01*
X0050600Y0144213D01*
X0039943Y0083413D02*
X0041900Y0081457D01*
X0041900Y0078670D01*
X0041495Y0070842D02*
X0032857Y0079480D01*
X0032857Y0083413D01*
X0030200Y0064013D02*
X0033257Y0060957D01*
X0033257Y0058013D01*
X0040343Y0058013D02*
X0045000Y0058013D01*
X0046600Y0056413D01*
X0046600Y0052613D01*
X0044100Y0034813D02*
X0047800Y0031113D01*
X0047800Y0030613D01*
X0044100Y0034813D02*
X0026600Y0034813D01*
X0026000Y0035413D01*
X0026000Y0043813D01*
X0020000Y0049813D01*
X0018400Y0049813D01*
X0016400Y0045413D02*
X0021400Y0045413D01*
X0024200Y0042613D01*
X0024200Y0034213D01*
X0025000Y0033413D01*
X0040900Y0033413D01*
X0042800Y0031513D01*
X0042800Y0031013D01*
X0059000Y0022413D02*
X0051200Y0014613D01*
X0051200Y0009130D01*
X0051170Y0009100D01*
X0059000Y0022413D02*
X0059000Y0057213D01*
X0063200Y0054613D02*
X0065400Y0054613D01*
X0067200Y0052813D01*
X0067200Y0013070D01*
X0071170Y0009100D01*
X0063200Y0011130D02*
X0061170Y0009100D01*
X0063200Y0011130D02*
X0063200Y0049213D01*
X0073200Y0040213D02*
X0076400Y0043413D01*
X0076400Y0068013D01*
X0074800Y0069613D01*
X0018600Y0038713D02*
X0018600Y0020613D01*
X0011200Y0013213D01*
X0011200Y0009130D01*
X0011170Y0009100D01*
X0011000Y0022613D02*
X0013000Y0024613D01*
X0013000Y0035813D01*
D17*
X0004132Y0006880D02*
X0005199Y0005412D01*
X0006667Y0004346D01*
X0006832Y0004292D01*
X0006470Y0005165D01*
X0006470Y0013035D01*
X0007186Y0014762D01*
X0008508Y0016084D01*
X0010235Y0016800D01*
X0011958Y0016800D01*
X0016600Y0021442D01*
X0016600Y0035927D01*
X0015731Y0036796D01*
X0015216Y0038040D01*
X0015216Y0039387D01*
X0015731Y0040630D01*
X0016683Y0041582D01*
X0017927Y0042098D01*
X0019273Y0042098D01*
X0020517Y0041582D01*
X0021469Y0040630D01*
X0021984Y0039387D01*
X0021984Y0038040D01*
X0021469Y0036796D01*
X0020600Y0035927D01*
X0020600Y0019785D01*
X0015278Y0014463D01*
X0015870Y0013035D01*
X0015870Y0005165D01*
X0015269Y0003713D01*
X0017071Y0003713D01*
X0016470Y0005165D01*
X0016470Y0013035D01*
X0017186Y0014762D01*
X0018508Y0016084D01*
X0020235Y0016800D01*
X0022105Y0016800D01*
X0023832Y0016084D01*
X0025155Y0014762D01*
X0025870Y0013035D01*
X0025870Y0005165D01*
X0025269Y0003713D01*
X0027071Y0003713D01*
X0026470Y0005165D01*
X0026470Y0013035D01*
X0027186Y0014762D01*
X0028508Y0016084D01*
X0030235Y0016800D01*
X0032105Y0016800D01*
X0033832Y0016084D01*
X0035155Y0014762D01*
X0035870Y0013035D01*
X0035870Y0005165D01*
X0035269Y0003713D01*
X0037071Y0003713D01*
X0036470Y0005165D01*
X0036470Y0013035D01*
X0037186Y0014762D01*
X0038508Y0016084D01*
X0040235Y0016800D01*
X0042105Y0016800D01*
X0043832Y0016084D01*
X0045155Y0014762D01*
X0045870Y0013035D01*
X0045870Y0005165D01*
X0045269Y0003713D01*
X0047071Y0003713D01*
X0046470Y0005165D01*
X0046470Y0013035D01*
X0047186Y0014762D01*
X0048508Y0016084D01*
X0050235Y0016800D01*
X0050558Y0016800D01*
X0057000Y0023242D01*
X0057000Y0054427D01*
X0056131Y0055296D01*
X0055616Y0056540D01*
X0055616Y0057887D01*
X0056131Y0059130D01*
X0057083Y0060082D01*
X0058327Y0060598D01*
X0059673Y0060598D01*
X0060917Y0060082D01*
X0061869Y0059130D01*
X0062366Y0057931D01*
X0062527Y0057998D01*
X0063873Y0057998D01*
X0065117Y0057482D01*
X0065986Y0056613D01*
X0066228Y0056613D01*
X0067400Y0055442D01*
X0067400Y0055442D01*
X0068028Y0054813D01*
X0068028Y0054813D01*
X0069200Y0053642D01*
X0069200Y0016371D01*
X0070235Y0016800D01*
X0072105Y0016800D01*
X0073832Y0016084D01*
X0075155Y0014762D01*
X0075870Y0013035D01*
X0075870Y0005165D01*
X0075508Y0004292D01*
X0075673Y0004346D01*
X0077141Y0005412D01*
X0078208Y0006880D01*
X0078769Y0008606D01*
X0078840Y0009513D01*
X0078840Y0151994D01*
X0078769Y0152901D01*
X0078208Y0154627D01*
X0077141Y0156095D01*
X0075673Y0157162D01*
X0075644Y0157171D01*
X0075852Y0156531D01*
X0075970Y0155785D01*
X0075970Y0152607D01*
X0071370Y0152607D01*
X0071370Y0152207D01*
X0071370Y0144607D01*
X0071548Y0144607D01*
X0072294Y0144725D01*
X0073013Y0144959D01*
X0073686Y0145302D01*
X0074297Y0145746D01*
X0074831Y0146280D01*
X0075275Y0146891D01*
X0075618Y0147565D01*
X0075852Y0148283D01*
X0075970Y0149029D01*
X0075970Y0152207D01*
X0071370Y0152207D01*
X0070970Y0152207D01*
X0070970Y0144607D01*
X0070792Y0144607D01*
X0070046Y0144725D01*
X0069328Y0144959D01*
X0068654Y0145302D01*
X0068043Y0145746D01*
X0067509Y0146280D01*
X0067065Y0146891D01*
X0066722Y0147565D01*
X0066488Y0148283D01*
X0066370Y0149029D01*
X0066370Y0152207D01*
X0070970Y0152207D01*
X0070970Y0152607D01*
X0066370Y0152607D01*
X0066370Y0155785D01*
X0066488Y0156531D01*
X0066722Y0157250D01*
X0066999Y0157794D01*
X0065269Y0157794D01*
X0065870Y0156342D01*
X0065870Y0148472D01*
X0065155Y0146745D01*
X0063832Y0145423D01*
X0062105Y0144707D01*
X0060235Y0144707D01*
X0058508Y0145423D01*
X0057186Y0146745D01*
X0056470Y0148472D01*
X0056470Y0156342D01*
X0057071Y0157794D01*
X0019100Y0157794D01*
X0019100Y0146061D01*
X0017100Y0144061D01*
X0015753Y0142713D01*
X0008847Y0142713D01*
X0005847Y0145713D01*
X0004500Y0147061D01*
X0004500Y0155133D01*
X0004132Y0154627D01*
X0003571Y0152901D01*
X0003500Y0151994D01*
X0003500Y0009513D01*
X0003571Y0008606D01*
X0004132Y0006880D01*
X0004184Y0006809D02*
X0006470Y0006809D01*
X0006470Y0008407D02*
X0003636Y0008407D01*
X0003500Y0010006D02*
X0006470Y0010006D01*
X0006470Y0011604D02*
X0003500Y0011604D01*
X0003500Y0013203D02*
X0006540Y0013203D01*
X0007225Y0014801D02*
X0003500Y0014801D01*
X0003500Y0016400D02*
X0009269Y0016400D01*
X0010327Y0019229D02*
X0011673Y0019229D01*
X0012917Y0019744D01*
X0013869Y0020696D01*
X0014384Y0021940D01*
X0014384Y0023169D01*
X0015000Y0023785D01*
X0015000Y0036642D01*
X0013000Y0038642D01*
X0013000Y0085114D01*
X0013443Y0084045D01*
X0015328Y0082160D01*
X0017790Y0081140D01*
X0020456Y0081140D01*
X0022918Y0082160D01*
X0024803Y0084045D01*
X0025823Y0086507D01*
X0025823Y0089173D01*
X0024803Y0091635D01*
X0022918Y0093520D01*
X0020456Y0094540D01*
X0017790Y0094540D01*
X0015328Y0093520D01*
X0013443Y0091635D01*
X0013000Y0090566D01*
X0013000Y0101704D01*
X0014828Y0099877D01*
X0017290Y0098857D01*
X0019956Y0098857D01*
X0022418Y0099877D01*
X0024303Y0101761D01*
X0025323Y0104224D01*
X0025323Y0106889D01*
X0024303Y0109352D01*
X0022418Y0111237D01*
X0019956Y0112257D01*
X0017290Y0112257D01*
X0015552Y0111537D01*
X0017028Y0113013D01*
X0027519Y0113013D01*
X0027257Y0112581D01*
X0026800Y0112125D01*
X0026800Y0111829D01*
X0026646Y0111576D01*
X0026800Y0110948D01*
X0026800Y0099919D01*
X0026796Y0099915D01*
X0026800Y0099009D01*
X0026800Y0098102D01*
X0026804Y0098098D01*
X0026804Y0098092D01*
X0027447Y0097455D01*
X0028089Y0096813D01*
X0028095Y0096813D01*
X0037591Y0087403D01*
X0036669Y0086480D01*
X0036669Y0080347D01*
X0037664Y0079351D01*
X0038732Y0079351D01*
X0038713Y0079304D01*
X0038713Y0078036D01*
X0039100Y0077102D01*
X0038367Y0076798D01*
X0035475Y0079690D01*
X0036131Y0080347D01*
X0036131Y0086480D01*
X0035136Y0087476D01*
X0030578Y0087476D01*
X0029582Y0086480D01*
X0029582Y0080419D01*
X0029542Y0080459D01*
X0027080Y0081479D01*
X0024414Y0081479D01*
X0021952Y0080459D01*
X0020067Y0078574D01*
X0019047Y0076112D01*
X0019047Y0073446D01*
X0020067Y0070984D01*
X0021952Y0069099D01*
X0024414Y0068079D01*
X0027080Y0068079D01*
X0029542Y0069099D01*
X0031427Y0070984D01*
X0032447Y0073446D01*
X0032447Y0076112D01*
X0031775Y0077733D01*
X0035539Y0073970D01*
X0034795Y0072175D01*
X0034795Y0069509D01*
X0035815Y0067047D01*
X0037700Y0065162D01*
X0040162Y0064142D01*
X0042828Y0064142D01*
X0045290Y0065162D01*
X0047175Y0067047D01*
X0048195Y0069509D01*
X0048195Y0072175D01*
X0047175Y0074637D01*
X0045290Y0076522D01*
X0044561Y0076824D01*
X0044602Y0076865D01*
X0045087Y0078036D01*
X0045087Y0079304D01*
X0044616Y0080441D01*
X0049023Y0076075D01*
X0049718Y0071054D01*
X0049638Y0070914D01*
X0049840Y0070171D01*
X0049946Y0069409D01*
X0050075Y0069311D01*
X0050117Y0069155D01*
X0050785Y0068774D01*
X0051399Y0068309D01*
X0051559Y0068331D01*
X0053313Y0067329D01*
X0053587Y0066964D01*
X0054073Y0066895D01*
X0054500Y0066651D01*
X0054940Y0066771D01*
X0058644Y0066242D01*
X0059495Y0066084D01*
X0059539Y0066114D01*
X0059591Y0066107D01*
X0060284Y0066626D01*
X0063371Y0068749D01*
X0064083Y0069155D01*
X0064110Y0069257D01*
X0064197Y0069317D01*
X0064347Y0070123D01*
X0065474Y0074258D01*
X0065779Y0074919D01*
X0065708Y0075114D01*
X0065762Y0075314D01*
X0065401Y0075946D01*
X0064136Y0079379D01*
X0064020Y0080074D01*
X0063830Y0080210D01*
X0063749Y0080429D01*
X0063110Y0080724D01*
X0062527Y0081140D01*
X0063950Y0081140D01*
X0066412Y0082160D01*
X0068297Y0084045D01*
X0069317Y0086507D01*
X0069317Y0089173D01*
X0068297Y0091635D01*
X0066412Y0093520D01*
X0063950Y0094540D01*
X0061284Y0094540D01*
X0058822Y0093520D01*
X0056937Y0091635D01*
X0055917Y0089173D01*
X0055917Y0086507D01*
X0056937Y0084045D01*
X0058118Y0082863D01*
X0057939Y0082834D01*
X0057934Y0082826D01*
X0055345Y0082376D01*
X0043651Y0094014D01*
X0044264Y0094014D01*
X0047200Y0094801D01*
X0049832Y0096320D01*
X0051981Y0098469D01*
X0053501Y0101101D01*
X0054287Y0104037D01*
X0054287Y0107076D01*
X0053501Y0110012D01*
X0052692Y0111413D01*
X0059748Y0111413D01*
X0059322Y0111237D01*
X0057437Y0109352D01*
X0056417Y0106889D01*
X0056417Y0104224D01*
X0057437Y0101761D01*
X0059322Y0099877D01*
X0061784Y0098857D01*
X0064450Y0098857D01*
X0066912Y0099877D01*
X0068797Y0101761D01*
X0069817Y0104224D01*
X0069817Y0106889D01*
X0068797Y0109352D01*
X0066912Y0111237D01*
X0066485Y0111413D01*
X0067372Y0111413D01*
X0070800Y0107985D01*
X0070800Y0068999D01*
X0069931Y0068130D01*
X0069416Y0066887D01*
X0069416Y0065540D01*
X0069931Y0064296D01*
X0070883Y0063344D01*
X0072127Y0062829D01*
X0073473Y0062829D01*
X0074400Y0063213D01*
X0074400Y0044242D01*
X0073756Y0043598D01*
X0072527Y0043598D01*
X0071283Y0043082D01*
X0070331Y0042130D01*
X0069816Y0040887D01*
X0069816Y0039540D01*
X0070331Y0038296D01*
X0071283Y0037344D01*
X0072527Y0036829D01*
X0073873Y0036829D01*
X0075117Y0037344D01*
X0076069Y0038296D01*
X0076584Y0039540D01*
X0076584Y0040769D01*
X0077228Y0041413D01*
X0078400Y0042585D01*
X0078400Y0068842D01*
X0077228Y0070013D01*
X0076800Y0070442D01*
X0076800Y0110242D01*
X0071400Y0115642D01*
X0070228Y0116813D01*
X0064529Y0116813D01*
X0066412Y0117593D01*
X0068297Y0119478D01*
X0069317Y0121941D01*
X0069317Y0124606D01*
X0068297Y0127068D01*
X0066412Y0128953D01*
X0063950Y0129973D01*
X0061284Y0129973D01*
X0058822Y0128953D01*
X0056937Y0127068D01*
X0055917Y0124606D01*
X0055917Y0121941D01*
X0056937Y0119478D01*
X0058822Y0117593D01*
X0060704Y0116813D01*
X0058428Y0116813D01*
X0052600Y0122642D01*
X0052600Y0131502D01*
X0053448Y0130654D01*
X0055910Y0129634D01*
X0058576Y0129634D01*
X0061038Y0130654D01*
X0062923Y0132539D01*
X0063943Y0135002D01*
X0063943Y0137667D01*
X0062923Y0140129D01*
X0061038Y0142014D01*
X0058576Y0143034D01*
X0055910Y0143034D01*
X0053448Y0142014D01*
X0052600Y0141167D01*
X0052600Y0141427D01*
X0053469Y0142296D01*
X0053984Y0143540D01*
X0053984Y0144887D01*
X0053469Y0146130D01*
X0052517Y0147082D01*
X0051273Y0147598D01*
X0049927Y0147598D01*
X0048683Y0147082D01*
X0047731Y0146130D01*
X0047216Y0144887D01*
X0047216Y0143968D01*
X0047175Y0144066D01*
X0045290Y0145951D01*
X0042828Y0146971D01*
X0040162Y0146971D01*
X0037700Y0145951D01*
X0036975Y0145226D01*
X0036400Y0146643D01*
X0036400Y0147125D01*
X0036071Y0147454D01*
X0035896Y0147885D01*
X0035452Y0148073D01*
X0035111Y0148413D01*
X0034646Y0148413D01*
X0034217Y0148595D01*
X0033771Y0148413D01*
X0031133Y0148413D01*
X0030991Y0148520D01*
X0030244Y0148413D01*
X0029489Y0148413D01*
X0029363Y0148288D01*
X0029187Y0148262D01*
X0028734Y0147658D01*
X0028200Y0147125D01*
X0028200Y0146947D01*
X0027893Y0146538D01*
X0027743Y0146497D01*
X0027358Y0145824D01*
X0026893Y0145204D01*
X0026915Y0145050D01*
X0026838Y0144915D01*
X0027041Y0144167D01*
X0027151Y0143400D01*
X0027276Y0143307D01*
X0027384Y0142908D01*
X0027080Y0143034D01*
X0024414Y0143034D01*
X0021952Y0142014D01*
X0020067Y0140129D01*
X0019047Y0137667D01*
X0019047Y0135002D01*
X0020067Y0132539D01*
X0021952Y0130654D01*
X0024414Y0129634D01*
X0027080Y0129634D01*
X0029542Y0130654D01*
X0030466Y0131578D01*
X0030740Y0130573D01*
X0030918Y0129282D01*
X0030917Y0129282D01*
X0029673Y0129798D01*
X0028327Y0129798D01*
X0027083Y0129282D01*
X0026131Y0128330D01*
X0025616Y0127087D01*
X0025616Y0125740D01*
X0026131Y0124496D01*
X0027000Y0123627D01*
X0027000Y0120642D01*
X0024772Y0118413D01*
X0023738Y0118413D01*
X0024803Y0119478D01*
X0025823Y0121941D01*
X0025823Y0124606D01*
X0024803Y0127068D01*
X0022918Y0128953D01*
X0020456Y0129973D01*
X0017790Y0129973D01*
X0015328Y0128953D01*
X0013443Y0127068D01*
X0012423Y0124606D01*
X0012423Y0121941D01*
X0013443Y0119478D01*
X0014540Y0118381D01*
X0013400Y0117242D01*
X0007600Y0111442D01*
X0007600Y0036799D01*
X0006731Y0035930D01*
X0006216Y0034687D01*
X0006216Y0033340D01*
X0006731Y0032096D01*
X0007683Y0031144D01*
X0008927Y0030629D01*
X0010273Y0030629D01*
X0011000Y0030930D01*
X0011000Y0025998D01*
X0010327Y0025998D01*
X0009083Y0025482D01*
X0008131Y0024530D01*
X0007616Y0023287D01*
X0007616Y0021940D01*
X0008131Y0020696D01*
X0009083Y0019744D01*
X0010327Y0019229D01*
X0009439Y0019597D02*
X0003500Y0019597D01*
X0003500Y0017998D02*
X0013157Y0017998D01*
X0012561Y0019597D02*
X0014755Y0019597D01*
X0014076Y0021196D02*
X0016354Y0021196D01*
X0016600Y0022794D02*
X0014384Y0022794D01*
X0015000Y0024393D02*
X0016600Y0024393D01*
X0016600Y0025991D02*
X0015000Y0025991D01*
X0015000Y0027590D02*
X0016600Y0027590D01*
X0016600Y0029188D02*
X0015000Y0029188D01*
X0015000Y0030787D02*
X0016600Y0030787D01*
X0016600Y0032385D02*
X0015000Y0032385D01*
X0015000Y0033984D02*
X0016600Y0033984D01*
X0016600Y0035582D02*
X0015000Y0035582D01*
X0014461Y0037181D02*
X0015572Y0037181D01*
X0015216Y0038779D02*
X0013000Y0038779D01*
X0013000Y0040378D02*
X0015626Y0040378D01*
X0015746Y0042128D02*
X0014539Y0042628D01*
X0013614Y0043552D01*
X0013114Y0044760D01*
X0013114Y0046067D01*
X0013614Y0047275D01*
X0014539Y0048199D01*
X0015370Y0048543D01*
X0015114Y0049160D01*
X0015114Y0050467D01*
X0015614Y0051675D01*
X0016539Y0052599D01*
X0017746Y0053099D01*
X0019054Y0053099D01*
X0020261Y0052599D01*
X0021186Y0051675D01*
X0021340Y0051302D01*
X0026828Y0045813D01*
X0028000Y0044642D01*
X0028000Y0036813D01*
X0032482Y0036813D01*
X0032482Y0038833D01*
X0032471Y0038860D01*
X0032471Y0040167D01*
X0032482Y0040194D01*
X0032482Y0041951D01*
X0030978Y0041951D01*
X0029982Y0042947D01*
X0029982Y0045333D01*
X0029971Y0045360D01*
X0029971Y0046667D01*
X0029982Y0046694D01*
X0029982Y0049041D01*
X0029882Y0049414D01*
X0029882Y0052013D01*
X0033257Y0052013D01*
X0033257Y0052013D01*
X0036631Y0052013D01*
X0036631Y0049414D01*
X0036531Y0049041D01*
X0036531Y0046694D01*
X0036543Y0046667D01*
X0036543Y0045360D01*
X0036531Y0045333D01*
X0036531Y0043576D01*
X0036969Y0043576D01*
X0036969Y0046013D01*
X0040343Y0046013D01*
X0040343Y0046013D01*
X0036968Y0046013D01*
X0036969Y0048613D01*
X0037069Y0048986D01*
X0037069Y0051333D01*
X0037057Y0051360D01*
X0037057Y0052667D01*
X0037069Y0052694D01*
X0037069Y0061080D01*
X0038064Y0062076D01*
X0042622Y0062076D01*
X0043618Y0061080D01*
X0043618Y0060013D01*
X0045828Y0060013D01*
X0047428Y0058413D01*
X0048600Y0057242D01*
X0048600Y0055399D01*
X0049469Y0054530D01*
X0049984Y0053287D01*
X0049984Y0051940D01*
X0049566Y0050931D01*
X0050800Y0050931D01*
X0050800Y0047557D01*
X0050800Y0047557D01*
X0050800Y0050931D01*
X0053399Y0050931D01*
X0053857Y0050809D01*
X0054267Y0050572D01*
X0054603Y0050237D01*
X0054840Y0049826D01*
X0054962Y0049368D01*
X0054962Y0047557D01*
X0050800Y0047557D01*
X0050800Y0047557D01*
X0050800Y0047557D01*
X0046638Y0047557D01*
X0046638Y0049229D01*
X0045927Y0049229D01*
X0044683Y0049744D01*
X0043731Y0050696D01*
X0043618Y0050969D01*
X0043618Y0048986D01*
X0043718Y0048613D01*
X0043718Y0046013D01*
X0040343Y0046013D01*
X0040343Y0046013D01*
X0043718Y0046013D01*
X0043718Y0043676D01*
X0044655Y0043676D01*
X0045113Y0043553D01*
X0045523Y0043316D01*
X0045858Y0042981D01*
X0046095Y0042570D01*
X0046218Y0042113D01*
X0046218Y0039513D01*
X0042843Y0039513D01*
X0039469Y0039513D01*
X0039469Y0036914D01*
X0039496Y0036813D01*
X0039031Y0036813D01*
X0039031Y0038833D01*
X0039043Y0038860D01*
X0039043Y0040167D01*
X0039031Y0040194D01*
X0039031Y0041851D01*
X0039469Y0041851D01*
X0039468Y0039513D01*
X0042843Y0039513D01*
X0042843Y0039513D01*
X0042843Y0039513D01*
X0046218Y0039513D01*
X0046218Y0036914D01*
X0046095Y0036456D01*
X0045858Y0036046D01*
X0045777Y0035965D01*
X0047843Y0033899D01*
X0048454Y0033899D01*
X0049661Y0033399D01*
X0050586Y0032475D01*
X0051086Y0031267D01*
X0051086Y0029960D01*
X0050586Y0028752D01*
X0049661Y0027828D01*
X0048454Y0027328D01*
X0047146Y0027328D01*
X0045939Y0027828D01*
X0045100Y0028667D01*
X0044661Y0028228D01*
X0043454Y0027728D01*
X0042146Y0027728D01*
X0040939Y0028228D01*
X0040718Y0028448D01*
X0040718Y0026914D01*
X0040595Y0026456D01*
X0040358Y0026046D01*
X0040023Y0025711D01*
X0039613Y0025474D01*
X0039155Y0025351D01*
X0037343Y0025351D01*
X0035532Y0025351D01*
X0035074Y0025474D01*
X0034663Y0025711D01*
X0034328Y0026046D01*
X0034091Y0026456D01*
X0033969Y0026914D01*
X0033969Y0029513D01*
X0037343Y0029513D01*
X0037343Y0029513D01*
X0037343Y0025351D01*
X0037343Y0029513D01*
X0037343Y0029513D01*
X0033968Y0029513D01*
X0033969Y0031413D01*
X0033531Y0031413D01*
X0033531Y0026447D01*
X0032536Y0025451D01*
X0027978Y0025451D01*
X0026982Y0026447D01*
X0026982Y0031413D01*
X0024172Y0031413D01*
X0023000Y0032585D01*
X0022200Y0033385D01*
X0022200Y0041785D01*
X0020572Y0043413D01*
X0019047Y0043413D01*
X0018261Y0042628D01*
X0017054Y0042128D01*
X0015746Y0042128D01*
X0017634Y0041976D02*
X0013000Y0041976D01*
X0013000Y0043575D02*
X0013605Y0043575D01*
X0013114Y0045173D02*
X0013000Y0045173D01*
X0013000Y0046772D02*
X0013406Y0046772D01*
X0013000Y0048370D02*
X0014952Y0048370D01*
X0015114Y0049969D02*
X0013000Y0049969D01*
X0013000Y0051567D02*
X0015570Y0051567D01*
X0013000Y0053166D02*
X0029882Y0053166D01*
X0029882Y0052013D02*
X0033257Y0052013D01*
X0036631Y0052013D01*
X0036631Y0054613D01*
X0036531Y0054986D01*
X0036531Y0061080D01*
X0035536Y0062076D01*
X0034966Y0062076D01*
X0034085Y0062957D01*
X0033584Y0063458D01*
X0033584Y0064687D01*
X0033069Y0065930D01*
X0032117Y0066882D01*
X0030873Y0067398D01*
X0029527Y0067398D01*
X0028283Y0066882D01*
X0027331Y0065930D01*
X0026816Y0064687D01*
X0026816Y0063340D01*
X0027331Y0062096D01*
X0028283Y0061144D01*
X0029527Y0060629D01*
X0029982Y0060629D01*
X0029982Y0054986D01*
X0029882Y0054613D01*
X0029882Y0052013D01*
X0029882Y0051567D02*
X0021230Y0051567D01*
X0022673Y0049969D02*
X0029882Y0049969D01*
X0029982Y0048370D02*
X0024272Y0048370D01*
X0025870Y0046772D02*
X0029982Y0046772D01*
X0029982Y0045173D02*
X0027469Y0045173D01*
X0028000Y0043575D02*
X0029982Y0043575D01*
X0030953Y0041976D02*
X0028000Y0041976D01*
X0028000Y0040378D02*
X0032482Y0040378D01*
X0032482Y0038779D02*
X0028000Y0038779D01*
X0028000Y0037181D02*
X0032482Y0037181D01*
X0033531Y0030787D02*
X0033969Y0030787D01*
X0033969Y0029188D02*
X0033531Y0029188D01*
X0033531Y0027590D02*
X0033969Y0027590D01*
X0034383Y0025991D02*
X0033076Y0025991D01*
X0037343Y0025991D02*
X0037343Y0025991D01*
X0037343Y0027590D02*
X0037343Y0027590D01*
X0037343Y0029188D02*
X0037343Y0029188D01*
X0040304Y0025991D02*
X0057000Y0025991D01*
X0057000Y0024393D02*
X0020600Y0024393D01*
X0020600Y0025991D02*
X0027438Y0025991D01*
X0026982Y0027590D02*
X0020600Y0027590D01*
X0020600Y0029188D02*
X0026982Y0029188D01*
X0026982Y0030787D02*
X0020600Y0030787D01*
X0020600Y0032385D02*
X0023200Y0032385D01*
X0022200Y0033984D02*
X0020600Y0033984D01*
X0020600Y0035582D02*
X0022200Y0035582D01*
X0022200Y0037181D02*
X0021628Y0037181D01*
X0021984Y0038779D02*
X0022200Y0038779D01*
X0022200Y0040378D02*
X0021574Y0040378D01*
X0022009Y0041976D02*
X0019566Y0041976D01*
X0013000Y0054764D02*
X0029923Y0054764D01*
X0029982Y0056363D02*
X0013000Y0056363D01*
X0013000Y0057961D02*
X0029982Y0057961D01*
X0029982Y0059560D02*
X0013000Y0059560D01*
X0013000Y0061158D02*
X0028269Y0061158D01*
X0027057Y0062757D02*
X0013000Y0062757D01*
X0013000Y0064355D02*
X0026816Y0064355D01*
X0027354Y0065954D02*
X0013000Y0065954D01*
X0013000Y0067552D02*
X0035606Y0067552D01*
X0034943Y0069151D02*
X0029594Y0069151D01*
X0031192Y0070749D02*
X0034795Y0070749D01*
X0034867Y0072348D02*
X0031992Y0072348D01*
X0032447Y0073946D02*
X0035529Y0073946D01*
X0033964Y0075545D02*
X0032447Y0075545D01*
X0032365Y0077143D02*
X0032020Y0077143D01*
X0029582Y0081939D02*
X0022384Y0081939D01*
X0021833Y0080340D02*
X0013000Y0080340D01*
X0013000Y0078742D02*
X0020234Y0078742D01*
X0019474Y0077143D02*
X0013000Y0077143D01*
X0013000Y0075545D02*
X0019047Y0075545D01*
X0019047Y0073946D02*
X0013000Y0073946D01*
X0013000Y0072348D02*
X0019502Y0072348D01*
X0020301Y0070749D02*
X0013000Y0070749D01*
X0013000Y0069151D02*
X0021900Y0069151D01*
X0015862Y0081939D02*
X0013000Y0081939D01*
X0013000Y0083537D02*
X0013950Y0083537D01*
X0013399Y0091530D02*
X0013000Y0091530D01*
X0013000Y0093129D02*
X0014936Y0093129D01*
X0013000Y0094727D02*
X0030200Y0094727D01*
X0031813Y0093129D02*
X0023310Y0093129D01*
X0024846Y0091530D02*
X0033426Y0091530D01*
X0035039Y0089932D02*
X0025509Y0089932D01*
X0025823Y0088333D02*
X0036652Y0088333D01*
X0036923Y0086734D02*
X0035877Y0086734D01*
X0036131Y0085136D02*
X0036669Y0085136D01*
X0036669Y0083537D02*
X0036131Y0083537D01*
X0036131Y0081939D02*
X0036669Y0081939D01*
X0036675Y0080340D02*
X0036125Y0080340D01*
X0036423Y0078742D02*
X0038713Y0078742D01*
X0039082Y0077143D02*
X0038022Y0077143D01*
X0036908Y0065954D02*
X0033046Y0065954D01*
X0033584Y0064355D02*
X0039647Y0064355D01*
X0037147Y0061158D02*
X0036453Y0061158D01*
X0036531Y0059560D02*
X0037069Y0059560D01*
X0037069Y0057961D02*
X0036531Y0057961D01*
X0036531Y0056363D02*
X0037069Y0056363D01*
X0037069Y0054764D02*
X0036591Y0054764D01*
X0036631Y0053166D02*
X0037069Y0053166D01*
X0037057Y0051567D02*
X0036631Y0051567D01*
X0036631Y0049969D02*
X0037069Y0049969D01*
X0036969Y0048370D02*
X0036531Y0048370D01*
X0036531Y0046772D02*
X0036969Y0046772D01*
X0036969Y0045173D02*
X0036531Y0045173D01*
X0039031Y0040378D02*
X0039469Y0040378D01*
X0039469Y0038779D02*
X0039031Y0038779D01*
X0039031Y0037181D02*
X0039469Y0037181D01*
X0043718Y0045173D02*
X0046826Y0045173D01*
X0046760Y0045287D02*
X0046997Y0044877D01*
X0047333Y0044542D01*
X0047743Y0044305D01*
X0048201Y0044182D01*
X0050800Y0044182D01*
X0053399Y0044182D01*
X0053857Y0044305D01*
X0054267Y0044542D01*
X0054603Y0044877D01*
X0054840Y0045287D01*
X0054962Y0045745D01*
X0054962Y0047557D01*
X0050800Y0047557D01*
X0046638Y0047557D01*
X0046638Y0045745D01*
X0046760Y0045287D01*
X0046638Y0046772D02*
X0043718Y0046772D01*
X0043718Y0048370D02*
X0046638Y0048370D01*
X0047734Y0043745D02*
X0046738Y0042749D01*
X0046738Y0038191D01*
X0047734Y0037195D01*
X0050120Y0037195D01*
X0050146Y0037184D01*
X0051454Y0037184D01*
X0051480Y0037195D01*
X0053866Y0037195D01*
X0054862Y0038191D01*
X0054862Y0042749D01*
X0053866Y0043745D01*
X0051480Y0043745D01*
X0051454Y0043756D01*
X0050146Y0043756D01*
X0050120Y0043745D01*
X0047734Y0043745D01*
X0047563Y0043575D02*
X0045032Y0043575D01*
X0046218Y0041976D02*
X0046738Y0041976D01*
X0046738Y0040378D02*
X0046218Y0040378D01*
X0046218Y0038779D02*
X0046738Y0038779D01*
X0046218Y0037181D02*
X0057000Y0037181D01*
X0057000Y0038779D02*
X0054862Y0038779D01*
X0054862Y0040378D02*
X0057000Y0040378D01*
X0057000Y0041976D02*
X0054862Y0041976D01*
X0054037Y0043575D02*
X0057000Y0043575D01*
X0057000Y0045173D02*
X0054774Y0045173D01*
X0054962Y0046772D02*
X0057000Y0046772D01*
X0057000Y0048370D02*
X0054962Y0048370D01*
X0054757Y0049969D02*
X0057000Y0049969D01*
X0057000Y0051567D02*
X0049830Y0051567D01*
X0049984Y0053166D02*
X0057000Y0053166D01*
X0056663Y0054764D02*
X0049235Y0054764D01*
X0048600Y0056363D02*
X0055689Y0056363D01*
X0055647Y0057961D02*
X0047881Y0057961D01*
X0046282Y0059560D02*
X0056560Y0059560D01*
X0052923Y0067552D02*
X0047384Y0067552D01*
X0048046Y0069151D02*
X0050125Y0069151D01*
X0049683Y0070749D02*
X0048195Y0070749D01*
X0048123Y0072348D02*
X0049539Y0072348D01*
X0049318Y0073946D02*
X0047461Y0073946D01*
X0046267Y0075545D02*
X0049096Y0075545D01*
X0047944Y0077143D02*
X0044718Y0077143D01*
X0045087Y0078742D02*
X0046331Y0078742D01*
X0044718Y0080340D02*
X0044658Y0080340D01*
X0049360Y0088333D02*
X0055917Y0088333D01*
X0055917Y0086734D02*
X0050966Y0086734D01*
X0052572Y0085136D02*
X0056485Y0085136D01*
X0057444Y0083537D02*
X0054178Y0083537D01*
X0056231Y0089932D02*
X0047753Y0089932D01*
X0046147Y0091530D02*
X0056893Y0091530D01*
X0058430Y0093129D02*
X0044541Y0093129D01*
X0046925Y0094727D02*
X0070800Y0094727D01*
X0070800Y0093129D02*
X0066804Y0093129D01*
X0068341Y0091530D02*
X0070800Y0091530D01*
X0070800Y0089932D02*
X0069003Y0089932D01*
X0069317Y0088333D02*
X0070800Y0088333D01*
X0070800Y0086734D02*
X0069317Y0086734D01*
X0068749Y0085136D02*
X0070800Y0085136D01*
X0070800Y0083537D02*
X0067789Y0083537D01*
X0065878Y0081939D02*
X0070800Y0081939D01*
X0070800Y0080340D02*
X0063782Y0080340D01*
X0064371Y0078742D02*
X0070800Y0078742D01*
X0070800Y0077143D02*
X0064960Y0077143D01*
X0065630Y0075545D02*
X0070800Y0075545D01*
X0070800Y0073946D02*
X0065389Y0073946D01*
X0064953Y0072348D02*
X0070800Y0072348D01*
X0070800Y0070749D02*
X0064517Y0070749D01*
X0064075Y0069151D02*
X0070800Y0069151D01*
X0069692Y0067552D02*
X0061631Y0067552D01*
X0061440Y0059560D02*
X0074400Y0059560D01*
X0074400Y0061158D02*
X0043540Y0061158D01*
X0043342Y0064355D02*
X0069907Y0064355D01*
X0069416Y0065954D02*
X0046082Y0065954D01*
X0044459Y0049969D02*
X0043618Y0049969D01*
X0046160Y0035582D02*
X0057000Y0035582D01*
X0057000Y0033984D02*
X0047758Y0033984D01*
X0050623Y0032385D02*
X0057000Y0032385D01*
X0057000Y0030787D02*
X0051086Y0030787D01*
X0050766Y0029188D02*
X0057000Y0029188D01*
X0057000Y0027590D02*
X0049086Y0027590D01*
X0046514Y0027590D02*
X0040718Y0027590D01*
X0039269Y0016400D02*
X0033071Y0016400D01*
X0035115Y0014801D02*
X0037225Y0014801D01*
X0036540Y0013203D02*
X0035800Y0013203D01*
X0035870Y0011604D02*
X0036470Y0011604D01*
X0036470Y0010006D02*
X0035870Y0010006D01*
X0035870Y0008407D02*
X0036470Y0008407D01*
X0036470Y0006809D02*
X0035870Y0006809D01*
X0035870Y0005210D02*
X0036470Y0005210D01*
X0043071Y0016400D02*
X0049269Y0016400D01*
X0047225Y0014801D02*
X0045115Y0014801D01*
X0045800Y0013203D02*
X0046540Y0013203D01*
X0046470Y0011604D02*
X0045870Y0011604D01*
X0045870Y0010006D02*
X0046470Y0010006D01*
X0046470Y0008407D02*
X0045870Y0008407D01*
X0045870Y0006809D02*
X0046470Y0006809D01*
X0046470Y0005210D02*
X0045870Y0005210D01*
X0051757Y0017998D02*
X0018814Y0017998D01*
X0019269Y0016400D02*
X0017215Y0016400D01*
X0017225Y0014801D02*
X0015616Y0014801D01*
X0015800Y0013203D02*
X0016540Y0013203D01*
X0016470Y0011604D02*
X0015870Y0011604D01*
X0015870Y0010006D02*
X0016470Y0010006D01*
X0016470Y0008407D02*
X0015870Y0008407D01*
X0015870Y0006809D02*
X0016470Y0006809D01*
X0016470Y0005210D02*
X0015870Y0005210D01*
X0023071Y0016400D02*
X0029269Y0016400D01*
X0027225Y0014801D02*
X0025115Y0014801D01*
X0025800Y0013203D02*
X0026540Y0013203D01*
X0026470Y0011604D02*
X0025870Y0011604D01*
X0025870Y0010006D02*
X0026470Y0010006D01*
X0026470Y0008407D02*
X0025870Y0008407D01*
X0025870Y0006809D02*
X0026470Y0006809D01*
X0026470Y0005210D02*
X0025870Y0005210D01*
X0020412Y0019597D02*
X0053355Y0019597D01*
X0054954Y0021196D02*
X0020600Y0021196D01*
X0020600Y0022794D02*
X0056552Y0022794D01*
X0050800Y0044182D02*
X0050800Y0047557D01*
X0050800Y0047557D01*
X0050800Y0044182D01*
X0050800Y0045173D02*
X0050800Y0045173D01*
X0050800Y0046772D02*
X0050800Y0046772D01*
X0050800Y0048370D02*
X0050800Y0048370D01*
X0050800Y0049969D02*
X0050800Y0049969D01*
X0062353Y0057961D02*
X0062439Y0057961D01*
X0063961Y0057961D02*
X0074400Y0057961D01*
X0074400Y0056363D02*
X0066479Y0056363D01*
X0068078Y0054764D02*
X0074400Y0054764D01*
X0074400Y0053166D02*
X0069200Y0053166D01*
X0069200Y0051567D02*
X0074400Y0051567D01*
X0074400Y0049969D02*
X0069200Y0049969D01*
X0069200Y0048370D02*
X0074400Y0048370D01*
X0074400Y0046772D02*
X0069200Y0046772D01*
X0069200Y0045173D02*
X0074400Y0045173D01*
X0072471Y0043575D02*
X0069200Y0043575D01*
X0069200Y0041976D02*
X0070267Y0041976D01*
X0069816Y0040378D02*
X0069200Y0040378D01*
X0069200Y0038779D02*
X0070131Y0038779D01*
X0069200Y0037181D02*
X0071678Y0037181D01*
X0069200Y0035582D02*
X0078840Y0035582D01*
X0078840Y0033984D02*
X0069200Y0033984D01*
X0069200Y0032385D02*
X0078840Y0032385D01*
X0078840Y0030787D02*
X0069200Y0030787D01*
X0069200Y0029188D02*
X0078840Y0029188D01*
X0078840Y0027590D02*
X0069200Y0027590D01*
X0069200Y0025991D02*
X0078840Y0025991D01*
X0078840Y0024393D02*
X0069200Y0024393D01*
X0069200Y0022794D02*
X0078840Y0022794D01*
X0078840Y0021196D02*
X0069200Y0021196D01*
X0069200Y0019597D02*
X0078840Y0019597D01*
X0078840Y0017998D02*
X0069200Y0017998D01*
X0069200Y0016400D02*
X0069270Y0016400D01*
X0073071Y0016400D02*
X0078840Y0016400D01*
X0078840Y0014801D02*
X0075115Y0014801D01*
X0075800Y0013203D02*
X0078840Y0013203D01*
X0078840Y0011604D02*
X0075870Y0011604D01*
X0075870Y0010006D02*
X0078840Y0010006D01*
X0078704Y0008407D02*
X0075870Y0008407D01*
X0075870Y0006809D02*
X0078156Y0006809D01*
X0076864Y0005210D02*
X0075870Y0005210D01*
X0074722Y0037181D02*
X0078840Y0037181D01*
X0078840Y0038779D02*
X0076269Y0038779D01*
X0076584Y0040378D02*
X0078840Y0040378D01*
X0078840Y0041976D02*
X0077791Y0041976D01*
X0078400Y0043575D02*
X0078840Y0043575D01*
X0078840Y0045173D02*
X0078400Y0045173D01*
X0078400Y0046772D02*
X0078840Y0046772D01*
X0078840Y0048370D02*
X0078400Y0048370D01*
X0078400Y0049969D02*
X0078840Y0049969D01*
X0078840Y0051567D02*
X0078400Y0051567D01*
X0078400Y0053166D02*
X0078840Y0053166D01*
X0078840Y0054764D02*
X0078400Y0054764D01*
X0078400Y0056363D02*
X0078840Y0056363D01*
X0078840Y0057961D02*
X0078400Y0057961D01*
X0078400Y0059560D02*
X0078840Y0059560D01*
X0078840Y0061158D02*
X0078400Y0061158D01*
X0078400Y0062757D02*
X0078840Y0062757D01*
X0078840Y0064355D02*
X0078400Y0064355D01*
X0078400Y0065954D02*
X0078840Y0065954D01*
X0078840Y0067552D02*
X0078400Y0067552D01*
X0078091Y0069151D02*
X0078840Y0069151D01*
X0078840Y0070749D02*
X0076800Y0070749D01*
X0077228Y0070013D02*
X0077228Y0070013D01*
X0076800Y0072348D02*
X0078840Y0072348D01*
X0078840Y0073946D02*
X0076800Y0073946D01*
X0076800Y0075545D02*
X0078840Y0075545D01*
X0078840Y0077143D02*
X0076800Y0077143D01*
X0076800Y0078742D02*
X0078840Y0078742D01*
X0078840Y0080340D02*
X0076800Y0080340D01*
X0076800Y0081939D02*
X0078840Y0081939D01*
X0078840Y0083537D02*
X0076800Y0083537D01*
X0076800Y0085136D02*
X0078840Y0085136D01*
X0078840Y0086734D02*
X0076800Y0086734D01*
X0076800Y0088333D02*
X0078840Y0088333D01*
X0078840Y0089932D02*
X0076800Y0089932D01*
X0076800Y0091530D02*
X0078840Y0091530D01*
X0078840Y0093129D02*
X0076800Y0093129D01*
X0076800Y0094727D02*
X0078840Y0094727D01*
X0078840Y0096326D02*
X0076800Y0096326D01*
X0076800Y0097924D02*
X0078840Y0097924D01*
X0078840Y0099523D02*
X0076800Y0099523D01*
X0076800Y0101121D02*
X0078840Y0101121D01*
X0078840Y0102720D02*
X0076800Y0102720D01*
X0076800Y0104318D02*
X0078840Y0104318D01*
X0078840Y0105917D02*
X0076800Y0105917D01*
X0076800Y0107515D02*
X0078840Y0107515D01*
X0078840Y0109114D02*
X0076800Y0109114D01*
X0076330Y0110712D02*
X0078840Y0110712D01*
X0078840Y0112311D02*
X0074731Y0112311D01*
X0073133Y0113909D02*
X0078840Y0113909D01*
X0078840Y0115508D02*
X0071534Y0115508D01*
X0068639Y0120303D02*
X0078840Y0120303D01*
X0078840Y0118705D02*
X0067524Y0118705D01*
X0069301Y0121902D02*
X0078840Y0121902D01*
X0078840Y0123500D02*
X0069317Y0123500D01*
X0069113Y0125099D02*
X0078840Y0125099D01*
X0078840Y0126697D02*
X0068451Y0126697D01*
X0067070Y0128296D02*
X0078840Y0128296D01*
X0078840Y0129894D02*
X0064140Y0129894D01*
X0061877Y0131493D02*
X0078840Y0131493D01*
X0078840Y0133091D02*
X0063152Y0133091D01*
X0063814Y0134690D02*
X0078840Y0134690D01*
X0078840Y0136288D02*
X0063943Y0136288D01*
X0063852Y0137887D02*
X0078840Y0137887D01*
X0078840Y0139485D02*
X0063190Y0139485D01*
X0061969Y0141084D02*
X0078840Y0141084D01*
X0078840Y0142682D02*
X0059425Y0142682D01*
X0058051Y0145879D02*
X0053573Y0145879D01*
X0053984Y0144281D02*
X0078840Y0144281D01*
X0078840Y0145879D02*
X0074431Y0145879D01*
X0075574Y0147478D02*
X0078840Y0147478D01*
X0078840Y0149076D02*
X0075970Y0149076D01*
X0075970Y0150675D02*
X0078840Y0150675D01*
X0078818Y0152273D02*
X0071370Y0152273D01*
X0070970Y0152273D02*
X0065870Y0152273D01*
X0065870Y0150675D02*
X0066370Y0150675D01*
X0066370Y0149076D02*
X0065870Y0149076D01*
X0065458Y0147478D02*
X0066766Y0147478D01*
X0067910Y0145879D02*
X0064289Y0145879D01*
X0065870Y0153872D02*
X0066370Y0153872D01*
X0066370Y0155470D02*
X0065870Y0155470D01*
X0065569Y0157069D02*
X0066663Y0157069D01*
X0070970Y0150675D02*
X0071370Y0150675D01*
X0071370Y0149076D02*
X0070970Y0149076D01*
X0070970Y0147478D02*
X0071370Y0147478D01*
X0071370Y0145879D02*
X0070970Y0145879D01*
X0075970Y0153872D02*
X0078453Y0153872D01*
X0077595Y0155470D02*
X0075970Y0155470D01*
X0075801Y0157069D02*
X0075677Y0157069D01*
X0061094Y0129894D02*
X0059203Y0129894D01*
X0058164Y0128296D02*
X0052600Y0128296D01*
X0052600Y0129894D02*
X0055282Y0129894D01*
X0056783Y0126697D02*
X0052600Y0126697D01*
X0052600Y0125099D02*
X0056121Y0125099D01*
X0055917Y0123500D02*
X0052600Y0123500D01*
X0053340Y0121902D02*
X0055933Y0121902D01*
X0056595Y0120303D02*
X0054939Y0120303D01*
X0056537Y0118705D02*
X0057710Y0118705D01*
X0058136Y0117106D02*
X0059998Y0117106D01*
X0058797Y0110712D02*
X0053097Y0110712D01*
X0053741Y0109114D02*
X0057338Y0109114D01*
X0056676Y0107515D02*
X0054170Y0107515D01*
X0054287Y0105917D02*
X0056417Y0105917D01*
X0056417Y0104318D02*
X0054287Y0104318D01*
X0053934Y0102720D02*
X0057040Y0102720D01*
X0058077Y0101121D02*
X0053506Y0101121D01*
X0052589Y0099523D02*
X0060177Y0099523D01*
X0066057Y0099523D02*
X0070800Y0099523D01*
X0070800Y0101121D02*
X0068157Y0101121D01*
X0069194Y0102720D02*
X0070800Y0102720D01*
X0070800Y0104318D02*
X0069817Y0104318D01*
X0069817Y0105917D02*
X0070800Y0105917D01*
X0070800Y0107515D02*
X0069558Y0107515D01*
X0069671Y0109114D02*
X0068896Y0109114D01*
X0068073Y0110712D02*
X0067437Y0110712D01*
X0065236Y0117106D02*
X0078840Y0117106D01*
X0070800Y0097924D02*
X0051436Y0097924D01*
X0049837Y0096326D02*
X0070800Y0096326D01*
X0074400Y0062757D02*
X0034285Y0062757D01*
X0034085Y0062957D02*
X0034085Y0062957D01*
X0033257Y0052013D02*
X0033257Y0052013D01*
X0029582Y0083537D02*
X0024295Y0083537D01*
X0025255Y0085136D02*
X0029582Y0085136D01*
X0029837Y0086734D02*
X0025823Y0086734D01*
X0028587Y0096326D02*
X0013000Y0096326D01*
X0013000Y0097924D02*
X0026974Y0097924D01*
X0026798Y0099523D02*
X0021563Y0099523D01*
X0023662Y0101121D02*
X0026800Y0101121D01*
X0026800Y0102720D02*
X0024700Y0102720D01*
X0025323Y0104318D02*
X0026800Y0104318D01*
X0026800Y0105917D02*
X0025323Y0105917D01*
X0025064Y0107515D02*
X0026800Y0107515D01*
X0026800Y0109114D02*
X0024402Y0109114D01*
X0022943Y0110712D02*
X0026800Y0110712D01*
X0026986Y0112311D02*
X0016326Y0112311D01*
X0013264Y0117106D02*
X0003500Y0117106D01*
X0003500Y0115508D02*
X0011666Y0115508D01*
X0010067Y0113909D02*
X0003500Y0113909D01*
X0003500Y0112311D02*
X0008469Y0112311D01*
X0007600Y0110712D02*
X0003500Y0110712D01*
X0003500Y0109114D02*
X0007600Y0109114D01*
X0007600Y0107515D02*
X0003500Y0107515D01*
X0003500Y0105917D02*
X0007600Y0105917D01*
X0007600Y0104318D02*
X0003500Y0104318D01*
X0003500Y0102720D02*
X0007600Y0102720D01*
X0007600Y0101121D02*
X0003500Y0101121D01*
X0003500Y0099523D02*
X0007600Y0099523D01*
X0007600Y0097924D02*
X0003500Y0097924D01*
X0003500Y0096326D02*
X0007600Y0096326D01*
X0007600Y0094727D02*
X0003500Y0094727D01*
X0003500Y0093129D02*
X0007600Y0093129D01*
X0007600Y0091530D02*
X0003500Y0091530D01*
X0003500Y0089932D02*
X0007600Y0089932D01*
X0007600Y0088333D02*
X0003500Y0088333D01*
X0003500Y0086734D02*
X0007600Y0086734D01*
X0007600Y0085136D02*
X0003500Y0085136D01*
X0003500Y0083537D02*
X0007600Y0083537D01*
X0007600Y0081939D02*
X0003500Y0081939D01*
X0003500Y0080340D02*
X0007600Y0080340D01*
X0007600Y0078742D02*
X0003500Y0078742D01*
X0003500Y0077143D02*
X0007600Y0077143D01*
X0007600Y0075545D02*
X0003500Y0075545D01*
X0003500Y0073946D02*
X0007600Y0073946D01*
X0007600Y0072348D02*
X0003500Y0072348D01*
X0003500Y0070749D02*
X0007600Y0070749D01*
X0007600Y0069151D02*
X0003500Y0069151D01*
X0003500Y0067552D02*
X0007600Y0067552D01*
X0007600Y0065954D02*
X0003500Y0065954D01*
X0003500Y0064355D02*
X0007600Y0064355D01*
X0007600Y0062757D02*
X0003500Y0062757D01*
X0003500Y0061158D02*
X0007600Y0061158D01*
X0007600Y0059560D02*
X0003500Y0059560D01*
X0003500Y0057961D02*
X0007600Y0057961D01*
X0007600Y0056363D02*
X0003500Y0056363D01*
X0003500Y0054764D02*
X0007600Y0054764D01*
X0007600Y0053166D02*
X0003500Y0053166D01*
X0003500Y0051567D02*
X0007600Y0051567D01*
X0007600Y0049969D02*
X0003500Y0049969D01*
X0003500Y0048370D02*
X0007600Y0048370D01*
X0007600Y0046772D02*
X0003500Y0046772D01*
X0003500Y0045173D02*
X0007600Y0045173D01*
X0007600Y0043575D02*
X0003500Y0043575D01*
X0003500Y0041976D02*
X0007600Y0041976D01*
X0007600Y0040378D02*
X0003500Y0040378D01*
X0003500Y0038779D02*
X0007600Y0038779D01*
X0007600Y0037181D02*
X0003500Y0037181D01*
X0003500Y0035582D02*
X0006587Y0035582D01*
X0006216Y0033984D02*
X0003500Y0033984D01*
X0003500Y0032385D02*
X0006611Y0032385D01*
X0008547Y0030787D02*
X0003500Y0030787D01*
X0003500Y0029188D02*
X0011000Y0029188D01*
X0011000Y0027590D02*
X0003500Y0027590D01*
X0003500Y0025991D02*
X0010311Y0025991D01*
X0008074Y0024393D02*
X0003500Y0024393D01*
X0003500Y0022794D02*
X0007616Y0022794D01*
X0007924Y0021196D02*
X0003500Y0021196D01*
X0010653Y0030787D02*
X0011000Y0030787D01*
X0006470Y0005210D02*
X0005476Y0005210D01*
X0013000Y0099523D02*
X0015683Y0099523D01*
X0013583Y0101121D02*
X0013000Y0101121D01*
X0014216Y0118705D02*
X0003500Y0118705D01*
X0003500Y0120303D02*
X0013101Y0120303D01*
X0012439Y0121902D02*
X0003500Y0121902D01*
X0003500Y0123500D02*
X0012423Y0123500D01*
X0012627Y0125099D02*
X0003500Y0125099D01*
X0003500Y0126697D02*
X0013289Y0126697D01*
X0014670Y0128296D02*
X0003500Y0128296D01*
X0003500Y0129894D02*
X0017600Y0129894D01*
X0019838Y0133091D02*
X0003500Y0133091D01*
X0003500Y0131493D02*
X0021113Y0131493D01*
X0020646Y0129894D02*
X0023786Y0129894D01*
X0023575Y0128296D02*
X0026117Y0128296D01*
X0025616Y0126697D02*
X0024957Y0126697D01*
X0025619Y0125099D02*
X0025881Y0125099D01*
X0025823Y0123500D02*
X0027000Y0123500D01*
X0027000Y0121902D02*
X0025807Y0121902D01*
X0025145Y0120303D02*
X0026661Y0120303D01*
X0025063Y0118705D02*
X0024030Y0118705D01*
X0027707Y0129894D02*
X0030833Y0129894D01*
X0030490Y0131493D02*
X0030381Y0131493D01*
X0023565Y0142682D02*
X0003500Y0142682D01*
X0003500Y0141084D02*
X0021021Y0141084D01*
X0019800Y0139485D02*
X0003500Y0139485D01*
X0003500Y0137887D02*
X0019138Y0137887D01*
X0019047Y0136288D02*
X0003500Y0136288D01*
X0003500Y0134690D02*
X0019176Y0134690D01*
X0017320Y0144281D02*
X0027010Y0144281D01*
X0027390Y0145879D02*
X0018919Y0145879D01*
X0019100Y0147478D02*
X0028553Y0147478D01*
X0036061Y0147478D02*
X0049638Y0147478D01*
X0051562Y0147478D02*
X0056882Y0147478D01*
X0056470Y0149076D02*
X0019100Y0149076D01*
X0019100Y0150675D02*
X0056470Y0150675D01*
X0056470Y0152273D02*
X0019100Y0152273D01*
X0019100Y0153872D02*
X0056470Y0153872D01*
X0056470Y0155470D02*
X0019100Y0155470D01*
X0019100Y0157069D02*
X0056771Y0157069D01*
X0055061Y0142682D02*
X0053629Y0142682D01*
X0048600Y0141427D02*
X0048600Y0120985D01*
X0049587Y0119998D01*
X0049327Y0119998D01*
X0048083Y0119482D01*
X0047131Y0118530D01*
X0046616Y0117287D01*
X0046616Y0116469D01*
X0044264Y0117099D01*
X0042000Y0117099D01*
X0042000Y0131968D01*
X0042181Y0132396D01*
X0042000Y0132843D01*
X0042000Y0133325D01*
X0041753Y0133571D01*
X0042828Y0133571D01*
X0045290Y0134591D01*
X0047175Y0136476D01*
X0048195Y0138939D01*
X0048195Y0141604D01*
X0048033Y0141994D01*
X0048600Y0141427D01*
X0048600Y0141084D02*
X0048195Y0141084D01*
X0048195Y0139485D02*
X0048600Y0139485D01*
X0048600Y0137887D02*
X0047759Y0137887D01*
X0046987Y0136288D02*
X0048600Y0136288D01*
X0048600Y0134690D02*
X0045389Y0134690D01*
X0048600Y0133091D02*
X0042000Y0133091D01*
X0042000Y0131493D02*
X0048600Y0131493D01*
X0048600Y0129894D02*
X0042000Y0129894D01*
X0042000Y0128296D02*
X0048600Y0128296D01*
X0048600Y0126697D02*
X0042000Y0126697D01*
X0042000Y0125099D02*
X0048600Y0125099D01*
X0048600Y0123500D02*
X0042000Y0123500D01*
X0042000Y0121902D02*
X0048600Y0121902D01*
X0049282Y0120303D02*
X0042000Y0120303D01*
X0042000Y0118705D02*
X0047305Y0118705D01*
X0046616Y0117106D02*
X0042000Y0117106D01*
X0052600Y0131493D02*
X0052609Y0131493D01*
X0047216Y0144281D02*
X0046960Y0144281D01*
X0047627Y0145879D02*
X0045362Y0145879D01*
X0037628Y0145879D02*
X0036710Y0145879D01*
X0007280Y0144281D02*
X0003500Y0144281D01*
X0003500Y0145879D02*
X0005681Y0145879D01*
X0004500Y0147478D02*
X0003500Y0147478D01*
X0003500Y0149076D02*
X0004500Y0149076D01*
X0004500Y0150675D02*
X0003500Y0150675D01*
X0003522Y0152273D02*
X0004500Y0152273D01*
X0004500Y0153872D02*
X0003887Y0153872D01*
D18*
X0031800Y0118013D03*
X0041900Y0078670D03*
X0019000Y0056213D03*
X0030257Y0029513D03*
D19*
X0035757Y0039513D03*
X0033257Y0046013D03*
X0040343Y0052013D03*
X0050800Y0040470D03*
X0047800Y0030613D03*
X0042800Y0031013D03*
X0018400Y0049813D03*
X0016400Y0045413D03*
X0043800Y0117613D03*
D20*
X0048300Y0122113D01*
X0048300Y0140013D01*
X0047300Y0146013D01*
X0050800Y0149513D01*
X0051800Y0149513D01*
X0057800Y0143513D01*
X0066800Y0143513D01*
X0071170Y0147883D01*
X0071170Y0152407D01*
M02*
