<?xml version="1.0" encoding="UTF-8" standalone="no"?>
<!-- Created with Inkscape (http://www.inkscape.org/) -->

<svg
   xmlns:dc="http://purl.org/dc/elements/1.1/"
   xmlns:cc="http://creativecommons.org/ns#"
   xmlns:rdf="http://www.w3.org/1999/02/22-rdf-syntax-ns#"
   xmlns:svg="http://www.w3.org/2000/svg"
   xmlns="http://www.w3.org/2000/svg"
   xmlns:sodipodi="http://sodipodi.sourceforge.net/DTD/sodipodi-0.dtd"
   xmlns:inkscape="http://www.inkscape.org/namespaces/inkscape"
   width="210mm"
   height="297mm"
   viewBox="0 0 210 297"
   version="1.1"
   id="svg8"
   inkscape:version="0.92.2 (5c3e80d, 2017-08-06)"
   sodipodi:docname="drawing.svg">
  <defs
     id="defs2">
    <clipPath
       clipPathUnits="userSpaceOnUse"
       id="clipPath6131">
      <rect
         style="fill:none;fill-opacity:1;stroke:#000000;stroke-width:0.1;stroke-miterlimit:4;stroke-dasharray:none;stroke-opacity:1"
         id="rect6133"
         width="20.000273"
         height="40.031048"
         x="205.99112"
         y="66.851776" />
    </clipPath>
  </defs>
  <sodipodi:namedview
     id="base"
     pagecolor="#ffffff"
     bordercolor="#666666"
     borderopacity="1.0"
     inkscape:pageopacity="0.0"
     inkscape:pageshadow="2"
     inkscape:zoom="0.70710678"
     inkscape:cx="463.22693"
     inkscape:cy="647.34502"
     inkscape:document-units="mm"
     inkscape:current-layer="g6616"
     showgrid="false"
     inkscape:window-width="1920"
     inkscape:window-height="1017"
     inkscape:window-x="-8"
     inkscape:window-y="-8"
     inkscape:window-maximized="1"
     showguides="false" />
  <metadata
     id="metadata5">
    <rdf:RDF>
      <cc:Work
         rdf:about="">
        <dc:format>image/svg+xml</dc:format>
        <dc:type
           rdf:resource="http://purl.org/dc/dcmitype/StillImage" />
        <dc:title></dc:title>
      </cc:Work>
    </rdf:RDF>
  </metadata>
  <g
     inkscape:label="Layer 1"
     inkscape:groupmode="layer"
     id="layer1">
    <g
       id="g6636"
       transform="translate(0.4677205)">
      <g
         id="g6616">
        <g
           id="g6382">
          <g
             id="g6374">
            <g
               id="g6367">
              <g
                 id="g6361">
                <g
                   id="g6356">
                  <g
                     id="g6352">
                    <rect
                       ry="2.7731643"
                       y="66.808037"
                       x="32.726936"
                       height="80"
                       width="145"
                       id="rect915"
                       style="fill:none;fill-opacity:1;stroke:#000000;stroke-width:0.1;stroke-miterlimit:4;stroke-dasharray:none;stroke-opacity:1" />
                  </g>
                </g>
              </g>
            </g>
          </g>
        </g>
        <circle
           r="1.5505896"
           cy="74.872505"
           cx="35.67355"
           id="circle917"
           style="fill:none;fill-opacity:1;stroke:#000000;stroke-width:0.09882093;stroke-miterlimit:4;stroke-dasharray:none;stroke-opacity:1" />
        <circle
           style="fill:none;fill-opacity:1;stroke:#000000;stroke-width:0.09882093;stroke-miterlimit:4;stroke-dasharray:none;stroke-opacity:1"
           id="circle919"
           cx="35.67355"
           cy="118.83587"
           r="1.5505896" />
        <circle
           r="1.5505896"
           cy="118.78863"
           cx="174.79242"
           id="circle921"
           style="fill:none;fill-opacity:1;stroke:#000000;stroke-width:0.09882093;stroke-miterlimit:4;stroke-dasharray:none;stroke-opacity:1" />
        <circle
           style="fill:none;fill-opacity:1;stroke:#000000;stroke-width:0.09882093;stroke-miterlimit:4;stroke-dasharray:none;stroke-opacity:1"
           id="circle923"
           cx="174.7688"
           cy="74.872505"
           r="1.5505896" />
        <rect
           style="fill:none;fill-opacity:1;stroke:#000000;stroke-width:0.1;stroke-miterlimit:4;stroke-dasharray:none;stroke-opacity:1"
           id="rect1272"
           width="130"
           height="33"
           x="40.226933"
           y="70.268005"
           ry="2.7731774" />
      </g>
    </g>
    <g
       id="g6669"
       transform="translate(-0.09354516,-2.6192414)">
      <g
         id="g6657">
        <g
           id="g6646">
          <path
             sodipodi:nodetypes="cssssssc"
             inkscape:connector-curvature="0"
             id="rect6446"
             d="m 36.061368,244.38402 c -1.536333,0 -2.773164,-1.23683 -2.773164,-2.77317 v -64.45367 c 0,-1.53633 1.236831,-2.77316 2.773164,-2.77316 H 175.51504 c 1.53633,0 2.77316,1.23683 2.77316,2.77316 v 64.45367 c 0,1.53634 -1.23683,2.77317 -2.77316,2.77317"
             style="fill:none;fill-opacity:1;stroke:#000000;stroke-width:0.1;stroke-miterlimit:4;stroke-dasharray:none;stroke-opacity:1" />
          <path
             sodipodi:nodetypes="cssssc"
             inkscape:connector-curvature="0"
             id="rect6540"
             d="M 68.288208,241.61084 V 217.1572 c 0,-1.53634 1.236837,-2.77318 2.773177,-2.77318 h 69.453645 c 1.53634,0 2.77318,1.23684 2.77318,2.77318 v 24.45364"
             style="fill:none;fill-opacity:1;stroke:#000000;stroke-width:0.1;stroke-miterlimit:4;stroke-dasharray:none;stroke-opacity:1" />
          <path
             id="circle6460"
             d="m 37.785407,182.44849 a 1.5505896,1.5505896 0 0 1 -1.550589,1.55059 1.5505896,1.5505896 0 0 1 -1.55059,-1.55059 1.5505896,1.5505896 0 0 1 1.55059,-1.55059 1.5505896,1.5505896 0 0 1 1.550589,1.55059 z"
             style="fill:none;fill-opacity:1;stroke:#000000;stroke-width:0.09882093;stroke-miterlimit:4;stroke-dasharray:none;stroke-opacity:1"
             inkscape:connector-curvature="0" />
          <path
             id="circle6462"
             d="m 37.785407,226.41185 a 1.5505896,1.5505896 0 0 1 -1.550589,1.55059 1.5505896,1.5505896 0 0 1 -1.55059,-1.55059 1.5505896,1.5505896 0 0 1 1.55059,-1.55059 1.5505896,1.5505896 0 0 1 1.550589,1.55059 z"
             style="fill:none;fill-opacity:1;stroke:#000000;stroke-width:0.09882093;stroke-miterlimit:4;stroke-dasharray:none;stroke-opacity:1"
             inkscape:connector-curvature="0" />
          <path
             id="circle6464"
             d="m 176.90427,226.36461 a 1.5505896,1.5505896 0 0 1 -1.55059,1.55059 1.5505896,1.5505896 0 0 1 -1.55059,-1.55059 1.5505896,1.5505896 0 0 1 1.55059,-1.55059 1.5505896,1.5505896 0 0 1 1.55059,1.55059 z"
             style="fill:none;fill-opacity:1;stroke:#000000;stroke-width:0.09882093;stroke-miterlimit:4;stroke-dasharray:none;stroke-opacity:1"
             inkscape:connector-curvature="0" />
          <path
             id="circle6466"
             d="m 176.88065,182.44849 a 1.5505896,1.5505896 0 0 1 -1.55059,1.55059 1.5505896,1.5505896 0 0 1 -1.55059,-1.55059 1.5505896,1.5505896 0 0 1 1.55059,-1.55059 1.5505896,1.5505896 0 0 1 1.55059,1.55059 z"
             style="fill:none;fill-opacity:1;stroke:#000000;stroke-width:0.09882093;stroke-miterlimit:4;stroke-dasharray:none;stroke-opacity:1"
             inkscape:connector-curvature="0" />
          <path
             sodipodi:nodetypes="csc"
             inkscape:connector-curvature="0"
             id="rect6567"
             d="m 68.288212,241.61084 c 0,1.53634 -1.236837,2.77318 -2.773178,2.77318 H 36.061368"
             style="fill:none;fill-opacity:1;stroke:#000000;stroke-width:0.1;stroke-miterlimit:4;stroke-dasharray:none;stroke-opacity:1" />
          <path
             sodipodi:nodetypes="cssc"
             inkscape:connector-curvature="0"
             id="rect6571"
             d="m 175.51504,244.38402 h -29.45365 c -1.53634,0 -2.77318,-1.23684 -2.77318,-2.77318 V 217.1572"
             style="fill:none;fill-opacity:1;stroke:#000000;stroke-width:0.1;stroke-miterlimit:4;stroke-dasharray:none;stroke-opacity:1" />
        </g>
      </g>
    </g>
  </g>
</svg>
