G75*
%MOIN*%
%OFA0B0*%
%FSLAX25Y25*%
%IPPOS*%
%LPD*%
%AMOC8*
5,1,8,0,0,1.08239X$1,22.5*
%
%ADD10C,0.05761*%
%ADD11R,0.05800X0.03000*%
%ADD12R,0.03000X0.05800*%
%ADD13C,0.06800*%
%ADD14R,0.02769X0.04737*%
%ADD15R,0.03950X0.05524*%
%ADD16R,0.05524X0.03950*%
%ADD17R,0.04737X0.02769*%
%ADD18R,0.06706X0.04343*%
D10*
X0029845Y0080360D03*
X0021114Y0088095D03*
X0016978Y0099001D03*
X0018384Y0110580D03*
X0025010Y0120180D03*
X0035338Y0125600D03*
X0047002Y0125600D03*
X0057330Y0120180D03*
X0063956Y0110580D03*
X0065362Y0099001D03*
X0061226Y0088095D03*
X0052495Y0080360D03*
X0041170Y0077569D03*
D11*
X0024270Y0053907D03*
X0024270Y0050757D03*
X0024270Y0047608D03*
X0024270Y0044458D03*
X0024270Y0041309D03*
X0024270Y0038159D03*
X0024270Y0035009D03*
X0024270Y0031860D03*
X0058070Y0031860D03*
X0058070Y0035009D03*
X0058070Y0038159D03*
X0058070Y0041309D03*
X0058070Y0044458D03*
X0058070Y0047608D03*
X0058070Y0050757D03*
X0058070Y0053907D03*
D12*
X0052194Y0059783D03*
X0049044Y0059783D03*
X0045894Y0059783D03*
X0042745Y0059783D03*
X0039595Y0059783D03*
X0036446Y0059783D03*
X0033296Y0059783D03*
X0030146Y0059783D03*
X0030146Y0025983D03*
X0033296Y0025983D03*
X0036446Y0025983D03*
X0039595Y0025983D03*
X0042745Y0025983D03*
X0045894Y0025983D03*
X0049044Y0025983D03*
X0052194Y0025983D03*
D13*
X0011170Y0012100D02*
X0011170Y0006100D01*
X0021170Y0006100D02*
X0021170Y0012100D01*
X0031170Y0012100D02*
X0031170Y0006100D01*
X0041170Y0006100D02*
X0041170Y0012100D01*
X0051170Y0012100D02*
X0051170Y0006100D01*
X0061170Y0006100D02*
X0061170Y0012100D01*
X0071170Y0012100D02*
X0071170Y0006100D01*
X0071170Y0149407D02*
X0071170Y0155407D01*
X0061170Y0155407D02*
X0061170Y0149407D01*
X0011170Y0149407D02*
X0011170Y0155407D01*
D14*
X0034741Y0110970D03*
X0037300Y0118057D03*
X0039859Y0110970D03*
X0031359Y0093557D03*
X0028800Y0086470D03*
X0026241Y0093557D03*
X0019517Y0081860D03*
X0022076Y0074773D03*
X0016957Y0074773D03*
X0013733Y0088553D03*
X0011174Y0095639D03*
X0008615Y0088553D03*
X0043741Y0091057D03*
X0046300Y0083970D03*
X0048859Y0091057D03*
X0060265Y0074773D03*
X0062824Y0081860D03*
X0065383Y0074773D03*
X0068607Y0088553D03*
X0071166Y0095639D03*
X0073725Y0088553D03*
X0057355Y0127470D03*
X0054796Y0134557D03*
X0059914Y0134557D03*
X0052359Y0149470D03*
X0049800Y0156557D03*
X0047241Y0149470D03*
D15*
X0046757Y0143013D03*
X0053843Y0143013D03*
X0040843Y0156013D03*
X0033757Y0156013D03*
X0027843Y0142013D03*
X0020757Y0142013D03*
X0020627Y0068521D03*
X0023343Y0060013D03*
X0016257Y0060013D03*
X0013540Y0068521D03*
X0010257Y0021513D03*
X0017343Y0021513D03*
X0057257Y0026013D03*
X0064343Y0026013D03*
X0061780Y0068506D03*
X0068867Y0068506D03*
D16*
X0072666Y0075773D03*
X0072666Y0082860D03*
X0074166Y0103832D03*
X0074166Y0110919D03*
X0074300Y0128970D03*
X0074300Y0136057D03*
X0064942Y0135801D03*
X0064942Y0128714D03*
X0057418Y0114643D03*
X0057418Y0107557D03*
X0054300Y0093557D03*
X0054300Y0086470D03*
X0037300Y0085470D03*
X0037300Y0092557D03*
X0024922Y0107557D03*
X0024922Y0114643D03*
X0034300Y0142970D03*
X0034300Y0150057D03*
X0041300Y0150057D03*
X0041300Y0142970D03*
X0009674Y0109419D03*
X0009674Y0102332D03*
X0009674Y0082860D03*
X0009674Y0075773D03*
X0008442Y0125466D03*
X0008442Y0132553D03*
X0070300Y0032057D03*
X0070300Y0024970D03*
X0076800Y0024970D03*
X0076800Y0032057D03*
D17*
X0051343Y0112454D03*
X0051343Y0117572D03*
X0044257Y0115013D03*
X0027843Y0152013D03*
X0020757Y0149454D03*
X0020757Y0154572D03*
X0017257Y0130257D03*
X0017257Y0125139D03*
X0015186Y0117687D03*
X0008099Y0120246D03*
X0008099Y0115128D03*
X0024343Y0127698D03*
X0067154Y0117687D03*
X0074241Y0120246D03*
X0074241Y0115128D03*
D18*
X0047272Y0105285D03*
X0047272Y0098592D03*
X0035068Y0098592D03*
X0035068Y0105285D03*
M02*
