G75*
%MOIN*%
%OFA0B0*%
%FSLAX25Y25*%
%IPPOS*%
%LPD*%
%AMOC8*
5,1,8,0,0,1.08239X$1,22.5*
%
%ADD10C,0.00300*%
%ADD11C,0.00400*%
%ADD12C,0.01200*%
%ADD13C,0.00500*%
%ADD14C,0.00600*%
%ADD15C,0.01000*%
%ADD16C,0.00800*%
%ADD17C,0.00200*%
D10*
X0007450Y0015563D02*
X0007450Y0018466D01*
X0008901Y0018466D01*
X0009385Y0017982D01*
X0009385Y0017015D01*
X0008901Y0016531D01*
X0007450Y0016531D01*
X0008417Y0016531D02*
X0009385Y0015563D01*
X0010397Y0016047D02*
X0010880Y0015563D01*
X0011848Y0015563D01*
X0012331Y0016047D01*
X0012331Y0016531D01*
X0011848Y0017015D01*
X0010880Y0017015D01*
X0010397Y0017498D01*
X0010397Y0017982D01*
X0010880Y0018466D01*
X0011848Y0018466D01*
X0012331Y0017982D01*
X0013343Y0018466D02*
X0015278Y0018466D01*
X0014311Y0018466D02*
X0014311Y0015563D01*
X0017350Y0016047D02*
X0017834Y0015563D01*
X0018801Y0015563D01*
X0019285Y0016047D01*
X0019285Y0016531D01*
X0018801Y0017015D01*
X0017834Y0017015D01*
X0017350Y0017498D01*
X0017350Y0017982D01*
X0017834Y0018466D01*
X0018801Y0018466D01*
X0019285Y0017982D01*
X0020297Y0017982D02*
X0020297Y0016047D01*
X0020780Y0015563D01*
X0021748Y0015563D01*
X0022231Y0016047D01*
X0023243Y0015563D02*
X0023243Y0018466D01*
X0023727Y0017015D02*
X0025178Y0015563D01*
X0023243Y0016531D02*
X0025178Y0018466D01*
X0022231Y0017982D02*
X0021748Y0018466D01*
X0020780Y0018466D01*
X0020297Y0017982D01*
X0020027Y0025113D02*
X0019543Y0025597D01*
X0020027Y0025113D02*
X0020994Y0025113D01*
X0021478Y0025597D01*
X0021478Y0026565D01*
X0020994Y0027048D01*
X0020511Y0027048D01*
X0019543Y0026565D01*
X0019543Y0028016D01*
X0021478Y0028016D01*
X0018531Y0025113D02*
X0016597Y0025113D01*
X0017564Y0025113D02*
X0017564Y0028016D01*
X0016597Y0027048D01*
X0015585Y0026565D02*
X0015101Y0026081D01*
X0013650Y0026081D01*
X0014617Y0026081D02*
X0015585Y0025113D01*
X0015585Y0026565D02*
X0015585Y0027532D01*
X0015101Y0028016D01*
X0013650Y0028016D01*
X0013650Y0025113D01*
X0029350Y0019066D02*
X0029350Y0016163D01*
X0030317Y0018098D02*
X0029350Y0019066D01*
X0030317Y0018098D02*
X0031285Y0019066D01*
X0031285Y0016163D01*
X0032297Y0016163D02*
X0033264Y0016163D01*
X0032780Y0016163D02*
X0032780Y0019066D01*
X0032297Y0019066D02*
X0033264Y0019066D01*
X0038850Y0019066D02*
X0038850Y0016163D01*
X0039817Y0018098D02*
X0038850Y0019066D01*
X0039817Y0018098D02*
X0040785Y0019066D01*
X0040785Y0016163D01*
X0041797Y0016647D02*
X0041797Y0018582D01*
X0042280Y0019066D01*
X0043248Y0019066D01*
X0043731Y0018582D01*
X0043731Y0016647D01*
X0043248Y0016163D01*
X0042280Y0016163D01*
X0041797Y0016647D01*
X0049350Y0016647D02*
X0049834Y0016163D01*
X0050801Y0016163D01*
X0051285Y0016647D01*
X0051285Y0018582D02*
X0050801Y0019066D01*
X0049834Y0019066D01*
X0049350Y0018582D01*
X0049350Y0016647D01*
X0052297Y0016647D02*
X0052780Y0016163D01*
X0053748Y0016163D01*
X0054231Y0016647D01*
X0054231Y0017131D01*
X0053748Y0017615D01*
X0052780Y0017615D01*
X0052297Y0018098D01*
X0052297Y0018582D01*
X0052780Y0019066D01*
X0053748Y0019066D01*
X0054231Y0018582D01*
X0057950Y0019066D02*
X0057950Y0016163D01*
X0059401Y0016163D01*
X0059885Y0016647D01*
X0059885Y0018582D01*
X0059401Y0019066D01*
X0057950Y0019066D01*
X0060897Y0019066D02*
X0061864Y0019066D01*
X0061380Y0019066D02*
X0061380Y0016163D01*
X0060897Y0016163D02*
X0061864Y0016163D01*
X0062861Y0016647D02*
X0062861Y0018582D01*
X0063345Y0019066D01*
X0064312Y0019066D01*
X0064796Y0018582D01*
X0064796Y0016647D01*
X0064312Y0016163D01*
X0063345Y0016163D01*
X0062861Y0016647D01*
X0067450Y0016647D02*
X0067934Y0016163D01*
X0068901Y0016163D01*
X0069385Y0016647D01*
X0070397Y0016163D02*
X0070397Y0019066D01*
X0069385Y0018582D02*
X0068901Y0019066D01*
X0067934Y0019066D01*
X0067450Y0018582D01*
X0067450Y0016647D01*
X0070397Y0016163D02*
X0072331Y0016163D01*
X0073343Y0016163D02*
X0073343Y0019066D01*
X0073827Y0017615D02*
X0075278Y0016163D01*
X0073343Y0017131D02*
X0075278Y0019066D01*
X0066431Y0029313D02*
X0064497Y0029313D01*
X0063485Y0029797D02*
X0063001Y0029313D01*
X0062034Y0029313D01*
X0061550Y0029797D01*
X0061550Y0031732D01*
X0062034Y0032216D01*
X0063001Y0032216D01*
X0063485Y0031732D01*
X0064497Y0031248D02*
X0065464Y0032216D01*
X0065464Y0029313D01*
X0065900Y0034663D02*
X0062998Y0034663D01*
X0062998Y0036115D01*
X0063481Y0036598D01*
X0064449Y0036598D01*
X0064933Y0036115D01*
X0064933Y0034663D01*
X0064933Y0035631D02*
X0065900Y0036598D01*
X0065900Y0037610D02*
X0065900Y0039545D01*
X0065900Y0038577D02*
X0062998Y0038577D01*
X0063965Y0037610D01*
X0064449Y0040556D02*
X0064449Y0042491D01*
X0065900Y0042008D02*
X0062998Y0042008D01*
X0064449Y0040556D01*
X0067198Y0038677D02*
X0070100Y0038677D01*
X0070100Y0037710D02*
X0070100Y0039645D01*
X0069616Y0040656D02*
X0070100Y0041140D01*
X0070100Y0042108D01*
X0069616Y0042591D01*
X0069133Y0042591D01*
X0068649Y0042108D01*
X0068649Y0040656D01*
X0069616Y0040656D01*
X0068649Y0040656D02*
X0067681Y0041624D01*
X0067198Y0042591D01*
X0067198Y0038677D02*
X0068165Y0037710D01*
X0067681Y0036698D02*
X0068649Y0036698D01*
X0069133Y0036215D01*
X0069133Y0034763D01*
X0070100Y0034763D02*
X0067198Y0034763D01*
X0067198Y0036215D01*
X0067681Y0036698D01*
X0069133Y0035731D02*
X0070100Y0036698D01*
X0071031Y0047667D02*
X0070447Y0048251D01*
X0070447Y0049419D01*
X0071031Y0050003D01*
X0071615Y0050003D01*
X0073950Y0047667D01*
X0073950Y0050003D01*
X0073366Y0051166D02*
X0071031Y0053502D01*
X0073366Y0053502D01*
X0073950Y0052918D01*
X0073950Y0051750D01*
X0073366Y0051166D01*
X0071031Y0051166D01*
X0070447Y0051750D01*
X0070447Y0052918D01*
X0071031Y0053502D01*
X0071615Y0054665D02*
X0070447Y0055833D01*
X0073950Y0055833D01*
X0073950Y0054665D02*
X0073950Y0057001D01*
X0073950Y0058164D02*
X0073366Y0058164D01*
X0071031Y0060500D01*
X0070447Y0060500D01*
X0070447Y0058164D01*
X0068771Y0062121D02*
X0067803Y0062121D01*
X0067319Y0062605D01*
X0069254Y0064540D01*
X0069254Y0062605D01*
X0068771Y0062121D01*
X0069254Y0064540D02*
X0068771Y0065024D01*
X0067803Y0065024D01*
X0067319Y0064540D01*
X0067319Y0062605D01*
X0066308Y0062121D02*
X0064373Y0062121D01*
X0065340Y0062121D02*
X0065340Y0065024D01*
X0064373Y0064056D01*
X0063361Y0063572D02*
X0062878Y0063089D01*
X0061426Y0063089D01*
X0061426Y0062121D02*
X0061426Y0065024D01*
X0062878Y0065024D01*
X0063361Y0064540D01*
X0063361Y0063572D01*
X0062394Y0063089D02*
X0063361Y0062121D01*
X0075447Y0060587D02*
X0078950Y0060587D01*
X0075447Y0058252D01*
X0078950Y0058252D01*
X0078950Y0057088D02*
X0076615Y0057088D01*
X0076615Y0054753D02*
X0078366Y0054753D01*
X0078950Y0055336D01*
X0078950Y0057088D01*
X0078950Y0053588D02*
X0077782Y0051837D01*
X0076615Y0053588D01*
X0075447Y0051837D02*
X0078950Y0051837D01*
X0078950Y0050089D02*
X0078950Y0048922D01*
X0078366Y0048338D01*
X0077199Y0048338D01*
X0076615Y0048922D01*
X0076615Y0050089D01*
X0077199Y0050673D01*
X0077782Y0050673D01*
X0077782Y0048338D01*
X0076615Y0047174D02*
X0076615Y0045423D01*
X0077199Y0044839D01*
X0078366Y0044839D01*
X0078950Y0045423D01*
X0078950Y0047174D01*
X0075447Y0047174D01*
X0076615Y0061751D02*
X0078366Y0061751D01*
X0078950Y0062334D01*
X0078950Y0064086D01*
X0076615Y0064086D01*
X0077782Y0065250D02*
X0076615Y0067001D01*
X0077199Y0068165D02*
X0076615Y0068749D01*
X0076615Y0069917D01*
X0077199Y0070501D01*
X0077782Y0070501D01*
X0077782Y0068165D01*
X0077199Y0068165D02*
X0078366Y0068165D01*
X0078950Y0068749D01*
X0078950Y0069917D01*
X0078950Y0071664D02*
X0076615Y0071664D01*
X0076615Y0072248D01*
X0077199Y0072832D01*
X0076615Y0073416D01*
X0077199Y0074000D01*
X0078950Y0074000D01*
X0078950Y0072832D02*
X0077199Y0072832D01*
X0078950Y0067001D02*
X0077782Y0065250D01*
X0078950Y0065250D02*
X0075447Y0065250D01*
X0075864Y0082467D02*
X0075864Y0083918D01*
X0076347Y0084402D01*
X0077315Y0084402D01*
X0077799Y0083918D01*
X0077799Y0082467D01*
X0077799Y0083434D02*
X0078766Y0084402D01*
X0078282Y0085413D02*
X0078766Y0085897D01*
X0078766Y0086864D01*
X0078282Y0087348D01*
X0076347Y0087348D01*
X0075864Y0086864D01*
X0075864Y0085897D01*
X0076347Y0085413D01*
X0076831Y0085413D01*
X0077315Y0085897D01*
X0077315Y0087348D01*
X0078766Y0082467D02*
X0075864Y0082467D01*
X0069366Y0102826D02*
X0066464Y0102826D01*
X0066464Y0104277D01*
X0066947Y0104761D01*
X0067915Y0104761D01*
X0068399Y0104277D01*
X0068399Y0102826D01*
X0068399Y0103793D02*
X0069366Y0104761D01*
X0068882Y0105772D02*
X0068399Y0105772D01*
X0067915Y0106256D01*
X0067915Y0107223D01*
X0068399Y0107707D01*
X0068882Y0107707D01*
X0069366Y0107223D01*
X0069366Y0106256D01*
X0068882Y0105772D01*
X0067915Y0106256D02*
X0067431Y0105772D01*
X0066947Y0105772D01*
X0066464Y0106256D01*
X0066464Y0107223D01*
X0066947Y0107707D01*
X0067431Y0107707D01*
X0067915Y0107223D01*
X0063482Y0113284D02*
X0060579Y0113284D01*
X0060579Y0114735D01*
X0061063Y0115219D01*
X0062031Y0115219D01*
X0062514Y0114735D01*
X0062514Y0113284D01*
X0062514Y0114251D02*
X0063482Y0115219D01*
X0062998Y0116230D02*
X0063482Y0116714D01*
X0063482Y0117681D01*
X0062998Y0118165D01*
X0062514Y0118165D01*
X0062031Y0117681D01*
X0062031Y0116230D01*
X0062998Y0116230D01*
X0062031Y0116230D02*
X0061063Y0117198D01*
X0060579Y0118165D01*
X0068556Y0129526D02*
X0068556Y0130977D01*
X0069040Y0131461D01*
X0070007Y0131461D01*
X0070491Y0130977D01*
X0070491Y0129526D01*
X0071458Y0129526D02*
X0068556Y0129526D01*
X0068556Y0132473D02*
X0068556Y0134408D01*
X0069040Y0134408D01*
X0070975Y0132473D01*
X0071458Y0132473D01*
X0071458Y0131461D02*
X0070491Y0130494D01*
X0072434Y0126116D02*
X0071950Y0125632D01*
X0071950Y0123697D01*
X0072434Y0123213D01*
X0073401Y0123213D01*
X0073885Y0123697D01*
X0074897Y0123697D02*
X0075380Y0123213D01*
X0076348Y0123213D01*
X0076831Y0123697D01*
X0076831Y0124181D01*
X0076348Y0124665D01*
X0075864Y0124665D01*
X0076348Y0124665D02*
X0076831Y0125148D01*
X0076831Y0125632D01*
X0076348Y0126116D01*
X0075380Y0126116D01*
X0074897Y0125632D01*
X0073885Y0125632D02*
X0073401Y0126116D01*
X0072434Y0126116D01*
X0060900Y0099491D02*
X0060900Y0097556D01*
X0060900Y0098524D02*
X0057998Y0098524D01*
X0058965Y0097556D01*
X0057998Y0095577D02*
X0060900Y0095577D01*
X0060900Y0094610D02*
X0060900Y0096545D01*
X0058965Y0094610D02*
X0057998Y0095577D01*
X0058481Y0093598D02*
X0059449Y0093598D01*
X0059933Y0093115D01*
X0059933Y0091663D01*
X0060900Y0091663D02*
X0057998Y0091663D01*
X0057998Y0093115D01*
X0058481Y0093598D01*
X0059933Y0092631D02*
X0060900Y0093598D01*
X0052385Y0108615D02*
X0050450Y0108615D01*
X0051417Y0109582D02*
X0051417Y0107647D01*
X0047501Y0077867D02*
X0048736Y0076632D01*
X0048736Y0074163D01*
X0048736Y0076015D02*
X0046267Y0076015D01*
X0046267Y0076632D02*
X0047501Y0077867D01*
X0046267Y0076632D02*
X0046267Y0074163D01*
X0035900Y0076063D02*
X0032998Y0076063D01*
X0032998Y0077515D01*
X0033481Y0077998D01*
X0034449Y0077998D01*
X0034933Y0077515D01*
X0034933Y0076063D01*
X0034933Y0077031D02*
X0035900Y0077998D01*
X0035900Y0079010D02*
X0035900Y0080945D01*
X0035900Y0079977D02*
X0032998Y0079977D01*
X0033965Y0079010D01*
X0033481Y0081956D02*
X0032998Y0082440D01*
X0032998Y0083408D01*
X0033481Y0083891D01*
X0033965Y0083891D01*
X0035900Y0081956D01*
X0035900Y0083891D01*
X0027648Y0066316D02*
X0026680Y0066316D01*
X0026197Y0065832D01*
X0025185Y0065832D02*
X0024701Y0066316D01*
X0023734Y0066316D01*
X0023250Y0065832D01*
X0023250Y0063897D01*
X0023734Y0063413D01*
X0024701Y0063413D01*
X0025185Y0063897D01*
X0026197Y0063413D02*
X0028131Y0065348D01*
X0028131Y0065832D01*
X0027648Y0066316D01*
X0028131Y0063413D02*
X0026197Y0063413D01*
X0026378Y0098884D02*
X0023475Y0098884D01*
X0023475Y0100335D01*
X0023959Y0100819D01*
X0024927Y0100819D01*
X0025410Y0100335D01*
X0025410Y0098884D01*
X0025410Y0099851D02*
X0026378Y0100819D01*
X0025894Y0101830D02*
X0026378Y0102314D01*
X0026378Y0103281D01*
X0025894Y0103765D01*
X0024927Y0103765D01*
X0024443Y0103281D01*
X0024443Y0102798D01*
X0024927Y0101830D01*
X0023475Y0101830D01*
X0023475Y0103765D01*
X0016274Y0103026D02*
X0013372Y0103026D01*
X0013372Y0104477D01*
X0013855Y0104961D01*
X0014823Y0104961D01*
X0015307Y0104477D01*
X0015307Y0103026D01*
X0015307Y0103993D02*
X0016274Y0104961D01*
X0015790Y0105972D02*
X0016274Y0106456D01*
X0016274Y0107423D01*
X0015790Y0107907D01*
X0015307Y0107907D01*
X0014823Y0107423D01*
X0014823Y0106940D01*
X0014823Y0107423D02*
X0014339Y0107907D01*
X0013855Y0107907D01*
X0013372Y0107423D01*
X0013372Y0106456D01*
X0013855Y0105972D01*
X0013591Y0127067D02*
X0013591Y0128519D01*
X0013107Y0129002D01*
X0012140Y0129002D01*
X0011656Y0128519D01*
X0011656Y0127067D01*
X0014558Y0127067D01*
X0013591Y0128035D02*
X0014558Y0129002D01*
X0013107Y0130014D02*
X0013107Y0131949D01*
X0011656Y0131465D02*
X0013107Y0130014D01*
X0014558Y0131465D02*
X0011656Y0131465D01*
X0017140Y0155981D02*
X0017140Y0158884D01*
X0016173Y0158884D02*
X0018108Y0158884D01*
X0019119Y0157916D02*
X0020087Y0158884D01*
X0020087Y0155981D01*
X0021054Y0155981D02*
X0019119Y0155981D01*
X0006274Y0081848D02*
X0006274Y0079913D01*
X0004339Y0081848D01*
X0003855Y0081848D01*
X0003372Y0081364D01*
X0003372Y0080397D01*
X0003855Y0079913D01*
X0003855Y0078902D02*
X0004823Y0078902D01*
X0005307Y0078418D01*
X0005307Y0076967D01*
X0005307Y0077934D02*
X0006274Y0078902D01*
X0006274Y0076967D02*
X0003372Y0076967D01*
X0003372Y0078418D01*
X0003855Y0078902D01*
D11*
X0007500Y0140713D02*
X0007500Y0144817D01*
X0007500Y0142765D02*
X0010236Y0142765D01*
X0010236Y0144817D02*
X0010236Y0140713D01*
X0011644Y0142081D02*
X0011644Y0144817D01*
X0011644Y0142081D02*
X0013011Y0140713D01*
X0014379Y0142081D01*
X0014379Y0144817D01*
X0059500Y0144133D02*
X0059500Y0141397D01*
X0060184Y0140713D01*
X0061552Y0140713D01*
X0062236Y0141397D01*
X0062236Y0142765D01*
X0060868Y0142765D01*
X0062236Y0144133D02*
X0061552Y0144817D01*
X0060184Y0144817D01*
X0059500Y0144133D01*
X0068000Y0144133D02*
X0068684Y0144817D01*
X0070052Y0144817D01*
X0070736Y0144133D01*
X0070736Y0143449D01*
X0070052Y0142765D01*
X0070736Y0142081D01*
X0070736Y0141397D01*
X0070052Y0140713D01*
X0068684Y0140713D01*
X0068000Y0141397D01*
X0069368Y0142765D02*
X0070052Y0142765D01*
X0072144Y0142081D02*
X0073511Y0140713D01*
X0074879Y0142081D01*
X0074879Y0144817D01*
X0072144Y0144817D02*
X0072144Y0142081D01*
D12*
X0036957Y0077513D02*
X0036959Y0077643D01*
X0036965Y0077773D01*
X0036975Y0077903D01*
X0036989Y0078032D01*
X0037007Y0078161D01*
X0037029Y0078289D01*
X0037054Y0078416D01*
X0037084Y0078543D01*
X0037117Y0078669D01*
X0037155Y0078793D01*
X0037196Y0078917D01*
X0037241Y0079039D01*
X0037289Y0079159D01*
X0037342Y0079278D01*
X0037398Y0079396D01*
X0037457Y0079511D01*
X0037520Y0079625D01*
X0037587Y0079737D01*
X0037656Y0079847D01*
X0037730Y0079954D01*
X0037806Y0080059D01*
X0037886Y0080162D01*
X0037968Y0080262D01*
X0038054Y0080360D01*
X0038143Y0080455D01*
X0038234Y0080548D01*
X0038329Y0080637D01*
X0038426Y0080724D01*
X0038526Y0080807D01*
X0038628Y0080887D01*
X0038732Y0080965D01*
X0038839Y0081039D01*
X0038948Y0081109D01*
X0039060Y0081177D01*
X0039173Y0081241D01*
X0039288Y0081301D01*
X0039405Y0081358D01*
X0039524Y0081411D01*
X0039644Y0081460D01*
X0039766Y0081506D01*
X0039889Y0081548D01*
X0040013Y0081587D01*
X0040139Y0081621D01*
X0040265Y0081652D01*
X0040392Y0081678D01*
X0040520Y0081701D01*
X0040649Y0081720D01*
X0040778Y0081735D01*
X0040908Y0081746D01*
X0041037Y0081753D01*
X0041167Y0081756D01*
X0041298Y0081755D01*
X0041427Y0081750D01*
X0041557Y0081741D01*
X0041687Y0081728D01*
X0041816Y0081711D01*
X0041944Y0081690D01*
X0042072Y0081666D01*
X0042198Y0081637D01*
X0042324Y0081604D01*
X0042449Y0081568D01*
X0042573Y0081528D01*
X0042695Y0081484D01*
X0042816Y0081436D01*
X0042936Y0081385D01*
X0043054Y0081330D01*
X0043170Y0081271D01*
X0043284Y0081209D01*
X0043396Y0081143D01*
X0043506Y0081074D01*
X0043614Y0081002D01*
X0043720Y0080926D01*
X0043824Y0080848D01*
X0043925Y0080766D01*
X0044023Y0080681D01*
X0044119Y0080593D01*
X0044212Y0080502D01*
X0044302Y0080408D01*
X0044389Y0080312D01*
X0044473Y0080213D01*
X0044555Y0080111D01*
X0044633Y0080007D01*
X0044707Y0079901D01*
X0044779Y0079792D01*
X0044847Y0079681D01*
X0044912Y0079568D01*
X0044973Y0079454D01*
X0045031Y0079337D01*
X0045085Y0079219D01*
X0045135Y0079099D01*
X0045182Y0078978D01*
X0045225Y0078855D01*
X0045264Y0078731D01*
X0045300Y0078606D01*
X0045331Y0078480D01*
X0045359Y0078353D01*
X0045383Y0078225D01*
X0045403Y0078096D01*
X0045419Y0077967D01*
X0045431Y0077838D01*
X0045439Y0077708D01*
X0045443Y0077578D01*
X0045443Y0077448D01*
X0045439Y0077318D01*
X0045431Y0077188D01*
X0045419Y0077059D01*
X0045403Y0076930D01*
X0045383Y0076801D01*
X0045359Y0076673D01*
X0045331Y0076546D01*
X0045300Y0076420D01*
X0045264Y0076295D01*
X0045225Y0076171D01*
X0045182Y0076048D01*
X0045135Y0075927D01*
X0045085Y0075807D01*
X0045031Y0075689D01*
X0044973Y0075572D01*
X0044912Y0075458D01*
X0044847Y0075345D01*
X0044779Y0075234D01*
X0044707Y0075125D01*
X0044633Y0075019D01*
X0044555Y0074915D01*
X0044473Y0074813D01*
X0044389Y0074714D01*
X0044302Y0074618D01*
X0044212Y0074524D01*
X0044119Y0074433D01*
X0044023Y0074345D01*
X0043925Y0074260D01*
X0043824Y0074178D01*
X0043720Y0074100D01*
X0043614Y0074024D01*
X0043506Y0073952D01*
X0043396Y0073883D01*
X0043284Y0073817D01*
X0043170Y0073755D01*
X0043054Y0073696D01*
X0042936Y0073641D01*
X0042816Y0073590D01*
X0042695Y0073542D01*
X0042573Y0073498D01*
X0042449Y0073458D01*
X0042324Y0073422D01*
X0042198Y0073389D01*
X0042072Y0073360D01*
X0041944Y0073336D01*
X0041816Y0073315D01*
X0041687Y0073298D01*
X0041557Y0073285D01*
X0041427Y0073276D01*
X0041298Y0073271D01*
X0041167Y0073270D01*
X0041037Y0073273D01*
X0040908Y0073280D01*
X0040778Y0073291D01*
X0040649Y0073306D01*
X0040520Y0073325D01*
X0040392Y0073348D01*
X0040265Y0073374D01*
X0040139Y0073405D01*
X0040013Y0073439D01*
X0039889Y0073478D01*
X0039766Y0073520D01*
X0039644Y0073566D01*
X0039524Y0073615D01*
X0039405Y0073668D01*
X0039288Y0073725D01*
X0039173Y0073785D01*
X0039060Y0073849D01*
X0038948Y0073917D01*
X0038839Y0073987D01*
X0038732Y0074061D01*
X0038628Y0074139D01*
X0038526Y0074219D01*
X0038426Y0074302D01*
X0038329Y0074389D01*
X0038234Y0074478D01*
X0038143Y0074571D01*
X0038054Y0074666D01*
X0037968Y0074764D01*
X0037886Y0074864D01*
X0037806Y0074967D01*
X0037730Y0075072D01*
X0037656Y0075179D01*
X0037587Y0075289D01*
X0037520Y0075401D01*
X0037457Y0075515D01*
X0037398Y0075630D01*
X0037342Y0075748D01*
X0037289Y0075867D01*
X0037241Y0075987D01*
X0037196Y0076109D01*
X0037155Y0076233D01*
X0037117Y0076357D01*
X0037084Y0076483D01*
X0037054Y0076610D01*
X0037029Y0076737D01*
X0037007Y0076865D01*
X0036989Y0076994D01*
X0036975Y0077123D01*
X0036965Y0077253D01*
X0036959Y0077383D01*
X0036957Y0077513D01*
D13*
X0034280Y0096427D02*
X0048060Y0096427D01*
X0048060Y0100757D02*
X0048060Y0103120D01*
X0048060Y0107450D02*
X0034280Y0107450D01*
X0034280Y0103120D02*
X0034280Y0100757D01*
X0010450Y0067040D02*
X0004945Y0067040D01*
X0007698Y0064288D01*
X0007698Y0067958D01*
X0010450Y0062433D02*
X0010450Y0058763D01*
X0010450Y0060598D02*
X0004945Y0060598D01*
X0006780Y0058763D01*
D14*
X0006170Y0011600D02*
X0006170Y0006600D01*
X0008670Y0004100D01*
X0013670Y0004100D01*
X0016170Y0006600D01*
X0018670Y0004100D01*
X0023670Y0004100D01*
X0026170Y0006600D01*
X0026170Y0011600D01*
X0023670Y0014100D01*
X0018670Y0014100D01*
X0016170Y0011600D01*
X0016170Y0006600D01*
X0016170Y0011600D02*
X0013670Y0014100D01*
X0008670Y0014100D01*
X0006170Y0011600D01*
X0012619Y0019151D02*
X0014981Y0019151D01*
X0014981Y0023876D02*
X0012619Y0023876D01*
X0009332Y0031013D02*
X0007197Y0031013D01*
X0006130Y0032081D01*
X0006130Y0034216D01*
X0007197Y0035284D01*
X0008265Y0035284D01*
X0008265Y0031013D01*
X0009332Y0031013D02*
X0010400Y0032081D01*
X0010400Y0034216D01*
X0010400Y0037459D02*
X0010400Y0039594D01*
X0010400Y0038526D02*
X0006130Y0038526D01*
X0006130Y0037459D01*
X0006130Y0041756D02*
X0010400Y0046026D01*
X0010400Y0048201D02*
X0010400Y0050337D01*
X0010400Y0049269D02*
X0006130Y0049269D01*
X0006130Y0048201D01*
X0006130Y0046026D02*
X0010400Y0041756D01*
X0009332Y0052498D02*
X0007197Y0052498D01*
X0006130Y0053566D01*
X0006130Y0055701D01*
X0007197Y0056769D01*
X0008265Y0056769D01*
X0008265Y0052498D01*
X0009332Y0052498D02*
X0010400Y0053566D01*
X0010400Y0055701D01*
X0015902Y0066159D02*
X0018265Y0066159D01*
X0018619Y0062376D02*
X0020981Y0062376D01*
X0020981Y0057651D02*
X0018619Y0057651D01*
X0018265Y0070883D02*
X0015902Y0070883D01*
X0012036Y0078135D02*
X0012036Y0080498D01*
X0007312Y0080498D02*
X0007312Y0078135D01*
X0007312Y0104694D02*
X0007312Y0107057D01*
X0012036Y0107057D02*
X0012036Y0104694D01*
X0022560Y0109919D02*
X0022560Y0112281D01*
X0027284Y0112281D02*
X0027284Y0109919D01*
X0034938Y0090194D02*
X0034938Y0087832D01*
X0039662Y0087832D02*
X0039662Y0090194D01*
X0051938Y0091194D02*
X0051938Y0088832D01*
X0056662Y0088832D02*
X0056662Y0091194D01*
X0055056Y0109919D02*
X0055056Y0112281D01*
X0059780Y0112281D02*
X0059780Y0109919D01*
X0062580Y0131076D02*
X0062580Y0133439D01*
X0067304Y0133439D02*
X0067304Y0131076D01*
X0071938Y0131332D02*
X0071938Y0133694D01*
X0076662Y0133694D02*
X0076662Y0131332D01*
X0073670Y0147407D02*
X0068670Y0147407D01*
X0066170Y0149907D01*
X0063670Y0147407D01*
X0058670Y0147407D01*
X0056170Y0149907D01*
X0056170Y0154907D01*
X0058670Y0157407D01*
X0063670Y0157407D01*
X0066170Y0154907D01*
X0068670Y0157407D01*
X0073670Y0157407D01*
X0076170Y0154907D01*
X0076170Y0149907D01*
X0073670Y0147407D01*
X0066170Y0149907D02*
X0066170Y0154907D01*
X0051481Y0145376D02*
X0049119Y0145376D01*
X0049119Y0140651D02*
X0051481Y0140651D01*
X0043662Y0145332D02*
X0043662Y0147694D01*
X0038938Y0147694D02*
X0038938Y0145332D01*
X0036662Y0145332D02*
X0036662Y0147694D01*
X0036119Y0153651D02*
X0038481Y0153651D01*
X0038481Y0158376D02*
X0036119Y0158376D01*
X0031938Y0147694D02*
X0031938Y0145332D01*
X0025481Y0144376D02*
X0023119Y0144376D01*
X0023119Y0139651D02*
X0025481Y0139651D01*
X0016170Y0149907D02*
X0013670Y0147407D01*
X0008670Y0147407D01*
X0006170Y0149907D01*
X0006170Y0154907D01*
X0008670Y0157407D01*
X0013670Y0157407D01*
X0016170Y0154907D01*
X0016170Y0149907D01*
X0010804Y0130191D02*
X0010804Y0127828D01*
X0006080Y0127828D02*
X0006080Y0130191D01*
X0028769Y0056683D02*
X0027371Y0055285D01*
X0027371Y0029084D01*
X0054969Y0029084D01*
X0054969Y0056683D01*
X0028769Y0056683D01*
X0028956Y0053683D02*
X0028958Y0053758D01*
X0028964Y0053832D01*
X0028974Y0053906D01*
X0028987Y0053979D01*
X0029005Y0054052D01*
X0029026Y0054123D01*
X0029051Y0054194D01*
X0029080Y0054263D01*
X0029113Y0054330D01*
X0029149Y0054395D01*
X0029188Y0054459D01*
X0029230Y0054520D01*
X0029276Y0054579D01*
X0029325Y0054636D01*
X0029377Y0054689D01*
X0029431Y0054740D01*
X0029488Y0054789D01*
X0029548Y0054833D01*
X0029610Y0054875D01*
X0029674Y0054914D01*
X0029740Y0054949D01*
X0029807Y0054980D01*
X0029877Y0055008D01*
X0029947Y0055032D01*
X0030019Y0055053D01*
X0030092Y0055069D01*
X0030165Y0055082D01*
X0030240Y0055091D01*
X0030314Y0055096D01*
X0030389Y0055097D01*
X0030463Y0055094D01*
X0030538Y0055087D01*
X0030611Y0055076D01*
X0030685Y0055062D01*
X0030757Y0055043D01*
X0030828Y0055021D01*
X0030898Y0054995D01*
X0030967Y0054965D01*
X0031033Y0054932D01*
X0031098Y0054895D01*
X0031161Y0054855D01*
X0031222Y0054811D01*
X0031280Y0054765D01*
X0031336Y0054715D01*
X0031389Y0054663D01*
X0031440Y0054608D01*
X0031487Y0054550D01*
X0031531Y0054490D01*
X0031572Y0054427D01*
X0031610Y0054363D01*
X0031644Y0054297D01*
X0031675Y0054228D01*
X0031702Y0054159D01*
X0031725Y0054088D01*
X0031744Y0054016D01*
X0031760Y0053943D01*
X0031772Y0053869D01*
X0031780Y0053795D01*
X0031784Y0053720D01*
X0031784Y0053646D01*
X0031780Y0053571D01*
X0031772Y0053497D01*
X0031760Y0053423D01*
X0031744Y0053350D01*
X0031725Y0053278D01*
X0031702Y0053207D01*
X0031675Y0053138D01*
X0031644Y0053069D01*
X0031610Y0053003D01*
X0031572Y0052939D01*
X0031531Y0052876D01*
X0031487Y0052816D01*
X0031440Y0052758D01*
X0031389Y0052703D01*
X0031336Y0052651D01*
X0031280Y0052601D01*
X0031222Y0052555D01*
X0031161Y0052511D01*
X0031098Y0052471D01*
X0031033Y0052434D01*
X0030967Y0052401D01*
X0030898Y0052371D01*
X0030828Y0052345D01*
X0030757Y0052323D01*
X0030685Y0052304D01*
X0030611Y0052290D01*
X0030538Y0052279D01*
X0030463Y0052272D01*
X0030389Y0052269D01*
X0030314Y0052270D01*
X0030240Y0052275D01*
X0030165Y0052284D01*
X0030092Y0052297D01*
X0030019Y0052313D01*
X0029947Y0052334D01*
X0029877Y0052358D01*
X0029807Y0052386D01*
X0029740Y0052417D01*
X0029674Y0052452D01*
X0029610Y0052491D01*
X0029548Y0052533D01*
X0029488Y0052577D01*
X0029431Y0052626D01*
X0029377Y0052677D01*
X0029325Y0052730D01*
X0029276Y0052787D01*
X0029230Y0052846D01*
X0029188Y0052907D01*
X0029149Y0052971D01*
X0029113Y0053036D01*
X0029080Y0053103D01*
X0029051Y0053172D01*
X0029026Y0053243D01*
X0029005Y0053314D01*
X0028987Y0053387D01*
X0028974Y0053460D01*
X0028964Y0053534D01*
X0028958Y0053608D01*
X0028956Y0053683D01*
X0028670Y0014100D02*
X0033670Y0014100D01*
X0036170Y0011600D01*
X0038670Y0014100D01*
X0043670Y0014100D01*
X0046170Y0011600D01*
X0048670Y0014100D01*
X0053670Y0014100D01*
X0056170Y0011600D01*
X0056170Y0006600D01*
X0053670Y0004100D01*
X0048670Y0004100D01*
X0046170Y0006600D01*
X0043670Y0004100D01*
X0038670Y0004100D01*
X0036170Y0006600D01*
X0033670Y0004100D01*
X0028670Y0004100D01*
X0026170Y0006600D01*
X0026170Y0011600D02*
X0028670Y0014100D01*
X0036170Y0011600D02*
X0036170Y0006600D01*
X0046170Y0006600D02*
X0046170Y0011600D01*
X0056170Y0011600D02*
X0058670Y0014100D01*
X0063670Y0014100D01*
X0066170Y0011600D01*
X0068670Y0014100D01*
X0073670Y0014100D01*
X0076170Y0011600D01*
X0076170Y0006600D01*
X0073670Y0004100D01*
X0068670Y0004100D01*
X0066170Y0006600D01*
X0063670Y0004100D01*
X0058670Y0004100D01*
X0056170Y0006600D01*
X0059619Y0023651D02*
X0061981Y0023651D01*
X0061981Y0028376D02*
X0059619Y0028376D01*
X0066170Y0011600D02*
X0066170Y0006600D01*
X0067938Y0027332D02*
X0067938Y0029694D01*
X0072662Y0029694D02*
X0072662Y0027332D01*
X0074438Y0027332D02*
X0074438Y0029694D01*
X0079162Y0029694D02*
X0079162Y0027332D01*
X0066505Y0066143D02*
X0064143Y0066143D01*
X0064143Y0070868D02*
X0066505Y0070868D01*
X0070304Y0078135D02*
X0070304Y0080498D01*
X0075028Y0080498D02*
X0075028Y0078135D01*
X0076528Y0106194D02*
X0076528Y0108557D01*
X0071804Y0108557D02*
X0071804Y0106194D01*
X0003995Y0049269D02*
X0002927Y0049269D01*
X0002927Y0038526D02*
X0003995Y0038526D01*
D15*
X0011170Y0101313D02*
X0011171Y0102044D01*
X0011190Y0102774D01*
X0011227Y0103504D01*
X0011281Y0104233D01*
X0011354Y0104960D01*
X0011444Y0105685D01*
X0011551Y0106407D01*
X0011677Y0107127D01*
X0011819Y0107844D01*
X0011980Y0108557D01*
X0012157Y0109266D01*
X0012352Y0109970D01*
X0012563Y0110669D01*
X0012792Y0111363D01*
X0013037Y0112051D01*
X0013300Y0112733D01*
X0013578Y0113408D01*
X0013874Y0114077D01*
X0014185Y0114738D01*
X0014512Y0115391D01*
X0014855Y0116036D01*
X0015214Y0116673D01*
X0015588Y0117300D01*
X0015977Y0117919D01*
X0016381Y0118527D01*
X0016800Y0119126D01*
X0017234Y0119714D01*
X0017681Y0120292D01*
X0018143Y0120858D01*
X0018618Y0121413D01*
X0019106Y0121956D01*
X0019608Y0122488D01*
X0020122Y0123006D01*
X0020649Y0123513D01*
X0021188Y0124006D01*
X0021739Y0124486D01*
X0022302Y0124952D01*
X0022875Y0125405D01*
X0023460Y0125843D01*
X0024055Y0126267D01*
X0024660Y0126677D01*
X0025275Y0127071D01*
X0025899Y0127451D01*
X0026532Y0127815D01*
X0027175Y0128164D01*
X0027825Y0128497D01*
X0028483Y0128814D01*
X0029149Y0129114D01*
X0029822Y0129399D01*
X0030502Y0129667D01*
X0031188Y0129919D01*
X0031880Y0130153D01*
X0032577Y0130371D01*
X0033279Y0130572D01*
X0033987Y0130755D01*
X0034698Y0130922D01*
X0035413Y0131071D01*
X0036132Y0131202D01*
X0036854Y0131316D01*
X0037578Y0131412D01*
X0038304Y0131491D01*
X0039033Y0131552D01*
X0039762Y0131595D01*
X0040492Y0131620D01*
X0041223Y0131628D01*
X0041953Y0131618D01*
X0042683Y0131590D01*
X0043413Y0131544D01*
X0044140Y0131481D01*
X0044867Y0131399D01*
X0045590Y0131301D01*
X0046312Y0131184D01*
X0047030Y0131050D01*
X0047745Y0130899D01*
X0048456Y0130730D01*
X0049162Y0130544D01*
X0049864Y0130341D01*
X0050561Y0130120D01*
X0051252Y0129883D01*
X0051937Y0129629D01*
X0052616Y0129359D01*
X0053288Y0129072D01*
X0053952Y0128769D01*
X0054609Y0128450D01*
X0055259Y0128114D01*
X0055899Y0127763D01*
X0056532Y0127397D01*
X0057155Y0127015D01*
X0057768Y0126618D01*
X0058372Y0126207D01*
X0058965Y0125781D01*
X0059548Y0125340D01*
X0060120Y0124886D01*
X0060681Y0124417D01*
X0061230Y0123935D01*
X0061767Y0123440D01*
X0062293Y0122932D01*
X0062805Y0122412D01*
X0063305Y0121879D01*
X0063791Y0121334D01*
X0064265Y0120777D01*
X0064724Y0120209D01*
X0065170Y0119630D01*
X0065601Y0119040D01*
X0066018Y0118440D01*
X0066420Y0117830D01*
X0066807Y0117210D01*
X0067179Y0116581D01*
X0067535Y0115944D01*
X0067876Y0115297D01*
X0068201Y0114643D01*
X0068510Y0113981D01*
X0068803Y0113311D01*
X0069079Y0112635D01*
X0069339Y0111952D01*
X0069582Y0111263D01*
X0069808Y0110568D01*
X0070018Y0109868D01*
X0070210Y0109163D01*
X0070385Y0108454D01*
X0070542Y0107741D01*
X0070682Y0107024D01*
X0070805Y0106303D01*
X0070910Y0105580D01*
X0070998Y0104855D01*
X0071068Y0104128D01*
X0071120Y0103399D01*
X0071154Y0102669D01*
X0071170Y0101939D01*
X0006231Y0101939D02*
X0006242Y0102796D01*
X0006273Y0103653D01*
X0006326Y0104509D01*
X0006399Y0105364D01*
X0006494Y0106216D01*
X0006609Y0107066D01*
X0006745Y0107912D01*
X0006902Y0108755D01*
X0007080Y0109594D01*
X0007278Y0110428D01*
X0007497Y0111258D01*
X0007735Y0112081D01*
X0007994Y0112899D01*
X0008273Y0113710D01*
X0008572Y0114513D01*
X0008891Y0115310D01*
X0009228Y0116098D01*
X0009586Y0116877D01*
X0009962Y0117648D01*
X0010357Y0118409D01*
X0010770Y0119160D01*
X0011202Y0119901D01*
X0011652Y0120631D01*
X0012119Y0121350D01*
X0012604Y0122057D01*
X0013107Y0122752D01*
X0013626Y0123435D01*
X0014162Y0124104D01*
X0014714Y0124760D01*
X0015282Y0125403D01*
X0015866Y0126031D01*
X0016464Y0126645D01*
X0017078Y0127243D01*
X0017706Y0127827D01*
X0018349Y0128395D01*
X0019005Y0128947D01*
X0019674Y0129483D01*
X0020357Y0130002D01*
X0021052Y0130505D01*
X0021759Y0130990D01*
X0022478Y0131457D01*
X0023208Y0131907D01*
X0023949Y0132339D01*
X0024700Y0132752D01*
X0025461Y0133147D01*
X0026232Y0133523D01*
X0027011Y0133881D01*
X0027799Y0134218D01*
X0028596Y0134537D01*
X0029399Y0134836D01*
X0030210Y0135115D01*
X0031028Y0135374D01*
X0031851Y0135612D01*
X0032681Y0135831D01*
X0033515Y0136029D01*
X0034354Y0136207D01*
X0035197Y0136364D01*
X0036043Y0136500D01*
X0036893Y0136615D01*
X0037745Y0136710D01*
X0038600Y0136783D01*
X0039456Y0136836D01*
X0040313Y0136867D01*
X0041170Y0136878D01*
X0042027Y0136867D01*
X0042884Y0136836D01*
X0043740Y0136783D01*
X0044595Y0136710D01*
X0045447Y0136615D01*
X0046297Y0136500D01*
X0047143Y0136364D01*
X0047986Y0136207D01*
X0048825Y0136029D01*
X0049659Y0135831D01*
X0050489Y0135612D01*
X0051312Y0135374D01*
X0052130Y0135115D01*
X0052941Y0134836D01*
X0053744Y0134537D01*
X0054541Y0134218D01*
X0055329Y0133881D01*
X0056108Y0133523D01*
X0056879Y0133147D01*
X0057640Y0132752D01*
X0058391Y0132339D01*
X0059132Y0131907D01*
X0059862Y0131457D01*
X0060581Y0130990D01*
X0061288Y0130505D01*
X0061983Y0130002D01*
X0062666Y0129483D01*
X0063335Y0128947D01*
X0063991Y0128395D01*
X0064634Y0127827D01*
X0065262Y0127243D01*
X0065876Y0126645D01*
X0066474Y0126031D01*
X0067058Y0125403D01*
X0067626Y0124760D01*
X0068178Y0124104D01*
X0068714Y0123435D01*
X0069233Y0122752D01*
X0069736Y0122057D01*
X0070221Y0121350D01*
X0070688Y0120631D01*
X0071138Y0119901D01*
X0071570Y0119160D01*
X0071983Y0118409D01*
X0072378Y0117648D01*
X0072754Y0116877D01*
X0073112Y0116098D01*
X0073449Y0115310D01*
X0073768Y0114513D01*
X0074067Y0113710D01*
X0074346Y0112899D01*
X0074605Y0112081D01*
X0074843Y0111258D01*
X0075062Y0110428D01*
X0075260Y0109594D01*
X0075438Y0108755D01*
X0075595Y0107912D01*
X0075731Y0107066D01*
X0075846Y0106216D01*
X0075941Y0105364D01*
X0076014Y0104509D01*
X0076067Y0103653D01*
X0076098Y0102796D01*
X0076109Y0101939D01*
X0076098Y0101082D01*
X0076067Y0100225D01*
X0076014Y0099369D01*
X0075941Y0098514D01*
X0075846Y0097662D01*
X0075731Y0096812D01*
X0075595Y0095966D01*
X0075438Y0095123D01*
X0075260Y0094284D01*
X0075062Y0093450D01*
X0074843Y0092620D01*
X0074605Y0091797D01*
X0074346Y0090979D01*
X0074067Y0090168D01*
X0073768Y0089365D01*
X0073449Y0088568D01*
X0073112Y0087780D01*
X0072754Y0087001D01*
X0072378Y0086230D01*
X0071983Y0085469D01*
X0071570Y0084718D01*
X0071138Y0083977D01*
X0070688Y0083247D01*
X0070221Y0082528D01*
X0069736Y0081821D01*
X0069233Y0081126D01*
X0068714Y0080443D01*
X0068178Y0079774D01*
X0067626Y0079118D01*
X0067058Y0078475D01*
X0066474Y0077847D01*
X0065876Y0077233D01*
X0065262Y0076635D01*
X0064634Y0076051D01*
X0063991Y0075483D01*
X0063335Y0074931D01*
X0062666Y0074395D01*
X0061983Y0073876D01*
X0061288Y0073373D01*
X0060581Y0072888D01*
X0059862Y0072421D01*
X0059132Y0071971D01*
X0058391Y0071539D01*
X0057640Y0071126D01*
X0056879Y0070731D01*
X0056108Y0070355D01*
X0055329Y0069997D01*
X0054541Y0069660D01*
X0053744Y0069341D01*
X0052941Y0069042D01*
X0052130Y0068763D01*
X0051312Y0068504D01*
X0050489Y0068266D01*
X0049659Y0068047D01*
X0048825Y0067849D01*
X0047986Y0067671D01*
X0047143Y0067514D01*
X0046297Y0067378D01*
X0045447Y0067263D01*
X0044595Y0067168D01*
X0043740Y0067095D01*
X0042884Y0067042D01*
X0042027Y0067011D01*
X0041170Y0067000D01*
X0040313Y0067011D01*
X0039456Y0067042D01*
X0038600Y0067095D01*
X0037745Y0067168D01*
X0036893Y0067263D01*
X0036043Y0067378D01*
X0035197Y0067514D01*
X0034354Y0067671D01*
X0033515Y0067849D01*
X0032681Y0068047D01*
X0031851Y0068266D01*
X0031028Y0068504D01*
X0030210Y0068763D01*
X0029399Y0069042D01*
X0028596Y0069341D01*
X0027799Y0069660D01*
X0027011Y0069997D01*
X0026232Y0070355D01*
X0025461Y0070731D01*
X0024700Y0071126D01*
X0023949Y0071539D01*
X0023208Y0071971D01*
X0022478Y0072421D01*
X0021759Y0072888D01*
X0021052Y0073373D01*
X0020357Y0073876D01*
X0019674Y0074395D01*
X0019005Y0074931D01*
X0018349Y0075483D01*
X0017706Y0076051D01*
X0017078Y0076635D01*
X0016464Y0077233D01*
X0015866Y0077847D01*
X0015282Y0078475D01*
X0014714Y0079118D01*
X0014162Y0079774D01*
X0013626Y0080443D01*
X0013107Y0081126D01*
X0012604Y0081821D01*
X0012119Y0082528D01*
X0011652Y0083247D01*
X0011202Y0083977D01*
X0010770Y0084718D01*
X0010357Y0085469D01*
X0009962Y0086230D01*
X0009586Y0087001D01*
X0009228Y0087780D01*
X0008891Y0088568D01*
X0008572Y0089365D01*
X0008273Y0090168D01*
X0007994Y0090979D01*
X0007735Y0091797D01*
X0007497Y0092620D01*
X0007278Y0093450D01*
X0007080Y0094284D01*
X0006902Y0095123D01*
X0006745Y0095966D01*
X0006609Y0096812D01*
X0006494Y0097662D01*
X0006399Y0098514D01*
X0006326Y0099369D01*
X0006273Y0100225D01*
X0006242Y0101082D01*
X0006231Y0101939D01*
D16*
X0007237Y0094261D02*
X0007237Y0089931D01*
X0015111Y0089931D02*
X0015111Y0094261D01*
X0015580Y0080482D02*
X0015580Y0076151D01*
X0023454Y0076151D02*
X0023454Y0080482D01*
X0024863Y0087848D02*
X0024863Y0092179D01*
X0032737Y0092179D02*
X0032737Y0087848D01*
X0042363Y0089679D02*
X0042363Y0085348D01*
X0050237Y0085348D02*
X0050237Y0089679D01*
X0058887Y0080482D02*
X0058887Y0076151D01*
X0066761Y0076151D02*
X0066761Y0080482D01*
X0067229Y0089931D02*
X0067229Y0094261D01*
X0075103Y0094261D02*
X0075103Y0089931D01*
X0072863Y0113750D02*
X0068532Y0113750D01*
X0068532Y0121624D02*
X0072863Y0121624D01*
X0061292Y0128848D02*
X0061292Y0133179D01*
X0053418Y0133179D02*
X0053418Y0128848D01*
X0049965Y0118950D02*
X0045635Y0118950D01*
X0045635Y0111076D02*
X0049965Y0111076D01*
X0041237Y0112348D02*
X0041237Y0116679D01*
X0033363Y0116679D02*
X0033363Y0112348D01*
X0022965Y0123761D02*
X0018635Y0123761D01*
X0018635Y0131635D02*
X0022965Y0131635D01*
X0022135Y0148076D02*
X0026465Y0148076D01*
X0026465Y0155950D02*
X0022135Y0155950D01*
X0013808Y0121624D02*
X0009477Y0121624D01*
X0009477Y0113750D02*
X0013808Y0113750D01*
X0045863Y0150848D02*
X0045863Y0155179D01*
X0053737Y0155179D02*
X0053737Y0150848D01*
D17*
X0053901Y0139965D02*
X0052800Y0139965D01*
X0052800Y0137763D01*
X0052800Y0138497D02*
X0053901Y0138497D01*
X0054268Y0138864D01*
X0054268Y0139598D01*
X0053901Y0139965D01*
X0055010Y0139598D02*
X0055377Y0139965D01*
X0056111Y0139965D01*
X0056478Y0139598D01*
X0056478Y0139231D01*
X0055010Y0137763D01*
X0056478Y0137763D01*
X0057220Y0138864D02*
X0058688Y0138864D01*
X0058321Y0137763D02*
X0058321Y0139965D01*
X0057220Y0138864D01*
X0054268Y0137763D02*
X0053534Y0138497D01*
X0044258Y0138830D02*
X0044258Y0140298D01*
X0043891Y0140665D01*
X0043157Y0140665D01*
X0042790Y0140298D01*
X0042790Y0139931D01*
X0043157Y0139564D01*
X0044258Y0139564D01*
X0044258Y0138830D02*
X0043891Y0138463D01*
X0043157Y0138463D01*
X0042790Y0138830D01*
X0042048Y0138463D02*
X0040580Y0138463D01*
X0041314Y0138463D02*
X0041314Y0140665D01*
X0040580Y0139931D01*
X0039838Y0139564D02*
X0039471Y0139197D01*
X0038370Y0139197D01*
X0038370Y0138463D02*
X0038370Y0140665D01*
X0039471Y0140665D01*
X0039838Y0140298D01*
X0039838Y0139564D01*
X0039104Y0139197D02*
X0039838Y0138463D01*
X0036458Y0138830D02*
X0036091Y0138463D01*
X0035357Y0138463D01*
X0034990Y0138830D01*
X0034248Y0138463D02*
X0032780Y0138463D01*
X0034248Y0139931D01*
X0034248Y0140298D01*
X0033881Y0140665D01*
X0033147Y0140665D01*
X0032780Y0140298D01*
X0032038Y0140298D02*
X0031671Y0140665D01*
X0030570Y0140665D01*
X0030570Y0138463D01*
X0030570Y0139197D02*
X0031671Y0139197D01*
X0032038Y0139564D01*
X0032038Y0140298D01*
X0031304Y0139197D02*
X0032038Y0138463D01*
X0034990Y0140298D02*
X0035357Y0140665D01*
X0036091Y0140665D01*
X0036458Y0140298D01*
X0036458Y0139931D01*
X0036091Y0139564D01*
X0036458Y0139197D01*
X0036458Y0138830D01*
X0036091Y0139564D02*
X0035724Y0139564D01*
X0027557Y0138332D02*
X0027557Y0137898D01*
X0027123Y0137464D01*
X0027557Y0137031D01*
X0027557Y0136597D01*
X0027123Y0136163D01*
X0026255Y0136163D01*
X0025822Y0136597D01*
X0024978Y0136163D02*
X0023244Y0136163D01*
X0022400Y0136163D02*
X0021533Y0137031D01*
X0021966Y0137031D02*
X0020665Y0137031D01*
X0020665Y0136163D02*
X0020665Y0138766D01*
X0021966Y0138766D01*
X0022400Y0138332D01*
X0022400Y0137464D01*
X0021966Y0137031D01*
X0023244Y0137898D02*
X0024111Y0138766D01*
X0024111Y0136163D01*
X0025822Y0138332D02*
X0026255Y0138766D01*
X0027123Y0138766D01*
X0027557Y0138332D01*
X0027123Y0137464D02*
X0026689Y0137464D01*
X0026738Y0155963D02*
X0026004Y0156697D01*
X0026371Y0156697D02*
X0025270Y0156697D01*
X0025270Y0155963D02*
X0025270Y0158165D01*
X0026371Y0158165D01*
X0026738Y0157798D01*
X0026738Y0157064D01*
X0026371Y0156697D01*
X0027480Y0155963D02*
X0028948Y0157431D01*
X0028948Y0157798D01*
X0028581Y0158165D01*
X0027847Y0158165D01*
X0027480Y0157798D01*
X0027480Y0155963D02*
X0028948Y0155963D01*
X0029690Y0155963D02*
X0031158Y0157431D01*
X0031158Y0157798D01*
X0030791Y0158165D01*
X0030057Y0158165D01*
X0029690Y0157798D01*
X0029690Y0155963D02*
X0031158Y0155963D01*
X0015158Y0076387D02*
X0015158Y0074652D01*
X0015158Y0073808D02*
X0014290Y0072941D01*
X0014290Y0073375D02*
X0014290Y0072074D01*
X0015158Y0072074D02*
X0012556Y0072074D01*
X0012556Y0073375D01*
X0012989Y0073808D01*
X0013857Y0073808D01*
X0014290Y0073375D01*
X0013423Y0074652D02*
X0012556Y0075519D01*
X0015158Y0075519D01*
M02*
