G75*
%MOIN*%
%OFA0B0*%
%FSLAX25Y25*%
%IPPOS*%
%LPD*%
%AMOC8*
5,1,8,0,0,1.08239X$1,22.5*
%
%ADD10C,0.05761*%
%ADD11C,0.06800*%
%ADD12R,0.03950X0.05524*%
%ADD13R,0.05524X0.03950*%
D10*
X0029845Y0080360D03*
X0021114Y0088095D03*
X0016978Y0099001D03*
X0018384Y0110580D03*
X0025010Y0120180D03*
X0035338Y0125600D03*
X0047002Y0125600D03*
X0057330Y0120180D03*
X0063956Y0110580D03*
X0065362Y0099001D03*
X0061226Y0088095D03*
X0052495Y0080360D03*
X0041170Y0077569D03*
D11*
X0011170Y0012100D02*
X0011170Y0006100D01*
X0021170Y0006100D02*
X0021170Y0012100D01*
X0031170Y0012100D02*
X0031170Y0006100D01*
X0041170Y0006100D02*
X0041170Y0012100D01*
X0051170Y0012100D02*
X0051170Y0006100D01*
X0061170Y0006100D02*
X0061170Y0012100D01*
X0071170Y0012100D02*
X0071170Y0006100D01*
X0071170Y0149407D02*
X0071170Y0155407D01*
X0061170Y0155407D02*
X0061170Y0149407D01*
X0011170Y0149407D02*
X0011170Y0155407D01*
D12*
X0022757Y0073013D03*
X0029843Y0073013D03*
X0029257Y0052013D03*
X0029257Y0045213D03*
X0024143Y0049013D03*
X0017057Y0049013D03*
X0036343Y0052013D03*
X0036343Y0045213D03*
X0052257Y0023013D03*
X0059343Y0023013D03*
X0057257Y0064413D03*
X0060343Y0074013D03*
X0064343Y0064413D03*
X0053257Y0074013D03*
D13*
X0042300Y0060057D03*
X0042300Y0052970D03*
M02*
