G75*
%MOIN*%
%OFA0B0*%
%FSLAX25Y25*%
%IPPOS*%
%LPD*%
%AMOC8*
5,1,8,0,0,1.08239X$1,22.5*
%
%ADD10C,0.00600*%
%ADD11C,0.00300*%
D10*
X0019419Y0046651D02*
X0021781Y0046651D01*
X0021781Y0051376D02*
X0019419Y0051376D01*
X0025119Y0070651D02*
X0027481Y0070651D01*
X0027481Y0075376D02*
X0025119Y0075376D01*
X0031619Y0054376D02*
X0033981Y0054376D01*
X0033981Y0049651D02*
X0031619Y0049651D01*
X0031619Y0047576D02*
X0033981Y0047576D01*
X0033981Y0042851D02*
X0031619Y0042851D01*
X0039938Y0055332D02*
X0039938Y0057694D01*
X0044662Y0057694D02*
X0044662Y0055332D01*
X0055619Y0071651D02*
X0057981Y0071651D01*
X0057981Y0076376D02*
X0055619Y0076376D01*
X0059619Y0066776D02*
X0061981Y0066776D01*
X0061981Y0062051D02*
X0059619Y0062051D01*
X0056981Y0025376D02*
X0054619Y0025376D01*
X0054619Y0020651D02*
X0056981Y0020651D01*
D11*
X0056843Y0026713D02*
X0054908Y0026713D01*
X0055876Y0026713D02*
X0055876Y0029616D01*
X0056843Y0028648D01*
X0057855Y0029132D02*
X0057855Y0028165D01*
X0058338Y0027681D01*
X0059790Y0027681D01*
X0059790Y0026713D02*
X0059790Y0029616D01*
X0058338Y0029616D01*
X0057855Y0029132D01*
X0058822Y0027681D02*
X0057855Y0026713D01*
X0053897Y0027197D02*
X0053897Y0027681D01*
X0053413Y0028165D01*
X0052445Y0028165D01*
X0051962Y0027681D01*
X0051962Y0027197D01*
X0052445Y0026713D01*
X0053413Y0026713D01*
X0053897Y0027197D01*
X0053413Y0028165D02*
X0053897Y0028648D01*
X0053897Y0029132D01*
X0053413Y0029616D01*
X0052445Y0029616D01*
X0051962Y0029132D01*
X0051962Y0028648D01*
X0052445Y0028165D01*
X0038450Y0038213D02*
X0038450Y0041116D01*
X0036999Y0041116D01*
X0036515Y0040632D01*
X0036515Y0039665D01*
X0036999Y0039181D01*
X0038450Y0039181D01*
X0037483Y0039181D02*
X0036515Y0038213D01*
X0035503Y0038213D02*
X0033569Y0038213D01*
X0034536Y0038213D02*
X0034536Y0041116D01*
X0035503Y0040148D01*
X0032557Y0041116D02*
X0030622Y0041116D01*
X0030622Y0040632D01*
X0032557Y0038697D01*
X0032557Y0038213D01*
X0033503Y0056413D02*
X0031569Y0056413D01*
X0030557Y0056897D02*
X0030073Y0056413D01*
X0029106Y0056413D01*
X0028622Y0056897D01*
X0028622Y0057381D01*
X0029106Y0057865D01*
X0030073Y0057865D01*
X0030557Y0058348D01*
X0030557Y0058832D01*
X0030073Y0059316D01*
X0029106Y0059316D01*
X0028622Y0058832D01*
X0028622Y0058348D01*
X0029106Y0057865D01*
X0030073Y0057865D02*
X0030557Y0057381D01*
X0030557Y0056897D01*
X0031569Y0058348D02*
X0031569Y0058832D01*
X0032052Y0059316D01*
X0033020Y0059316D01*
X0033503Y0058832D01*
X0034515Y0058832D02*
X0034515Y0057865D01*
X0034999Y0057381D01*
X0036450Y0057381D01*
X0035483Y0057381D02*
X0034515Y0056413D01*
X0033503Y0056413D02*
X0031569Y0058348D01*
X0034515Y0058832D02*
X0034999Y0059316D01*
X0036450Y0059316D01*
X0036450Y0056413D01*
X0030590Y0065913D02*
X0030590Y0068816D01*
X0029138Y0068816D01*
X0028655Y0068332D01*
X0028655Y0067365D01*
X0029138Y0066881D01*
X0030590Y0066881D01*
X0029622Y0066881D02*
X0028655Y0065913D01*
X0027643Y0065913D02*
X0025708Y0067848D01*
X0025708Y0068332D01*
X0026192Y0068816D01*
X0027159Y0068816D01*
X0027643Y0068332D01*
X0027643Y0065913D02*
X0025708Y0065913D01*
X0024697Y0065913D02*
X0022762Y0065913D01*
X0023729Y0065913D02*
X0023729Y0068816D01*
X0024697Y0067848D01*
X0013650Y0050316D02*
X0013650Y0047413D01*
X0013650Y0048381D02*
X0012199Y0048381D01*
X0011715Y0048865D01*
X0011715Y0049832D01*
X0012199Y0050316D01*
X0013650Y0050316D01*
X0012683Y0048381D02*
X0011715Y0047413D01*
X0010703Y0047413D02*
X0008769Y0049348D01*
X0008769Y0049832D01*
X0009252Y0050316D01*
X0010220Y0050316D01*
X0010703Y0049832D01*
X0010703Y0047413D02*
X0008769Y0047413D01*
X0007757Y0047897D02*
X0007757Y0048865D01*
X0006306Y0048865D01*
X0005822Y0048381D01*
X0005822Y0047897D01*
X0006306Y0047413D01*
X0007273Y0047413D01*
X0007757Y0047897D01*
X0007757Y0048865D02*
X0006789Y0049832D01*
X0005822Y0050316D01*
X0046900Y0057263D02*
X0049802Y0057263D01*
X0049802Y0058715D01*
X0049319Y0059198D01*
X0048351Y0059198D01*
X0047867Y0058715D01*
X0047867Y0057263D01*
X0047867Y0058231D02*
X0046900Y0059198D01*
X0046900Y0060210D02*
X0048835Y0062145D01*
X0049319Y0062145D01*
X0049802Y0061661D01*
X0049802Y0060694D01*
X0049319Y0060210D01*
X0049802Y0063156D02*
X0048351Y0063156D01*
X0048835Y0064124D01*
X0048835Y0064608D01*
X0048351Y0065091D01*
X0047384Y0065091D01*
X0046900Y0064608D01*
X0046900Y0063640D01*
X0047384Y0063156D01*
X0046900Y0062145D02*
X0046900Y0060210D01*
X0049802Y0063156D02*
X0049802Y0065091D01*
X0063662Y0072797D02*
X0064145Y0072313D01*
X0065113Y0072313D01*
X0065597Y0072797D01*
X0063662Y0074732D01*
X0063662Y0072797D01*
X0063662Y0074732D02*
X0064145Y0075216D01*
X0065113Y0075216D01*
X0065597Y0074732D01*
X0065597Y0072797D01*
X0066608Y0072313D02*
X0068543Y0072313D01*
X0066608Y0074248D01*
X0066608Y0074732D01*
X0067092Y0075216D01*
X0068059Y0075216D01*
X0068543Y0074732D01*
X0069555Y0074732D02*
X0069555Y0073765D01*
X0070038Y0073281D01*
X0071490Y0073281D01*
X0071490Y0072313D02*
X0071490Y0075216D01*
X0070038Y0075216D01*
X0069555Y0074732D01*
X0070522Y0073281D02*
X0069555Y0072313D01*
X0070252Y0065516D02*
X0071220Y0065516D01*
X0071703Y0065032D01*
X0072715Y0065032D02*
X0072715Y0064065D01*
X0073199Y0063581D01*
X0074650Y0063581D01*
X0074650Y0062613D02*
X0074650Y0065516D01*
X0073199Y0065516D01*
X0072715Y0065032D01*
X0073683Y0063581D02*
X0072715Y0062613D01*
X0071703Y0062613D02*
X0069769Y0064548D01*
X0069769Y0065032D01*
X0070252Y0065516D01*
X0068757Y0065516D02*
X0066822Y0065516D01*
X0066822Y0065032D01*
X0068757Y0063097D01*
X0068757Y0062613D01*
X0069769Y0062613D02*
X0071703Y0062613D01*
M02*
