G75*
%MOIN*%
%OFA0B0*%
%FSLAX25Y25*%
%IPPOS*%
%LPD*%
%AMOC8*
5,1,8,0,0,1.08239X$1,22.5*
%
%ADD10C,0.10000*%
%ADD11C,0.06000*%
%ADD12OC8,0.06000*%
%ADD13C,0.06791*%
%ADD14C,0.05020*%
%ADD15R,0.14409X0.09055*%
%ADD16R,0.16929X0.09055*%
%ADD17C,0.06693*%
%ADD18C,0.08661*%
%ADD19C,0.07400*%
%ADD20C,0.05000*%
%ADD21C,0.03369*%
%ADD22C,0.01600*%
%ADD23C,0.00800*%
%ADD24C,0.03762*%
%ADD25C,0.00600*%
%ADD26C,0.01400*%
%ADD27C,0.00700*%
%ADD28C,0.01200*%
D10*
X0363847Y0034904D03*
X0383847Y0034904D03*
X0373847Y0044904D03*
X0363847Y0054904D03*
X0383847Y0054904D03*
D11*
X0391091Y0066924D02*
X0391091Y0072924D01*
X0401091Y0072924D02*
X0401091Y0066924D01*
X0411091Y0066924D02*
X0411091Y0072924D01*
X0421091Y0072924D02*
X0421091Y0066924D01*
X0431091Y0066924D02*
X0431091Y0072924D01*
X0441091Y0072924D02*
X0441091Y0066924D01*
X0451091Y0066924D02*
X0451091Y0072924D01*
X0471013Y0072924D02*
X0471013Y0066924D01*
X0481013Y0066924D02*
X0481013Y0072924D01*
X0491013Y0072924D02*
X0491013Y0066924D01*
X0501013Y0066924D02*
X0501013Y0072924D01*
X0511013Y0072924D02*
X0511013Y0066924D01*
X0521013Y0066924D02*
X0521013Y0072924D01*
X0531013Y0072924D02*
X0531013Y0066924D01*
X0356603Y0066924D02*
X0356603Y0072924D01*
X0346603Y0072924D02*
X0346603Y0066924D01*
X0336603Y0066924D02*
X0336603Y0072924D01*
X0326603Y0072924D02*
X0326603Y0066924D01*
X0316603Y0066924D02*
X0316603Y0072924D01*
X0306603Y0072924D02*
X0306603Y0066924D01*
X0296603Y0066924D02*
X0296603Y0072924D01*
X0276682Y0072924D02*
X0276682Y0066924D01*
X0266682Y0066924D02*
X0266682Y0072924D01*
X0256682Y0072924D02*
X0256682Y0066924D01*
X0246682Y0066924D02*
X0246682Y0072924D01*
X0236682Y0072924D02*
X0236682Y0066924D01*
X0226682Y0066924D02*
X0226682Y0072924D01*
X0216682Y0072924D02*
X0216682Y0066924D01*
X0182194Y0066924D02*
X0182194Y0072924D01*
X0172194Y0072924D02*
X0172194Y0066924D01*
X0162194Y0066924D02*
X0162194Y0072924D01*
X0152194Y0072924D02*
X0152194Y0066924D01*
X0142194Y0066924D02*
X0142194Y0072924D01*
X0132194Y0072924D02*
X0132194Y0066924D01*
X0122194Y0066924D02*
X0122194Y0072924D01*
X0102272Y0072924D02*
X0102272Y0066924D01*
X0092272Y0066924D02*
X0092272Y0072924D01*
X0082272Y0072924D02*
X0082272Y0066924D01*
X0072272Y0066924D02*
X0072272Y0072924D01*
X0062272Y0072924D02*
X0062272Y0066924D01*
X0052272Y0066924D02*
X0052272Y0072924D01*
X0042272Y0072924D02*
X0042272Y0066924D01*
X0066300Y0048404D02*
X0066300Y0042404D01*
X0076300Y0042404D02*
X0076300Y0048404D01*
X0086300Y0048404D02*
X0086300Y0042404D01*
X0096300Y0042404D02*
X0096300Y0048404D01*
X0267800Y0105404D02*
X0267800Y0111404D01*
X0277800Y0111404D02*
X0277800Y0105404D01*
X0287800Y0105404D02*
X0287800Y0111404D01*
X0297800Y0111404D02*
X0297800Y0105404D01*
X0307800Y0105404D02*
X0307800Y0111404D01*
X0307800Y0124404D02*
X0307800Y0130404D01*
X0297800Y0130404D02*
X0297800Y0124404D01*
X0287800Y0124404D02*
X0287800Y0130404D01*
X0277800Y0130404D02*
X0277800Y0124404D01*
X0267800Y0124404D02*
X0267800Y0130404D01*
X0266682Y0210231D02*
X0266682Y0216231D01*
X0276682Y0216231D02*
X0276682Y0210231D01*
X0296603Y0210231D02*
X0296603Y0216231D01*
X0346603Y0216231D02*
X0346603Y0210231D01*
X0356603Y0210231D02*
X0356603Y0216231D01*
X0391091Y0216231D02*
X0391091Y0210231D01*
X0441091Y0210231D02*
X0441091Y0216231D01*
X0451091Y0216231D02*
X0451091Y0210231D01*
X0471013Y0210231D02*
X0471013Y0216231D01*
X0521013Y0216231D02*
X0521013Y0210231D01*
X0531013Y0210231D02*
X0531013Y0216231D01*
X0216682Y0216231D02*
X0216682Y0210231D01*
X0182194Y0210231D02*
X0182194Y0216231D01*
X0172194Y0216231D02*
X0172194Y0210231D01*
X0122194Y0210231D02*
X0122194Y0216231D01*
X0102272Y0216231D02*
X0102272Y0210231D01*
X0092272Y0210231D02*
X0092272Y0216231D01*
X0042272Y0216231D02*
X0042272Y0210231D01*
D12*
X0230800Y0048404D03*
X0240800Y0048404D03*
X0240800Y0038404D03*
X0230800Y0038404D03*
X0404280Y0036183D03*
X0414280Y0036183D03*
X0414280Y0046183D03*
X0404280Y0046183D03*
D13*
X0212430Y0033309D03*
X0184871Y0033309D03*
D14*
X0188808Y0043939D03*
X0208493Y0043939D03*
D15*
X0428263Y0140904D03*
D16*
X0492992Y0140904D03*
D17*
X0495894Y0035672D03*
X0515580Y0035672D03*
X0456524Y0035672D03*
X0436839Y0035672D03*
D18*
X0432902Y0045514D03*
X0460461Y0045514D03*
X0491957Y0045514D03*
X0519517Y0045514D03*
D19*
X0564800Y0060904D03*
X0564800Y0070904D03*
X0564800Y0080904D03*
D20*
X0201300Y0127904D03*
X0198300Y0114404D03*
D21*
X0211100Y0115304D03*
X0196300Y0108904D03*
X0198800Y0100904D03*
X0194300Y0097904D03*
X0250700Y0087104D03*
X0271800Y0061904D03*
X0275600Y0038504D03*
X0188800Y0054404D03*
X0334800Y0090904D03*
X0430800Y0089404D03*
X0475800Y0123404D03*
X0480800Y0140904D03*
X0506300Y0154904D03*
X0545300Y0139904D03*
X0518900Y0122204D03*
X0436100Y0153404D03*
X0390800Y0131404D03*
X0373600Y0131804D03*
X0382300Y0146404D03*
X0296700Y0153804D03*
X0259800Y0145404D03*
X0247100Y0153104D03*
X0217600Y0153304D03*
X0202300Y0148904D03*
X0192600Y0149304D03*
X0188800Y0142404D03*
X0174300Y0141404D03*
X0189300Y0134404D03*
X0190800Y0127404D03*
X0195800Y0127904D03*
X0201300Y0127904D03*
X0206300Y0136904D03*
X0182600Y0123804D03*
X0200300Y0161904D03*
X0194800Y0168904D03*
X0239100Y0212804D03*
X0318600Y0212804D03*
X0412100Y0212304D03*
X0493100Y0212304D03*
X0540800Y0172904D03*
X0510800Y0085404D03*
X0533100Y0034804D03*
X0143600Y0212804D03*
X0064600Y0212804D03*
D22*
X0017538Y0029734D02*
X0017425Y0029704D01*
X0180422Y0029704D01*
X0180042Y0030083D01*
X0179175Y0032177D01*
X0179175Y0034442D01*
X0180042Y0036536D01*
X0181645Y0038138D01*
X0183738Y0039005D01*
X0186004Y0039005D01*
X0188097Y0038138D01*
X0189699Y0036536D01*
X0190567Y0034442D01*
X0190567Y0032177D01*
X0189699Y0030083D01*
X0189320Y0029704D01*
X0207981Y0029704D01*
X0207601Y0030083D01*
X0206734Y0032177D01*
X0206734Y0034442D01*
X0207601Y0036536D01*
X0209204Y0038138D01*
X0211297Y0039005D01*
X0213563Y0039005D01*
X0215656Y0038138D01*
X0217258Y0036536D01*
X0218126Y0034442D01*
X0218126Y0032177D01*
X0217258Y0030083D01*
X0216879Y0029704D01*
X0358723Y0029704D01*
X0357659Y0030769D01*
X0356547Y0033452D01*
X0356547Y0036356D01*
X0357659Y0039039D01*
X0359712Y0041093D01*
X0362395Y0042204D01*
X0363390Y0042204D01*
X0363047Y0043482D01*
X0363047Y0046326D01*
X0363390Y0047604D01*
X0362395Y0047604D01*
X0359712Y0048715D01*
X0357659Y0050769D01*
X0356547Y0053452D01*
X0356547Y0056356D01*
X0357659Y0059039D01*
X0359712Y0061093D01*
X0362395Y0062204D01*
X0365299Y0062204D01*
X0367982Y0061093D01*
X0370036Y0059039D01*
X0371147Y0056356D01*
X0371147Y0055361D01*
X0372425Y0055704D01*
X0375269Y0055704D01*
X0376547Y0055361D01*
X0376547Y0056356D01*
X0377659Y0059039D01*
X0379712Y0061093D01*
X0382395Y0062204D01*
X0385299Y0062204D01*
X0387982Y0061093D01*
X0390036Y0059039D01*
X0391147Y0056356D01*
X0391147Y0053452D01*
X0390036Y0050769D01*
X0387982Y0048715D01*
X0385299Y0047604D01*
X0384305Y0047604D01*
X0384647Y0046326D01*
X0384647Y0043482D01*
X0384305Y0042204D01*
X0385299Y0042204D01*
X0387982Y0041093D01*
X0390036Y0039039D01*
X0391147Y0036356D01*
X0391147Y0033452D01*
X0390036Y0030769D01*
X0388971Y0029704D01*
X0557041Y0029704D01*
X0556928Y0029734D01*
X0554608Y0031074D01*
X0552714Y0032968D01*
X0551374Y0035288D01*
X0550681Y0037876D01*
X0550681Y0040554D01*
X0551374Y0043142D01*
X0552714Y0045462D01*
X0554608Y0047356D01*
X0556928Y0048696D01*
X0558079Y0049004D01*
X0556432Y0049004D01*
X0555988Y0048964D01*
X0555859Y0049004D01*
X0555723Y0049004D01*
X0555312Y0049174D01*
X0554887Y0049307D01*
X0554782Y0049394D01*
X0554657Y0049445D01*
X0554342Y0049760D01*
X0545782Y0056894D01*
X0545657Y0056945D01*
X0545342Y0057260D01*
X0545000Y0057545D01*
X0544937Y0057665D01*
X0544841Y0057761D01*
X0544671Y0058173D01*
X0544464Y0058567D01*
X0544452Y0058702D01*
X0544400Y0058827D01*
X0544400Y0059272D01*
X0544360Y0059716D01*
X0544400Y0059845D01*
X0544400Y0086463D01*
X0544360Y0086592D01*
X0544400Y0087035D01*
X0544400Y0087481D01*
X0544452Y0087606D01*
X0544464Y0087741D01*
X0544671Y0088135D01*
X0544841Y0088547D01*
X0544937Y0088642D01*
X0545000Y0088762D01*
X0545342Y0089048D01*
X0545657Y0089362D01*
X0545782Y0089414D01*
X0554342Y0096548D01*
X0554657Y0096862D01*
X0554782Y0096914D01*
X0554887Y0097001D01*
X0555312Y0097134D01*
X0555723Y0097304D01*
X0555859Y0097304D01*
X0555988Y0097344D01*
X0556432Y0097304D01*
X0570366Y0097304D01*
X0570366Y0208630D01*
X0570336Y0208516D01*
X0568996Y0206196D01*
X0567102Y0204302D01*
X0564782Y0202963D01*
X0562195Y0202269D01*
X0559516Y0202269D01*
X0556928Y0202963D01*
X0554608Y0204302D01*
X0552714Y0206196D01*
X0551374Y0208516D01*
X0550681Y0211104D01*
X0550681Y0213783D01*
X0551374Y0216370D01*
X0552714Y0218690D01*
X0554608Y0220585D01*
X0556928Y0221924D01*
X0557041Y0221954D01*
X0480600Y0221954D01*
X0480600Y0201951D01*
X0479253Y0200604D01*
X0462847Y0200604D01*
X0461500Y0201951D01*
X0461500Y0217104D01*
X0446391Y0217104D01*
X0446391Y0209176D01*
X0445584Y0207228D01*
X0444094Y0205738D01*
X0442146Y0204931D01*
X0440037Y0204931D01*
X0438089Y0205738D01*
X0436598Y0207228D01*
X0435791Y0209176D01*
X0435791Y0217104D01*
X0400600Y0217104D01*
X0400600Y0200451D01*
X0399253Y0199104D01*
X0382847Y0199104D01*
X0381500Y0200451D01*
X0381500Y0217104D01*
X0351903Y0217104D01*
X0351903Y0209176D01*
X0351096Y0207228D01*
X0349605Y0205738D01*
X0347657Y0204931D01*
X0345549Y0204931D01*
X0343601Y0205738D01*
X0342110Y0207228D01*
X0341303Y0209176D01*
X0341303Y0217104D01*
X0306100Y0217104D01*
X0306100Y0202451D01*
X0304753Y0201104D01*
X0288347Y0201104D01*
X0287000Y0202451D01*
X0287000Y0217104D01*
X0271982Y0217104D01*
X0271982Y0209176D01*
X0271175Y0207228D01*
X0269684Y0205738D01*
X0267736Y0204931D01*
X0265628Y0204931D01*
X0263680Y0205738D01*
X0262189Y0207228D01*
X0261382Y0209176D01*
X0261382Y0217104D01*
X0226100Y0217104D01*
X0226100Y0201451D01*
X0224753Y0200104D01*
X0208347Y0200104D01*
X0207000Y0201451D01*
X0207000Y0217104D01*
X0177494Y0217104D01*
X0177494Y0209176D01*
X0176687Y0207228D01*
X0175196Y0205738D01*
X0173248Y0204931D01*
X0171139Y0204931D01*
X0169191Y0205738D01*
X0167701Y0207228D01*
X0166894Y0209176D01*
X0166894Y0217104D01*
X0131600Y0217104D01*
X0131600Y0202951D01*
X0130253Y0201604D01*
X0113847Y0201604D01*
X0112500Y0202951D01*
X0112500Y0217104D01*
X0097572Y0217104D01*
X0097572Y0209176D01*
X0096766Y0207228D01*
X0095275Y0205738D01*
X0093327Y0204931D01*
X0091218Y0204931D01*
X0089270Y0205738D01*
X0087779Y0207228D01*
X0086972Y0209176D01*
X0086972Y0217104D01*
X0052100Y0217104D01*
X0052100Y0203451D01*
X0050753Y0202104D01*
X0034347Y0202104D01*
X0033000Y0203451D01*
X0033000Y0221954D01*
X0017425Y0221954D01*
X0017538Y0221924D01*
X0019858Y0220585D01*
X0021752Y0218690D01*
X0023092Y0216370D01*
X0023785Y0213783D01*
X0023785Y0211104D01*
X0023092Y0208516D01*
X0021752Y0206196D01*
X0019858Y0204302D01*
X0017538Y0202963D01*
X0014950Y0202269D01*
X0012272Y0202269D01*
X0009684Y0202963D01*
X0007364Y0204302D01*
X0005470Y0206196D01*
X0004130Y0208516D01*
X0004100Y0208630D01*
X0004100Y0190004D01*
X0027317Y0190004D01*
X0028273Y0189608D01*
X0038773Y0179108D01*
X0039504Y0178377D01*
X0039900Y0177421D01*
X0039900Y0166481D01*
X0040877Y0165504D01*
X0154317Y0165504D01*
X0155273Y0165108D01*
X0156004Y0164377D01*
X0156400Y0163421D01*
X0156400Y0147887D01*
X0156004Y0146931D01*
X0155273Y0146200D01*
X0154317Y0145804D01*
X0071877Y0145804D01*
X0039900Y0113827D01*
X0039900Y0095387D01*
X0039504Y0094431D01*
X0029504Y0084431D01*
X0028773Y0083700D01*
X0027817Y0083304D01*
X0004100Y0083304D01*
X0004100Y0043029D01*
X0004130Y0043142D01*
X0005470Y0045462D01*
X0007364Y0047356D01*
X0009684Y0048696D01*
X0012272Y0049389D01*
X0014950Y0049389D01*
X0017538Y0048696D01*
X0019858Y0047356D01*
X0021752Y0045462D01*
X0023092Y0043142D01*
X0023785Y0040554D01*
X0023785Y0037876D01*
X0023092Y0035288D01*
X0021752Y0032968D01*
X0019858Y0031074D01*
X0017538Y0029734D01*
X0019039Y0030601D02*
X0179828Y0030601D01*
X0179175Y0032199D02*
X0020984Y0032199D01*
X0022231Y0033798D02*
X0179175Y0033798D01*
X0179570Y0035396D02*
X0023121Y0035396D01*
X0023549Y0036995D02*
X0180502Y0036995D01*
X0182744Y0038594D02*
X0099222Y0038594D01*
X0099427Y0038743D02*
X0099961Y0039277D01*
X0100405Y0039888D01*
X0100748Y0040561D01*
X0100982Y0041280D01*
X0101100Y0042026D01*
X0101100Y0045204D01*
X0096500Y0045204D01*
X0096500Y0045604D01*
X0096100Y0045604D01*
X0096100Y0053204D01*
X0095922Y0053204D01*
X0095176Y0053086D01*
X0094457Y0052852D01*
X0093784Y0052509D01*
X0093173Y0052065D01*
X0092639Y0051531D01*
X0092195Y0050920D01*
X0091852Y0050246D01*
X0091618Y0049528D01*
X0091600Y0049413D01*
X0091600Y0049458D01*
X0090793Y0051406D01*
X0089302Y0052897D01*
X0087354Y0053704D01*
X0085246Y0053704D01*
X0083298Y0052897D01*
X0081807Y0051406D01*
X0081300Y0050182D01*
X0080793Y0051406D01*
X0079302Y0052897D01*
X0077354Y0053704D01*
X0075246Y0053704D01*
X0073298Y0052897D01*
X0071807Y0051406D01*
X0071300Y0050182D01*
X0070793Y0051406D01*
X0069302Y0052897D01*
X0067354Y0053704D01*
X0065246Y0053704D01*
X0063298Y0052897D01*
X0061807Y0051406D01*
X0061000Y0049458D01*
X0061000Y0041350D01*
X0061807Y0039402D01*
X0063298Y0037911D01*
X0065246Y0037104D01*
X0067354Y0037104D01*
X0069302Y0037911D01*
X0070793Y0039402D01*
X0071300Y0040625D01*
X0071807Y0039402D01*
X0073298Y0037911D01*
X0075246Y0037104D01*
X0077354Y0037104D01*
X0079302Y0037911D01*
X0080793Y0039402D01*
X0081300Y0040625D01*
X0081807Y0039402D01*
X0083298Y0037911D01*
X0085246Y0037104D01*
X0087354Y0037104D01*
X0089302Y0037911D01*
X0090793Y0039402D01*
X0091600Y0041350D01*
X0091600Y0041395D01*
X0091618Y0041280D01*
X0091852Y0040561D01*
X0092195Y0039888D01*
X0092639Y0039277D01*
X0093173Y0038743D01*
X0093784Y0038299D01*
X0094457Y0037956D01*
X0095176Y0037722D01*
X0095922Y0037604D01*
X0096100Y0037604D01*
X0096100Y0045204D01*
X0096500Y0045204D01*
X0096500Y0037604D01*
X0096678Y0037604D01*
X0097424Y0037722D01*
X0098143Y0037956D01*
X0098816Y0038299D01*
X0099427Y0038743D01*
X0100560Y0040192D02*
X0185753Y0040192D01*
X0186083Y0039862D02*
X0187851Y0039130D01*
X0189765Y0039130D01*
X0191532Y0039862D01*
X0192885Y0041215D01*
X0193618Y0042983D01*
X0193618Y0044896D01*
X0192885Y0046664D01*
X0191532Y0048017D01*
X0189765Y0048749D01*
X0187851Y0048749D01*
X0186083Y0048017D01*
X0184730Y0046664D01*
X0183998Y0044896D01*
X0183998Y0042983D01*
X0184730Y0041215D01*
X0186083Y0039862D01*
X0186997Y0038594D02*
X0210303Y0038594D01*
X0209450Y0039130D02*
X0211217Y0039862D01*
X0212570Y0041215D01*
X0213303Y0042983D01*
X0213303Y0044896D01*
X0212570Y0046664D01*
X0211217Y0048017D01*
X0209450Y0048749D01*
X0207536Y0048749D01*
X0205768Y0048017D01*
X0204415Y0046664D01*
X0203683Y0044896D01*
X0203683Y0042983D01*
X0204415Y0041215D01*
X0205768Y0039862D01*
X0207536Y0039130D01*
X0209450Y0039130D01*
X0211548Y0040192D02*
X0225500Y0040192D01*
X0225500Y0040599D02*
X0225500Y0036209D01*
X0228605Y0033104D01*
X0232995Y0033104D01*
X0236100Y0036209D01*
X0236100Y0036316D01*
X0238812Y0033604D01*
X0240600Y0033604D01*
X0240600Y0038204D01*
X0241000Y0038204D01*
X0241000Y0038604D01*
X0245600Y0038604D01*
X0245600Y0040392D01*
X0242888Y0043104D01*
X0242995Y0043104D01*
X0246100Y0046209D01*
X0246100Y0050599D01*
X0245295Y0051404D01*
X0264897Y0051404D01*
X0265999Y0051861D01*
X0272058Y0057920D01*
X0272593Y0057920D01*
X0274057Y0058526D01*
X0275178Y0059647D01*
X0275784Y0061111D01*
X0275784Y0061624D01*
X0277736Y0061624D01*
X0279684Y0062430D01*
X0281175Y0063921D01*
X0281982Y0065869D01*
X0281982Y0073978D01*
X0281175Y0075926D01*
X0280347Y0076754D01*
X0292938Y0076754D01*
X0292110Y0075926D01*
X0291303Y0073978D01*
X0291303Y0065869D01*
X0292110Y0063921D01*
X0293601Y0062430D01*
X0293953Y0062285D01*
X0293953Y0057877D01*
X0294357Y0056903D01*
X0295102Y0056157D01*
X0296076Y0055754D01*
X0352127Y0055754D01*
X0353101Y0056157D01*
X0353847Y0056903D01*
X0354250Y0057877D01*
X0354250Y0062162D01*
X0355549Y0061624D01*
X0357657Y0061624D01*
X0359605Y0062430D01*
X0361096Y0063921D01*
X0361903Y0065869D01*
X0361903Y0073978D01*
X0361096Y0075926D01*
X0359605Y0077417D01*
X0357657Y0078224D01*
X0355549Y0078224D01*
X0354250Y0077686D01*
X0354250Y0104754D01*
X0388441Y0104754D01*
X0388441Y0077563D01*
X0388089Y0077417D01*
X0386598Y0075926D01*
X0385791Y0073978D01*
X0385791Y0065869D01*
X0386598Y0063921D01*
X0388089Y0062430D01*
X0388742Y0062160D01*
X0388845Y0061911D01*
X0393853Y0056903D01*
X0394599Y0056157D01*
X0395573Y0055754D01*
X0471527Y0055754D01*
X0472501Y0056157D01*
X0473247Y0056903D01*
X0473650Y0057877D01*
X0473650Y0058206D01*
X0473699Y0058157D01*
X0474673Y0057754D01*
X0491540Y0057754D01*
X0492514Y0058157D01*
X0493259Y0058903D01*
X0493663Y0059877D01*
X0493663Y0062285D01*
X0494015Y0062430D01*
X0495506Y0063921D01*
X0496013Y0065145D01*
X0496519Y0063921D01*
X0498010Y0062430D01*
X0499958Y0061624D01*
X0502067Y0061624D01*
X0504015Y0062430D01*
X0505506Y0063921D01*
X0506013Y0065145D01*
X0506519Y0063921D01*
X0508010Y0062430D01*
X0509958Y0061624D01*
X0512067Y0061624D01*
X0514015Y0062430D01*
X0515506Y0063921D01*
X0516013Y0065145D01*
X0516519Y0063921D01*
X0518010Y0062430D01*
X0519958Y0061624D01*
X0522067Y0061624D01*
X0524015Y0062430D01*
X0525506Y0063921D01*
X0526013Y0065145D01*
X0526519Y0063921D01*
X0528010Y0062430D01*
X0529958Y0061624D01*
X0532067Y0061624D01*
X0534015Y0062430D01*
X0535506Y0063921D01*
X0536313Y0065869D01*
X0536313Y0073978D01*
X0535506Y0075926D01*
X0534015Y0077417D01*
X0532067Y0078224D01*
X0529958Y0078224D01*
X0528010Y0077417D01*
X0526519Y0075926D01*
X0526013Y0074702D01*
X0525506Y0075926D01*
X0524015Y0077417D01*
X0522067Y0078224D01*
X0519958Y0078224D01*
X0518010Y0077417D01*
X0516519Y0075926D01*
X0516013Y0074702D01*
X0515506Y0075926D01*
X0514015Y0077417D01*
X0512067Y0078224D01*
X0509958Y0078224D01*
X0508010Y0077417D01*
X0506519Y0075926D01*
X0506013Y0074702D01*
X0505506Y0075926D01*
X0504015Y0077417D01*
X0503663Y0077563D01*
X0503663Y0078431D01*
X0503259Y0079405D01*
X0502514Y0080150D01*
X0501540Y0080554D01*
X0485473Y0080554D01*
X0484499Y0080150D01*
X0483753Y0079405D01*
X0483550Y0078914D01*
X0483550Y0082704D01*
X0507865Y0082704D01*
X0508543Y0082026D01*
X0510007Y0081420D01*
X0511593Y0081420D01*
X0513057Y0082026D01*
X0514178Y0083147D01*
X0514784Y0084611D01*
X0514784Y0086196D01*
X0514178Y0087661D01*
X0513057Y0088782D01*
X0511593Y0089388D01*
X0510007Y0089388D01*
X0508543Y0088782D01*
X0507865Y0088104D01*
X0437000Y0088104D01*
X0437000Y0093441D01*
X0436589Y0094433D01*
X0435829Y0095193D01*
X0434837Y0095604D01*
X0409500Y0095604D01*
X0409500Y0120441D01*
X0409089Y0121433D01*
X0408329Y0122193D01*
X0407337Y0122604D01*
X0393500Y0122604D01*
X0393500Y0128469D01*
X0394178Y0129147D01*
X0394784Y0130611D01*
X0394784Y0132196D01*
X0394178Y0133661D01*
X0393057Y0134782D01*
X0391593Y0135388D01*
X0390007Y0135388D01*
X0388543Y0134782D01*
X0387422Y0133661D01*
X0386816Y0132196D01*
X0386816Y0130611D01*
X0387422Y0129147D01*
X0388100Y0128469D01*
X0388100Y0125104D01*
X0371500Y0125104D01*
X0371500Y0143704D01*
X0379365Y0143704D01*
X0380043Y0143026D01*
X0381507Y0142420D01*
X0383093Y0142420D01*
X0384557Y0143026D01*
X0385235Y0143704D01*
X0404682Y0143704D01*
X0409011Y0139375D01*
X0409771Y0138615D01*
X0410763Y0138204D01*
X0418758Y0138204D01*
X0418758Y0135424D01*
X0420105Y0134076D01*
X0436420Y0134076D01*
X0437767Y0135424D01*
X0437767Y0146384D01*
X0436420Y0147731D01*
X0420105Y0147731D01*
X0418758Y0146384D01*
X0418758Y0143604D01*
X0412418Y0143604D01*
X0407329Y0148693D01*
X0406337Y0149104D01*
X0385235Y0149104D01*
X0384557Y0149782D01*
X0383093Y0150388D01*
X0381507Y0150388D01*
X0380043Y0149782D01*
X0379365Y0149104D01*
X0368263Y0149104D01*
X0367271Y0148693D01*
X0366511Y0147933D01*
X0366100Y0146941D01*
X0366100Y0127604D01*
X0322763Y0127604D01*
X0321771Y0127193D01*
X0321011Y0126433D01*
X0320600Y0125441D01*
X0320600Y0103604D01*
X0312791Y0103604D01*
X0313100Y0104350D01*
X0313100Y0105451D01*
X0313600Y0105951D01*
X0313600Y0129857D01*
X0313100Y0130357D01*
X0313100Y0131458D01*
X0312293Y0133406D01*
X0310802Y0134897D01*
X0308854Y0135704D01*
X0306746Y0135704D01*
X0304798Y0134897D01*
X0303307Y0133406D01*
X0302800Y0132182D01*
X0302293Y0133406D01*
X0300802Y0134897D01*
X0298854Y0135704D01*
X0296746Y0135704D01*
X0294798Y0134897D01*
X0293307Y0133406D01*
X0292800Y0132182D01*
X0292293Y0133406D01*
X0290802Y0134897D01*
X0288854Y0135704D01*
X0287418Y0135704D01*
X0302829Y0151115D01*
X0303589Y0151875D01*
X0304000Y0152867D01*
X0304000Y0155941D01*
X0303589Y0156933D01*
X0301089Y0159433D01*
X0300329Y0160193D01*
X0299337Y0160604D01*
X0294263Y0160604D01*
X0293271Y0160193D01*
X0273271Y0140193D01*
X0272511Y0139433D01*
X0272100Y0138441D01*
X0272100Y0136022D01*
X0271271Y0135193D01*
X0270900Y0134822D01*
X0270900Y0138021D01*
X0270428Y0139160D01*
X0263784Y0145804D01*
X0263784Y0146196D01*
X0263178Y0147661D01*
X0262057Y0148782D01*
X0260593Y0149388D01*
X0259007Y0149388D01*
X0257543Y0148782D01*
X0256422Y0147661D01*
X0255816Y0146196D01*
X0255816Y0144611D01*
X0256422Y0143147D01*
X0257543Y0142026D01*
X0259007Y0141420D01*
X0259400Y0141420D01*
X0264700Y0136120D01*
X0264700Y0134799D01*
X0263307Y0133406D01*
X0262500Y0131458D01*
X0262500Y0123350D01*
X0263307Y0121402D01*
X0264798Y0119911D01*
X0266746Y0119104D01*
X0268854Y0119104D01*
X0270500Y0119786D01*
X0270500Y0116022D01*
X0268854Y0116704D01*
X0266746Y0116704D01*
X0264798Y0115897D01*
X0263307Y0114406D01*
X0262500Y0112458D01*
X0262500Y0104350D01*
X0262809Y0103604D01*
X0209000Y0103604D01*
X0209000Y0133969D01*
X0209678Y0134647D01*
X0210284Y0136111D01*
X0210284Y0137696D01*
X0209678Y0139161D01*
X0208557Y0140282D01*
X0207093Y0140888D01*
X0205507Y0140888D01*
X0204043Y0140282D01*
X0202922Y0139161D01*
X0202316Y0137696D01*
X0202316Y0136111D01*
X0202922Y0134647D01*
X0203600Y0133969D01*
X0203600Y0132147D01*
X0202255Y0132704D01*
X0200345Y0132704D01*
X0198581Y0131973D01*
X0197938Y0131331D01*
X0196593Y0131888D01*
X0195007Y0131888D01*
X0193543Y0131282D01*
X0193047Y0130786D01*
X0191823Y0131293D01*
X0192678Y0132147D01*
X0193284Y0133611D01*
X0193284Y0135196D01*
X0192678Y0136661D01*
X0191557Y0137782D01*
X0190093Y0138388D01*
X0188507Y0138388D01*
X0187043Y0137782D01*
X0185922Y0136661D01*
X0185316Y0135196D01*
X0185316Y0134738D01*
X0184511Y0133933D01*
X0184100Y0132941D01*
X0184100Y0086567D01*
X0184511Y0085575D01*
X0184532Y0085554D01*
X0051745Y0085554D01*
X0050771Y0085150D01*
X0050026Y0084405D01*
X0049622Y0083431D01*
X0049622Y0077563D01*
X0049270Y0077417D01*
X0047779Y0075926D01*
X0047272Y0074702D01*
X0046766Y0075926D01*
X0045275Y0077417D01*
X0043327Y0078224D01*
X0041218Y0078224D01*
X0039270Y0077417D01*
X0037779Y0075926D01*
X0036972Y0073978D01*
X0036972Y0065869D01*
X0037779Y0063921D01*
X0039270Y0062430D01*
X0039622Y0062285D01*
X0039622Y0057877D01*
X0040026Y0056903D01*
X0040771Y0056157D01*
X0041745Y0055754D01*
X0185047Y0055754D01*
X0184816Y0055196D01*
X0184816Y0053611D01*
X0185422Y0052147D01*
X0186543Y0051026D01*
X0188007Y0050420D01*
X0189593Y0050420D01*
X0191057Y0051026D01*
X0191435Y0051404D01*
X0226305Y0051404D01*
X0225500Y0050599D01*
X0225500Y0046209D01*
X0228305Y0043404D01*
X0225500Y0040599D01*
X0226691Y0041791D02*
X0212809Y0041791D01*
X0213303Y0043389D02*
X0228290Y0043389D01*
X0226721Y0044988D02*
X0213265Y0044988D01*
X0212603Y0046586D02*
X0225500Y0046586D01*
X0225500Y0048185D02*
X0210813Y0048185D01*
X0206173Y0048185D02*
X0191128Y0048185D01*
X0192918Y0046586D02*
X0204383Y0046586D01*
X0203721Y0044988D02*
X0193580Y0044988D01*
X0193618Y0043389D02*
X0203683Y0043389D01*
X0204177Y0041791D02*
X0193124Y0041791D01*
X0191863Y0040192D02*
X0205438Y0040192D01*
X0208061Y0036995D02*
X0189240Y0036995D01*
X0190171Y0035396D02*
X0207129Y0035396D01*
X0206734Y0033798D02*
X0190567Y0033798D01*
X0190567Y0032199D02*
X0206734Y0032199D01*
X0207387Y0030601D02*
X0189914Y0030601D01*
X0184492Y0041791D02*
X0101063Y0041791D01*
X0101100Y0043389D02*
X0183998Y0043389D01*
X0184036Y0044988D02*
X0101100Y0044988D01*
X0101100Y0045604D02*
X0101100Y0048782D01*
X0100982Y0049528D01*
X0100748Y0050246D01*
X0100405Y0050920D01*
X0099961Y0051531D01*
X0099427Y0052065D01*
X0098816Y0052509D01*
X0098143Y0052852D01*
X0097424Y0053086D01*
X0096678Y0053204D01*
X0096500Y0053204D01*
X0096500Y0045604D01*
X0101100Y0045604D01*
X0101100Y0046586D02*
X0184698Y0046586D01*
X0186488Y0048185D02*
X0101100Y0048185D01*
X0100899Y0049783D02*
X0225500Y0049783D01*
X0226282Y0051382D02*
X0191412Y0051382D01*
X0186188Y0051382D02*
X0100070Y0051382D01*
X0097749Y0052980D02*
X0185077Y0052980D01*
X0184816Y0054579D02*
X0004100Y0054579D01*
X0004100Y0056177D02*
X0040752Y0056177D01*
X0039664Y0057776D02*
X0004100Y0057776D01*
X0004100Y0059374D02*
X0039622Y0059374D01*
X0039622Y0060973D02*
X0004100Y0060973D01*
X0004100Y0062571D02*
X0039130Y0062571D01*
X0037676Y0064170D02*
X0004100Y0064170D01*
X0004100Y0065768D02*
X0037014Y0065768D01*
X0036972Y0067367D02*
X0004100Y0067367D01*
X0004100Y0068965D02*
X0036972Y0068965D01*
X0036972Y0070564D02*
X0004100Y0070564D01*
X0004100Y0072162D02*
X0036972Y0072162D01*
X0036972Y0073761D02*
X0004100Y0073761D01*
X0004100Y0075359D02*
X0037545Y0075359D01*
X0038811Y0076958D02*
X0004100Y0076958D01*
X0004100Y0078556D02*
X0049622Y0078556D01*
X0049622Y0080155D02*
X0004100Y0080155D01*
X0004100Y0081753D02*
X0049622Y0081753D01*
X0049622Y0083352D02*
X0027933Y0083352D01*
X0030023Y0084950D02*
X0050571Y0084950D01*
X0034819Y0089746D02*
X0184100Y0089746D01*
X0184100Y0091344D02*
X0036417Y0091344D01*
X0038016Y0092943D02*
X0184100Y0092943D01*
X0184100Y0094541D02*
X0039550Y0094541D01*
X0039900Y0096140D02*
X0184100Y0096140D01*
X0184100Y0097738D02*
X0039900Y0097738D01*
X0039900Y0099337D02*
X0184100Y0099337D01*
X0184100Y0100935D02*
X0039900Y0100935D01*
X0039900Y0102534D02*
X0184100Y0102534D01*
X0184100Y0104132D02*
X0039900Y0104132D01*
X0039900Y0105731D02*
X0184100Y0105731D01*
X0184100Y0107330D02*
X0039900Y0107330D01*
X0039900Y0108928D02*
X0184100Y0108928D01*
X0184100Y0110527D02*
X0039900Y0110527D01*
X0039900Y0112125D02*
X0184100Y0112125D01*
X0184100Y0113724D02*
X0039900Y0113724D01*
X0041395Y0115322D02*
X0184100Y0115322D01*
X0184100Y0116921D02*
X0042994Y0116921D01*
X0044592Y0118519D02*
X0184100Y0118519D01*
X0184100Y0120118D02*
X0046191Y0120118D01*
X0047789Y0121716D02*
X0184100Y0121716D01*
X0184100Y0123315D02*
X0049388Y0123315D01*
X0050986Y0124913D02*
X0184100Y0124913D01*
X0184100Y0126512D02*
X0052585Y0126512D01*
X0054183Y0128110D02*
X0184100Y0128110D01*
X0184100Y0129709D02*
X0055782Y0129709D01*
X0057380Y0131307D02*
X0184100Y0131307D01*
X0184100Y0132906D02*
X0058979Y0132906D01*
X0060577Y0134504D02*
X0185082Y0134504D01*
X0185691Y0136103D02*
X0062176Y0136103D01*
X0063774Y0137701D02*
X0163684Y0137701D01*
X0164771Y0136615D02*
X0165763Y0136204D01*
X0172337Y0136204D01*
X0173329Y0136615D01*
X0174089Y0137375D01*
X0174134Y0137420D01*
X0175093Y0137420D01*
X0176557Y0138026D01*
X0177678Y0139147D01*
X0178284Y0140611D01*
X0178284Y0142196D01*
X0177678Y0143661D01*
X0176557Y0144782D01*
X0175093Y0145388D01*
X0173507Y0145388D01*
X0172043Y0144782D01*
X0170922Y0143661D01*
X0170316Y0142196D01*
X0170316Y0141604D01*
X0167418Y0141604D01*
X0166500Y0142522D01*
X0166500Y0162286D01*
X0176918Y0172704D01*
X0188782Y0172704D01*
X0186511Y0170433D01*
X0186100Y0169441D01*
X0186100Y0145339D01*
X0185422Y0144661D01*
X0184816Y0143196D01*
X0184816Y0141611D01*
X0185422Y0140147D01*
X0186543Y0139026D01*
X0188007Y0138420D01*
X0189593Y0138420D01*
X0191057Y0139026D01*
X0192178Y0140147D01*
X0192784Y0141611D01*
X0192784Y0143196D01*
X0192178Y0144661D01*
X0191500Y0145339D01*
X0191500Y0166569D01*
X0192543Y0165526D01*
X0193829Y0164994D01*
X0193600Y0164441D01*
X0193600Y0159367D01*
X0194011Y0158375D01*
X0194771Y0157615D01*
X0199600Y0152786D01*
X0199600Y0151839D01*
X0198922Y0151161D01*
X0198316Y0149696D01*
X0198316Y0148111D01*
X0198922Y0146647D01*
X0200043Y0145526D01*
X0201507Y0144920D01*
X0203093Y0144920D01*
X0204557Y0145526D01*
X0205678Y0146647D01*
X0206284Y0148111D01*
X0206284Y0149696D01*
X0205678Y0151161D01*
X0205000Y0151839D01*
X0205000Y0154441D01*
X0204589Y0155433D01*
X0201807Y0158216D01*
X0202557Y0158526D01*
X0203678Y0159647D01*
X0204284Y0161111D01*
X0204284Y0162070D01*
X0204418Y0162204D01*
X0345367Y0162204D01*
X0344199Y0161529D01*
X0342304Y0159635D01*
X0340965Y0157315D01*
X0340272Y0154728D01*
X0340272Y0152049D01*
X0340965Y0149461D01*
X0342304Y0147141D01*
X0344199Y0145247D01*
X0346519Y0143908D01*
X0349106Y0143214D01*
X0351785Y0143214D01*
X0354373Y0143908D01*
X0356693Y0145247D01*
X0358587Y0147141D01*
X0359926Y0149461D01*
X0360620Y0152049D01*
X0360620Y0154728D01*
X0359926Y0157315D01*
X0358587Y0159635D01*
X0356693Y0161529D01*
X0355524Y0162204D01*
X0426182Y0162204D01*
X0432724Y0155662D01*
X0432722Y0155661D01*
X0432116Y0154196D01*
X0432116Y0152611D01*
X0432722Y0151147D01*
X0433843Y0150026D01*
X0435307Y0149420D01*
X0436893Y0149420D01*
X0438357Y0150026D01*
X0439478Y0151147D01*
X0440084Y0152611D01*
X0440084Y0154196D01*
X0439478Y0155661D01*
X0438800Y0156339D01*
X0438800Y0156586D01*
X0471816Y0123570D01*
X0471816Y0122611D01*
X0472422Y0121147D01*
X0473543Y0120026D01*
X0475007Y0119420D01*
X0476593Y0119420D01*
X0478057Y0120026D01*
X0479178Y0121147D01*
X0479784Y0122611D01*
X0479784Y0124196D01*
X0479178Y0125661D01*
X0478057Y0126782D01*
X0476593Y0127388D01*
X0475634Y0127388D01*
X0436818Y0166204D01*
X0491182Y0166204D01*
X0502316Y0155070D01*
X0502316Y0154111D01*
X0502922Y0152647D01*
X0504043Y0151526D01*
X0505507Y0150920D01*
X0507093Y0150920D01*
X0508557Y0151526D01*
X0509678Y0152647D01*
X0510284Y0154111D01*
X0510284Y0155696D01*
X0509678Y0157161D01*
X0508557Y0158282D01*
X0507093Y0158888D01*
X0506134Y0158888D01*
X0496818Y0168204D01*
X0535182Y0168204D01*
X0542600Y0160786D01*
X0542600Y0142839D01*
X0541922Y0142161D01*
X0541316Y0140696D01*
X0541316Y0139111D01*
X0541922Y0137647D01*
X0543043Y0136526D01*
X0544507Y0135920D01*
X0546093Y0135920D01*
X0547557Y0136526D01*
X0548678Y0137647D01*
X0549284Y0139111D01*
X0549284Y0140696D01*
X0548678Y0142161D01*
X0548000Y0142839D01*
X0548000Y0162441D01*
X0547589Y0163433D01*
X0546829Y0164193D01*
X0541953Y0169069D01*
X0543057Y0169526D01*
X0544178Y0170647D01*
X0544784Y0172111D01*
X0544784Y0173696D01*
X0544178Y0175161D01*
X0543057Y0176282D01*
X0541593Y0176888D01*
X0540007Y0176888D01*
X0538543Y0176282D01*
X0537865Y0175604D01*
X0201918Y0175604D01*
X0199829Y0177693D01*
X0198837Y0178104D01*
X0175263Y0178104D01*
X0174271Y0177693D01*
X0173511Y0176933D01*
X0161511Y0164933D01*
X0161100Y0163941D01*
X0161100Y0140867D01*
X0161511Y0139875D01*
X0162271Y0139115D01*
X0164771Y0136615D01*
X0162086Y0139300D02*
X0065373Y0139300D01*
X0066971Y0140898D02*
X0161100Y0140898D01*
X0161100Y0142497D02*
X0068570Y0142497D01*
X0070168Y0144095D02*
X0161100Y0144095D01*
X0161100Y0145694D02*
X0071767Y0145694D01*
X0039906Y0166474D02*
X0163052Y0166474D01*
X0161487Y0164876D02*
X0155505Y0164876D01*
X0156400Y0163277D02*
X0161100Y0163277D01*
X0161100Y0161679D02*
X0156400Y0161679D01*
X0156400Y0160080D02*
X0161100Y0160080D01*
X0161100Y0158482D02*
X0156400Y0158482D01*
X0156400Y0156883D02*
X0161100Y0156883D01*
X0161100Y0155285D02*
X0156400Y0155285D01*
X0156400Y0153686D02*
X0161100Y0153686D01*
X0161100Y0152088D02*
X0156400Y0152088D01*
X0156400Y0150489D02*
X0161100Y0150489D01*
X0161100Y0148891D02*
X0156400Y0148891D01*
X0156154Y0147292D02*
X0161100Y0147292D01*
X0166500Y0147292D02*
X0186100Y0147292D01*
X0186100Y0145694D02*
X0166500Y0145694D01*
X0166500Y0144095D02*
X0171357Y0144095D01*
X0170440Y0142497D02*
X0166526Y0142497D01*
X0166500Y0148891D02*
X0186100Y0148891D01*
X0186100Y0150489D02*
X0166500Y0150489D01*
X0166500Y0152088D02*
X0186100Y0152088D01*
X0186100Y0153686D02*
X0166500Y0153686D01*
X0166500Y0155285D02*
X0186100Y0155285D01*
X0186100Y0156883D02*
X0166500Y0156883D01*
X0166500Y0158482D02*
X0186100Y0158482D01*
X0186100Y0160080D02*
X0166500Y0160080D01*
X0166500Y0161679D02*
X0186100Y0161679D01*
X0186100Y0163277D02*
X0167492Y0163277D01*
X0169090Y0164876D02*
X0186100Y0164876D01*
X0186100Y0166474D02*
X0170689Y0166474D01*
X0172287Y0168073D02*
X0186100Y0168073D01*
X0186195Y0169671D02*
X0173886Y0169671D01*
X0175484Y0171270D02*
X0187348Y0171270D01*
X0191500Y0166474D02*
X0191595Y0166474D01*
X0191500Y0164876D02*
X0193780Y0164876D01*
X0193600Y0163277D02*
X0191500Y0163277D01*
X0191500Y0161679D02*
X0193600Y0161679D01*
X0193600Y0160080D02*
X0191500Y0160080D01*
X0191500Y0158482D02*
X0193967Y0158482D01*
X0195502Y0156883D02*
X0191500Y0156883D01*
X0191500Y0155285D02*
X0197101Y0155285D01*
X0198699Y0153686D02*
X0191500Y0153686D01*
X0191500Y0152088D02*
X0199600Y0152088D01*
X0198644Y0150489D02*
X0191500Y0150489D01*
X0191500Y0148891D02*
X0198316Y0148891D01*
X0198655Y0147292D02*
X0191500Y0147292D01*
X0191500Y0145694D02*
X0199876Y0145694D01*
X0204724Y0145694D02*
X0255816Y0145694D01*
X0256030Y0144095D02*
X0192412Y0144095D01*
X0192784Y0142497D02*
X0257073Y0142497D01*
X0259922Y0140898D02*
X0192489Y0140898D01*
X0191330Y0139300D02*
X0203061Y0139300D01*
X0202318Y0137701D02*
X0191637Y0137701D01*
X0192909Y0136103D02*
X0202319Y0136103D01*
X0203065Y0134504D02*
X0193284Y0134504D01*
X0192992Y0132906D02*
X0203600Y0132906D01*
X0209000Y0132906D02*
X0263100Y0132906D01*
X0262500Y0131307D02*
X0209000Y0131307D01*
X0209000Y0129709D02*
X0262500Y0129709D01*
X0262500Y0128110D02*
X0209000Y0128110D01*
X0209000Y0126512D02*
X0262500Y0126512D01*
X0262500Y0124913D02*
X0209000Y0124913D01*
X0209000Y0123315D02*
X0262515Y0123315D01*
X0263177Y0121716D02*
X0209000Y0121716D01*
X0209000Y0120118D02*
X0264591Y0120118D01*
X0270500Y0118519D02*
X0209000Y0118519D01*
X0209000Y0116921D02*
X0270500Y0116921D01*
X0277800Y0117904D02*
X0277800Y0127404D01*
X0277800Y0134904D01*
X0296700Y0153804D01*
X0302204Y0150489D02*
X0340689Y0150489D01*
X0340272Y0152088D02*
X0303677Y0152088D01*
X0304000Y0153686D02*
X0340272Y0153686D01*
X0340421Y0155285D02*
X0304000Y0155285D01*
X0303610Y0156883D02*
X0340849Y0156883D01*
X0341639Y0158482D02*
X0302040Y0158482D01*
X0300442Y0160080D02*
X0342750Y0160080D01*
X0344458Y0161679D02*
X0204284Y0161679D01*
X0203857Y0160080D02*
X0293158Y0160080D01*
X0291560Y0158482D02*
X0202450Y0158482D01*
X0203139Y0156883D02*
X0289961Y0156883D01*
X0288363Y0155285D02*
X0204650Y0155285D01*
X0205000Y0153686D02*
X0286764Y0153686D01*
X0285166Y0152088D02*
X0205000Y0152088D01*
X0205956Y0150489D02*
X0283567Y0150489D01*
X0281968Y0148891D02*
X0261793Y0148891D01*
X0263330Y0147292D02*
X0280370Y0147292D01*
X0278771Y0145694D02*
X0263894Y0145694D01*
X0265493Y0144095D02*
X0277173Y0144095D01*
X0275574Y0142497D02*
X0267091Y0142497D01*
X0268690Y0140898D02*
X0273976Y0140898D01*
X0272456Y0139300D02*
X0270288Y0139300D01*
X0270900Y0137701D02*
X0272100Y0137701D01*
X0272100Y0136103D02*
X0270900Y0136103D01*
X0267800Y0137404D02*
X0259800Y0145404D01*
X0256270Y0147292D02*
X0205945Y0147292D01*
X0206284Y0148891D02*
X0257807Y0148891D01*
X0261520Y0139300D02*
X0209539Y0139300D01*
X0210282Y0137701D02*
X0263119Y0137701D01*
X0264700Y0136103D02*
X0210281Y0136103D01*
X0209535Y0134504D02*
X0264405Y0134504D01*
X0267800Y0137404D02*
X0267800Y0127404D01*
X0277800Y0117904D02*
X0307800Y0117904D01*
X0307800Y0108404D01*
X0313600Y0108928D02*
X0320600Y0108928D01*
X0320600Y0107330D02*
X0313600Y0107330D01*
X0313380Y0105731D02*
X0320600Y0105731D01*
X0320600Y0104132D02*
X0313010Y0104132D01*
X0313600Y0110527D02*
X0320600Y0110527D01*
X0320600Y0112125D02*
X0313600Y0112125D01*
X0313600Y0113724D02*
X0320600Y0113724D01*
X0320600Y0115322D02*
X0313600Y0115322D01*
X0313600Y0116921D02*
X0320600Y0116921D01*
X0320600Y0118519D02*
X0313600Y0118519D01*
X0313600Y0120118D02*
X0320600Y0120118D01*
X0320600Y0121716D02*
X0313600Y0121716D01*
X0313600Y0123315D02*
X0320600Y0123315D01*
X0320600Y0124913D02*
X0313600Y0124913D01*
X0313600Y0126512D02*
X0321089Y0126512D01*
X0313600Y0128110D02*
X0366100Y0128110D01*
X0366100Y0129709D02*
X0313600Y0129709D01*
X0313100Y0131307D02*
X0366100Y0131307D01*
X0366100Y0132906D02*
X0312500Y0132906D01*
X0311195Y0134504D02*
X0366100Y0134504D01*
X0366100Y0136103D02*
X0287817Y0136103D01*
X0289416Y0137701D02*
X0366100Y0137701D01*
X0366100Y0139300D02*
X0291014Y0139300D01*
X0292613Y0140898D02*
X0366100Y0140898D01*
X0366100Y0142497D02*
X0294211Y0142497D01*
X0295810Y0144095D02*
X0346193Y0144095D01*
X0343752Y0145694D02*
X0297408Y0145694D01*
X0299007Y0147292D02*
X0342217Y0147292D01*
X0341294Y0148891D02*
X0300605Y0148891D01*
X0301195Y0134504D02*
X0304405Y0134504D01*
X0303100Y0132906D02*
X0302500Y0132906D01*
X0294405Y0134504D02*
X0291195Y0134504D01*
X0292500Y0132906D02*
X0293100Y0132906D01*
X0264223Y0115322D02*
X0209000Y0115322D01*
X0209000Y0113724D02*
X0263024Y0113724D01*
X0262500Y0112125D02*
X0209000Y0112125D01*
X0209000Y0110527D02*
X0262500Y0110527D01*
X0262500Y0108928D02*
X0209000Y0108928D01*
X0209000Y0107330D02*
X0262500Y0107330D01*
X0262500Y0105731D02*
X0209000Y0105731D01*
X0209000Y0104132D02*
X0262590Y0104132D01*
X0281410Y0075359D02*
X0291875Y0075359D01*
X0291303Y0073761D02*
X0281982Y0073761D01*
X0281982Y0072162D02*
X0291303Y0072162D01*
X0291303Y0070564D02*
X0281982Y0070564D01*
X0281982Y0068965D02*
X0291303Y0068965D01*
X0291303Y0067367D02*
X0281982Y0067367D01*
X0281940Y0065768D02*
X0291345Y0065768D01*
X0292007Y0064170D02*
X0281278Y0064170D01*
X0279825Y0062571D02*
X0293460Y0062571D01*
X0293953Y0060973D02*
X0275727Y0060973D01*
X0274905Y0059374D02*
X0293953Y0059374D01*
X0293995Y0057776D02*
X0271914Y0057776D01*
X0270316Y0056177D02*
X0295082Y0056177D01*
X0268717Y0054579D02*
X0356547Y0054579D01*
X0356547Y0056177D02*
X0353121Y0056177D01*
X0354208Y0057776D02*
X0357135Y0057776D01*
X0357994Y0059374D02*
X0354250Y0059374D01*
X0354250Y0060973D02*
X0359592Y0060973D01*
X0359746Y0062571D02*
X0387948Y0062571D01*
X0388102Y0060973D02*
X0389784Y0060973D01*
X0389701Y0059374D02*
X0391382Y0059374D01*
X0390559Y0057776D02*
X0392981Y0057776D01*
X0394579Y0056177D02*
X0391147Y0056177D01*
X0391147Y0054579D02*
X0548560Y0054579D01*
X0546642Y0056177D02*
X0472521Y0056177D01*
X0473608Y0057776D02*
X0474620Y0057776D01*
X0464217Y0051135D02*
X0461780Y0052145D01*
X0459142Y0052145D01*
X0456705Y0051135D01*
X0454840Y0049270D01*
X0453831Y0046833D01*
X0453831Y0044195D01*
X0454840Y0041758D01*
X0455316Y0041283D01*
X0453326Y0040458D01*
X0451738Y0038870D01*
X0450878Y0036795D01*
X0450878Y0034548D01*
X0451738Y0032473D01*
X0453326Y0030885D01*
X0455401Y0030025D01*
X0457648Y0030025D01*
X0459723Y0030885D01*
X0461311Y0032473D01*
X0462171Y0034548D01*
X0462171Y0036795D01*
X0461311Y0038870D01*
X0461298Y0038883D01*
X0461780Y0038883D01*
X0464217Y0039893D01*
X0466083Y0041758D01*
X0467092Y0044195D01*
X0467092Y0046833D01*
X0466083Y0049270D01*
X0464217Y0051135D01*
X0463623Y0051382D02*
X0488796Y0051382D01*
X0488201Y0051135D02*
X0490639Y0052145D01*
X0493276Y0052145D01*
X0495713Y0051135D01*
X0497579Y0049270D01*
X0498588Y0046833D01*
X0498588Y0044195D01*
X0497579Y0041758D01*
X0497103Y0041283D01*
X0499093Y0040458D01*
X0500681Y0038870D01*
X0501541Y0036795D01*
X0501541Y0034548D01*
X0500681Y0032473D01*
X0499093Y0030885D01*
X0497018Y0030025D01*
X0494771Y0030025D01*
X0492696Y0030885D01*
X0491108Y0032473D01*
X0490248Y0034548D01*
X0490248Y0036795D01*
X0491108Y0038870D01*
X0491121Y0038883D01*
X0490639Y0038883D01*
X0488201Y0039893D01*
X0486336Y0041758D01*
X0485327Y0044195D01*
X0485327Y0046833D01*
X0486336Y0049270D01*
X0488201Y0051135D01*
X0486849Y0049783D02*
X0465570Y0049783D01*
X0466532Y0048185D02*
X0485887Y0048185D01*
X0485327Y0046586D02*
X0467092Y0046586D01*
X0467092Y0044988D02*
X0485327Y0044988D01*
X0485661Y0043389D02*
X0466758Y0043389D01*
X0466096Y0041791D02*
X0486323Y0041791D01*
X0487902Y0040192D02*
X0464517Y0040192D01*
X0461426Y0038594D02*
X0490993Y0038594D01*
X0490331Y0036995D02*
X0462088Y0036995D01*
X0462171Y0035396D02*
X0490248Y0035396D01*
X0490559Y0033798D02*
X0461860Y0033798D01*
X0461038Y0032199D02*
X0491381Y0032199D01*
X0493381Y0030601D02*
X0459038Y0030601D01*
X0454011Y0030601D02*
X0439353Y0030601D01*
X0440038Y0030885D02*
X0441626Y0032473D01*
X0442486Y0034548D01*
X0442486Y0036795D01*
X0441626Y0038870D01*
X0440038Y0040458D01*
X0438048Y0041283D01*
X0438524Y0041758D01*
X0439533Y0044195D01*
X0439533Y0046833D01*
X0438524Y0049270D01*
X0436658Y0051135D01*
X0434221Y0052145D01*
X0431583Y0052145D01*
X0429146Y0051135D01*
X0427281Y0049270D01*
X0426272Y0046833D01*
X0426272Y0044195D01*
X0427281Y0041758D01*
X0429146Y0039893D01*
X0431583Y0038883D01*
X0432066Y0038883D01*
X0432053Y0038870D01*
X0431193Y0036795D01*
X0431193Y0034548D01*
X0432053Y0032473D01*
X0433641Y0030885D01*
X0435716Y0030025D01*
X0437963Y0030025D01*
X0440038Y0030885D01*
X0441352Y0032199D02*
X0452011Y0032199D01*
X0451189Y0033798D02*
X0442175Y0033798D01*
X0442486Y0035396D02*
X0450878Y0035396D01*
X0450961Y0036995D02*
X0442403Y0036995D01*
X0441741Y0038594D02*
X0451623Y0038594D01*
X0453059Y0040192D02*
X0440304Y0040192D01*
X0438537Y0041791D02*
X0454827Y0041791D01*
X0454165Y0043389D02*
X0439199Y0043389D01*
X0439533Y0044988D02*
X0453831Y0044988D01*
X0453831Y0046586D02*
X0439533Y0046586D01*
X0438973Y0048185D02*
X0454391Y0048185D01*
X0455353Y0049783D02*
X0438011Y0049783D01*
X0436064Y0051382D02*
X0457300Y0051382D01*
X0429741Y0051382D02*
X0416577Y0051382D01*
X0416476Y0051483D02*
X0412085Y0051483D01*
X0409280Y0048679D01*
X0406476Y0051483D01*
X0402085Y0051483D01*
X0398980Y0048379D01*
X0398980Y0043988D01*
X0401785Y0041183D01*
X0398980Y0038379D01*
X0398980Y0033988D01*
X0402085Y0030883D01*
X0406476Y0030883D01*
X0409280Y0033688D01*
X0412085Y0030883D01*
X0416476Y0030883D01*
X0419580Y0033988D01*
X0419580Y0038379D01*
X0416776Y0041183D01*
X0419580Y0043988D01*
X0419580Y0048379D01*
X0416476Y0051483D01*
X0418176Y0049783D02*
X0427794Y0049783D01*
X0426831Y0048185D02*
X0419580Y0048185D01*
X0419580Y0046586D02*
X0426272Y0046586D01*
X0426272Y0044988D02*
X0419580Y0044988D01*
X0418981Y0043389D02*
X0426606Y0043389D01*
X0427268Y0041791D02*
X0417383Y0041791D01*
X0417767Y0040192D02*
X0428847Y0040192D01*
X0431938Y0038594D02*
X0419366Y0038594D01*
X0419580Y0036995D02*
X0431276Y0036995D01*
X0431193Y0035396D02*
X0419580Y0035396D01*
X0419390Y0033798D02*
X0431504Y0033798D01*
X0432326Y0032199D02*
X0417792Y0032199D01*
X0410769Y0032199D02*
X0407792Y0032199D01*
X0400769Y0032199D02*
X0390628Y0032199D01*
X0391147Y0033798D02*
X0399170Y0033798D01*
X0398980Y0035396D02*
X0391147Y0035396D01*
X0390883Y0036995D02*
X0398980Y0036995D01*
X0399195Y0038594D02*
X0390220Y0038594D01*
X0388883Y0040192D02*
X0400794Y0040192D01*
X0401178Y0041791D02*
X0386297Y0041791D01*
X0384622Y0043389D02*
X0399579Y0043389D01*
X0398980Y0044988D02*
X0384647Y0044988D01*
X0384577Y0046586D02*
X0398980Y0046586D01*
X0398980Y0048185D02*
X0386701Y0048185D01*
X0389050Y0049783D02*
X0400385Y0049783D01*
X0401983Y0051382D02*
X0390290Y0051382D01*
X0390952Y0052980D02*
X0550479Y0052980D01*
X0552397Y0051382D02*
X0522678Y0051382D01*
X0523273Y0051135D02*
X0520835Y0052145D01*
X0518198Y0052145D01*
X0515761Y0051135D01*
X0513895Y0049270D01*
X0512886Y0046833D01*
X0512886Y0044195D01*
X0513895Y0041758D01*
X0514371Y0041283D01*
X0512381Y0040458D01*
X0510793Y0038870D01*
X0509933Y0036795D01*
X0509933Y0034548D01*
X0510793Y0032473D01*
X0512381Y0030885D01*
X0514456Y0030025D01*
X0516703Y0030025D01*
X0518778Y0030885D01*
X0520366Y0032473D01*
X0521226Y0034548D01*
X0521226Y0036795D01*
X0520366Y0038870D01*
X0520353Y0038883D01*
X0520835Y0038883D01*
X0523273Y0039893D01*
X0525138Y0041758D01*
X0526147Y0044195D01*
X0526147Y0046833D01*
X0525138Y0049270D01*
X0523273Y0051135D01*
X0524625Y0049783D02*
X0554315Y0049783D01*
X0556043Y0048185D02*
X0525587Y0048185D01*
X0526147Y0046586D02*
X0553838Y0046586D01*
X0552440Y0044988D02*
X0526147Y0044988D01*
X0525813Y0043389D02*
X0551517Y0043389D01*
X0551012Y0041791D02*
X0525151Y0041791D01*
X0523572Y0040192D02*
X0550681Y0040192D01*
X0550681Y0038594D02*
X0520481Y0038594D01*
X0521143Y0036995D02*
X0550917Y0036995D01*
X0551345Y0035396D02*
X0521226Y0035396D01*
X0520915Y0033798D02*
X0552235Y0033798D01*
X0553482Y0032199D02*
X0520093Y0032199D01*
X0518093Y0030601D02*
X0555427Y0030601D01*
X0513066Y0030601D02*
X0498408Y0030601D01*
X0500408Y0032199D02*
X0511066Y0032199D01*
X0510244Y0033798D02*
X0501230Y0033798D01*
X0501541Y0035396D02*
X0509933Y0035396D01*
X0510016Y0036995D02*
X0501458Y0036995D01*
X0500796Y0038594D02*
X0510678Y0038594D01*
X0512115Y0040192D02*
X0499359Y0040192D01*
X0497592Y0041791D02*
X0513882Y0041791D01*
X0513220Y0043389D02*
X0498254Y0043389D01*
X0498588Y0044988D02*
X0512886Y0044988D01*
X0512886Y0046586D02*
X0498588Y0046586D01*
X0498028Y0048185D02*
X0513446Y0048185D01*
X0514408Y0049783D02*
X0497066Y0049783D01*
X0495119Y0051382D02*
X0516355Y0051382D01*
X0517870Y0062571D02*
X0514155Y0062571D01*
X0515609Y0064170D02*
X0516417Y0064170D01*
X0507870Y0062571D02*
X0504155Y0062571D01*
X0505609Y0064170D02*
X0506417Y0064170D01*
X0497870Y0062571D02*
X0494155Y0062571D01*
X0493663Y0060973D02*
X0544400Y0060973D01*
X0544400Y0062571D02*
X0534155Y0062571D01*
X0535609Y0064170D02*
X0544400Y0064170D01*
X0544400Y0065768D02*
X0536271Y0065768D01*
X0536313Y0067367D02*
X0544400Y0067367D01*
X0544400Y0068965D02*
X0536313Y0068965D01*
X0536313Y0070564D02*
X0544400Y0070564D01*
X0544400Y0072162D02*
X0536313Y0072162D01*
X0536313Y0073761D02*
X0544400Y0073761D01*
X0544400Y0075359D02*
X0535740Y0075359D01*
X0534474Y0076958D02*
X0544400Y0076958D01*
X0544400Y0078556D02*
X0503611Y0078556D01*
X0504474Y0076958D02*
X0507551Y0076958D01*
X0506285Y0075359D02*
X0505740Y0075359D01*
X0514474Y0076958D02*
X0517551Y0076958D01*
X0516285Y0075359D02*
X0515740Y0075359D01*
X0524474Y0076958D02*
X0527551Y0076958D01*
X0526285Y0075359D02*
X0525740Y0075359D01*
X0514262Y0083352D02*
X0544400Y0083352D01*
X0544400Y0084950D02*
X0514784Y0084950D01*
X0514638Y0086549D02*
X0544373Y0086549D01*
X0544676Y0088147D02*
X0513691Y0088147D01*
X0507909Y0088147D02*
X0437000Y0088147D01*
X0437000Y0089746D02*
X0546180Y0089746D01*
X0548099Y0091344D02*
X0437000Y0091344D01*
X0437000Y0092943D02*
X0550017Y0092943D01*
X0551935Y0094541D02*
X0436481Y0094541D01*
X0409500Y0096140D02*
X0553853Y0096140D01*
X0553648Y0103352D02*
X0555542Y0103352D01*
X0557292Y0104077D01*
X0558631Y0105416D01*
X0559356Y0107166D01*
X0559356Y0109060D01*
X0558631Y0110809D01*
X0557292Y0112148D01*
X0555542Y0112873D01*
X0553648Y0112873D01*
X0551899Y0112148D01*
X0550559Y0110809D01*
X0549835Y0109060D01*
X0549835Y0107166D01*
X0550559Y0105416D01*
X0551899Y0104077D01*
X0553648Y0103352D01*
X0551843Y0104132D02*
X0409500Y0104132D01*
X0409500Y0102534D02*
X0570366Y0102534D01*
X0570366Y0104132D02*
X0557348Y0104132D01*
X0558762Y0105731D02*
X0570366Y0105731D01*
X0570366Y0107330D02*
X0559356Y0107330D01*
X0559356Y0108928D02*
X0570366Y0108928D01*
X0570366Y0110527D02*
X0558748Y0110527D01*
X0557315Y0112125D02*
X0570366Y0112125D01*
X0570366Y0113724D02*
X0409500Y0113724D01*
X0409500Y0115322D02*
X0570366Y0115322D01*
X0570366Y0116921D02*
X0409500Y0116921D01*
X0409500Y0118519D02*
X0570366Y0118519D01*
X0570366Y0120118D02*
X0478148Y0120118D01*
X0479413Y0121716D02*
X0570366Y0121716D01*
X0570366Y0123315D02*
X0479784Y0123315D01*
X0479487Y0124913D02*
X0570366Y0124913D01*
X0570366Y0126512D02*
X0478327Y0126512D01*
X0474912Y0128110D02*
X0570366Y0128110D01*
X0570366Y0129709D02*
X0473314Y0129709D01*
X0471715Y0131307D02*
X0570366Y0131307D01*
X0570366Y0132906D02*
X0470117Y0132906D01*
X0468518Y0134504D02*
X0483147Y0134504D01*
X0483575Y0134076D02*
X0502409Y0134076D01*
X0503757Y0135424D01*
X0503757Y0146384D01*
X0502409Y0147731D01*
X0483575Y0147731D01*
X0482228Y0146384D01*
X0482228Y0144625D01*
X0481593Y0144888D01*
X0480007Y0144888D01*
X0478543Y0144282D01*
X0477952Y0143690D01*
X0477119Y0144523D01*
X0475551Y0145172D01*
X0473853Y0145172D01*
X0472284Y0144523D01*
X0471083Y0143322D01*
X0470433Y0141753D01*
X0470433Y0140055D01*
X0471083Y0138486D01*
X0472284Y0137285D01*
X0473853Y0136635D01*
X0475551Y0136635D01*
X0477119Y0137285D01*
X0477952Y0138118D01*
X0478543Y0137526D01*
X0480007Y0136920D01*
X0481593Y0136920D01*
X0482228Y0137183D01*
X0482228Y0135424D01*
X0483575Y0134076D01*
X0482228Y0136103D02*
X0466920Y0136103D01*
X0465321Y0137701D02*
X0471868Y0137701D01*
X0470746Y0139300D02*
X0463723Y0139300D01*
X0462124Y0140898D02*
X0470433Y0140898D01*
X0470741Y0142497D02*
X0460526Y0142497D01*
X0458927Y0144095D02*
X0471856Y0144095D01*
X0477547Y0144095D02*
X0478357Y0144095D01*
X0482228Y0145694D02*
X0457329Y0145694D01*
X0455730Y0147292D02*
X0483136Y0147292D01*
X0502849Y0147292D02*
X0542600Y0147292D01*
X0542600Y0145694D02*
X0503757Y0145694D01*
X0503757Y0144095D02*
X0542600Y0144095D01*
X0542258Y0142497D02*
X0503757Y0142497D01*
X0503757Y0140898D02*
X0541399Y0140898D01*
X0541316Y0139300D02*
X0503757Y0139300D01*
X0503757Y0137701D02*
X0541900Y0137701D01*
X0544066Y0136103D02*
X0503757Y0136103D01*
X0502837Y0134504D02*
X0570366Y0134504D01*
X0570366Y0136103D02*
X0557822Y0136103D01*
X0557292Y0135573D02*
X0558631Y0136912D01*
X0559356Y0138662D01*
X0559356Y0140556D01*
X0558631Y0142305D01*
X0557292Y0143645D01*
X0555542Y0144369D01*
X0553648Y0144369D01*
X0551899Y0143645D01*
X0550559Y0142305D01*
X0549835Y0140556D01*
X0549835Y0138662D01*
X0550559Y0136912D01*
X0551899Y0135573D01*
X0553648Y0134848D01*
X0555542Y0134848D01*
X0557292Y0135573D01*
X0558958Y0137701D02*
X0570366Y0137701D01*
X0570366Y0139300D02*
X0559356Y0139300D01*
X0559214Y0140898D02*
X0570366Y0140898D01*
X0570366Y0142497D02*
X0558440Y0142497D01*
X0556204Y0144095D02*
X0570366Y0144095D01*
X0570366Y0145694D02*
X0548000Y0145694D01*
X0548000Y0147292D02*
X0570366Y0147292D01*
X0570366Y0148891D02*
X0548000Y0148891D01*
X0548000Y0150489D02*
X0570366Y0150489D01*
X0570366Y0152088D02*
X0548000Y0152088D01*
X0548000Y0153686D02*
X0570366Y0153686D01*
X0570366Y0155285D02*
X0548000Y0155285D01*
X0548000Y0156883D02*
X0570366Y0156883D01*
X0570366Y0158482D02*
X0548000Y0158482D01*
X0548000Y0160080D02*
X0570366Y0160080D01*
X0570366Y0161679D02*
X0548000Y0161679D01*
X0547654Y0163277D02*
X0570366Y0163277D01*
X0570366Y0164876D02*
X0546146Y0164876D01*
X0544548Y0166474D02*
X0570366Y0166474D01*
X0570366Y0168073D02*
X0542949Y0168073D01*
X0543202Y0169671D02*
X0570366Y0169671D01*
X0570366Y0171270D02*
X0544436Y0171270D01*
X0544784Y0172868D02*
X0570366Y0172868D01*
X0570366Y0174467D02*
X0544465Y0174467D01*
X0543273Y0176065D02*
X0570366Y0176065D01*
X0570366Y0177664D02*
X0199858Y0177664D01*
X0201457Y0176065D02*
X0538327Y0176065D01*
X0535313Y0168073D02*
X0496949Y0168073D01*
X0498548Y0166474D02*
X0536911Y0166474D01*
X0538510Y0164876D02*
X0500146Y0164876D01*
X0501745Y0163277D02*
X0540108Y0163277D01*
X0541707Y0161679D02*
X0503343Y0161679D01*
X0504942Y0160080D02*
X0542600Y0160080D01*
X0542600Y0158482D02*
X0508073Y0158482D01*
X0509793Y0156883D02*
X0542600Y0156883D01*
X0542600Y0155285D02*
X0510284Y0155285D01*
X0510108Y0153686D02*
X0542600Y0153686D01*
X0542600Y0152088D02*
X0509118Y0152088D01*
X0503482Y0152088D02*
X0450934Y0152088D01*
X0449336Y0153686D02*
X0502492Y0153686D01*
X0502101Y0155285D02*
X0447737Y0155285D01*
X0446139Y0156883D02*
X0500502Y0156883D01*
X0498904Y0158482D02*
X0444540Y0158482D01*
X0442942Y0160080D02*
X0497305Y0160080D01*
X0495707Y0161679D02*
X0441343Y0161679D01*
X0439745Y0163277D02*
X0494108Y0163277D01*
X0492510Y0164876D02*
X0438146Y0164876D01*
X0428305Y0160080D02*
X0358142Y0160080D01*
X0359253Y0158482D02*
X0429904Y0158482D01*
X0431502Y0156883D02*
X0360042Y0156883D01*
X0360470Y0155285D02*
X0432567Y0155285D01*
X0432116Y0153686D02*
X0360620Y0153686D01*
X0360620Y0152088D02*
X0432333Y0152088D01*
X0433380Y0150489D02*
X0360202Y0150489D01*
X0359597Y0148891D02*
X0367748Y0148891D01*
X0366246Y0147292D02*
X0358674Y0147292D01*
X0357139Y0145694D02*
X0366100Y0145694D01*
X0366100Y0144095D02*
X0354698Y0144095D01*
X0371500Y0142497D02*
X0381321Y0142497D01*
X0383279Y0142497D02*
X0405889Y0142497D01*
X0407487Y0140898D02*
X0371500Y0140898D01*
X0371500Y0139300D02*
X0409086Y0139300D01*
X0418758Y0137701D02*
X0371500Y0137701D01*
X0371500Y0136103D02*
X0418758Y0136103D01*
X0419677Y0134504D02*
X0393334Y0134504D01*
X0394490Y0132906D02*
X0462480Y0132906D01*
X0460881Y0134504D02*
X0436848Y0134504D01*
X0437767Y0136103D02*
X0444068Y0136103D01*
X0444207Y0136045D02*
X0446141Y0136045D01*
X0447926Y0136785D01*
X0449293Y0138152D01*
X0450033Y0139937D01*
X0450033Y0141870D01*
X0449293Y0143656D01*
X0447926Y0145023D01*
X0446141Y0145763D01*
X0444207Y0145763D01*
X0442422Y0145023D01*
X0441055Y0143656D01*
X0440315Y0141870D01*
X0440315Y0139937D01*
X0441055Y0138152D01*
X0442422Y0136785D01*
X0444207Y0136045D01*
X0446280Y0136103D02*
X0459283Y0136103D01*
X0457684Y0137701D02*
X0448843Y0137701D01*
X0449769Y0139300D02*
X0456086Y0139300D01*
X0454487Y0140898D02*
X0450033Y0140898D01*
X0449774Y0142497D02*
X0452889Y0142497D01*
X0451290Y0144095D02*
X0448854Y0144095D01*
X0449692Y0145694D02*
X0446308Y0145694D01*
X0444040Y0145694D02*
X0437767Y0145694D01*
X0437767Y0144095D02*
X0441494Y0144095D01*
X0440574Y0142497D02*
X0437767Y0142497D01*
X0437767Y0140898D02*
X0440315Y0140898D01*
X0440579Y0139300D02*
X0437767Y0139300D01*
X0437767Y0137701D02*
X0441505Y0137701D01*
X0464078Y0131307D02*
X0394784Y0131307D01*
X0394410Y0129709D02*
X0465677Y0129709D01*
X0467275Y0128110D02*
X0393500Y0128110D01*
X0393500Y0126512D02*
X0468874Y0126512D01*
X0470472Y0124913D02*
X0393500Y0124913D01*
X0393500Y0123315D02*
X0471816Y0123315D01*
X0472187Y0121716D02*
X0408806Y0121716D01*
X0409500Y0120118D02*
X0473452Y0120118D01*
X0477535Y0137701D02*
X0478368Y0137701D01*
X0454131Y0148891D02*
X0542600Y0148891D01*
X0542600Y0150489D02*
X0452533Y0150489D01*
X0448093Y0147292D02*
X0436859Y0147292D01*
X0438820Y0150489D02*
X0444896Y0150489D01*
X0446495Y0148891D02*
X0406852Y0148891D01*
X0408730Y0147292D02*
X0419666Y0147292D01*
X0418758Y0145694D02*
X0410329Y0145694D01*
X0411927Y0144095D02*
X0418758Y0144095D01*
X0439867Y0152088D02*
X0443298Y0152088D01*
X0441699Y0153686D02*
X0440084Y0153686D01*
X0440101Y0155285D02*
X0439633Y0155285D01*
X0426707Y0161679D02*
X0356434Y0161679D01*
X0371500Y0134504D02*
X0388266Y0134504D01*
X0387110Y0132906D02*
X0371500Y0132906D01*
X0371500Y0131307D02*
X0386816Y0131307D01*
X0387190Y0129709D02*
X0371500Y0129709D01*
X0371500Y0128110D02*
X0388100Y0128110D01*
X0388100Y0126512D02*
X0371500Y0126512D01*
X0409500Y0112125D02*
X0551875Y0112125D01*
X0550442Y0110527D02*
X0409500Y0110527D01*
X0409500Y0108928D02*
X0549835Y0108928D01*
X0549835Y0107330D02*
X0409500Y0107330D01*
X0409500Y0105731D02*
X0550429Y0105731D01*
X0570366Y0100935D02*
X0409500Y0100935D01*
X0409500Y0099337D02*
X0570366Y0099337D01*
X0570366Y0097738D02*
X0409500Y0097738D01*
X0388441Y0097738D02*
X0354250Y0097738D01*
X0354250Y0096140D02*
X0388441Y0096140D01*
X0388441Y0094541D02*
X0354250Y0094541D01*
X0354250Y0092943D02*
X0388441Y0092943D01*
X0388441Y0091344D02*
X0354250Y0091344D01*
X0354250Y0089746D02*
X0388441Y0089746D01*
X0388441Y0088147D02*
X0354250Y0088147D01*
X0354250Y0086549D02*
X0388441Y0086549D01*
X0388441Y0084950D02*
X0354250Y0084950D01*
X0354250Y0083352D02*
X0388441Y0083352D01*
X0388441Y0081753D02*
X0354250Y0081753D01*
X0354250Y0080155D02*
X0388441Y0080155D01*
X0388441Y0078556D02*
X0354250Y0078556D01*
X0360064Y0076958D02*
X0387630Y0076958D01*
X0386364Y0075359D02*
X0361331Y0075359D01*
X0361903Y0073761D02*
X0385791Y0073761D01*
X0385791Y0072162D02*
X0361903Y0072162D01*
X0361903Y0070564D02*
X0385791Y0070564D01*
X0385791Y0068965D02*
X0361903Y0068965D01*
X0361903Y0067367D02*
X0385791Y0067367D01*
X0385833Y0065768D02*
X0361861Y0065768D01*
X0361199Y0064170D02*
X0386495Y0064170D01*
X0379592Y0060973D02*
X0368102Y0060973D01*
X0369701Y0059374D02*
X0377994Y0059374D01*
X0377135Y0057776D02*
X0370559Y0057776D01*
X0371147Y0056177D02*
X0376547Y0056177D01*
X0358644Y0049783D02*
X0246100Y0049783D01*
X0246100Y0048185D02*
X0360993Y0048185D01*
X0363117Y0046586D02*
X0246100Y0046586D01*
X0244879Y0044988D02*
X0363047Y0044988D01*
X0363072Y0043389D02*
X0243280Y0043389D01*
X0244202Y0041791D02*
X0361397Y0041791D01*
X0358812Y0040192D02*
X0245600Y0040192D01*
X0245600Y0038204D02*
X0241000Y0038204D01*
X0241000Y0033604D01*
X0242788Y0033604D01*
X0245600Y0036416D01*
X0245600Y0038204D01*
X0245600Y0036995D02*
X0356812Y0036995D01*
X0356547Y0035396D02*
X0244581Y0035396D01*
X0242982Y0033798D02*
X0356547Y0033798D01*
X0357066Y0032199D02*
X0218126Y0032199D01*
X0218126Y0033798D02*
X0227911Y0033798D01*
X0226312Y0035396D02*
X0217730Y0035396D01*
X0216799Y0036995D02*
X0225500Y0036995D01*
X0225500Y0038594D02*
X0214557Y0038594D01*
X0217473Y0030601D02*
X0357826Y0030601D01*
X0357474Y0038594D02*
X0241000Y0038594D01*
X0241000Y0036995D02*
X0240600Y0036995D01*
X0240600Y0035396D02*
X0241000Y0035396D01*
X0241000Y0033798D02*
X0240600Y0033798D01*
X0238618Y0033798D02*
X0233689Y0033798D01*
X0235288Y0035396D02*
X0237019Y0035396D01*
X0245318Y0051382D02*
X0357405Y0051382D01*
X0356743Y0052980D02*
X0267119Y0052980D01*
X0184107Y0086549D02*
X0031622Y0086549D01*
X0033220Y0088147D02*
X0184100Y0088147D01*
X0096500Y0052980D02*
X0096100Y0052980D01*
X0094851Y0052980D02*
X0089102Y0052980D01*
X0090803Y0051382D02*
X0092530Y0051382D01*
X0091701Y0049783D02*
X0091465Y0049783D01*
X0096100Y0049783D02*
X0096500Y0049783D01*
X0096500Y0048185D02*
X0096100Y0048185D01*
X0096100Y0046586D02*
X0096500Y0046586D01*
X0096500Y0044988D02*
X0096100Y0044988D01*
X0096100Y0043389D02*
X0096500Y0043389D01*
X0096500Y0041791D02*
X0096100Y0041791D01*
X0096100Y0040192D02*
X0096500Y0040192D01*
X0096500Y0038594D02*
X0096100Y0038594D01*
X0093378Y0038594D02*
X0089985Y0038594D01*
X0091120Y0040192D02*
X0092040Y0040192D01*
X0082615Y0038594D02*
X0079985Y0038594D01*
X0081120Y0040192D02*
X0081480Y0040192D01*
X0072615Y0038594D02*
X0069985Y0038594D01*
X0071120Y0040192D02*
X0071480Y0040192D01*
X0062615Y0038594D02*
X0023785Y0038594D01*
X0023785Y0040192D02*
X0061480Y0040192D01*
X0061000Y0041791D02*
X0023454Y0041791D01*
X0022949Y0043389D02*
X0061000Y0043389D01*
X0061000Y0044988D02*
X0022026Y0044988D01*
X0020628Y0046586D02*
X0061000Y0046586D01*
X0061000Y0048185D02*
X0018423Y0048185D01*
X0008799Y0048185D02*
X0004100Y0048185D01*
X0004100Y0049783D02*
X0061135Y0049783D01*
X0061797Y0051382D02*
X0004100Y0051382D01*
X0004100Y0052980D02*
X0063498Y0052980D01*
X0069102Y0052980D02*
X0073498Y0052980D01*
X0071797Y0051382D02*
X0070803Y0051382D01*
X0079102Y0052980D02*
X0083498Y0052980D01*
X0081797Y0051382D02*
X0080803Y0051382D01*
X0096100Y0051382D02*
X0096500Y0051382D01*
X0048811Y0076958D02*
X0045734Y0076958D01*
X0047000Y0075359D02*
X0047545Y0075359D01*
X0006594Y0046586D02*
X0004100Y0046586D01*
X0004100Y0044988D02*
X0005196Y0044988D01*
X0004273Y0043389D02*
X0004100Y0043389D01*
X0191838Y0131307D02*
X0193605Y0131307D01*
X0186963Y0137701D02*
X0175772Y0137701D01*
X0177741Y0139300D02*
X0186270Y0139300D01*
X0185111Y0140898D02*
X0178284Y0140898D01*
X0178160Y0142497D02*
X0184816Y0142497D01*
X0185188Y0144095D02*
X0177243Y0144095D01*
X0164651Y0168073D02*
X0039900Y0168073D01*
X0039900Y0169671D02*
X0166249Y0169671D01*
X0167848Y0171270D02*
X0039900Y0171270D01*
X0039900Y0172868D02*
X0169446Y0172868D01*
X0171045Y0174467D02*
X0039900Y0174467D01*
X0039900Y0176065D02*
X0172643Y0176065D01*
X0174242Y0177664D02*
X0039799Y0177664D01*
X0038618Y0179263D02*
X0570366Y0179263D01*
X0570366Y0180861D02*
X0037020Y0180861D01*
X0035421Y0182460D02*
X0570366Y0182460D01*
X0570366Y0184058D02*
X0033823Y0184058D01*
X0032224Y0185657D02*
X0570366Y0185657D01*
X0570366Y0187255D02*
X0030626Y0187255D01*
X0029027Y0188854D02*
X0570366Y0188854D01*
X0570366Y0190452D02*
X0004100Y0190452D01*
X0004100Y0192051D02*
X0570366Y0192051D01*
X0570366Y0193649D02*
X0004100Y0193649D01*
X0004100Y0195248D02*
X0570366Y0195248D01*
X0570366Y0196846D02*
X0004100Y0196846D01*
X0004100Y0198445D02*
X0570366Y0198445D01*
X0570366Y0200043D02*
X0400192Y0200043D01*
X0400600Y0201642D02*
X0461810Y0201642D01*
X0461500Y0203240D02*
X0400600Y0203240D01*
X0400600Y0204839D02*
X0461500Y0204839D01*
X0461500Y0206437D02*
X0444793Y0206437D01*
X0445919Y0208036D02*
X0461500Y0208036D01*
X0461500Y0209634D02*
X0446391Y0209634D01*
X0446391Y0211233D02*
X0461500Y0211233D01*
X0461500Y0212831D02*
X0446391Y0212831D01*
X0446391Y0214430D02*
X0461500Y0214430D01*
X0461500Y0216028D02*
X0446391Y0216028D01*
X0435791Y0216028D02*
X0400600Y0216028D01*
X0400600Y0214430D02*
X0435791Y0214430D01*
X0435791Y0212831D02*
X0400600Y0212831D01*
X0400600Y0211233D02*
X0435791Y0211233D01*
X0435791Y0209634D02*
X0400600Y0209634D01*
X0400600Y0208036D02*
X0436264Y0208036D01*
X0437390Y0206437D02*
X0400600Y0206437D01*
X0391091Y0213231D02*
X0391091Y0222304D01*
X0471000Y0222304D01*
X0471000Y0213231D01*
X0480600Y0212831D02*
X0515713Y0212831D01*
X0515713Y0211233D02*
X0480600Y0211233D01*
X0480600Y0209634D02*
X0515713Y0209634D01*
X0515713Y0209176D02*
X0516519Y0207228D01*
X0518010Y0205738D01*
X0519958Y0204931D01*
X0522067Y0204931D01*
X0524015Y0205738D01*
X0525506Y0207228D01*
X0526313Y0209176D01*
X0526313Y0217285D01*
X0525506Y0219233D01*
X0524015Y0220724D01*
X0522067Y0221531D01*
X0519958Y0221531D01*
X0518010Y0220724D01*
X0516519Y0219233D01*
X0515713Y0217285D01*
X0515713Y0209176D01*
X0516185Y0208036D02*
X0480600Y0208036D01*
X0480600Y0206437D02*
X0517311Y0206437D01*
X0524714Y0206437D02*
X0552575Y0206437D01*
X0551652Y0208036D02*
X0525840Y0208036D01*
X0526313Y0209634D02*
X0551075Y0209634D01*
X0550681Y0211233D02*
X0526313Y0211233D01*
X0526313Y0212831D02*
X0550681Y0212831D01*
X0550854Y0214430D02*
X0526313Y0214430D01*
X0526313Y0216028D02*
X0551283Y0216028D01*
X0552100Y0217627D02*
X0526171Y0217627D01*
X0525509Y0219225D02*
X0553249Y0219225D01*
X0555023Y0220824D02*
X0523773Y0220824D01*
X0518252Y0220824D02*
X0480600Y0220824D01*
X0480600Y0219225D02*
X0516516Y0219225D01*
X0515854Y0217627D02*
X0480600Y0217627D01*
X0480600Y0216028D02*
X0515713Y0216028D01*
X0515713Y0214430D02*
X0480600Y0214430D01*
X0480600Y0204839D02*
X0554071Y0204839D01*
X0556447Y0203240D02*
X0480600Y0203240D01*
X0480290Y0201642D02*
X0570366Y0201642D01*
X0570366Y0203240D02*
X0565263Y0203240D01*
X0567639Y0204839D02*
X0570366Y0204839D01*
X0570366Y0206437D02*
X0569135Y0206437D01*
X0570058Y0208036D02*
X0570366Y0208036D01*
X0552987Y0144095D02*
X0548000Y0144095D01*
X0548342Y0142497D02*
X0550751Y0142497D01*
X0549977Y0140898D02*
X0549201Y0140898D01*
X0549284Y0139300D02*
X0549835Y0139300D01*
X0550232Y0137701D02*
X0548700Y0137701D01*
X0546534Y0136103D02*
X0551369Y0136103D01*
X0544400Y0081753D02*
X0512398Y0081753D01*
X0509202Y0081753D02*
X0483550Y0081753D01*
X0483550Y0080155D02*
X0484509Y0080155D01*
X0502503Y0080155D02*
X0544400Y0080155D01*
X0526417Y0064170D02*
X0525609Y0064170D01*
X0524155Y0062571D02*
X0527870Y0062571D01*
X0544391Y0059374D02*
X0493454Y0059374D01*
X0491592Y0057776D02*
X0544836Y0057776D01*
X0496417Y0064170D02*
X0495609Y0064170D01*
X0434326Y0030601D02*
X0389868Y0030601D01*
X0408176Y0049783D02*
X0410385Y0049783D01*
X0411983Y0051382D02*
X0406577Y0051382D01*
X0388441Y0099337D02*
X0354250Y0099337D01*
X0354250Y0100935D02*
X0388441Y0100935D01*
X0388441Y0102534D02*
X0354250Y0102534D01*
X0354250Y0104132D02*
X0388441Y0104132D01*
X0381908Y0200043D02*
X0004100Y0200043D01*
X0004100Y0201642D02*
X0113810Y0201642D01*
X0112500Y0203240D02*
X0051889Y0203240D01*
X0052100Y0204839D02*
X0112500Y0204839D01*
X0112500Y0206437D02*
X0095974Y0206437D01*
X0097100Y0208036D02*
X0112500Y0208036D01*
X0112500Y0209634D02*
X0097572Y0209634D01*
X0097572Y0211233D02*
X0112500Y0211233D01*
X0112500Y0212831D02*
X0097572Y0212831D01*
X0097572Y0214430D02*
X0112500Y0214430D01*
X0112500Y0216028D02*
X0097572Y0216028D01*
X0086972Y0216028D02*
X0052100Y0216028D01*
X0052100Y0214430D02*
X0086972Y0214430D01*
X0086972Y0212831D02*
X0052100Y0212831D01*
X0052100Y0211233D02*
X0086972Y0211233D01*
X0086972Y0209634D02*
X0052100Y0209634D01*
X0052100Y0208036D02*
X0087445Y0208036D01*
X0088571Y0206437D02*
X0052100Y0206437D01*
X0042272Y0213231D02*
X0042272Y0222304D01*
X0122194Y0222304D01*
X0122300Y0222304D01*
X0216682Y0222304D01*
X0296603Y0222304D01*
X0296603Y0213231D01*
X0306100Y0212831D02*
X0341303Y0212831D01*
X0341303Y0211233D02*
X0306100Y0211233D01*
X0306100Y0209634D02*
X0341303Y0209634D01*
X0341776Y0208036D02*
X0306100Y0208036D01*
X0306100Y0206437D02*
X0342901Y0206437D01*
X0350305Y0206437D02*
X0381500Y0206437D01*
X0381500Y0204839D02*
X0306100Y0204839D01*
X0306100Y0203240D02*
X0381500Y0203240D01*
X0381500Y0201642D02*
X0305290Y0201642D01*
X0287810Y0201642D02*
X0226100Y0201642D01*
X0226100Y0203240D02*
X0287000Y0203240D01*
X0287000Y0204839D02*
X0226100Y0204839D01*
X0226100Y0206437D02*
X0262980Y0206437D01*
X0261854Y0208036D02*
X0226100Y0208036D01*
X0226100Y0209634D02*
X0261382Y0209634D01*
X0261382Y0211233D02*
X0226100Y0211233D01*
X0226100Y0212831D02*
X0261382Y0212831D01*
X0261382Y0214430D02*
X0226100Y0214430D01*
X0226100Y0216028D02*
X0261382Y0216028D01*
X0271982Y0216028D02*
X0287000Y0216028D01*
X0287000Y0214430D02*
X0271982Y0214430D01*
X0271982Y0212831D02*
X0287000Y0212831D01*
X0287000Y0211233D02*
X0271982Y0211233D01*
X0271982Y0209634D02*
X0287000Y0209634D01*
X0287000Y0208036D02*
X0271509Y0208036D01*
X0270384Y0206437D02*
X0287000Y0206437D01*
X0306100Y0214430D02*
X0341303Y0214430D01*
X0341303Y0216028D02*
X0306100Y0216028D01*
X0296603Y0222304D02*
X0391091Y0222304D01*
X0381500Y0216028D02*
X0351903Y0216028D01*
X0351903Y0214430D02*
X0381500Y0214430D01*
X0381500Y0212831D02*
X0351903Y0212831D01*
X0351903Y0211233D02*
X0381500Y0211233D01*
X0381500Y0209634D02*
X0351903Y0209634D01*
X0351431Y0208036D02*
X0381500Y0208036D01*
X0216682Y0213231D02*
X0216682Y0222304D01*
X0216800Y0222304D01*
X0207000Y0216028D02*
X0177494Y0216028D01*
X0177494Y0214430D02*
X0207000Y0214430D01*
X0207000Y0212831D02*
X0177494Y0212831D01*
X0177494Y0211233D02*
X0207000Y0211233D01*
X0207000Y0209634D02*
X0177494Y0209634D01*
X0177021Y0208036D02*
X0207000Y0208036D01*
X0207000Y0206437D02*
X0175896Y0206437D01*
X0168492Y0206437D02*
X0131600Y0206437D01*
X0131600Y0204839D02*
X0207000Y0204839D01*
X0207000Y0203240D02*
X0131600Y0203240D01*
X0130290Y0201642D02*
X0207000Y0201642D01*
X0167366Y0208036D02*
X0131600Y0208036D01*
X0131600Y0209634D02*
X0166894Y0209634D01*
X0166894Y0211233D02*
X0131600Y0211233D01*
X0131600Y0212831D02*
X0166894Y0212831D01*
X0166894Y0214430D02*
X0131600Y0214430D01*
X0131600Y0216028D02*
X0166894Y0216028D01*
X0122194Y0213231D02*
X0122194Y0222304D01*
X0033000Y0220824D02*
X0019444Y0220824D01*
X0021217Y0219225D02*
X0033000Y0219225D01*
X0033000Y0217627D02*
X0022366Y0217627D01*
X0023183Y0216028D02*
X0033000Y0216028D01*
X0033000Y0214430D02*
X0023612Y0214430D01*
X0023785Y0212831D02*
X0033000Y0212831D01*
X0033000Y0211233D02*
X0023785Y0211233D01*
X0023391Y0209634D02*
X0033000Y0209634D01*
X0033000Y0208036D02*
X0022814Y0208036D01*
X0021891Y0206437D02*
X0033000Y0206437D01*
X0033000Y0204839D02*
X0020395Y0204839D01*
X0018019Y0203240D02*
X0033211Y0203240D01*
X0009203Y0203240D02*
X0004100Y0203240D01*
X0004100Y0204839D02*
X0006827Y0204839D01*
X0005331Y0206437D02*
X0004100Y0206437D01*
X0004100Y0208036D02*
X0004408Y0208036D01*
D23*
X0163800Y0163404D02*
X0175800Y0175404D01*
X0198300Y0175404D01*
X0200800Y0172904D01*
X0540800Y0172904D01*
X0536300Y0170904D02*
X0545300Y0161904D01*
X0545300Y0139904D01*
X0506300Y0154904D02*
X0492300Y0168904D01*
X0194800Y0168904D01*
X0193300Y0173404D02*
X0188800Y0168904D01*
X0188800Y0142404D01*
X0174300Y0141404D02*
X0171800Y0138904D01*
X0166300Y0138904D01*
X0163800Y0141404D01*
X0163800Y0163404D01*
X0193300Y0173404D02*
X0197300Y0173404D01*
X0199800Y0170904D01*
X0536300Y0170904D01*
X0492992Y0140904D02*
X0480800Y0140904D01*
X0475800Y0123404D02*
X0432300Y0166904D01*
X0199300Y0166904D01*
X0196300Y0163904D01*
X0196300Y0159904D01*
X0202300Y0153904D01*
X0202300Y0148904D01*
X0206300Y0136904D02*
X0206300Y0100904D01*
X0323300Y0100904D01*
X0323300Y0124904D01*
X0368800Y0124904D01*
X0368800Y0146404D01*
X0382300Y0146404D01*
X0405800Y0146404D01*
X0411300Y0140904D01*
X0428263Y0140904D01*
X0436100Y0153404D02*
X0436100Y0156104D01*
X0427300Y0164904D01*
X0203300Y0164904D01*
X0200300Y0161904D01*
X0189300Y0134404D02*
X0188800Y0134404D01*
X0186800Y0132404D01*
X0186800Y0087104D01*
X0250700Y0087104D01*
X0246800Y0080404D02*
X0246682Y0080404D01*
X0246682Y0069924D01*
X0190800Y0090904D02*
X0334800Y0090904D01*
X0330800Y0093404D02*
X0330800Y0117404D01*
X0404300Y0117404D01*
X0404300Y0089404D01*
X0430800Y0089404D01*
X0434300Y0092904D02*
X0434300Y0085404D01*
X0510800Y0085404D01*
X0434300Y0092904D02*
X0406800Y0092904D01*
X0406800Y0119904D01*
X0328300Y0119904D01*
X0328300Y0095904D01*
X0198800Y0095904D01*
X0198800Y0100904D01*
X0203800Y0098404D02*
X0325800Y0098404D01*
X0325800Y0122404D01*
X0390800Y0122404D01*
X0390800Y0131404D01*
X0330800Y0093404D02*
X0194300Y0093404D01*
X0194300Y0097904D01*
X0203800Y0098404D02*
X0203800Y0108904D01*
X0196300Y0108904D01*
X0198300Y0114404D02*
X0195800Y0116904D01*
X0195800Y0127904D01*
X0190800Y0127404D02*
X0190800Y0122404D01*
X0190800Y0090904D01*
D24*
X0111800Y0045404D03*
X0111800Y0035904D03*
X0154300Y0040404D03*
D25*
X0564800Y0080904D02*
X0564800Y0110404D01*
D26*
X0271800Y0061904D02*
X0264300Y0054404D01*
X0188800Y0054404D01*
D27*
X0216682Y0058404D02*
X0261800Y0058404D01*
X0261800Y0075404D01*
X0265800Y0079404D01*
X0296603Y0079404D01*
X0296603Y0069924D01*
X0296603Y0058404D01*
X0351600Y0058404D01*
X0351600Y0107404D01*
X0391091Y0107404D01*
X0391091Y0069924D01*
X0391091Y0063413D01*
X0396100Y0058404D01*
X0471000Y0058404D01*
X0471000Y0069924D01*
X0471013Y0069924D01*
X0480900Y0069924D02*
X0481013Y0069924D01*
X0480900Y0069924D02*
X0480900Y0082904D01*
X0401091Y0082904D01*
X0401091Y0114904D01*
X0338800Y0114904D01*
X0338800Y0082904D01*
X0306603Y0082904D01*
X0306603Y0087404D01*
X0254800Y0087404D01*
X0254800Y0082904D01*
X0226682Y0082904D01*
X0226682Y0069924D01*
X0236682Y0069924D02*
X0236682Y0060404D01*
X0251700Y0060404D01*
X0251700Y0077904D01*
X0259300Y0077904D01*
X0260800Y0079404D01*
X0260800Y0081904D01*
X0300800Y0081904D01*
X0300800Y0060404D01*
X0316603Y0060404D01*
X0331600Y0060404D01*
X0331600Y0077904D01*
X0343800Y0077904D01*
X0343800Y0109904D01*
X0395300Y0109904D01*
X0395300Y0062704D01*
X0397600Y0060404D01*
X0411091Y0060404D01*
X0411091Y0069924D01*
X0401091Y0069924D02*
X0401091Y0082904D01*
X0405300Y0080404D02*
X0421091Y0080404D01*
X0421091Y0069924D01*
X0405300Y0062404D02*
X0398700Y0062404D01*
X0396900Y0064204D01*
X0396900Y0112404D01*
X0341300Y0112404D01*
X0341300Y0080404D01*
X0326603Y0080404D01*
X0326603Y0069924D01*
X0316603Y0069924D02*
X0316603Y0060404D01*
X0311600Y0062404D02*
X0311600Y0080404D01*
X0326603Y0080404D01*
X0306603Y0082904D02*
X0306603Y0069924D01*
X0302500Y0062404D02*
X0302500Y0084404D01*
X0257800Y0084404D01*
X0257800Y0080404D01*
X0246800Y0080404D01*
X0231800Y0080404D01*
X0231800Y0062404D01*
X0222400Y0062404D01*
X0222400Y0080404D01*
X0152194Y0080404D01*
X0152194Y0069924D01*
X0142194Y0069924D02*
X0142194Y0060404D01*
X0157200Y0060404D01*
X0157200Y0077904D01*
X0220900Y0077904D01*
X0220900Y0060404D01*
X0236682Y0060404D01*
X0216682Y0058404D02*
X0216682Y0069924D01*
X0216682Y0058404D02*
X0122194Y0058404D01*
X0122194Y0069924D01*
X0132194Y0069924D02*
X0132194Y0082904D01*
X0226682Y0082904D01*
X0152194Y0080404D02*
X0137200Y0080404D01*
X0137200Y0062404D01*
X0128000Y0062404D01*
X0128000Y0080404D01*
X0072272Y0080404D01*
X0072272Y0069924D01*
X0062272Y0069924D02*
X0062272Y0060404D01*
X0077200Y0060404D01*
X0077200Y0077904D01*
X0126400Y0077904D01*
X0126400Y0060404D01*
X0142194Y0060404D01*
X0122194Y0058404D02*
X0042272Y0058404D01*
X0042272Y0069924D01*
X0052272Y0069924D02*
X0052272Y0082904D01*
X0132194Y0082904D01*
X0302500Y0062404D02*
X0311600Y0062404D01*
X0405300Y0062404D02*
X0405300Y0080404D01*
X0421091Y0080404D02*
X0476800Y0080404D01*
X0476800Y0062404D01*
X0486000Y0062404D01*
X0486000Y0077904D01*
X0501013Y0077904D01*
X0501013Y0069924D01*
X0491013Y0069924D02*
X0491013Y0060404D01*
X0475200Y0060404D01*
X0475200Y0077904D01*
X0426100Y0077904D01*
X0426100Y0060404D01*
X0411091Y0060404D01*
D28*
X0471000Y0213231D02*
X0471013Y0213231D01*
M02*
