G75*
%MOIN*%
%OFA0B0*%
%FSLAX25Y25*%
%IPPOS*%
%LPD*%
%AMOC8*
5,1,8,0,0,1.08239X$1,22.5*
%
%ADD10C,0.00600*%
%ADD11C,0.00400*%
%ADD12C,0.00800*%
%ADD13C,0.00300*%
%ADD14C,0.01600*%
%ADD15C,0.01000*%
%ADD16C,0.02559*%
%ADD17R,0.00591X0.01181*%
%ADD18R,0.01181X0.01181*%
%ADD19C,0.00394*%
%ADD20C,0.00500*%
%ADD21C,0.04724*%
%ADD22C,0.00000*%
%ADD23C,0.00080*%
%ADD24C,0.00200*%
D10*
X0061300Y0042904D02*
X0063800Y0040404D01*
X0068800Y0040404D01*
X0071300Y0042904D01*
X0073800Y0040404D01*
X0078800Y0040404D01*
X0081300Y0042904D01*
X0081300Y0047904D01*
X0078800Y0050404D01*
X0073800Y0050404D01*
X0071300Y0047904D01*
X0071300Y0042904D01*
X0071300Y0047904D02*
X0068800Y0050404D01*
X0063800Y0050404D01*
X0061300Y0047904D01*
X0061300Y0042904D01*
X0081300Y0042904D02*
X0083800Y0040404D01*
X0088800Y0040404D01*
X0091300Y0042904D01*
X0093800Y0040404D01*
X0098800Y0040404D01*
X0101300Y0042904D01*
X0101300Y0047904D01*
X0098800Y0050404D01*
X0093800Y0050404D01*
X0091300Y0047904D01*
X0091300Y0042904D01*
X0091300Y0047904D02*
X0088800Y0050404D01*
X0083800Y0050404D01*
X0081300Y0047904D01*
X0126485Y0053203D02*
X0126485Y0028605D01*
X0140107Y0028605D01*
X0140107Y0053203D01*
X0126485Y0053203D01*
X0225800Y0050904D02*
X0225800Y0035904D01*
X0228300Y0033404D01*
X0233300Y0033404D01*
X0235800Y0035904D01*
X0235800Y0050904D01*
X0238300Y0053404D01*
X0243300Y0053404D01*
X0245800Y0050904D01*
X0245800Y0035904D01*
X0243300Y0033404D01*
X0238300Y0033404D01*
X0235800Y0035904D01*
X0252438Y0041723D02*
X0252438Y0044085D01*
X0257162Y0044085D02*
X0257162Y0041723D01*
X0235800Y0050904D02*
X0233300Y0053404D01*
X0228300Y0053404D01*
X0225800Y0050904D01*
X0302038Y0044085D02*
X0302038Y0041723D01*
X0306762Y0041723D02*
X0306762Y0044085D01*
X0399280Y0048683D02*
X0399280Y0033683D01*
X0401780Y0031183D01*
X0406780Y0031183D01*
X0409280Y0033683D01*
X0409280Y0048683D01*
X0411780Y0051183D01*
X0416780Y0051183D01*
X0419280Y0048683D01*
X0419280Y0033683D01*
X0416780Y0031183D01*
X0411780Y0031183D01*
X0409280Y0033683D01*
X0409280Y0048683D02*
X0406780Y0051183D01*
X0401780Y0051183D01*
X0399280Y0048683D01*
X0401162Y0086823D02*
X0401162Y0089185D01*
X0396438Y0089185D02*
X0396438Y0086823D01*
X0391962Y0086823D02*
X0391962Y0089185D01*
X0387238Y0089185D02*
X0387238Y0086823D01*
X0378481Y0086542D02*
X0376119Y0086542D01*
X0376119Y0091266D02*
X0378481Y0091266D01*
X0319162Y0128223D02*
X0319162Y0130585D01*
X0314438Y0130585D02*
X0314438Y0128223D01*
X0255662Y0151723D02*
X0255662Y0154085D01*
X0250938Y0154085D02*
X0250938Y0151723D01*
X0235162Y0151723D02*
X0235162Y0154085D01*
X0230438Y0154085D02*
X0230438Y0151723D01*
X0226162Y0151723D02*
X0226162Y0154085D01*
X0221438Y0154085D02*
X0221438Y0151723D01*
X0183662Y0157323D02*
X0183662Y0159685D01*
X0178938Y0159685D02*
X0178938Y0157323D01*
X0164981Y0156542D02*
X0162619Y0156542D01*
X0162619Y0154266D02*
X0164981Y0154266D01*
X0164981Y0149542D02*
X0162619Y0149542D01*
X0162619Y0147266D02*
X0164981Y0147266D01*
X0164981Y0142542D02*
X0162619Y0142542D01*
X0162619Y0161266D02*
X0164981Y0161266D01*
X0155870Y0162704D02*
X0151600Y0162704D01*
X0155870Y0166974D01*
X0155870Y0168042D01*
X0154803Y0169109D01*
X0152668Y0169109D01*
X0151600Y0168042D01*
X0198438Y0178723D02*
X0198438Y0181085D01*
X0203162Y0181085D02*
X0203162Y0178723D01*
X0207438Y0178723D02*
X0207438Y0181085D01*
X0212162Y0181085D02*
X0212162Y0178723D01*
X0260100Y0168042D02*
X0261168Y0169109D01*
X0263303Y0169109D01*
X0264370Y0168042D01*
X0264370Y0166974D01*
X0263303Y0165907D01*
X0264370Y0164839D01*
X0264370Y0163772D01*
X0263303Y0162704D01*
X0261168Y0162704D01*
X0260100Y0163772D01*
X0262235Y0165907D02*
X0263303Y0165907D01*
X0326100Y0165907D02*
X0330370Y0165907D01*
X0329303Y0169109D02*
X0326100Y0165907D01*
X0329303Y0162704D02*
X0329303Y0169109D01*
X0420600Y0169109D02*
X0420600Y0165907D01*
X0422735Y0166974D01*
X0423803Y0166974D01*
X0424870Y0165907D01*
X0424870Y0163772D01*
X0423803Y0162704D01*
X0421668Y0162704D01*
X0420600Y0163772D01*
X0420600Y0169109D02*
X0424870Y0169109D01*
X0500600Y0165407D02*
X0500600Y0163272D01*
X0501668Y0162204D01*
X0503803Y0162204D01*
X0504870Y0163272D01*
X0504870Y0164339D01*
X0503803Y0165407D01*
X0500600Y0165407D01*
X0502735Y0167542D01*
X0504870Y0168609D01*
X0550938Y0171723D02*
X0550938Y0174085D01*
X0555662Y0174085D02*
X0555662Y0171723D01*
X0499981Y0133266D02*
X0497619Y0133266D01*
X0497619Y0128542D02*
X0499981Y0128542D01*
X0499981Y0126266D02*
X0497619Y0126266D01*
X0497619Y0121542D02*
X0499981Y0121542D01*
X0551938Y0078585D02*
X0551938Y0076223D01*
X0556662Y0076223D02*
X0556662Y0078585D01*
X0535481Y0054266D02*
X0533119Y0054266D01*
X0533119Y0049542D02*
X0535481Y0049542D01*
X0249062Y0113223D02*
X0249062Y0115585D01*
X0244338Y0115585D02*
X0244338Y0113223D01*
X0239062Y0113223D02*
X0239062Y0115585D01*
X0234338Y0115585D02*
X0234338Y0113223D01*
X0229162Y0113223D02*
X0229162Y0115585D01*
X0224438Y0115585D02*
X0224438Y0113223D01*
X0214162Y0108085D02*
X0214162Y0105723D01*
X0209438Y0105723D02*
X0209438Y0108085D01*
X0179805Y0116569D02*
X0178135Y0114898D01*
X0174795Y0118239D02*
X0176465Y0119909D01*
X0073870Y0162704D02*
X0069600Y0162704D01*
X0071735Y0162704D02*
X0071735Y0169109D01*
X0069600Y0166974D01*
X0198119Y0201542D02*
X0200481Y0201542D01*
X0200481Y0206266D02*
X0198119Y0206266D01*
D11*
X0064035Y0036708D02*
X0064035Y0032104D01*
X0067104Y0032104D02*
X0070173Y0036708D01*
X0072500Y0036708D02*
X0074802Y0036708D01*
X0075569Y0035941D01*
X0075569Y0034406D01*
X0074802Y0033639D01*
X0072500Y0033639D01*
X0074035Y0033639D02*
X0075569Y0032104D01*
X0077104Y0032104D02*
X0080173Y0036708D01*
X0077104Y0036708D02*
X0080173Y0032104D01*
X0084500Y0032871D02*
X0085267Y0032104D01*
X0086802Y0032104D01*
X0087569Y0032871D01*
X0087569Y0034406D01*
X0086035Y0034406D01*
X0087569Y0035941D02*
X0086802Y0036708D01*
X0085267Y0036708D01*
X0084500Y0035941D01*
X0084500Y0032871D01*
X0092500Y0032871D02*
X0093267Y0032104D01*
X0094802Y0032104D01*
X0095569Y0032871D01*
X0095569Y0033639D01*
X0094802Y0034406D01*
X0094035Y0034406D01*
X0094802Y0034406D02*
X0095569Y0035173D01*
X0095569Y0035941D01*
X0094802Y0036708D01*
X0093267Y0036708D01*
X0092500Y0035941D01*
X0097104Y0036708D02*
X0097104Y0033639D01*
X0098639Y0032104D01*
X0100173Y0033639D01*
X0100173Y0036708D01*
X0072500Y0036708D02*
X0072500Y0032104D01*
X0070173Y0032104D02*
X0067104Y0036708D01*
X0065569Y0036708D02*
X0062500Y0036708D01*
X0064702Y0078537D02*
X0060098Y0078537D01*
X0061633Y0080072D01*
X0060098Y0081606D01*
X0064702Y0081606D01*
X0064702Y0083141D02*
X0064702Y0084676D01*
X0064702Y0083908D02*
X0060098Y0083908D01*
X0060098Y0083141D02*
X0060098Y0084676D01*
X0060866Y0086210D02*
X0061633Y0086210D01*
X0062400Y0086978D01*
X0062400Y0088512D01*
X0063168Y0089279D01*
X0063935Y0089279D01*
X0064702Y0088512D01*
X0064702Y0086978D01*
X0063935Y0086210D01*
X0060866Y0086210D02*
X0060098Y0086978D01*
X0060098Y0088512D01*
X0060866Y0089279D01*
X0060866Y0090814D02*
X0063935Y0090814D01*
X0064702Y0091581D01*
X0064702Y0093116D01*
X0063935Y0093883D01*
X0060866Y0093883D01*
X0060098Y0093116D01*
X0060098Y0091581D01*
X0060866Y0090814D01*
X0054702Y0090814D02*
X0052400Y0088512D01*
X0053168Y0087745D02*
X0050098Y0090814D01*
X0050098Y0087745D02*
X0054702Y0087745D01*
X0053935Y0086210D02*
X0054702Y0085443D01*
X0054702Y0083908D01*
X0053935Y0083141D01*
X0050866Y0083141D01*
X0050098Y0083908D01*
X0050098Y0085443D01*
X0050866Y0086210D01*
X0044702Y0085443D02*
X0044702Y0083908D01*
X0043935Y0083141D01*
X0042400Y0083908D02*
X0042400Y0085443D01*
X0043168Y0086210D01*
X0043935Y0086210D01*
X0044702Y0085443D01*
X0042400Y0083908D02*
X0041633Y0083141D01*
X0040866Y0083141D01*
X0040098Y0083908D01*
X0040098Y0085443D01*
X0040866Y0086210D01*
X0040098Y0087745D02*
X0040098Y0090814D01*
X0040098Y0089279D02*
X0044702Y0089279D01*
X0044702Y0081606D02*
X0043168Y0080072D01*
X0043168Y0080839D02*
X0043168Y0078537D01*
X0044702Y0078537D02*
X0040098Y0078537D01*
X0040098Y0080839D01*
X0040866Y0081606D01*
X0042400Y0081606D01*
X0043168Y0080839D01*
X0050098Y0080839D02*
X0050098Y0079304D01*
X0050866Y0078537D01*
X0051633Y0078537D01*
X0052400Y0079304D01*
X0052400Y0080839D01*
X0053168Y0081606D01*
X0053935Y0081606D01*
X0054702Y0080839D01*
X0054702Y0079304D01*
X0053935Y0078537D01*
X0050866Y0081606D02*
X0050098Y0080839D01*
X0070098Y0081606D02*
X0074702Y0081606D01*
X0073935Y0083141D02*
X0074702Y0083908D01*
X0074702Y0085443D01*
X0073935Y0086210D01*
X0070866Y0086210D01*
X0070098Y0085443D01*
X0070098Y0083908D01*
X0070866Y0083141D01*
X0073935Y0083141D01*
X0071633Y0080072D02*
X0070098Y0081606D01*
X0071633Y0080072D02*
X0070098Y0078537D01*
X0074702Y0078537D01*
X0080098Y0079304D02*
X0080866Y0078537D01*
X0083935Y0078537D01*
X0084702Y0079304D01*
X0084702Y0080839D01*
X0083935Y0081606D01*
X0083935Y0083141D02*
X0084702Y0083908D01*
X0084702Y0085443D01*
X0083935Y0086210D01*
X0083168Y0086210D01*
X0082400Y0085443D01*
X0082400Y0083908D01*
X0081633Y0083141D01*
X0080866Y0083141D01*
X0080098Y0083908D01*
X0080098Y0085443D01*
X0080866Y0086210D01*
X0074702Y0088512D02*
X0073935Y0087745D01*
X0074702Y0088512D02*
X0074702Y0090047D01*
X0073935Y0090814D01*
X0073168Y0090814D01*
X0072400Y0090047D01*
X0072400Y0088512D01*
X0071633Y0087745D01*
X0070866Y0087745D01*
X0070098Y0088512D01*
X0070098Y0090047D01*
X0070866Y0090814D01*
X0070098Y0092349D02*
X0070098Y0093883D01*
X0070098Y0093116D02*
X0074702Y0093116D01*
X0074702Y0092349D02*
X0074702Y0093883D01*
X0090098Y0088512D02*
X0090866Y0089279D01*
X0093935Y0089279D01*
X0094702Y0088512D01*
X0094702Y0086978D01*
X0093935Y0086210D01*
X0090866Y0086210D01*
X0090098Y0086978D01*
X0090098Y0088512D01*
X0090098Y0084676D02*
X0090098Y0083141D01*
X0090098Y0083908D02*
X0094702Y0083908D01*
X0094702Y0083141D02*
X0094702Y0084676D01*
X0100098Y0083141D02*
X0104702Y0083141D01*
X0104702Y0086210D01*
X0104702Y0087745D02*
X0100098Y0087745D01*
X0102400Y0088512D02*
X0104702Y0090814D01*
X0103168Y0087745D02*
X0100098Y0090814D01*
X0120020Y0090814D02*
X0120020Y0087745D01*
X0120020Y0089279D02*
X0124624Y0089279D01*
X0130020Y0087745D02*
X0134624Y0087745D01*
X0133089Y0087745D02*
X0130020Y0090814D01*
X0132322Y0088512D02*
X0134624Y0090814D01*
X0140020Y0091581D02*
X0140787Y0090814D01*
X0143856Y0090814D01*
X0144624Y0091581D01*
X0144624Y0093116D01*
X0143856Y0093883D01*
X0140787Y0093883D01*
X0140020Y0093116D01*
X0140020Y0091581D01*
X0140787Y0089279D02*
X0140020Y0088512D01*
X0140020Y0086978D01*
X0140787Y0086210D01*
X0141554Y0086210D01*
X0142322Y0086978D01*
X0142322Y0088512D01*
X0143089Y0089279D01*
X0143856Y0089279D01*
X0144624Y0088512D01*
X0144624Y0086978D01*
X0143856Y0086210D01*
X0144624Y0084676D02*
X0144624Y0083141D01*
X0144624Y0083908D02*
X0140020Y0083908D01*
X0140020Y0083141D02*
X0140020Y0084676D01*
X0134624Y0083908D02*
X0134624Y0085443D01*
X0133856Y0086210D01*
X0134624Y0083908D02*
X0133856Y0083141D01*
X0130787Y0083141D01*
X0130020Y0083908D01*
X0130020Y0085443D01*
X0130787Y0086210D01*
X0124624Y0085443D02*
X0124624Y0083908D01*
X0123856Y0083141D01*
X0122322Y0083908D02*
X0122322Y0085443D01*
X0123089Y0086210D01*
X0123856Y0086210D01*
X0124624Y0085443D01*
X0122322Y0083908D02*
X0121554Y0083141D01*
X0120787Y0083141D01*
X0120020Y0083908D01*
X0120020Y0085443D01*
X0120787Y0086210D01*
X0120787Y0081606D02*
X0120020Y0080839D01*
X0120020Y0078537D01*
X0124624Y0078537D01*
X0123089Y0078537D02*
X0123089Y0080839D01*
X0122322Y0081606D01*
X0120787Y0081606D01*
X0123089Y0080072D02*
X0124624Y0081606D01*
X0130020Y0080839D02*
X0130020Y0079304D01*
X0130787Y0078537D01*
X0131554Y0078537D01*
X0132322Y0079304D01*
X0132322Y0080839D01*
X0133089Y0081606D01*
X0133856Y0081606D01*
X0134624Y0080839D01*
X0134624Y0079304D01*
X0133856Y0078537D01*
X0130787Y0081606D02*
X0130020Y0080839D01*
X0140020Y0081606D02*
X0144624Y0081606D01*
X0144624Y0078537D02*
X0140020Y0078537D01*
X0141554Y0080072D01*
X0140020Y0081606D01*
X0150020Y0081606D02*
X0154624Y0081606D01*
X0153856Y0083141D02*
X0154624Y0083908D01*
X0154624Y0085443D01*
X0153856Y0086210D01*
X0150787Y0086210D01*
X0150020Y0085443D01*
X0150020Y0083908D01*
X0150787Y0083141D01*
X0153856Y0083141D01*
X0151554Y0080072D02*
X0150020Y0081606D01*
X0151554Y0080072D02*
X0150020Y0078537D01*
X0154624Y0078537D01*
X0160020Y0079304D02*
X0160020Y0080839D01*
X0160787Y0081606D01*
X0160787Y0083141D02*
X0161554Y0083141D01*
X0162322Y0083908D01*
X0162322Y0085443D01*
X0163089Y0086210D01*
X0163856Y0086210D01*
X0164624Y0085443D01*
X0164624Y0083908D01*
X0163856Y0083141D01*
X0163856Y0081606D02*
X0164624Y0080839D01*
X0164624Y0079304D01*
X0163856Y0078537D01*
X0160787Y0078537D01*
X0160020Y0079304D01*
X0160787Y0083141D02*
X0160020Y0083908D01*
X0160020Y0085443D01*
X0160787Y0086210D01*
X0154624Y0088512D02*
X0153856Y0087745D01*
X0154624Y0088512D02*
X0154624Y0090047D01*
X0153856Y0090814D01*
X0153089Y0090814D01*
X0152322Y0090047D01*
X0152322Y0088512D01*
X0151554Y0087745D01*
X0150787Y0087745D01*
X0150020Y0088512D01*
X0150020Y0090047D01*
X0150787Y0090814D01*
X0150020Y0092349D02*
X0150020Y0093883D01*
X0150020Y0093116D02*
X0154624Y0093116D01*
X0154624Y0092349D02*
X0154624Y0093883D01*
X0170020Y0088512D02*
X0170787Y0089279D01*
X0173856Y0089279D01*
X0174624Y0088512D01*
X0174624Y0086978D01*
X0173856Y0086210D01*
X0170787Y0086210D01*
X0170020Y0086978D01*
X0170020Y0088512D01*
X0170020Y0084676D02*
X0170020Y0083141D01*
X0170020Y0083908D02*
X0174624Y0083908D01*
X0174624Y0083141D02*
X0174624Y0084676D01*
X0180020Y0083141D02*
X0184624Y0083141D01*
X0184624Y0086210D01*
X0184624Y0087745D02*
X0180020Y0087745D01*
X0182322Y0088512D02*
X0184624Y0090814D01*
X0183089Y0087745D02*
X0180020Y0090814D01*
X0180787Y0081606D02*
X0180020Y0080839D01*
X0180020Y0079304D01*
X0180787Y0078537D01*
X0183856Y0078537D01*
X0184624Y0079304D01*
X0184624Y0080839D01*
X0183856Y0081606D01*
X0174624Y0080839D02*
X0174624Y0078537D01*
X0170020Y0078537D01*
X0170020Y0080839D01*
X0170787Y0081606D01*
X0173856Y0081606D01*
X0174624Y0080839D01*
X0214508Y0080839D02*
X0214508Y0078537D01*
X0219112Y0078537D01*
X0217577Y0078537D02*
X0217577Y0080839D01*
X0216810Y0081606D01*
X0215275Y0081606D01*
X0214508Y0080839D01*
X0215275Y0083141D02*
X0216043Y0083141D01*
X0216810Y0083908D01*
X0216810Y0085443D01*
X0217577Y0086210D01*
X0218345Y0086210D01*
X0219112Y0085443D01*
X0219112Y0083908D01*
X0218345Y0083141D01*
X0219112Y0081606D02*
X0217577Y0080072D01*
X0215275Y0083141D02*
X0214508Y0083908D01*
X0214508Y0085443D01*
X0215275Y0086210D01*
X0214508Y0087745D02*
X0214508Y0090814D01*
X0214508Y0089279D02*
X0219112Y0089279D01*
X0224508Y0087745D02*
X0229112Y0087745D01*
X0227577Y0087745D02*
X0224508Y0090814D01*
X0226810Y0088512D02*
X0229112Y0090814D01*
X0234508Y0091581D02*
X0235275Y0090814D01*
X0238345Y0090814D01*
X0239112Y0091581D01*
X0239112Y0093116D01*
X0238345Y0093883D01*
X0235275Y0093883D01*
X0234508Y0093116D01*
X0234508Y0091581D01*
X0235275Y0089279D02*
X0234508Y0088512D01*
X0234508Y0086978D01*
X0235275Y0086210D01*
X0236043Y0086210D01*
X0236810Y0086978D01*
X0236810Y0088512D01*
X0237577Y0089279D01*
X0238345Y0089279D01*
X0239112Y0088512D01*
X0239112Y0086978D01*
X0238345Y0086210D01*
X0239112Y0084676D02*
X0239112Y0083141D01*
X0239112Y0083908D02*
X0234508Y0083908D01*
X0234508Y0083141D02*
X0234508Y0084676D01*
X0229112Y0083908D02*
X0229112Y0085443D01*
X0228345Y0086210D01*
X0229112Y0083908D02*
X0228345Y0083141D01*
X0225275Y0083141D01*
X0224508Y0083908D01*
X0224508Y0085443D01*
X0225275Y0086210D01*
X0225275Y0081606D02*
X0224508Y0080839D01*
X0224508Y0079304D01*
X0225275Y0078537D01*
X0226043Y0078537D01*
X0226810Y0079304D01*
X0226810Y0080839D01*
X0227577Y0081606D01*
X0228345Y0081606D01*
X0229112Y0080839D01*
X0229112Y0079304D01*
X0228345Y0078537D01*
X0234508Y0078537D02*
X0236043Y0080072D01*
X0234508Y0081606D01*
X0239112Y0081606D01*
X0239112Y0078537D02*
X0234508Y0078537D01*
X0244508Y0078537D02*
X0246043Y0080072D01*
X0244508Y0081606D01*
X0249112Y0081606D01*
X0248345Y0083141D02*
X0245275Y0083141D01*
X0244508Y0083908D01*
X0244508Y0085443D01*
X0245275Y0086210D01*
X0248345Y0086210D01*
X0249112Y0085443D01*
X0249112Y0083908D01*
X0248345Y0083141D01*
X0254508Y0083908D02*
X0254508Y0085443D01*
X0255275Y0086210D01*
X0256810Y0085443D02*
X0257577Y0086210D01*
X0258345Y0086210D01*
X0259112Y0085443D01*
X0259112Y0083908D01*
X0258345Y0083141D01*
X0258345Y0081606D02*
X0259112Y0080839D01*
X0259112Y0079304D01*
X0258345Y0078537D01*
X0255275Y0078537D01*
X0254508Y0079304D01*
X0254508Y0080839D01*
X0255275Y0081606D01*
X0255275Y0083141D02*
X0256043Y0083141D01*
X0256810Y0083908D01*
X0256810Y0085443D01*
X0254508Y0083908D02*
X0255275Y0083141D01*
X0249112Y0078537D02*
X0244508Y0078537D01*
X0245275Y0087745D02*
X0246043Y0087745D01*
X0246810Y0088512D01*
X0246810Y0090047D01*
X0247577Y0090814D01*
X0248345Y0090814D01*
X0249112Y0090047D01*
X0249112Y0088512D01*
X0248345Y0087745D01*
X0245275Y0087745D02*
X0244508Y0088512D01*
X0244508Y0090047D01*
X0245275Y0090814D01*
X0244508Y0092349D02*
X0244508Y0093883D01*
X0244508Y0093116D02*
X0249112Y0093116D01*
X0249112Y0092349D02*
X0249112Y0093883D01*
X0264508Y0088512D02*
X0265275Y0089279D01*
X0268345Y0089279D01*
X0269112Y0088512D01*
X0269112Y0086978D01*
X0268345Y0086210D01*
X0265275Y0086210D01*
X0264508Y0086978D01*
X0264508Y0088512D01*
X0264508Y0084676D02*
X0264508Y0083141D01*
X0264508Y0083908D02*
X0269112Y0083908D01*
X0269112Y0083141D02*
X0269112Y0084676D01*
X0274508Y0083141D02*
X0279112Y0083141D01*
X0279112Y0086210D01*
X0279112Y0087745D02*
X0274508Y0087745D01*
X0276810Y0088512D02*
X0279112Y0090814D01*
X0277577Y0087745D02*
X0274508Y0090814D01*
X0275275Y0081606D02*
X0274508Y0080839D01*
X0274508Y0079304D01*
X0275275Y0078537D01*
X0278345Y0078537D01*
X0279112Y0079304D01*
X0279112Y0080839D01*
X0278345Y0081606D01*
X0269112Y0080839D02*
X0269112Y0078537D01*
X0264508Y0078537D01*
X0264508Y0080839D01*
X0265275Y0081606D01*
X0268345Y0081606D01*
X0269112Y0080839D01*
X0294429Y0080839D02*
X0294429Y0078537D01*
X0299033Y0078537D01*
X0297498Y0078537D02*
X0297498Y0080839D01*
X0296731Y0081606D01*
X0295196Y0081606D01*
X0294429Y0080839D01*
X0295196Y0083141D02*
X0295964Y0083141D01*
X0296731Y0083908D01*
X0296731Y0085443D01*
X0297498Y0086210D01*
X0298266Y0086210D01*
X0299033Y0085443D01*
X0299033Y0083908D01*
X0298266Y0083141D01*
X0299033Y0081606D02*
X0297498Y0080072D01*
X0295196Y0083141D02*
X0294429Y0083908D01*
X0294429Y0085443D01*
X0295196Y0086210D01*
X0294429Y0087745D02*
X0294429Y0090814D01*
X0294429Y0089279D02*
X0299033Y0089279D01*
X0304429Y0087745D02*
X0309033Y0087745D01*
X0307498Y0087745D02*
X0304429Y0090814D01*
X0306731Y0088512D02*
X0309033Y0090814D01*
X0314429Y0091581D02*
X0315196Y0090814D01*
X0318266Y0090814D01*
X0319033Y0091581D01*
X0319033Y0093116D01*
X0318266Y0093883D01*
X0315196Y0093883D01*
X0314429Y0093116D01*
X0314429Y0091581D01*
X0315196Y0089279D02*
X0314429Y0088512D01*
X0314429Y0086978D01*
X0315196Y0086210D01*
X0315964Y0086210D01*
X0316731Y0086978D01*
X0316731Y0088512D01*
X0317498Y0089279D01*
X0318266Y0089279D01*
X0319033Y0088512D01*
X0319033Y0086978D01*
X0318266Y0086210D01*
X0319033Y0084676D02*
X0319033Y0083141D01*
X0319033Y0083908D02*
X0314429Y0083908D01*
X0314429Y0083141D02*
X0314429Y0084676D01*
X0309033Y0083908D02*
X0309033Y0085443D01*
X0308266Y0086210D01*
X0309033Y0083908D02*
X0308266Y0083141D01*
X0305196Y0083141D01*
X0304429Y0083908D01*
X0304429Y0085443D01*
X0305196Y0086210D01*
X0305196Y0081606D02*
X0304429Y0080839D01*
X0304429Y0079304D01*
X0305196Y0078537D01*
X0305964Y0078537D01*
X0306731Y0079304D01*
X0306731Y0080839D01*
X0307498Y0081606D01*
X0308266Y0081606D01*
X0309033Y0080839D01*
X0309033Y0079304D01*
X0308266Y0078537D01*
X0314429Y0078537D02*
X0315964Y0080072D01*
X0314429Y0081606D01*
X0319033Y0081606D01*
X0319033Y0078537D02*
X0314429Y0078537D01*
X0324429Y0078537D02*
X0325964Y0080072D01*
X0324429Y0081606D01*
X0329033Y0081606D01*
X0328266Y0083141D02*
X0325196Y0083141D01*
X0324429Y0083908D01*
X0324429Y0085443D01*
X0325196Y0086210D01*
X0328266Y0086210D01*
X0329033Y0085443D01*
X0329033Y0083908D01*
X0328266Y0083141D01*
X0334429Y0083908D02*
X0334429Y0085443D01*
X0335196Y0086210D01*
X0336731Y0085443D02*
X0337498Y0086210D01*
X0338266Y0086210D01*
X0339033Y0085443D01*
X0339033Y0083908D01*
X0338266Y0083141D01*
X0338266Y0081606D02*
X0339033Y0080839D01*
X0339033Y0079304D01*
X0338266Y0078537D01*
X0335196Y0078537D01*
X0334429Y0079304D01*
X0334429Y0080839D01*
X0335196Y0081606D01*
X0335196Y0083141D02*
X0335964Y0083141D01*
X0336731Y0083908D01*
X0336731Y0085443D01*
X0334429Y0083908D02*
X0335196Y0083141D01*
X0344429Y0083141D02*
X0344429Y0084676D01*
X0344429Y0083908D02*
X0349033Y0083908D01*
X0349033Y0083141D02*
X0349033Y0084676D01*
X0348266Y0086210D02*
X0349033Y0086978D01*
X0349033Y0088512D01*
X0348266Y0089279D01*
X0345196Y0089279D01*
X0344429Y0088512D01*
X0344429Y0086978D01*
X0345196Y0086210D01*
X0348266Y0086210D01*
X0354429Y0087745D02*
X0359033Y0087745D01*
X0357498Y0087745D02*
X0354429Y0090814D01*
X0356731Y0088512D02*
X0359033Y0090814D01*
X0359033Y0086210D02*
X0359033Y0083141D01*
X0354429Y0083141D01*
X0355196Y0081606D02*
X0354429Y0080839D01*
X0354429Y0079304D01*
X0355196Y0078537D01*
X0358266Y0078537D01*
X0359033Y0079304D01*
X0359033Y0080839D01*
X0358266Y0081606D01*
X0349033Y0080839D02*
X0349033Y0078537D01*
X0344429Y0078537D01*
X0344429Y0080839D01*
X0345196Y0081606D01*
X0348266Y0081606D01*
X0349033Y0080839D01*
X0329033Y0078537D02*
X0324429Y0078537D01*
X0325196Y0087745D02*
X0325964Y0087745D01*
X0326731Y0088512D01*
X0326731Y0090047D01*
X0327498Y0090814D01*
X0328266Y0090814D01*
X0329033Y0090047D01*
X0329033Y0088512D01*
X0328266Y0087745D01*
X0325196Y0087745D02*
X0324429Y0088512D01*
X0324429Y0090047D01*
X0325196Y0090814D01*
X0324429Y0092349D02*
X0324429Y0093883D01*
X0324429Y0093116D02*
X0329033Y0093116D01*
X0329033Y0092349D02*
X0329033Y0093883D01*
X0388917Y0090814D02*
X0388917Y0087745D01*
X0388917Y0089279D02*
X0393521Y0089279D01*
X0398917Y0087745D02*
X0403521Y0087745D01*
X0401987Y0087745D02*
X0398917Y0090814D01*
X0401219Y0088512D02*
X0403521Y0090814D01*
X0408917Y0091581D02*
X0409685Y0090814D01*
X0412754Y0090814D01*
X0413521Y0091581D01*
X0413521Y0093116D01*
X0412754Y0093883D01*
X0409685Y0093883D01*
X0408917Y0093116D01*
X0408917Y0091581D01*
X0409685Y0089279D02*
X0408917Y0088512D01*
X0408917Y0086978D01*
X0409685Y0086210D01*
X0410452Y0086210D01*
X0411219Y0086978D01*
X0411219Y0088512D01*
X0411987Y0089279D01*
X0412754Y0089279D01*
X0413521Y0088512D01*
X0413521Y0086978D01*
X0412754Y0086210D01*
X0413521Y0084676D02*
X0413521Y0083141D01*
X0413521Y0083908D02*
X0408917Y0083908D01*
X0408917Y0083141D02*
X0408917Y0084676D01*
X0403521Y0083908D02*
X0403521Y0085443D01*
X0402754Y0086210D01*
X0403521Y0083908D02*
X0402754Y0083141D01*
X0399685Y0083141D01*
X0398917Y0083908D01*
X0398917Y0085443D01*
X0399685Y0086210D01*
X0393521Y0085443D02*
X0393521Y0083908D01*
X0392754Y0083141D01*
X0391219Y0083908D02*
X0391219Y0085443D01*
X0391987Y0086210D01*
X0392754Y0086210D01*
X0393521Y0085443D01*
X0391219Y0083908D02*
X0390452Y0083141D01*
X0389685Y0083141D01*
X0388917Y0083908D01*
X0388917Y0085443D01*
X0389685Y0086210D01*
X0389685Y0081606D02*
X0391219Y0081606D01*
X0391987Y0080839D01*
X0391987Y0078537D01*
X0393521Y0078537D02*
X0388917Y0078537D01*
X0388917Y0080839D01*
X0389685Y0081606D01*
X0391987Y0080072D02*
X0393521Y0081606D01*
X0398917Y0080839D02*
X0398917Y0079304D01*
X0399685Y0078537D01*
X0400452Y0078537D01*
X0401219Y0079304D01*
X0401219Y0080839D01*
X0401987Y0081606D01*
X0402754Y0081606D01*
X0403521Y0080839D01*
X0403521Y0079304D01*
X0402754Y0078537D01*
X0399685Y0081606D02*
X0398917Y0080839D01*
X0408917Y0081606D02*
X0413521Y0081606D01*
X0413521Y0078537D02*
X0408917Y0078537D01*
X0410452Y0080072D01*
X0408917Y0081606D01*
X0418917Y0081606D02*
X0423521Y0081606D01*
X0422754Y0083141D02*
X0423521Y0083908D01*
X0423521Y0085443D01*
X0422754Y0086210D01*
X0419685Y0086210D01*
X0418917Y0085443D01*
X0418917Y0083908D01*
X0419685Y0083141D01*
X0422754Y0083141D01*
X0420452Y0080072D02*
X0418917Y0081606D01*
X0420452Y0080072D02*
X0418917Y0078537D01*
X0423521Y0078537D01*
X0428917Y0079304D02*
X0428917Y0080839D01*
X0429685Y0081606D01*
X0429685Y0083141D02*
X0430452Y0083141D01*
X0431219Y0083908D01*
X0431219Y0085443D01*
X0431987Y0086210D01*
X0432754Y0086210D01*
X0433521Y0085443D01*
X0433521Y0083908D01*
X0432754Y0083141D01*
X0432754Y0081606D02*
X0433521Y0080839D01*
X0433521Y0079304D01*
X0432754Y0078537D01*
X0429685Y0078537D01*
X0428917Y0079304D01*
X0429685Y0083141D02*
X0428917Y0083908D01*
X0428917Y0085443D01*
X0429685Y0086210D01*
X0423521Y0088512D02*
X0422754Y0087745D01*
X0423521Y0088512D02*
X0423521Y0090047D01*
X0422754Y0090814D01*
X0421987Y0090814D01*
X0421219Y0090047D01*
X0421219Y0088512D01*
X0420452Y0087745D01*
X0419685Y0087745D01*
X0418917Y0088512D01*
X0418917Y0090047D01*
X0419685Y0090814D01*
X0418917Y0092349D02*
X0418917Y0093883D01*
X0418917Y0093116D02*
X0423521Y0093116D01*
X0423521Y0092349D02*
X0423521Y0093883D01*
X0438917Y0088512D02*
X0439685Y0089279D01*
X0442754Y0089279D01*
X0443521Y0088512D01*
X0443521Y0086978D01*
X0442754Y0086210D01*
X0439685Y0086210D01*
X0438917Y0086978D01*
X0438917Y0088512D01*
X0438917Y0084676D02*
X0438917Y0083141D01*
X0438917Y0083908D02*
X0443521Y0083908D01*
X0443521Y0083141D02*
X0443521Y0084676D01*
X0448917Y0083141D02*
X0453521Y0083141D01*
X0453521Y0086210D01*
X0453521Y0087745D02*
X0448917Y0087745D01*
X0451219Y0088512D02*
X0453521Y0090814D01*
X0451987Y0087745D02*
X0448917Y0090814D01*
X0468839Y0090814D02*
X0468839Y0087745D01*
X0468839Y0089279D02*
X0473443Y0089279D01*
X0478839Y0087745D02*
X0483443Y0087745D01*
X0481908Y0087745D02*
X0478839Y0090814D01*
X0481141Y0088512D02*
X0483443Y0090814D01*
X0488839Y0091581D02*
X0489606Y0090814D01*
X0492675Y0090814D01*
X0493443Y0091581D01*
X0493443Y0093116D01*
X0492675Y0093883D01*
X0489606Y0093883D01*
X0488839Y0093116D01*
X0488839Y0091581D01*
X0489606Y0089279D02*
X0488839Y0088512D01*
X0488839Y0086978D01*
X0489606Y0086210D01*
X0490373Y0086210D01*
X0491141Y0086978D01*
X0491141Y0088512D01*
X0491908Y0089279D01*
X0492675Y0089279D01*
X0493443Y0088512D01*
X0493443Y0086978D01*
X0492675Y0086210D01*
X0493443Y0084676D02*
X0493443Y0083141D01*
X0493443Y0083908D02*
X0488839Y0083908D01*
X0488839Y0083141D02*
X0488839Y0084676D01*
X0483443Y0083908D02*
X0483443Y0085443D01*
X0482675Y0086210D01*
X0483443Y0083908D02*
X0482675Y0083141D01*
X0479606Y0083141D01*
X0478839Y0083908D01*
X0478839Y0085443D01*
X0479606Y0086210D01*
X0473443Y0085443D02*
X0473443Y0083908D01*
X0472675Y0083141D01*
X0471141Y0083908D02*
X0471141Y0085443D01*
X0471908Y0086210D01*
X0472675Y0086210D01*
X0473443Y0085443D01*
X0471141Y0083908D02*
X0470373Y0083141D01*
X0469606Y0083141D01*
X0468839Y0083908D01*
X0468839Y0085443D01*
X0469606Y0086210D01*
X0469606Y0081606D02*
X0471141Y0081606D01*
X0471908Y0080839D01*
X0471908Y0078537D01*
X0473443Y0078537D02*
X0468839Y0078537D01*
X0468839Y0080839D01*
X0469606Y0081606D01*
X0471908Y0080072D02*
X0473443Y0081606D01*
X0478839Y0080839D02*
X0478839Y0079304D01*
X0479606Y0078537D01*
X0480373Y0078537D01*
X0481141Y0079304D01*
X0481141Y0080839D01*
X0481908Y0081606D01*
X0482675Y0081606D01*
X0483443Y0080839D01*
X0483443Y0079304D01*
X0482675Y0078537D01*
X0479606Y0081606D02*
X0478839Y0080839D01*
X0488839Y0081606D02*
X0493443Y0081606D01*
X0493443Y0078537D02*
X0488839Y0078537D01*
X0490373Y0080072D01*
X0488839Y0081606D01*
X0498839Y0081606D02*
X0503443Y0081606D01*
X0502675Y0083141D02*
X0499606Y0083141D01*
X0498839Y0083908D01*
X0498839Y0085443D01*
X0499606Y0086210D01*
X0502675Y0086210D01*
X0503443Y0085443D01*
X0503443Y0083908D01*
X0502675Y0083141D01*
X0500373Y0080072D02*
X0498839Y0081606D01*
X0500373Y0080072D02*
X0498839Y0078537D01*
X0503443Y0078537D01*
X0508839Y0079304D02*
X0508839Y0080839D01*
X0509606Y0081606D01*
X0509606Y0083141D02*
X0510373Y0083141D01*
X0511141Y0083908D01*
X0511141Y0085443D01*
X0511908Y0086210D01*
X0512675Y0086210D01*
X0513443Y0085443D01*
X0513443Y0083908D01*
X0512675Y0083141D01*
X0512675Y0081606D02*
X0513443Y0080839D01*
X0513443Y0079304D01*
X0512675Y0078537D01*
X0509606Y0078537D01*
X0508839Y0079304D01*
X0509606Y0083141D02*
X0508839Y0083908D01*
X0508839Y0085443D01*
X0509606Y0086210D01*
X0503443Y0088512D02*
X0502675Y0087745D01*
X0503443Y0088512D02*
X0503443Y0090047D01*
X0502675Y0090814D01*
X0501908Y0090814D01*
X0501141Y0090047D01*
X0501141Y0088512D01*
X0500373Y0087745D01*
X0499606Y0087745D01*
X0498839Y0088512D01*
X0498839Y0090047D01*
X0499606Y0090814D01*
X0498839Y0092349D02*
X0498839Y0093883D01*
X0498839Y0093116D02*
X0503443Y0093116D01*
X0503443Y0092349D02*
X0503443Y0093883D01*
X0518839Y0088512D02*
X0519606Y0089279D01*
X0522675Y0089279D01*
X0523443Y0088512D01*
X0523443Y0086978D01*
X0522675Y0086210D01*
X0519606Y0086210D01*
X0518839Y0086978D01*
X0518839Y0088512D01*
X0518839Y0084676D02*
X0518839Y0083141D01*
X0518839Y0083908D02*
X0523443Y0083908D01*
X0523443Y0083141D02*
X0523443Y0084676D01*
X0528839Y0083141D02*
X0533443Y0083141D01*
X0533443Y0086210D01*
X0533443Y0087745D02*
X0528839Y0087745D01*
X0531141Y0088512D02*
X0533443Y0090814D01*
X0531908Y0087745D02*
X0528839Y0090814D01*
X0529606Y0081606D02*
X0528839Y0080839D01*
X0528839Y0079304D01*
X0529606Y0078537D01*
X0532675Y0078537D01*
X0533443Y0079304D01*
X0533443Y0080839D01*
X0532675Y0081606D01*
X0523443Y0080839D02*
X0523443Y0078537D01*
X0518839Y0078537D01*
X0518839Y0080839D01*
X0519606Y0081606D01*
X0522675Y0081606D01*
X0523443Y0080839D01*
X0453521Y0080839D02*
X0453521Y0079304D01*
X0452754Y0078537D01*
X0449685Y0078537D01*
X0448917Y0079304D01*
X0448917Y0080839D01*
X0449685Y0081606D01*
X0452754Y0081606D02*
X0453521Y0080839D01*
X0443521Y0080839D02*
X0443521Y0078537D01*
X0438917Y0078537D01*
X0438917Y0080839D01*
X0439685Y0081606D01*
X0442754Y0081606D01*
X0443521Y0080839D01*
X0418673Y0057708D02*
X0415604Y0053104D01*
X0418673Y0053104D02*
X0415604Y0057708D01*
X0414069Y0057708D02*
X0411000Y0057708D01*
X0412535Y0057708D02*
X0412535Y0053104D01*
X0408673Y0053104D02*
X0405604Y0057708D01*
X0404069Y0056941D02*
X0404069Y0055406D01*
X0403302Y0054639D01*
X0401000Y0054639D01*
X0402535Y0054639D02*
X0404069Y0053104D01*
X0405604Y0053104D02*
X0408673Y0057708D01*
X0404069Y0056941D02*
X0403302Y0057708D01*
X0401000Y0057708D01*
X0401000Y0053104D01*
X0396198Y0037708D02*
X0394663Y0037708D01*
X0393896Y0036941D01*
X0393896Y0033871D01*
X0394663Y0033104D01*
X0396198Y0033104D01*
X0396965Y0033871D01*
X0396965Y0035406D01*
X0395431Y0035406D01*
X0396965Y0036941D02*
X0396198Y0037708D01*
X0420292Y0037708D02*
X0423361Y0037708D01*
X0421827Y0037708D02*
X0421827Y0033104D01*
X0424896Y0033104D02*
X0424896Y0037708D01*
X0427198Y0037708D01*
X0427965Y0036941D01*
X0427965Y0035406D01*
X0427198Y0034639D01*
X0424896Y0034639D01*
X0338465Y0034708D02*
X0335396Y0034708D01*
X0333861Y0034708D02*
X0330792Y0034708D01*
X0330792Y0030104D01*
X0333861Y0030104D01*
X0332327Y0032406D02*
X0330792Y0032406D01*
X0329257Y0031639D02*
X0329257Y0030871D01*
X0328490Y0030104D01*
X0326955Y0030104D01*
X0326188Y0030871D01*
X0324654Y0030104D02*
X0321584Y0030104D01*
X0321584Y0034708D01*
X0324654Y0034708D01*
X0326188Y0033941D02*
X0326188Y0033173D01*
X0326955Y0032406D01*
X0328490Y0032406D01*
X0329257Y0031639D01*
X0329257Y0033941D02*
X0328490Y0034708D01*
X0326955Y0034708D01*
X0326188Y0033941D01*
X0323119Y0032406D02*
X0321584Y0032406D01*
X0320050Y0032406D02*
X0319282Y0031639D01*
X0316980Y0031639D01*
X0318515Y0031639D02*
X0320050Y0030104D01*
X0320050Y0032406D02*
X0320050Y0033941D01*
X0319282Y0034708D01*
X0316980Y0034708D01*
X0316980Y0030104D01*
X0336931Y0030104D02*
X0336931Y0034708D01*
X0281465Y0034708D02*
X0281465Y0030871D01*
X0280698Y0030104D01*
X0279163Y0030104D01*
X0278396Y0030871D01*
X0278396Y0034708D01*
X0276861Y0034708D02*
X0273792Y0034708D01*
X0273792Y0030104D01*
X0272257Y0030871D02*
X0271490Y0030104D01*
X0269188Y0030104D01*
X0269188Y0034708D01*
X0271490Y0034708D01*
X0272257Y0033941D01*
X0272257Y0030871D01*
X0273792Y0032406D02*
X0275327Y0032406D01*
X0243965Y0032708D02*
X0243965Y0029639D01*
X0242431Y0028104D01*
X0240896Y0029639D01*
X0240896Y0032708D01*
X0239361Y0031941D02*
X0238594Y0032708D01*
X0237059Y0032708D01*
X0236292Y0031941D01*
X0237827Y0030406D02*
X0238594Y0030406D01*
X0239361Y0029639D01*
X0239361Y0028871D01*
X0238594Y0028104D01*
X0237059Y0028104D01*
X0236292Y0028871D01*
X0238594Y0030406D02*
X0239361Y0031173D01*
X0239361Y0031941D01*
X0231965Y0031941D02*
X0231198Y0032708D01*
X0229663Y0032708D01*
X0228896Y0031941D01*
X0228896Y0028871D01*
X0229663Y0028104D01*
X0231198Y0028104D01*
X0231965Y0028871D01*
X0231965Y0030406D01*
X0230431Y0030406D01*
X0229861Y0055104D02*
X0228327Y0055104D01*
X0229094Y0055104D02*
X0229094Y0059708D01*
X0228327Y0059708D02*
X0229861Y0059708D01*
X0231396Y0058941D02*
X0231396Y0055871D01*
X0232163Y0055104D01*
X0233698Y0055104D01*
X0234465Y0055871D01*
X0234465Y0058941D01*
X0233698Y0059708D01*
X0232163Y0059708D01*
X0231396Y0058941D01*
X0226792Y0058941D02*
X0226025Y0059708D01*
X0223723Y0059708D01*
X0223723Y0055104D01*
X0226025Y0055104D01*
X0226792Y0055871D01*
X0226792Y0058941D01*
X0238188Y0058941D02*
X0238188Y0055871D01*
X0238956Y0055104D01*
X0240490Y0055104D01*
X0241257Y0055871D01*
X0242792Y0055104D02*
X0245861Y0055104D01*
X0247396Y0055104D02*
X0247396Y0059708D01*
X0248163Y0057406D02*
X0250465Y0055104D01*
X0247396Y0056639D02*
X0250465Y0059708D01*
X0242792Y0059708D02*
X0242792Y0055104D01*
X0241257Y0058941D02*
X0240490Y0059708D01*
X0238956Y0059708D01*
X0238188Y0058941D01*
X0175833Y0050535D02*
X0172763Y0050535D01*
X0174298Y0049000D02*
X0174298Y0052069D01*
X0104702Y0079304D02*
X0104702Y0080839D01*
X0103935Y0081606D01*
X0104702Y0079304D02*
X0103935Y0078537D01*
X0100866Y0078537D01*
X0100098Y0079304D01*
X0100098Y0080839D01*
X0100866Y0081606D01*
X0094702Y0080839D02*
X0094702Y0078537D01*
X0090098Y0078537D01*
X0090098Y0080839D01*
X0090866Y0081606D01*
X0093935Y0081606D01*
X0094702Y0080839D01*
X0080866Y0081606D02*
X0080098Y0080839D01*
X0080098Y0079304D01*
X0091570Y0201537D02*
X0093104Y0201537D01*
X0093872Y0202304D01*
X0093872Y0203839D01*
X0092337Y0203839D01*
X0090802Y0205374D02*
X0090802Y0202304D01*
X0091570Y0201537D01*
X0090802Y0205374D02*
X0091570Y0206141D01*
X0093104Y0206141D01*
X0093872Y0205374D01*
X0098702Y0205374D02*
X0099470Y0206141D01*
X0101004Y0206141D01*
X0101772Y0205374D01*
X0101772Y0204606D01*
X0101004Y0203839D01*
X0101772Y0203072D01*
X0101772Y0202304D01*
X0101004Y0201537D01*
X0099470Y0201537D01*
X0098702Y0202304D01*
X0100237Y0203839D02*
X0101004Y0203839D01*
X0103306Y0203072D02*
X0104841Y0201537D01*
X0106376Y0203072D01*
X0106376Y0206141D01*
X0103306Y0206141D02*
X0103306Y0203072D01*
X0118524Y0203839D02*
X0121593Y0203839D01*
X0123128Y0203072D02*
X0124662Y0201537D01*
X0126197Y0203072D01*
X0126197Y0206141D01*
X0123128Y0206141D02*
X0123128Y0203072D01*
X0121593Y0201537D02*
X0121593Y0206141D01*
X0118524Y0206141D02*
X0118524Y0201537D01*
X0145035Y0218871D02*
X0145035Y0221941D01*
X0143500Y0220406D02*
X0146569Y0220406D01*
X0170724Y0205374D02*
X0171491Y0206141D01*
X0173026Y0206141D01*
X0173793Y0205374D01*
X0173793Y0203839D02*
X0172258Y0203839D01*
X0173793Y0203839D02*
X0173793Y0202304D01*
X0173026Y0201537D01*
X0171491Y0201537D01*
X0170724Y0202304D01*
X0170724Y0205374D01*
X0178624Y0205374D02*
X0179391Y0206141D01*
X0180926Y0206141D01*
X0181693Y0205374D01*
X0181693Y0204606D01*
X0180926Y0203839D01*
X0181693Y0203072D01*
X0181693Y0202304D01*
X0180926Y0201537D01*
X0179391Y0201537D01*
X0178624Y0202304D01*
X0180158Y0203839D02*
X0180926Y0203839D01*
X0183228Y0203072D02*
X0184762Y0201537D01*
X0186297Y0203072D01*
X0186297Y0206141D01*
X0183228Y0206141D02*
X0183228Y0203072D01*
X0213012Y0203839D02*
X0216081Y0203839D01*
X0217616Y0203072D02*
X0219150Y0201537D01*
X0220685Y0203072D01*
X0220685Y0206141D01*
X0217616Y0206141D02*
X0217616Y0203072D01*
X0216081Y0201537D02*
X0216081Y0206141D01*
X0213012Y0206141D02*
X0213012Y0201537D01*
X0240535Y0218871D02*
X0240535Y0221941D01*
X0239000Y0220406D02*
X0242069Y0220406D01*
X0265212Y0205374D02*
X0265979Y0206141D01*
X0267514Y0206141D01*
X0268281Y0205374D01*
X0268281Y0203839D02*
X0266746Y0203839D01*
X0268281Y0203839D02*
X0268281Y0202304D01*
X0267514Y0201537D01*
X0265979Y0201537D01*
X0265212Y0202304D01*
X0265212Y0205374D01*
X0273112Y0205374D02*
X0273879Y0206141D01*
X0275414Y0206141D01*
X0276181Y0205374D01*
X0276181Y0204606D01*
X0275414Y0203839D01*
X0276181Y0203072D01*
X0276181Y0202304D01*
X0275414Y0201537D01*
X0273879Y0201537D01*
X0273112Y0202304D01*
X0274646Y0203839D02*
X0275414Y0203839D01*
X0277716Y0203072D02*
X0279250Y0201537D01*
X0280785Y0203072D01*
X0280785Y0206141D01*
X0277716Y0206141D02*
X0277716Y0203072D01*
X0292933Y0203839D02*
X0296002Y0203839D01*
X0297537Y0203072D02*
X0299072Y0201537D01*
X0300606Y0203072D01*
X0300606Y0206141D01*
X0297537Y0206141D02*
X0297537Y0203072D01*
X0296002Y0201537D02*
X0296002Y0206141D01*
X0292933Y0206141D02*
X0292933Y0201537D01*
X0320035Y0218871D02*
X0320035Y0221941D01*
X0318500Y0220406D02*
X0321569Y0220406D01*
X0345133Y0205374D02*
X0345900Y0206141D01*
X0347435Y0206141D01*
X0348202Y0205374D01*
X0348202Y0203839D02*
X0346668Y0203839D01*
X0348202Y0203839D02*
X0348202Y0202304D01*
X0347435Y0201537D01*
X0345900Y0201537D01*
X0345133Y0202304D01*
X0345133Y0205374D01*
X0353033Y0205374D02*
X0353800Y0206141D01*
X0355335Y0206141D01*
X0356102Y0205374D01*
X0356102Y0204606D01*
X0355335Y0203839D01*
X0356102Y0203072D01*
X0356102Y0202304D01*
X0355335Y0201537D01*
X0353800Y0201537D01*
X0353033Y0202304D01*
X0354568Y0203839D02*
X0355335Y0203839D01*
X0357637Y0203072D02*
X0359172Y0201537D01*
X0360706Y0203072D01*
X0360706Y0206141D01*
X0357637Y0206141D02*
X0357637Y0203072D01*
X0387421Y0203839D02*
X0390491Y0203839D01*
X0392025Y0203072D02*
X0393560Y0201537D01*
X0395094Y0203072D01*
X0395094Y0206141D01*
X0392025Y0206141D02*
X0392025Y0203072D01*
X0390491Y0201537D02*
X0390491Y0206141D01*
X0387421Y0206141D02*
X0387421Y0201537D01*
X0414535Y0218371D02*
X0414535Y0221441D01*
X0413000Y0219906D02*
X0416069Y0219906D01*
X0439621Y0205374D02*
X0440389Y0206141D01*
X0441923Y0206141D01*
X0442691Y0205374D01*
X0442691Y0203839D02*
X0441156Y0203839D01*
X0442691Y0203839D02*
X0442691Y0202304D01*
X0441923Y0201537D01*
X0440389Y0201537D01*
X0439621Y0202304D01*
X0439621Y0205374D01*
X0447521Y0205374D02*
X0448289Y0206141D01*
X0449823Y0206141D01*
X0450591Y0205374D01*
X0450591Y0204606D01*
X0449823Y0203839D01*
X0450591Y0203072D01*
X0450591Y0202304D01*
X0449823Y0201537D01*
X0448289Y0201537D01*
X0447521Y0202304D01*
X0449056Y0203839D02*
X0449823Y0203839D01*
X0452125Y0203072D02*
X0453660Y0201537D01*
X0455194Y0203072D01*
X0455194Y0206141D01*
X0452125Y0206141D02*
X0452125Y0203072D01*
X0467343Y0203839D02*
X0470412Y0203839D01*
X0471946Y0203072D02*
X0473481Y0201537D01*
X0475016Y0203072D01*
X0475016Y0206141D01*
X0471946Y0206141D02*
X0471946Y0203072D01*
X0470412Y0201537D02*
X0470412Y0206141D01*
X0467343Y0206141D02*
X0467343Y0201537D01*
X0494535Y0218371D02*
X0494535Y0221441D01*
X0493000Y0219906D02*
X0496069Y0219906D01*
X0519543Y0205374D02*
X0520310Y0206141D01*
X0521844Y0206141D01*
X0522612Y0205374D01*
X0522612Y0203839D02*
X0521077Y0203839D01*
X0522612Y0203839D02*
X0522612Y0202304D01*
X0521844Y0201537D01*
X0520310Y0201537D01*
X0519543Y0202304D01*
X0519543Y0205374D01*
X0527443Y0205374D02*
X0528210Y0206141D01*
X0529744Y0206141D01*
X0530512Y0205374D01*
X0530512Y0204606D01*
X0529744Y0203839D01*
X0530512Y0203072D01*
X0530512Y0202304D01*
X0529744Y0201537D01*
X0528210Y0201537D01*
X0527443Y0202304D01*
X0528977Y0203839D02*
X0529744Y0203839D01*
X0532046Y0203072D02*
X0533581Y0201537D01*
X0535116Y0203072D01*
X0535116Y0206141D01*
X0532046Y0206141D02*
X0532046Y0203072D01*
X0557996Y0193802D02*
X0557996Y0192267D01*
X0558763Y0191500D01*
X0559531Y0191500D01*
X0560298Y0192267D01*
X0560298Y0193802D01*
X0561065Y0194569D01*
X0561833Y0194569D01*
X0562600Y0193802D01*
X0562600Y0192267D01*
X0561833Y0191500D01*
X0560298Y0189965D02*
X0561065Y0189198D01*
X0561065Y0186896D01*
X0562600Y0186896D02*
X0557996Y0186896D01*
X0557996Y0189198D01*
X0558763Y0189965D01*
X0560298Y0189965D01*
X0565496Y0189965D02*
X0570100Y0193035D01*
X0570100Y0189965D02*
X0565496Y0193035D01*
X0558763Y0194569D02*
X0557996Y0193802D01*
X0565496Y0188431D02*
X0565496Y0186896D01*
X0565496Y0187663D02*
X0570100Y0187663D01*
X0570100Y0186896D02*
X0570100Y0188431D01*
X0565496Y0185361D02*
X0565496Y0182292D01*
X0570100Y0182292D01*
X0567798Y0182292D02*
X0567798Y0183827D01*
X0562600Y0184594D02*
X0561833Y0185361D01*
X0560298Y0185361D01*
X0560298Y0183827D01*
X0558763Y0185361D02*
X0557996Y0184594D01*
X0557996Y0183059D01*
X0558763Y0182292D01*
X0561833Y0182292D01*
X0562600Y0183059D01*
X0562600Y0184594D01*
X0420054Y0158208D02*
X0416985Y0158208D01*
X0418520Y0158208D02*
X0418520Y0153604D01*
X0415450Y0153604D02*
X0415450Y0158208D01*
X0412381Y0158208D02*
X0415450Y0153604D01*
X0412381Y0153604D02*
X0412381Y0158208D01*
X0410846Y0158208D02*
X0409312Y0158208D01*
X0410079Y0158208D02*
X0410079Y0153604D01*
X0409312Y0153604D02*
X0410846Y0153604D01*
X0406242Y0153604D02*
X0406242Y0158208D01*
X0404708Y0158208D02*
X0407777Y0158208D01*
X0403173Y0158208D02*
X0400104Y0153604D01*
X0398569Y0153604D02*
X0395500Y0153604D01*
X0395500Y0158208D01*
X0398569Y0158208D01*
X0400104Y0158208D02*
X0403173Y0153604D01*
X0397035Y0155906D02*
X0395500Y0155906D01*
X0545496Y0044114D02*
X0546263Y0044881D01*
X0547798Y0044881D01*
X0548565Y0044114D01*
X0548565Y0041812D01*
X0548565Y0043346D02*
X0550100Y0044881D01*
X0545496Y0044114D02*
X0545496Y0041812D01*
X0550100Y0041812D01*
X0550100Y0040277D02*
X0545496Y0040277D01*
X0548565Y0038742D02*
X0550100Y0040277D01*
X0548565Y0038742D02*
X0550100Y0037208D01*
X0545496Y0037208D01*
X0546263Y0035673D02*
X0545496Y0034906D01*
X0545496Y0032604D01*
X0550100Y0032604D01*
X0548565Y0032604D02*
X0548565Y0034906D01*
X0547798Y0035673D01*
X0546263Y0035673D01*
X0068069Y0220406D02*
X0065000Y0220406D01*
X0066535Y0221941D02*
X0066535Y0218871D01*
X0046276Y0206141D02*
X0046276Y0203072D01*
X0044741Y0201537D01*
X0043206Y0203072D01*
X0043206Y0206141D01*
X0041672Y0206141D02*
X0041672Y0201537D01*
X0041672Y0203839D02*
X0038602Y0203839D01*
X0038602Y0201537D02*
X0038602Y0206141D01*
D12*
X0237788Y0167369D02*
X0237788Y0150439D01*
X0248812Y0150439D01*
X0248812Y0167369D01*
X0237788Y0167369D01*
X0269737Y0057404D02*
X0281863Y0057404D01*
X0285800Y0052286D02*
X0285800Y0042522D01*
X0281863Y0037404D02*
X0269737Y0037404D01*
X0265800Y0042522D02*
X0265800Y0052404D01*
X0270800Y0047404D02*
X0270802Y0047545D01*
X0270808Y0047686D01*
X0270818Y0047826D01*
X0270832Y0047966D01*
X0270850Y0048106D01*
X0270871Y0048245D01*
X0270897Y0048384D01*
X0270926Y0048522D01*
X0270960Y0048658D01*
X0270997Y0048794D01*
X0271038Y0048929D01*
X0271083Y0049063D01*
X0271132Y0049195D01*
X0271184Y0049326D01*
X0271240Y0049455D01*
X0271300Y0049582D01*
X0271363Y0049708D01*
X0271429Y0049832D01*
X0271500Y0049955D01*
X0271573Y0050075D01*
X0271650Y0050193D01*
X0271730Y0050309D01*
X0271814Y0050422D01*
X0271900Y0050533D01*
X0271990Y0050642D01*
X0272083Y0050748D01*
X0272178Y0050851D01*
X0272277Y0050952D01*
X0272378Y0051050D01*
X0272482Y0051145D01*
X0272589Y0051237D01*
X0272698Y0051326D01*
X0272810Y0051411D01*
X0272924Y0051494D01*
X0273040Y0051574D01*
X0273159Y0051650D01*
X0273280Y0051722D01*
X0273402Y0051792D01*
X0273527Y0051857D01*
X0273653Y0051920D01*
X0273781Y0051978D01*
X0273911Y0052033D01*
X0274042Y0052085D01*
X0274175Y0052132D01*
X0274309Y0052176D01*
X0274444Y0052217D01*
X0274580Y0052253D01*
X0274717Y0052285D01*
X0274855Y0052314D01*
X0274993Y0052339D01*
X0275133Y0052359D01*
X0275273Y0052376D01*
X0275413Y0052389D01*
X0275554Y0052398D01*
X0275694Y0052403D01*
X0275835Y0052404D01*
X0275976Y0052401D01*
X0276117Y0052394D01*
X0276257Y0052383D01*
X0276397Y0052368D01*
X0276537Y0052349D01*
X0276676Y0052327D01*
X0276814Y0052300D01*
X0276952Y0052270D01*
X0277088Y0052235D01*
X0277224Y0052197D01*
X0277358Y0052155D01*
X0277492Y0052109D01*
X0277624Y0052060D01*
X0277754Y0052006D01*
X0277883Y0051949D01*
X0278010Y0051889D01*
X0278136Y0051825D01*
X0278259Y0051757D01*
X0278381Y0051686D01*
X0278501Y0051612D01*
X0278618Y0051534D01*
X0278733Y0051453D01*
X0278846Y0051369D01*
X0278957Y0051282D01*
X0279065Y0051191D01*
X0279170Y0051098D01*
X0279273Y0051001D01*
X0279373Y0050902D01*
X0279470Y0050800D01*
X0279564Y0050695D01*
X0279655Y0050588D01*
X0279743Y0050478D01*
X0279828Y0050366D01*
X0279910Y0050251D01*
X0279989Y0050134D01*
X0280064Y0050015D01*
X0280136Y0049894D01*
X0280204Y0049771D01*
X0280269Y0049646D01*
X0280331Y0049519D01*
X0280388Y0049390D01*
X0280443Y0049260D01*
X0280493Y0049129D01*
X0280540Y0048996D01*
X0280583Y0048862D01*
X0280622Y0048726D01*
X0280657Y0048590D01*
X0280689Y0048453D01*
X0280716Y0048315D01*
X0280740Y0048176D01*
X0280760Y0048036D01*
X0280776Y0047896D01*
X0280788Y0047756D01*
X0280796Y0047615D01*
X0280800Y0047474D01*
X0280800Y0047334D01*
X0280796Y0047193D01*
X0280788Y0047052D01*
X0280776Y0046912D01*
X0280760Y0046772D01*
X0280740Y0046632D01*
X0280716Y0046493D01*
X0280689Y0046355D01*
X0280657Y0046218D01*
X0280622Y0046082D01*
X0280583Y0045946D01*
X0280540Y0045812D01*
X0280493Y0045679D01*
X0280443Y0045548D01*
X0280388Y0045418D01*
X0280331Y0045289D01*
X0280269Y0045162D01*
X0280204Y0045037D01*
X0280136Y0044914D01*
X0280064Y0044793D01*
X0279989Y0044674D01*
X0279910Y0044557D01*
X0279828Y0044442D01*
X0279743Y0044330D01*
X0279655Y0044220D01*
X0279564Y0044113D01*
X0279470Y0044008D01*
X0279373Y0043906D01*
X0279273Y0043807D01*
X0279170Y0043710D01*
X0279065Y0043617D01*
X0278957Y0043526D01*
X0278846Y0043439D01*
X0278733Y0043355D01*
X0278618Y0043274D01*
X0278501Y0043196D01*
X0278381Y0043122D01*
X0278259Y0043051D01*
X0278136Y0042983D01*
X0278010Y0042919D01*
X0277883Y0042859D01*
X0277754Y0042802D01*
X0277624Y0042748D01*
X0277492Y0042699D01*
X0277358Y0042653D01*
X0277224Y0042611D01*
X0277088Y0042573D01*
X0276952Y0042538D01*
X0276814Y0042508D01*
X0276676Y0042481D01*
X0276537Y0042459D01*
X0276397Y0042440D01*
X0276257Y0042425D01*
X0276117Y0042414D01*
X0275976Y0042407D01*
X0275835Y0042404D01*
X0275694Y0042405D01*
X0275554Y0042410D01*
X0275413Y0042419D01*
X0275273Y0042432D01*
X0275133Y0042449D01*
X0274993Y0042469D01*
X0274855Y0042494D01*
X0274717Y0042523D01*
X0274580Y0042555D01*
X0274444Y0042591D01*
X0274309Y0042632D01*
X0274175Y0042676D01*
X0274042Y0042723D01*
X0273911Y0042775D01*
X0273781Y0042830D01*
X0273653Y0042888D01*
X0273527Y0042951D01*
X0273402Y0043016D01*
X0273280Y0043086D01*
X0273159Y0043158D01*
X0273040Y0043234D01*
X0272924Y0043314D01*
X0272810Y0043397D01*
X0272698Y0043482D01*
X0272589Y0043571D01*
X0272482Y0043663D01*
X0272378Y0043758D01*
X0272277Y0043856D01*
X0272178Y0043957D01*
X0272083Y0044060D01*
X0271990Y0044166D01*
X0271900Y0044275D01*
X0271814Y0044386D01*
X0271730Y0044499D01*
X0271650Y0044615D01*
X0271573Y0044733D01*
X0271500Y0044853D01*
X0271429Y0044976D01*
X0271363Y0045100D01*
X0271300Y0045226D01*
X0271240Y0045353D01*
X0271184Y0045482D01*
X0271132Y0045613D01*
X0271083Y0045745D01*
X0271038Y0045879D01*
X0270997Y0046014D01*
X0270960Y0046150D01*
X0270926Y0046286D01*
X0270897Y0046424D01*
X0270871Y0046563D01*
X0270850Y0046702D01*
X0270832Y0046842D01*
X0270818Y0046982D01*
X0270808Y0047122D01*
X0270802Y0047263D01*
X0270800Y0047404D01*
X0317300Y0042522D02*
X0317300Y0052404D01*
X0321237Y0057404D02*
X0333363Y0057404D01*
X0337300Y0052286D02*
X0337300Y0042522D01*
X0333363Y0037404D02*
X0321237Y0037404D01*
X0322300Y0047404D02*
X0322302Y0047545D01*
X0322308Y0047686D01*
X0322318Y0047826D01*
X0322332Y0047966D01*
X0322350Y0048106D01*
X0322371Y0048245D01*
X0322397Y0048384D01*
X0322426Y0048522D01*
X0322460Y0048658D01*
X0322497Y0048794D01*
X0322538Y0048929D01*
X0322583Y0049063D01*
X0322632Y0049195D01*
X0322684Y0049326D01*
X0322740Y0049455D01*
X0322800Y0049582D01*
X0322863Y0049708D01*
X0322929Y0049832D01*
X0323000Y0049955D01*
X0323073Y0050075D01*
X0323150Y0050193D01*
X0323230Y0050309D01*
X0323314Y0050422D01*
X0323400Y0050533D01*
X0323490Y0050642D01*
X0323583Y0050748D01*
X0323678Y0050851D01*
X0323777Y0050952D01*
X0323878Y0051050D01*
X0323982Y0051145D01*
X0324089Y0051237D01*
X0324198Y0051326D01*
X0324310Y0051411D01*
X0324424Y0051494D01*
X0324540Y0051574D01*
X0324659Y0051650D01*
X0324780Y0051722D01*
X0324902Y0051792D01*
X0325027Y0051857D01*
X0325153Y0051920D01*
X0325281Y0051978D01*
X0325411Y0052033D01*
X0325542Y0052085D01*
X0325675Y0052132D01*
X0325809Y0052176D01*
X0325944Y0052217D01*
X0326080Y0052253D01*
X0326217Y0052285D01*
X0326355Y0052314D01*
X0326493Y0052339D01*
X0326633Y0052359D01*
X0326773Y0052376D01*
X0326913Y0052389D01*
X0327054Y0052398D01*
X0327194Y0052403D01*
X0327335Y0052404D01*
X0327476Y0052401D01*
X0327617Y0052394D01*
X0327757Y0052383D01*
X0327897Y0052368D01*
X0328037Y0052349D01*
X0328176Y0052327D01*
X0328314Y0052300D01*
X0328452Y0052270D01*
X0328588Y0052235D01*
X0328724Y0052197D01*
X0328858Y0052155D01*
X0328992Y0052109D01*
X0329124Y0052060D01*
X0329254Y0052006D01*
X0329383Y0051949D01*
X0329510Y0051889D01*
X0329636Y0051825D01*
X0329759Y0051757D01*
X0329881Y0051686D01*
X0330001Y0051612D01*
X0330118Y0051534D01*
X0330233Y0051453D01*
X0330346Y0051369D01*
X0330457Y0051282D01*
X0330565Y0051191D01*
X0330670Y0051098D01*
X0330773Y0051001D01*
X0330873Y0050902D01*
X0330970Y0050800D01*
X0331064Y0050695D01*
X0331155Y0050588D01*
X0331243Y0050478D01*
X0331328Y0050366D01*
X0331410Y0050251D01*
X0331489Y0050134D01*
X0331564Y0050015D01*
X0331636Y0049894D01*
X0331704Y0049771D01*
X0331769Y0049646D01*
X0331831Y0049519D01*
X0331888Y0049390D01*
X0331943Y0049260D01*
X0331993Y0049129D01*
X0332040Y0048996D01*
X0332083Y0048862D01*
X0332122Y0048726D01*
X0332157Y0048590D01*
X0332189Y0048453D01*
X0332216Y0048315D01*
X0332240Y0048176D01*
X0332260Y0048036D01*
X0332276Y0047896D01*
X0332288Y0047756D01*
X0332296Y0047615D01*
X0332300Y0047474D01*
X0332300Y0047334D01*
X0332296Y0047193D01*
X0332288Y0047052D01*
X0332276Y0046912D01*
X0332260Y0046772D01*
X0332240Y0046632D01*
X0332216Y0046493D01*
X0332189Y0046355D01*
X0332157Y0046218D01*
X0332122Y0046082D01*
X0332083Y0045946D01*
X0332040Y0045812D01*
X0331993Y0045679D01*
X0331943Y0045548D01*
X0331888Y0045418D01*
X0331831Y0045289D01*
X0331769Y0045162D01*
X0331704Y0045037D01*
X0331636Y0044914D01*
X0331564Y0044793D01*
X0331489Y0044674D01*
X0331410Y0044557D01*
X0331328Y0044442D01*
X0331243Y0044330D01*
X0331155Y0044220D01*
X0331064Y0044113D01*
X0330970Y0044008D01*
X0330873Y0043906D01*
X0330773Y0043807D01*
X0330670Y0043710D01*
X0330565Y0043617D01*
X0330457Y0043526D01*
X0330346Y0043439D01*
X0330233Y0043355D01*
X0330118Y0043274D01*
X0330001Y0043196D01*
X0329881Y0043122D01*
X0329759Y0043051D01*
X0329636Y0042983D01*
X0329510Y0042919D01*
X0329383Y0042859D01*
X0329254Y0042802D01*
X0329124Y0042748D01*
X0328992Y0042699D01*
X0328858Y0042653D01*
X0328724Y0042611D01*
X0328588Y0042573D01*
X0328452Y0042538D01*
X0328314Y0042508D01*
X0328176Y0042481D01*
X0328037Y0042459D01*
X0327897Y0042440D01*
X0327757Y0042425D01*
X0327617Y0042414D01*
X0327476Y0042407D01*
X0327335Y0042404D01*
X0327194Y0042405D01*
X0327054Y0042410D01*
X0326913Y0042419D01*
X0326773Y0042432D01*
X0326633Y0042449D01*
X0326493Y0042469D01*
X0326355Y0042494D01*
X0326217Y0042523D01*
X0326080Y0042555D01*
X0325944Y0042591D01*
X0325809Y0042632D01*
X0325675Y0042676D01*
X0325542Y0042723D01*
X0325411Y0042775D01*
X0325281Y0042830D01*
X0325153Y0042888D01*
X0325027Y0042951D01*
X0324902Y0043016D01*
X0324780Y0043086D01*
X0324659Y0043158D01*
X0324540Y0043234D01*
X0324424Y0043314D01*
X0324310Y0043397D01*
X0324198Y0043482D01*
X0324089Y0043571D01*
X0323982Y0043663D01*
X0323878Y0043758D01*
X0323777Y0043856D01*
X0323678Y0043957D01*
X0323583Y0044060D01*
X0323490Y0044166D01*
X0323400Y0044275D01*
X0323314Y0044386D01*
X0323230Y0044499D01*
X0323150Y0044615D01*
X0323073Y0044733D01*
X0323000Y0044853D01*
X0322929Y0044976D01*
X0322863Y0045100D01*
X0322800Y0045226D01*
X0322740Y0045353D01*
X0322684Y0045482D01*
X0322632Y0045613D01*
X0322583Y0045745D01*
X0322538Y0045879D01*
X0322497Y0046014D01*
X0322460Y0046150D01*
X0322426Y0046286D01*
X0322397Y0046424D01*
X0322371Y0046563D01*
X0322350Y0046702D01*
X0322332Y0046842D01*
X0322318Y0046982D01*
X0322308Y0047122D01*
X0322302Y0047263D01*
X0322300Y0047404D01*
X0432312Y0039609D02*
X0432312Y0027798D01*
X0461052Y0027798D01*
X0461052Y0039609D01*
X0454556Y0043546D02*
X0438808Y0043546D01*
X0443492Y0048804D02*
X0443492Y0054943D01*
X0446561Y0058012D01*
X0449631Y0054943D01*
X0449631Y0048804D01*
X0449631Y0053408D02*
X0443492Y0053408D01*
X0491367Y0039609D02*
X0491367Y0027798D01*
X0520107Y0027798D01*
X0520107Y0039609D01*
X0513611Y0043546D02*
X0497863Y0043546D01*
X0502992Y0048804D02*
X0507596Y0048804D01*
X0509131Y0050339D01*
X0509131Y0051873D01*
X0507596Y0053408D01*
X0502992Y0053408D01*
X0507596Y0053408D02*
X0509131Y0054943D01*
X0509131Y0056477D01*
X0507596Y0058012D01*
X0502992Y0058012D01*
X0502992Y0048804D01*
X0554800Y0073404D02*
X0554865Y0073679D01*
X0554936Y0073952D01*
X0555014Y0074223D01*
X0555099Y0074493D01*
X0555190Y0074760D01*
X0555288Y0075025D01*
X0555392Y0075287D01*
X0555503Y0075547D01*
X0555619Y0075804D01*
X0555743Y0076058D01*
X0555872Y0076309D01*
X0556007Y0076556D01*
X0556149Y0076801D01*
X0556296Y0077041D01*
X0556450Y0077278D01*
X0556609Y0077512D01*
X0556773Y0077741D01*
X0556944Y0077966D01*
X0557119Y0078187D01*
X0557300Y0078404D01*
X0571300Y0079150D02*
X0571300Y0062658D01*
X0557300Y0063404D02*
X0557120Y0063620D01*
X0556945Y0063840D01*
X0556775Y0064064D01*
X0556611Y0064293D01*
X0556453Y0064525D01*
X0556300Y0064761D01*
X0556153Y0065001D01*
X0556012Y0065244D01*
X0555877Y0065491D01*
X0555748Y0065740D01*
X0555625Y0065993D01*
X0555508Y0066249D01*
X0555397Y0066508D01*
X0555293Y0066769D01*
X0555196Y0067033D01*
X0555104Y0067299D01*
X0555020Y0067567D01*
X0554942Y0067837D01*
X0554870Y0068109D01*
X0554805Y0068383D01*
X0554747Y0068658D01*
X0554696Y0068934D01*
X0554651Y0069212D01*
X0554613Y0069491D01*
X0554582Y0069770D01*
X0554558Y0070050D01*
X0554540Y0070331D01*
X0554530Y0070612D01*
X0554526Y0070893D01*
X0554529Y0071174D01*
X0554539Y0071455D01*
X0554556Y0071736D01*
X0554580Y0072016D01*
X0554610Y0072296D01*
X0554648Y0072574D01*
X0554692Y0072852D01*
X0554743Y0073129D01*
X0554800Y0073404D01*
X0554743Y0073130D01*
X0554692Y0072855D01*
X0554648Y0072578D01*
X0554611Y0072301D01*
X0554580Y0072022D01*
X0554557Y0071743D01*
X0554540Y0071464D01*
X0554529Y0071184D01*
X0554526Y0070904D01*
X0554529Y0070624D01*
X0554540Y0070344D01*
X0554557Y0070065D01*
X0554580Y0069786D01*
X0554611Y0069507D01*
X0554648Y0069230D01*
X0554692Y0068953D01*
X0554743Y0068678D01*
X0554800Y0068404D01*
X0212036Y0044530D02*
X0212036Y0038231D01*
X0207312Y0039018D02*
X0207312Y0044530D01*
X0212036Y0044530D01*
X0207312Y0039018D02*
X0189989Y0039018D01*
X0189989Y0044530D01*
X0185265Y0044530D01*
X0185265Y0038231D01*
X0185265Y0027601D02*
X0212036Y0027601D01*
D13*
X0248198Y0044161D02*
X0248198Y0045612D01*
X0248681Y0046096D01*
X0249649Y0046096D01*
X0250133Y0045612D01*
X0250133Y0044161D01*
X0251100Y0044161D02*
X0248198Y0044161D01*
X0250133Y0045128D02*
X0251100Y0046096D01*
X0251100Y0047107D02*
X0251100Y0049042D01*
X0251100Y0048075D02*
X0248198Y0048075D01*
X0249165Y0047107D01*
X0297798Y0047591D02*
X0297798Y0048559D01*
X0298281Y0049042D01*
X0298765Y0049042D01*
X0299249Y0048559D01*
X0299249Y0047591D01*
X0298765Y0047107D01*
X0298281Y0047107D01*
X0297798Y0047591D01*
X0299249Y0047591D02*
X0299733Y0047107D01*
X0300216Y0047107D01*
X0300700Y0047591D01*
X0300700Y0048559D01*
X0300216Y0049042D01*
X0299733Y0049042D01*
X0299249Y0048559D01*
X0299249Y0046096D02*
X0298281Y0046096D01*
X0297798Y0045612D01*
X0297798Y0044161D01*
X0300700Y0044161D01*
X0299733Y0044161D02*
X0299733Y0045612D01*
X0299249Y0046096D01*
X0299733Y0045128D02*
X0300700Y0046096D01*
X0374950Y0081804D02*
X0376885Y0081804D01*
X0377897Y0081804D02*
X0379831Y0081804D01*
X0378864Y0081804D02*
X0378864Y0084706D01*
X0377897Y0083739D01*
X0374950Y0084706D02*
X0374950Y0081804D01*
X0382998Y0085761D02*
X0382998Y0087212D01*
X0383481Y0087696D01*
X0384449Y0087696D01*
X0384933Y0087212D01*
X0384933Y0085761D01*
X0385900Y0085761D02*
X0382998Y0085761D01*
X0384933Y0086728D02*
X0385900Y0087696D01*
X0384449Y0088707D02*
X0384449Y0090642D01*
X0385900Y0090159D02*
X0382998Y0090159D01*
X0384449Y0088707D01*
X0404498Y0089105D02*
X0404498Y0088138D01*
X0404981Y0087654D01*
X0406916Y0087654D01*
X0407400Y0088138D01*
X0407400Y0089105D01*
X0406916Y0089589D01*
X0407400Y0090600D02*
X0407400Y0092535D01*
X0407400Y0091568D02*
X0404498Y0091568D01*
X0405465Y0090600D01*
X0404981Y0089589D02*
X0404498Y0089105D01*
X0404498Y0093547D02*
X0404498Y0095482D01*
X0404981Y0095482D01*
X0406916Y0093547D01*
X0407400Y0093547D01*
X0323400Y0122554D02*
X0320498Y0122554D01*
X0320498Y0124005D01*
X0320981Y0124489D01*
X0321949Y0124489D01*
X0322433Y0124005D01*
X0322433Y0122554D01*
X0322433Y0123521D02*
X0323400Y0124489D01*
X0323400Y0125500D02*
X0323400Y0127435D01*
X0323400Y0126468D02*
X0320498Y0126468D01*
X0321465Y0125500D01*
X0320498Y0128447D02*
X0320498Y0130382D01*
X0320981Y0130382D01*
X0322916Y0128447D01*
X0323400Y0128447D01*
X0260600Y0153161D02*
X0257698Y0153161D01*
X0257698Y0154612D01*
X0258181Y0155096D01*
X0259149Y0155096D01*
X0259633Y0154612D01*
X0259633Y0153161D01*
X0259633Y0154128D02*
X0260600Y0155096D01*
X0260600Y0156107D02*
X0258665Y0158042D01*
X0258181Y0158042D01*
X0257698Y0157559D01*
X0257698Y0156591D01*
X0258181Y0156107D01*
X0260600Y0156107D02*
X0260600Y0158042D01*
X0235438Y0161088D02*
X0234955Y0160604D01*
X0233987Y0160604D01*
X0233503Y0161088D01*
X0232492Y0160604D02*
X0231524Y0161571D01*
X0232008Y0161571D02*
X0230557Y0161571D01*
X0230557Y0160604D02*
X0230557Y0163506D01*
X0232008Y0163506D01*
X0232492Y0163023D01*
X0232492Y0162055D01*
X0232008Y0161571D01*
X0233503Y0163023D02*
X0233987Y0163506D01*
X0234955Y0163506D01*
X0235438Y0163023D01*
X0235438Y0162539D01*
X0234955Y0162055D01*
X0235438Y0161571D01*
X0235438Y0161088D01*
X0234955Y0162055D02*
X0234471Y0162055D01*
X0226438Y0161571D02*
X0226438Y0161088D01*
X0225955Y0160604D01*
X0224987Y0160604D01*
X0224503Y0161088D01*
X0224503Y0161571D01*
X0224987Y0162055D01*
X0225955Y0162055D01*
X0226438Y0161571D01*
X0225955Y0162055D02*
X0226438Y0162539D01*
X0226438Y0163023D01*
X0225955Y0163506D01*
X0224987Y0163506D01*
X0224503Y0163023D01*
X0224503Y0162539D01*
X0224987Y0162055D01*
X0223492Y0161088D02*
X0223008Y0160604D01*
X0222041Y0160604D01*
X0221557Y0161088D01*
X0221557Y0163023D01*
X0222041Y0163506D01*
X0223008Y0163506D01*
X0223492Y0163023D01*
X0216416Y0176054D02*
X0216900Y0176538D01*
X0216900Y0177505D01*
X0216416Y0177989D01*
X0216900Y0179000D02*
X0216900Y0180935D01*
X0216900Y0179968D02*
X0213998Y0179968D01*
X0214965Y0179000D01*
X0214481Y0177989D02*
X0213998Y0177505D01*
X0213998Y0176538D01*
X0214481Y0176054D01*
X0216416Y0176054D01*
X0216900Y0181947D02*
X0216900Y0183882D01*
X0216900Y0182914D02*
X0213998Y0182914D01*
X0214965Y0181947D01*
X0195400Y0181468D02*
X0192498Y0181468D01*
X0193465Y0180500D01*
X0192981Y0179489D02*
X0192498Y0179005D01*
X0192498Y0178038D01*
X0192981Y0177554D01*
X0194916Y0177554D01*
X0195400Y0178038D01*
X0195400Y0179005D01*
X0194916Y0179489D01*
X0195400Y0180500D02*
X0195400Y0182435D01*
X0195400Y0183447D02*
X0193465Y0185382D01*
X0192981Y0185382D01*
X0192498Y0184898D01*
X0192498Y0183931D01*
X0192981Y0183447D01*
X0195400Y0183447D02*
X0195400Y0185382D01*
X0195450Y0208304D02*
X0195450Y0211206D01*
X0196901Y0211206D01*
X0197385Y0210723D01*
X0197385Y0209755D01*
X0196901Y0209271D01*
X0195450Y0209271D01*
X0196417Y0209271D02*
X0197385Y0208304D01*
X0198397Y0208304D02*
X0200331Y0208304D01*
X0199364Y0208304D02*
X0199364Y0211206D01*
X0198397Y0210239D01*
X0201343Y0210723D02*
X0201827Y0211206D01*
X0202794Y0211206D01*
X0203278Y0210723D01*
X0203278Y0210239D01*
X0202794Y0209755D01*
X0203278Y0209271D01*
X0203278Y0208788D01*
X0202794Y0208304D01*
X0201827Y0208304D01*
X0201343Y0208788D01*
X0202311Y0209755D02*
X0202794Y0209755D01*
X0159331Y0221005D02*
X0157397Y0221005D01*
X0158848Y0222456D01*
X0158848Y0219554D01*
X0156385Y0220038D02*
X0155901Y0219554D01*
X0154934Y0219554D01*
X0154450Y0220038D01*
X0154450Y0221973D01*
X0154934Y0222456D01*
X0155901Y0222456D01*
X0156385Y0221973D01*
X0080831Y0222489D02*
X0080831Y0222973D01*
X0080348Y0223456D01*
X0079380Y0223456D01*
X0078897Y0222973D01*
X0077885Y0222973D02*
X0077401Y0223456D01*
X0076434Y0223456D01*
X0075950Y0222973D01*
X0075950Y0221038D01*
X0076434Y0220554D01*
X0077401Y0220554D01*
X0077885Y0221038D01*
X0078897Y0220554D02*
X0080831Y0222489D01*
X0080831Y0220554D02*
X0078897Y0220554D01*
X0148610Y0162506D02*
X0150062Y0162506D01*
X0150545Y0162023D01*
X0150545Y0161055D01*
X0150062Y0160571D01*
X0148610Y0160571D01*
X0148610Y0159604D02*
X0148610Y0162506D01*
X0149578Y0160571D02*
X0150545Y0159604D01*
X0151557Y0159604D02*
X0153492Y0159604D01*
X0152524Y0159604D02*
X0152524Y0162506D01*
X0151557Y0161539D01*
X0154503Y0162023D02*
X0154987Y0162506D01*
X0155955Y0162506D01*
X0156438Y0162023D01*
X0156438Y0161539D01*
X0154503Y0159604D01*
X0156438Y0159604D01*
X0154471Y0153006D02*
X0154471Y0150104D01*
X0155438Y0150104D02*
X0153503Y0150104D01*
X0152492Y0150104D02*
X0150557Y0150104D01*
X0151524Y0150104D02*
X0151524Y0153006D01*
X0150557Y0152039D01*
X0149545Y0152523D02*
X0149545Y0151555D01*
X0149062Y0151071D01*
X0147610Y0151071D01*
X0147610Y0150104D02*
X0147610Y0153006D01*
X0149062Y0153006D01*
X0149545Y0152523D01*
X0148578Y0151071D02*
X0149545Y0150104D01*
X0153503Y0152039D02*
X0154471Y0153006D01*
X0154955Y0146006D02*
X0155438Y0145523D01*
X0155438Y0145039D01*
X0154955Y0144555D01*
X0153987Y0144555D01*
X0153503Y0145039D01*
X0153503Y0145523D01*
X0153987Y0146006D01*
X0154955Y0146006D01*
X0154955Y0144555D02*
X0155438Y0144071D01*
X0155438Y0143588D01*
X0154955Y0143104D01*
X0153987Y0143104D01*
X0153503Y0143588D01*
X0153503Y0144071D01*
X0153987Y0144555D01*
X0152492Y0143104D02*
X0150557Y0143104D01*
X0151524Y0143104D02*
X0151524Y0146006D01*
X0150557Y0145039D01*
X0149545Y0145523D02*
X0149062Y0146006D01*
X0148094Y0146006D01*
X0147610Y0145523D01*
X0147610Y0143588D01*
X0148094Y0143104D01*
X0149062Y0143104D01*
X0149545Y0143588D01*
X0178698Y0143798D02*
X0179181Y0143314D01*
X0181116Y0143314D01*
X0181600Y0143798D01*
X0181600Y0144766D01*
X0181116Y0145249D01*
X0181600Y0146261D02*
X0181600Y0148196D01*
X0181600Y0147228D02*
X0178698Y0147228D01*
X0179665Y0146261D01*
X0179181Y0145249D02*
X0178698Y0144766D01*
X0178698Y0143798D01*
X0179181Y0149207D02*
X0179665Y0149207D01*
X0180149Y0149691D01*
X0180149Y0151142D01*
X0181116Y0151142D02*
X0179181Y0151142D01*
X0178698Y0150659D01*
X0178698Y0149691D01*
X0179181Y0149207D01*
X0181116Y0149207D02*
X0181600Y0149691D01*
X0181600Y0150659D01*
X0181116Y0151142D01*
X0174472Y0123913D02*
X0174130Y0122887D01*
X0174130Y0121519D01*
X0175156Y0122545D01*
X0175840Y0122545D01*
X0176182Y0122203D01*
X0176182Y0121519D01*
X0175498Y0120835D01*
X0174814Y0120835D01*
X0174130Y0121519D01*
X0172730Y0121488D02*
X0172046Y0121488D01*
X0171362Y0120803D01*
X0171362Y0120119D01*
X0172730Y0118751D01*
X0173415Y0118751D01*
X0174099Y0119435D01*
X0174099Y0120119D01*
X0184450Y0116257D02*
X0186302Y0116257D01*
X0186919Y0115640D01*
X0186919Y0114406D01*
X0186302Y0113788D01*
X0184450Y0113788D01*
X0184450Y0112554D02*
X0184450Y0116257D01*
X0188133Y0115023D02*
X0189368Y0116257D01*
X0190602Y0115023D01*
X0190602Y0112554D01*
X0191816Y0113171D02*
X0192433Y0112554D01*
X0193668Y0112554D01*
X0194285Y0113171D01*
X0194285Y0115640D01*
X0193668Y0116257D01*
X0192433Y0116257D01*
X0191816Y0115640D01*
X0191816Y0115023D01*
X0192433Y0114406D01*
X0194285Y0114406D01*
X0190602Y0114406D02*
X0188133Y0114406D01*
X0188133Y0115023D02*
X0188133Y0112554D01*
X0205198Y0109042D02*
X0205198Y0107107D01*
X0205681Y0106096D02*
X0205198Y0105612D01*
X0205198Y0104645D01*
X0205681Y0104161D01*
X0207616Y0104161D01*
X0208100Y0104645D01*
X0208100Y0105612D01*
X0207616Y0106096D01*
X0207616Y0107107D02*
X0208100Y0107107D01*
X0207616Y0107107D02*
X0205681Y0109042D01*
X0205198Y0109042D01*
X0220198Y0112161D02*
X0220198Y0113612D01*
X0220681Y0114096D01*
X0221649Y0114096D01*
X0222133Y0113612D01*
X0222133Y0112161D01*
X0223100Y0112161D02*
X0220198Y0112161D01*
X0222133Y0113128D02*
X0223100Y0114096D01*
X0222616Y0115107D02*
X0223100Y0115591D01*
X0223100Y0116559D01*
X0222616Y0117042D01*
X0221649Y0117042D01*
X0221165Y0116559D01*
X0221165Y0116075D01*
X0221649Y0115107D01*
X0220198Y0115107D01*
X0220198Y0117042D01*
X0230098Y0118059D02*
X0231549Y0116607D01*
X0231549Y0118542D01*
X0233000Y0118059D02*
X0230098Y0118059D01*
X0230098Y0114628D02*
X0233000Y0114628D01*
X0233000Y0113661D02*
X0233000Y0115596D01*
X0231065Y0113661D02*
X0230098Y0114628D01*
X0230581Y0112649D02*
X0231549Y0112649D01*
X0232033Y0112166D01*
X0232033Y0110714D01*
X0233000Y0110714D02*
X0230098Y0110714D01*
X0230098Y0112166D01*
X0230581Y0112649D01*
X0232033Y0111682D02*
X0233000Y0112649D01*
X0240098Y0112166D02*
X0240098Y0110714D01*
X0243000Y0110714D01*
X0242033Y0110714D02*
X0242033Y0112166D01*
X0241549Y0112649D01*
X0240581Y0112649D01*
X0240098Y0112166D01*
X0241065Y0113661D02*
X0240098Y0114628D01*
X0243000Y0114628D01*
X0243000Y0113661D02*
X0243000Y0115596D01*
X0242516Y0116607D02*
X0243000Y0117091D01*
X0243000Y0118059D01*
X0242516Y0118542D01*
X0241549Y0118542D01*
X0241065Y0118059D01*
X0241065Y0117575D01*
X0241549Y0116607D01*
X0240098Y0116607D01*
X0240098Y0118542D01*
X0243000Y0112649D02*
X0242033Y0111682D01*
X0159850Y0045059D02*
X0156948Y0045059D01*
X0158399Y0043607D01*
X0158399Y0045542D01*
X0159850Y0042596D02*
X0159850Y0040661D01*
X0159850Y0041628D02*
X0156948Y0041628D01*
X0157915Y0040661D01*
X0157431Y0039649D02*
X0156948Y0039166D01*
X0156948Y0038198D01*
X0157431Y0037714D01*
X0159366Y0037714D01*
X0159850Y0038198D01*
X0159850Y0039166D01*
X0159366Y0039649D01*
X0496057Y0117588D02*
X0496541Y0117104D01*
X0497508Y0117104D01*
X0497992Y0117588D01*
X0499003Y0117104D02*
X0500938Y0117104D01*
X0499971Y0117104D02*
X0499971Y0120006D01*
X0499003Y0119039D01*
X0497992Y0119523D02*
X0497508Y0120006D01*
X0496541Y0120006D01*
X0496057Y0119523D01*
X0496057Y0117588D01*
X0496541Y0134604D02*
X0497508Y0134604D01*
X0497992Y0135088D01*
X0499003Y0135088D02*
X0499487Y0134604D01*
X0500455Y0134604D01*
X0500938Y0135088D01*
X0500938Y0135571D01*
X0500455Y0136055D01*
X0499971Y0136055D01*
X0500455Y0136055D02*
X0500938Y0136539D01*
X0500938Y0137023D01*
X0500455Y0137506D01*
X0499487Y0137506D01*
X0499003Y0137023D01*
X0497992Y0137023D02*
X0497508Y0137506D01*
X0496541Y0137506D01*
X0496057Y0137023D01*
X0496057Y0135088D01*
X0496541Y0134604D01*
X0546698Y0174161D02*
X0546698Y0175612D01*
X0547181Y0176096D01*
X0548149Y0176096D01*
X0548633Y0175612D01*
X0548633Y0174161D01*
X0549600Y0174161D02*
X0546698Y0174161D01*
X0548633Y0175128D02*
X0549600Y0176096D01*
X0549116Y0177107D02*
X0549600Y0177591D01*
X0549600Y0178559D01*
X0549116Y0179042D01*
X0547181Y0179042D01*
X0546698Y0178559D01*
X0546698Y0177591D01*
X0547181Y0177107D01*
X0547665Y0177107D01*
X0548149Y0177591D01*
X0548149Y0179042D01*
X0556001Y0194671D02*
X0556001Y0197140D01*
X0554767Y0195906D02*
X0557236Y0195906D01*
X0508778Y0220538D02*
X0508294Y0220054D01*
X0507327Y0220054D01*
X0506843Y0220538D01*
X0505831Y0220054D02*
X0503897Y0220054D01*
X0504864Y0220054D02*
X0504864Y0222956D01*
X0503897Y0221989D01*
X0502885Y0222473D02*
X0502401Y0222956D01*
X0501434Y0222956D01*
X0500950Y0222473D01*
X0500950Y0220538D01*
X0501434Y0220054D01*
X0502401Y0220054D01*
X0502885Y0220538D01*
X0506843Y0222473D02*
X0507327Y0222956D01*
X0508294Y0222956D01*
X0508778Y0222473D01*
X0508778Y0221989D01*
X0508294Y0221505D01*
X0508778Y0221021D01*
X0508778Y0220538D01*
X0508294Y0221505D02*
X0507811Y0221505D01*
X0429278Y0222473D02*
X0427343Y0220538D01*
X0427827Y0220054D01*
X0428794Y0220054D01*
X0429278Y0220538D01*
X0429278Y0222473D01*
X0428794Y0222956D01*
X0427827Y0222956D01*
X0427343Y0222473D01*
X0427343Y0220538D01*
X0426331Y0220054D02*
X0424397Y0220054D01*
X0425364Y0220054D02*
X0425364Y0222956D01*
X0424397Y0221989D01*
X0423385Y0222473D02*
X0422901Y0222956D01*
X0421934Y0222956D01*
X0421450Y0222473D01*
X0421450Y0220538D01*
X0421934Y0220054D01*
X0422901Y0220054D01*
X0423385Y0220538D01*
X0332831Y0220538D02*
X0332831Y0222473D01*
X0332348Y0222956D01*
X0331380Y0222956D01*
X0330897Y0222473D01*
X0330897Y0221989D01*
X0331380Y0221505D01*
X0332831Y0221505D01*
X0332831Y0220538D02*
X0332348Y0220054D01*
X0331380Y0220054D01*
X0330897Y0220538D01*
X0329885Y0220538D02*
X0329401Y0220054D01*
X0328434Y0220054D01*
X0327950Y0220538D01*
X0327950Y0222473D01*
X0328434Y0222956D01*
X0329401Y0222956D01*
X0329885Y0222473D01*
X0254331Y0222005D02*
X0254331Y0221038D01*
X0253848Y0220554D01*
X0252880Y0220554D01*
X0252397Y0221038D01*
X0252397Y0222005D02*
X0253364Y0222489D01*
X0253848Y0222489D01*
X0254331Y0222005D01*
X0254331Y0223456D02*
X0252397Y0223456D01*
X0252397Y0222005D01*
X0251385Y0221038D02*
X0250901Y0220554D01*
X0249934Y0220554D01*
X0249450Y0221038D01*
X0249450Y0222973D01*
X0249934Y0223456D01*
X0250901Y0223456D01*
X0251385Y0222973D01*
X0546998Y0083882D02*
X0547481Y0082914D01*
X0548449Y0081947D01*
X0548449Y0083398D01*
X0548933Y0083882D01*
X0549416Y0083882D01*
X0549900Y0083398D01*
X0549900Y0082431D01*
X0549416Y0081947D01*
X0548449Y0081947D01*
X0549900Y0080935D02*
X0549900Y0079000D01*
X0549900Y0079968D02*
X0546998Y0079968D01*
X0547965Y0079000D01*
X0547481Y0077989D02*
X0548449Y0077989D01*
X0548933Y0077505D01*
X0548933Y0076054D01*
X0549900Y0076054D02*
X0546998Y0076054D01*
X0546998Y0077505D01*
X0547481Y0077989D01*
X0548933Y0077021D02*
X0549900Y0077989D01*
X0537331Y0059206D02*
X0537331Y0058723D01*
X0535397Y0056788D01*
X0535397Y0056304D01*
X0534385Y0056304D02*
X0533417Y0057271D01*
X0533901Y0057271D02*
X0532450Y0057271D01*
X0532450Y0056304D02*
X0532450Y0059206D01*
X0533901Y0059206D01*
X0534385Y0058723D01*
X0534385Y0057755D01*
X0533901Y0057271D01*
X0535397Y0059206D02*
X0537331Y0059206D01*
X0536684Y0032140D02*
X0536684Y0029671D01*
X0535450Y0030906D02*
X0537919Y0030906D01*
D14*
X0023661Y0106212D02*
X0011384Y0106212D01*
X0017523Y0159073D02*
X0017523Y0171350D01*
X0023661Y0165212D02*
X0011384Y0165212D01*
D15*
X0186080Y0150624D02*
X0186080Y0126215D01*
X0187162Y0125132D01*
X0211572Y0125132D01*
X0212654Y0126215D01*
X0212654Y0150624D01*
X0211572Y0151707D01*
X0187162Y0151707D01*
X0186080Y0150624D01*
X0204879Y0146294D02*
X0204881Y0146391D01*
X0204887Y0146488D01*
X0204897Y0146584D01*
X0204911Y0146680D01*
X0204929Y0146776D01*
X0204950Y0146870D01*
X0204976Y0146964D01*
X0205005Y0147056D01*
X0205039Y0147147D01*
X0205075Y0147237D01*
X0205116Y0147325D01*
X0205160Y0147411D01*
X0205208Y0147496D01*
X0205259Y0147578D01*
X0205313Y0147659D01*
X0205371Y0147737D01*
X0205432Y0147812D01*
X0205495Y0147885D01*
X0205562Y0147956D01*
X0205632Y0148023D01*
X0205704Y0148088D01*
X0205779Y0148149D01*
X0205857Y0148208D01*
X0205936Y0148263D01*
X0206018Y0148315D01*
X0206102Y0148363D01*
X0206188Y0148408D01*
X0206276Y0148450D01*
X0206365Y0148488D01*
X0206456Y0148522D01*
X0206548Y0148552D01*
X0206641Y0148579D01*
X0206736Y0148601D01*
X0206831Y0148620D01*
X0206927Y0148635D01*
X0207023Y0148646D01*
X0207120Y0148653D01*
X0207217Y0148656D01*
X0207314Y0148655D01*
X0207411Y0148650D01*
X0207507Y0148641D01*
X0207603Y0148628D01*
X0207699Y0148611D01*
X0207794Y0148590D01*
X0207887Y0148566D01*
X0207980Y0148537D01*
X0208072Y0148505D01*
X0208162Y0148469D01*
X0208250Y0148430D01*
X0208337Y0148386D01*
X0208422Y0148340D01*
X0208505Y0148289D01*
X0208586Y0148236D01*
X0208664Y0148179D01*
X0208741Y0148119D01*
X0208814Y0148056D01*
X0208885Y0147990D01*
X0208953Y0147921D01*
X0209019Y0147849D01*
X0209081Y0147775D01*
X0209140Y0147698D01*
X0209196Y0147619D01*
X0209249Y0147537D01*
X0209299Y0147454D01*
X0209344Y0147368D01*
X0209387Y0147281D01*
X0209426Y0147192D01*
X0209461Y0147102D01*
X0209492Y0147010D01*
X0209519Y0146917D01*
X0209543Y0146823D01*
X0209563Y0146728D01*
X0209579Y0146632D01*
X0209591Y0146536D01*
X0209599Y0146439D01*
X0209603Y0146342D01*
X0209603Y0146246D01*
X0209599Y0146149D01*
X0209591Y0146052D01*
X0209579Y0145956D01*
X0209563Y0145860D01*
X0209543Y0145765D01*
X0209519Y0145671D01*
X0209492Y0145578D01*
X0209461Y0145486D01*
X0209426Y0145396D01*
X0209387Y0145307D01*
X0209344Y0145220D01*
X0209299Y0145134D01*
X0209249Y0145051D01*
X0209196Y0144969D01*
X0209140Y0144890D01*
X0209081Y0144813D01*
X0209019Y0144739D01*
X0208953Y0144667D01*
X0208885Y0144598D01*
X0208814Y0144532D01*
X0208741Y0144469D01*
X0208664Y0144409D01*
X0208586Y0144352D01*
X0208505Y0144299D01*
X0208422Y0144248D01*
X0208337Y0144202D01*
X0208250Y0144158D01*
X0208162Y0144119D01*
X0208072Y0144083D01*
X0207980Y0144051D01*
X0207887Y0144022D01*
X0207794Y0143998D01*
X0207699Y0143977D01*
X0207603Y0143960D01*
X0207507Y0143947D01*
X0207411Y0143938D01*
X0207314Y0143933D01*
X0207217Y0143932D01*
X0207120Y0143935D01*
X0207023Y0143942D01*
X0206927Y0143953D01*
X0206831Y0143968D01*
X0206736Y0143987D01*
X0206641Y0144009D01*
X0206548Y0144036D01*
X0206456Y0144066D01*
X0206365Y0144100D01*
X0206276Y0144138D01*
X0206188Y0144180D01*
X0206102Y0144225D01*
X0206018Y0144273D01*
X0205936Y0144325D01*
X0205857Y0144380D01*
X0205779Y0144439D01*
X0205704Y0144500D01*
X0205632Y0144565D01*
X0205562Y0144632D01*
X0205495Y0144703D01*
X0205432Y0144776D01*
X0205371Y0144851D01*
X0205313Y0144929D01*
X0205259Y0145010D01*
X0205208Y0145092D01*
X0205160Y0145177D01*
X0205116Y0145263D01*
X0205075Y0145351D01*
X0205039Y0145441D01*
X0205005Y0145532D01*
X0204976Y0145624D01*
X0204950Y0145718D01*
X0204929Y0145812D01*
X0204911Y0145908D01*
X0204897Y0146004D01*
X0204887Y0146100D01*
X0204881Y0146197D01*
X0204879Y0146294D01*
D16*
X0245859Y0165302D03*
D17*
X0550938Y0187313D03*
X0555662Y0187313D03*
X0542662Y0039494D03*
X0537938Y0039494D03*
D18*
X0540300Y0039494D03*
X0553300Y0187313D03*
D19*
X0406876Y0139486D02*
X0405891Y0139486D01*
X0406876Y0139486D02*
X0406876Y0101297D01*
X0405891Y0101297D01*
X0367702Y0101297D02*
X0367112Y0101297D01*
X0367112Y0139486D01*
X0367702Y0139486D01*
D20*
X0370596Y0131679D02*
X0370596Y0130328D01*
X0371047Y0129877D01*
X0372398Y0129877D01*
X0372398Y0131679D01*
X0373543Y0131229D02*
X0375344Y0131229D01*
X0376489Y0131679D02*
X0377841Y0131679D01*
X0378291Y0131229D01*
X0378291Y0130328D01*
X0377841Y0129877D01*
X0376489Y0129877D01*
X0376489Y0132580D01*
X0379436Y0132580D02*
X0379886Y0132580D01*
X0379886Y0129877D01*
X0379436Y0129877D02*
X0380337Y0129877D01*
X0381400Y0130328D02*
X0381851Y0129877D01*
X0382751Y0129877D01*
X0383202Y0130328D01*
X0383202Y0131229D01*
X0382751Y0131679D01*
X0381851Y0131679D01*
X0381400Y0131229D01*
X0381400Y0130328D01*
X0384347Y0129877D02*
X0386148Y0131679D01*
X0384347Y0131679D02*
X0386148Y0129877D01*
X0390240Y0129877D02*
X0390240Y0132580D01*
X0391141Y0131679D01*
X0392041Y0132580D01*
X0392041Y0129877D01*
X0393186Y0129877D02*
X0393186Y0131679D01*
X0394087Y0132580D01*
X0394988Y0131679D01*
X0394988Y0129877D01*
X0396133Y0129877D02*
X0397934Y0132580D01*
X0396133Y0132580D02*
X0397934Y0129877D01*
X0394988Y0131229D02*
X0393186Y0131229D01*
X0513257Y0151420D02*
X0513257Y0098270D01*
X0568375Y0098270D01*
X0568375Y0132916D01*
X0571524Y0144727D01*
X0571524Y0156538D01*
X0518965Y0156538D01*
X0518965Y0151420D01*
X0513257Y0151420D01*
X0540383Y0212817D02*
X0540381Y0212998D01*
X0540374Y0213179D01*
X0540363Y0213360D01*
X0540348Y0213541D01*
X0540328Y0213721D01*
X0540304Y0213901D01*
X0540276Y0214080D01*
X0540243Y0214258D01*
X0540206Y0214435D01*
X0540165Y0214612D01*
X0540120Y0214787D01*
X0540070Y0214962D01*
X0540016Y0215135D01*
X0539958Y0215306D01*
X0539896Y0215477D01*
X0539829Y0215645D01*
X0539759Y0215812D01*
X0539685Y0215978D01*
X0539606Y0216141D01*
X0539524Y0216302D01*
X0539438Y0216462D01*
X0539348Y0216619D01*
X0539254Y0216774D01*
X0539157Y0216927D01*
X0539055Y0217077D01*
X0538951Y0217225D01*
X0538842Y0217371D01*
X0538731Y0217513D01*
X0538615Y0217653D01*
X0538497Y0217790D01*
X0538375Y0217925D01*
X0538250Y0218056D01*
X0538122Y0218184D01*
X0537991Y0218309D01*
X0537856Y0218431D01*
X0537719Y0218549D01*
X0537579Y0218665D01*
X0537437Y0218776D01*
X0537291Y0218885D01*
X0537143Y0218989D01*
X0536993Y0219091D01*
X0536840Y0219188D01*
X0536685Y0219282D01*
X0536528Y0219372D01*
X0536368Y0219458D01*
X0536207Y0219540D01*
X0536044Y0219619D01*
X0535878Y0219693D01*
X0535711Y0219763D01*
X0535543Y0219830D01*
X0535372Y0219892D01*
X0535201Y0219950D01*
X0535028Y0220004D01*
X0534853Y0220054D01*
X0534678Y0220099D01*
X0534501Y0220140D01*
X0534324Y0220177D01*
X0534146Y0220210D01*
X0533967Y0220238D01*
X0533787Y0220262D01*
X0533607Y0220282D01*
X0533426Y0220297D01*
X0533245Y0220308D01*
X0533064Y0220315D01*
X0532883Y0220317D01*
X0469143Y0220317D01*
X0468962Y0220315D01*
X0468781Y0220308D01*
X0468600Y0220297D01*
X0468419Y0220282D01*
X0468239Y0220262D01*
X0468059Y0220238D01*
X0467880Y0220210D01*
X0467702Y0220177D01*
X0467525Y0220140D01*
X0467348Y0220099D01*
X0467173Y0220054D01*
X0466998Y0220004D01*
X0466825Y0219950D01*
X0466654Y0219892D01*
X0466483Y0219830D01*
X0466315Y0219763D01*
X0466148Y0219693D01*
X0465982Y0219619D01*
X0465819Y0219540D01*
X0465658Y0219458D01*
X0465498Y0219372D01*
X0465341Y0219282D01*
X0465186Y0219188D01*
X0465033Y0219091D01*
X0464883Y0218989D01*
X0464735Y0218885D01*
X0464589Y0218776D01*
X0464447Y0218665D01*
X0464307Y0218549D01*
X0464170Y0218431D01*
X0464035Y0218309D01*
X0463904Y0218184D01*
X0463776Y0218056D01*
X0463651Y0217925D01*
X0463529Y0217790D01*
X0463411Y0217653D01*
X0463295Y0217513D01*
X0463184Y0217371D01*
X0463075Y0217225D01*
X0462971Y0217077D01*
X0462869Y0216927D01*
X0462772Y0216774D01*
X0462678Y0216619D01*
X0462588Y0216462D01*
X0462502Y0216302D01*
X0462420Y0216141D01*
X0462341Y0215978D01*
X0462267Y0215812D01*
X0462197Y0215645D01*
X0462130Y0215477D01*
X0462068Y0215306D01*
X0462010Y0215135D01*
X0461956Y0214962D01*
X0461906Y0214787D01*
X0461861Y0214612D01*
X0461820Y0214435D01*
X0461783Y0214258D01*
X0461750Y0214080D01*
X0461722Y0213901D01*
X0461698Y0213721D01*
X0461678Y0213541D01*
X0461663Y0213360D01*
X0461652Y0213179D01*
X0461645Y0212998D01*
X0461643Y0212817D01*
X0461643Y0070337D01*
X0460461Y0070337D02*
X0460461Y0212817D01*
X0460459Y0212998D01*
X0460452Y0213179D01*
X0460441Y0213360D01*
X0460426Y0213541D01*
X0460406Y0213721D01*
X0460382Y0213901D01*
X0460354Y0214080D01*
X0460321Y0214258D01*
X0460284Y0214435D01*
X0460243Y0214612D01*
X0460198Y0214787D01*
X0460148Y0214962D01*
X0460094Y0215135D01*
X0460036Y0215306D01*
X0459974Y0215477D01*
X0459907Y0215645D01*
X0459837Y0215812D01*
X0459763Y0215978D01*
X0459684Y0216141D01*
X0459602Y0216302D01*
X0459516Y0216462D01*
X0459426Y0216619D01*
X0459332Y0216774D01*
X0459235Y0216927D01*
X0459133Y0217077D01*
X0459029Y0217225D01*
X0458920Y0217371D01*
X0458809Y0217513D01*
X0458693Y0217653D01*
X0458575Y0217790D01*
X0458453Y0217925D01*
X0458328Y0218056D01*
X0458200Y0218184D01*
X0458069Y0218309D01*
X0457934Y0218431D01*
X0457797Y0218549D01*
X0457657Y0218665D01*
X0457515Y0218776D01*
X0457369Y0218885D01*
X0457221Y0218989D01*
X0457071Y0219091D01*
X0456918Y0219188D01*
X0456763Y0219282D01*
X0456606Y0219372D01*
X0456446Y0219458D01*
X0456285Y0219540D01*
X0456122Y0219619D01*
X0455956Y0219693D01*
X0455789Y0219763D01*
X0455621Y0219830D01*
X0455450Y0219892D01*
X0455279Y0219950D01*
X0455106Y0220004D01*
X0454931Y0220054D01*
X0454756Y0220099D01*
X0454579Y0220140D01*
X0454402Y0220177D01*
X0454224Y0220210D01*
X0454045Y0220238D01*
X0453865Y0220262D01*
X0453685Y0220282D01*
X0453504Y0220297D01*
X0453323Y0220308D01*
X0453142Y0220315D01*
X0452961Y0220317D01*
X0389221Y0220317D01*
X0389040Y0220315D01*
X0388859Y0220308D01*
X0388678Y0220297D01*
X0388497Y0220282D01*
X0388317Y0220262D01*
X0388137Y0220238D01*
X0387958Y0220210D01*
X0387780Y0220177D01*
X0387603Y0220140D01*
X0387426Y0220099D01*
X0387251Y0220054D01*
X0387076Y0220004D01*
X0386903Y0219950D01*
X0386732Y0219892D01*
X0386561Y0219830D01*
X0386393Y0219763D01*
X0386226Y0219693D01*
X0386060Y0219619D01*
X0385897Y0219540D01*
X0385736Y0219458D01*
X0385576Y0219372D01*
X0385419Y0219282D01*
X0385264Y0219188D01*
X0385111Y0219091D01*
X0384961Y0218989D01*
X0384813Y0218885D01*
X0384667Y0218776D01*
X0384525Y0218665D01*
X0384385Y0218549D01*
X0384248Y0218431D01*
X0384113Y0218309D01*
X0383982Y0218184D01*
X0383854Y0218056D01*
X0383729Y0217925D01*
X0383607Y0217790D01*
X0383489Y0217653D01*
X0383373Y0217513D01*
X0383262Y0217371D01*
X0383153Y0217225D01*
X0383049Y0217077D01*
X0382947Y0216927D01*
X0382850Y0216774D01*
X0382756Y0216619D01*
X0382666Y0216462D01*
X0382580Y0216302D01*
X0382498Y0216141D01*
X0382419Y0215978D01*
X0382345Y0215812D01*
X0382275Y0215645D01*
X0382208Y0215477D01*
X0382146Y0215306D01*
X0382088Y0215135D01*
X0382034Y0214962D01*
X0381984Y0214787D01*
X0381939Y0214612D01*
X0381898Y0214435D01*
X0381861Y0214258D01*
X0381828Y0214080D01*
X0381800Y0213901D01*
X0381776Y0213721D01*
X0381756Y0213541D01*
X0381741Y0213360D01*
X0381730Y0213179D01*
X0381723Y0212998D01*
X0381721Y0212817D01*
X0381721Y0070337D01*
X0381723Y0070156D01*
X0381730Y0069975D01*
X0381741Y0069794D01*
X0381756Y0069613D01*
X0381776Y0069433D01*
X0381800Y0069253D01*
X0381828Y0069074D01*
X0381861Y0068896D01*
X0381898Y0068719D01*
X0381939Y0068542D01*
X0381984Y0068367D01*
X0382034Y0068192D01*
X0382088Y0068019D01*
X0382146Y0067848D01*
X0382208Y0067677D01*
X0382275Y0067509D01*
X0382345Y0067342D01*
X0382419Y0067176D01*
X0382498Y0067013D01*
X0382580Y0066852D01*
X0382666Y0066692D01*
X0382756Y0066535D01*
X0382850Y0066380D01*
X0382947Y0066227D01*
X0383049Y0066077D01*
X0383153Y0065929D01*
X0383262Y0065783D01*
X0383373Y0065641D01*
X0383489Y0065501D01*
X0383607Y0065364D01*
X0383729Y0065229D01*
X0383854Y0065098D01*
X0383982Y0064970D01*
X0384113Y0064845D01*
X0384248Y0064723D01*
X0384385Y0064605D01*
X0384525Y0064489D01*
X0384667Y0064378D01*
X0384813Y0064269D01*
X0384961Y0064165D01*
X0385111Y0064063D01*
X0385264Y0063966D01*
X0385419Y0063872D01*
X0385576Y0063782D01*
X0385736Y0063696D01*
X0385897Y0063614D01*
X0386060Y0063535D01*
X0386226Y0063461D01*
X0386393Y0063391D01*
X0386561Y0063324D01*
X0386732Y0063262D01*
X0386903Y0063204D01*
X0387076Y0063150D01*
X0387251Y0063100D01*
X0387426Y0063055D01*
X0387603Y0063014D01*
X0387780Y0062977D01*
X0387958Y0062944D01*
X0388137Y0062916D01*
X0388317Y0062892D01*
X0388497Y0062872D01*
X0388678Y0062857D01*
X0388859Y0062846D01*
X0389040Y0062839D01*
X0389221Y0062837D01*
X0452961Y0062837D01*
X0469143Y0062837D02*
X0532883Y0062837D01*
X0533064Y0062839D01*
X0533245Y0062846D01*
X0533426Y0062857D01*
X0533607Y0062872D01*
X0533787Y0062892D01*
X0533967Y0062916D01*
X0534146Y0062944D01*
X0534324Y0062977D01*
X0534501Y0063014D01*
X0534678Y0063055D01*
X0534853Y0063100D01*
X0535028Y0063150D01*
X0535201Y0063204D01*
X0535372Y0063262D01*
X0535543Y0063324D01*
X0535711Y0063391D01*
X0535878Y0063461D01*
X0536044Y0063535D01*
X0536207Y0063614D01*
X0536368Y0063696D01*
X0536528Y0063782D01*
X0536685Y0063872D01*
X0536840Y0063966D01*
X0536993Y0064063D01*
X0537143Y0064165D01*
X0537291Y0064269D01*
X0537437Y0064378D01*
X0537579Y0064489D01*
X0537719Y0064605D01*
X0537856Y0064723D01*
X0537991Y0064845D01*
X0538122Y0064970D01*
X0538250Y0065098D01*
X0538375Y0065229D01*
X0538497Y0065364D01*
X0538615Y0065501D01*
X0538731Y0065641D01*
X0538842Y0065783D01*
X0538951Y0065929D01*
X0539055Y0066077D01*
X0539157Y0066227D01*
X0539254Y0066380D01*
X0539348Y0066535D01*
X0539438Y0066692D01*
X0539524Y0066852D01*
X0539606Y0067013D01*
X0539685Y0067176D01*
X0539759Y0067342D01*
X0539829Y0067509D01*
X0539896Y0067677D01*
X0539958Y0067848D01*
X0540016Y0068019D01*
X0540070Y0068192D01*
X0540120Y0068367D01*
X0540165Y0068542D01*
X0540206Y0068719D01*
X0540243Y0068896D01*
X0540276Y0069074D01*
X0540304Y0069253D01*
X0540328Y0069433D01*
X0540348Y0069613D01*
X0540363Y0069794D01*
X0540374Y0069975D01*
X0540381Y0070156D01*
X0540383Y0070337D01*
X0540383Y0212817D01*
X0365973Y0212817D02*
X0365973Y0070337D01*
X0365971Y0070156D01*
X0365964Y0069975D01*
X0365953Y0069794D01*
X0365938Y0069613D01*
X0365918Y0069433D01*
X0365894Y0069253D01*
X0365866Y0069074D01*
X0365833Y0068896D01*
X0365796Y0068719D01*
X0365755Y0068542D01*
X0365710Y0068367D01*
X0365660Y0068192D01*
X0365606Y0068019D01*
X0365548Y0067848D01*
X0365486Y0067677D01*
X0365419Y0067509D01*
X0365349Y0067342D01*
X0365275Y0067176D01*
X0365196Y0067013D01*
X0365114Y0066852D01*
X0365028Y0066692D01*
X0364938Y0066535D01*
X0364844Y0066380D01*
X0364747Y0066227D01*
X0364645Y0066077D01*
X0364541Y0065929D01*
X0364432Y0065783D01*
X0364321Y0065641D01*
X0364205Y0065501D01*
X0364087Y0065364D01*
X0363965Y0065229D01*
X0363840Y0065098D01*
X0363712Y0064970D01*
X0363581Y0064845D01*
X0363446Y0064723D01*
X0363309Y0064605D01*
X0363169Y0064489D01*
X0363027Y0064378D01*
X0362881Y0064269D01*
X0362733Y0064165D01*
X0362583Y0064063D01*
X0362430Y0063966D01*
X0362275Y0063872D01*
X0362118Y0063782D01*
X0361958Y0063696D01*
X0361797Y0063614D01*
X0361634Y0063535D01*
X0361468Y0063461D01*
X0361301Y0063391D01*
X0361133Y0063324D01*
X0360962Y0063262D01*
X0360791Y0063204D01*
X0360618Y0063150D01*
X0360443Y0063100D01*
X0360268Y0063055D01*
X0360091Y0063014D01*
X0359914Y0062977D01*
X0359736Y0062944D01*
X0359557Y0062916D01*
X0359377Y0062892D01*
X0359197Y0062872D01*
X0359016Y0062857D01*
X0358835Y0062846D01*
X0358654Y0062839D01*
X0358473Y0062837D01*
X0294733Y0062837D01*
X0278552Y0062837D02*
X0214812Y0062837D01*
X0214631Y0062839D01*
X0214450Y0062846D01*
X0214269Y0062857D01*
X0214088Y0062872D01*
X0213908Y0062892D01*
X0213728Y0062916D01*
X0213549Y0062944D01*
X0213371Y0062977D01*
X0213194Y0063014D01*
X0213017Y0063055D01*
X0212842Y0063100D01*
X0212667Y0063150D01*
X0212494Y0063204D01*
X0212323Y0063262D01*
X0212152Y0063324D01*
X0211984Y0063391D01*
X0211817Y0063461D01*
X0211651Y0063535D01*
X0211488Y0063614D01*
X0211327Y0063696D01*
X0211167Y0063782D01*
X0211010Y0063872D01*
X0210855Y0063966D01*
X0210702Y0064063D01*
X0210552Y0064165D01*
X0210404Y0064269D01*
X0210258Y0064378D01*
X0210116Y0064489D01*
X0209976Y0064605D01*
X0209839Y0064723D01*
X0209704Y0064845D01*
X0209573Y0064970D01*
X0209445Y0065098D01*
X0209320Y0065229D01*
X0209198Y0065364D01*
X0209080Y0065501D01*
X0208964Y0065641D01*
X0208853Y0065783D01*
X0208744Y0065929D01*
X0208640Y0066077D01*
X0208538Y0066227D01*
X0208441Y0066380D01*
X0208347Y0066535D01*
X0208257Y0066692D01*
X0208171Y0066852D01*
X0208089Y0067013D01*
X0208010Y0067176D01*
X0207936Y0067342D01*
X0207866Y0067509D01*
X0207799Y0067677D01*
X0207737Y0067848D01*
X0207679Y0068019D01*
X0207625Y0068192D01*
X0207575Y0068367D01*
X0207530Y0068542D01*
X0207489Y0068719D01*
X0207452Y0068896D01*
X0207419Y0069074D01*
X0207391Y0069253D01*
X0207367Y0069433D01*
X0207347Y0069613D01*
X0207332Y0069794D01*
X0207321Y0069975D01*
X0207314Y0070156D01*
X0207312Y0070337D01*
X0207312Y0212817D01*
X0206635Y0216589D02*
X0206635Y0217180D01*
X0202698Y0220802D02*
X0190926Y0220802D01*
X0190926Y0219896D01*
X0184064Y0220317D02*
X0120324Y0220317D01*
X0104143Y0220317D02*
X0040402Y0220317D01*
X0040221Y0220315D01*
X0040040Y0220308D01*
X0039859Y0220297D01*
X0039678Y0220282D01*
X0039498Y0220262D01*
X0039318Y0220238D01*
X0039139Y0220210D01*
X0038961Y0220177D01*
X0038784Y0220140D01*
X0038607Y0220099D01*
X0038432Y0220054D01*
X0038257Y0220004D01*
X0038084Y0219950D01*
X0037913Y0219892D01*
X0037742Y0219830D01*
X0037574Y0219763D01*
X0037407Y0219693D01*
X0037241Y0219619D01*
X0037078Y0219540D01*
X0036917Y0219458D01*
X0036757Y0219372D01*
X0036600Y0219282D01*
X0036445Y0219188D01*
X0036292Y0219091D01*
X0036142Y0218989D01*
X0035994Y0218885D01*
X0035848Y0218776D01*
X0035706Y0218665D01*
X0035566Y0218549D01*
X0035429Y0218431D01*
X0035294Y0218309D01*
X0035163Y0218184D01*
X0035035Y0218056D01*
X0034910Y0217925D01*
X0034788Y0217790D01*
X0034670Y0217653D01*
X0034554Y0217513D01*
X0034443Y0217371D01*
X0034334Y0217225D01*
X0034230Y0217077D01*
X0034128Y0216927D01*
X0034031Y0216774D01*
X0033937Y0216619D01*
X0033847Y0216462D01*
X0033761Y0216302D01*
X0033679Y0216141D01*
X0033600Y0215978D01*
X0033526Y0215812D01*
X0033456Y0215645D01*
X0033389Y0215477D01*
X0033327Y0215306D01*
X0033269Y0215135D01*
X0033215Y0214962D01*
X0033165Y0214787D01*
X0033120Y0214612D01*
X0033079Y0214435D01*
X0033042Y0214258D01*
X0033009Y0214080D01*
X0032981Y0213901D01*
X0032957Y0213721D01*
X0032937Y0213541D01*
X0032922Y0213360D01*
X0032911Y0213179D01*
X0032904Y0212998D01*
X0032902Y0212817D01*
X0032902Y0070337D01*
X0032904Y0070156D01*
X0032911Y0069975D01*
X0032922Y0069794D01*
X0032937Y0069613D01*
X0032957Y0069433D01*
X0032981Y0069253D01*
X0033009Y0069074D01*
X0033042Y0068896D01*
X0033079Y0068719D01*
X0033120Y0068542D01*
X0033165Y0068367D01*
X0033215Y0068192D01*
X0033269Y0068019D01*
X0033327Y0067848D01*
X0033389Y0067677D01*
X0033456Y0067509D01*
X0033526Y0067342D01*
X0033600Y0067176D01*
X0033679Y0067013D01*
X0033761Y0066852D01*
X0033847Y0066692D01*
X0033937Y0066535D01*
X0034031Y0066380D01*
X0034128Y0066227D01*
X0034230Y0066077D01*
X0034334Y0065929D01*
X0034443Y0065783D01*
X0034554Y0065641D01*
X0034670Y0065501D01*
X0034788Y0065364D01*
X0034910Y0065229D01*
X0035035Y0065098D01*
X0035163Y0064970D01*
X0035294Y0064845D01*
X0035429Y0064723D01*
X0035566Y0064605D01*
X0035706Y0064489D01*
X0035848Y0064378D01*
X0035994Y0064269D01*
X0036142Y0064165D01*
X0036292Y0064063D01*
X0036445Y0063966D01*
X0036600Y0063872D01*
X0036757Y0063782D01*
X0036917Y0063696D01*
X0037078Y0063614D01*
X0037241Y0063535D01*
X0037407Y0063461D01*
X0037574Y0063391D01*
X0037742Y0063324D01*
X0037913Y0063262D01*
X0038084Y0063204D01*
X0038257Y0063150D01*
X0038432Y0063100D01*
X0038607Y0063055D01*
X0038784Y0063014D01*
X0038961Y0062977D01*
X0039139Y0062944D01*
X0039318Y0062916D01*
X0039498Y0062892D01*
X0039678Y0062872D01*
X0039859Y0062857D01*
X0040040Y0062846D01*
X0040221Y0062839D01*
X0040402Y0062837D01*
X0104143Y0062837D01*
X0120324Y0062837D02*
X0184064Y0062837D01*
X0184245Y0062839D01*
X0184426Y0062846D01*
X0184607Y0062857D01*
X0184788Y0062872D01*
X0184968Y0062892D01*
X0185148Y0062916D01*
X0185327Y0062944D01*
X0185505Y0062977D01*
X0185682Y0063014D01*
X0185859Y0063055D01*
X0186034Y0063100D01*
X0186209Y0063150D01*
X0186382Y0063204D01*
X0186553Y0063262D01*
X0186724Y0063324D01*
X0186892Y0063391D01*
X0187059Y0063461D01*
X0187225Y0063535D01*
X0187388Y0063614D01*
X0187549Y0063696D01*
X0187709Y0063782D01*
X0187866Y0063872D01*
X0188021Y0063966D01*
X0188174Y0064063D01*
X0188324Y0064165D01*
X0188472Y0064269D01*
X0188618Y0064378D01*
X0188760Y0064489D01*
X0188900Y0064605D01*
X0189037Y0064723D01*
X0189172Y0064845D01*
X0189303Y0064970D01*
X0189431Y0065098D01*
X0189556Y0065229D01*
X0189678Y0065364D01*
X0189796Y0065501D01*
X0189912Y0065641D01*
X0190023Y0065783D01*
X0190132Y0065929D01*
X0190236Y0066077D01*
X0190338Y0066227D01*
X0190435Y0066380D01*
X0190529Y0066535D01*
X0190619Y0066692D01*
X0190705Y0066852D01*
X0190787Y0067013D01*
X0190866Y0067176D01*
X0190940Y0067342D01*
X0191010Y0067509D01*
X0191077Y0067677D01*
X0191139Y0067848D01*
X0191197Y0068019D01*
X0191251Y0068192D01*
X0191301Y0068367D01*
X0191346Y0068542D01*
X0191387Y0068719D01*
X0191424Y0068896D01*
X0191457Y0069074D01*
X0191485Y0069253D01*
X0191509Y0069433D01*
X0191529Y0069613D01*
X0191544Y0069794D01*
X0191555Y0069975D01*
X0191562Y0070156D01*
X0191564Y0070337D01*
X0191564Y0212817D01*
X0190926Y0213085D02*
X0202580Y0213085D01*
X0190926Y0213085D02*
X0190926Y0213912D01*
X0191564Y0212817D02*
X0191562Y0212998D01*
X0191555Y0213179D01*
X0191544Y0213360D01*
X0191529Y0213541D01*
X0191509Y0213721D01*
X0191485Y0213901D01*
X0191457Y0214080D01*
X0191424Y0214258D01*
X0191387Y0214435D01*
X0191346Y0214612D01*
X0191301Y0214787D01*
X0191251Y0214962D01*
X0191197Y0215135D01*
X0191139Y0215306D01*
X0191077Y0215477D01*
X0191010Y0215645D01*
X0190940Y0215812D01*
X0190866Y0215978D01*
X0190787Y0216141D01*
X0190705Y0216302D01*
X0190619Y0216462D01*
X0190529Y0216619D01*
X0190435Y0216774D01*
X0190338Y0216927D01*
X0190236Y0217077D01*
X0190132Y0217225D01*
X0190023Y0217371D01*
X0189912Y0217513D01*
X0189796Y0217653D01*
X0189678Y0217790D01*
X0189556Y0217925D01*
X0189431Y0218056D01*
X0189303Y0218184D01*
X0189172Y0218309D01*
X0189037Y0218431D01*
X0188900Y0218549D01*
X0188760Y0218665D01*
X0188618Y0218776D01*
X0188472Y0218885D01*
X0188324Y0218989D01*
X0188174Y0219091D01*
X0188021Y0219188D01*
X0187866Y0219282D01*
X0187709Y0219372D01*
X0187549Y0219458D01*
X0187388Y0219540D01*
X0187225Y0219619D01*
X0187059Y0219693D01*
X0186892Y0219763D01*
X0186724Y0219830D01*
X0186553Y0219892D01*
X0186382Y0219950D01*
X0186209Y0220004D01*
X0186034Y0220054D01*
X0185859Y0220099D01*
X0185682Y0220140D01*
X0185505Y0220177D01*
X0185327Y0220210D01*
X0185148Y0220238D01*
X0184968Y0220262D01*
X0184788Y0220282D01*
X0184607Y0220297D01*
X0184426Y0220308D01*
X0184245Y0220315D01*
X0184064Y0220317D01*
X0214812Y0220317D02*
X0278552Y0220317D01*
X0278733Y0220315D01*
X0278914Y0220308D01*
X0279095Y0220297D01*
X0279276Y0220282D01*
X0279456Y0220262D01*
X0279636Y0220238D01*
X0279815Y0220210D01*
X0279993Y0220177D01*
X0280170Y0220140D01*
X0280347Y0220099D01*
X0280522Y0220054D01*
X0280697Y0220004D01*
X0280870Y0219950D01*
X0281041Y0219892D01*
X0281212Y0219830D01*
X0281380Y0219763D01*
X0281547Y0219693D01*
X0281713Y0219619D01*
X0281876Y0219540D01*
X0282037Y0219458D01*
X0282197Y0219372D01*
X0282354Y0219282D01*
X0282509Y0219188D01*
X0282662Y0219091D01*
X0282812Y0218989D01*
X0282960Y0218885D01*
X0283106Y0218776D01*
X0283248Y0218665D01*
X0283388Y0218549D01*
X0283525Y0218431D01*
X0283660Y0218309D01*
X0283791Y0218184D01*
X0283919Y0218056D01*
X0284044Y0217925D01*
X0284166Y0217790D01*
X0284284Y0217653D01*
X0284400Y0217513D01*
X0284511Y0217371D01*
X0284620Y0217225D01*
X0284724Y0217077D01*
X0284826Y0216927D01*
X0284923Y0216774D01*
X0285017Y0216619D01*
X0285107Y0216462D01*
X0285193Y0216302D01*
X0285275Y0216141D01*
X0285354Y0215978D01*
X0285428Y0215812D01*
X0285498Y0215645D01*
X0285565Y0215477D01*
X0285627Y0215306D01*
X0285685Y0215135D01*
X0285739Y0214962D01*
X0285789Y0214787D01*
X0285834Y0214612D01*
X0285875Y0214435D01*
X0285912Y0214258D01*
X0285945Y0214080D01*
X0285973Y0213901D01*
X0285997Y0213721D01*
X0286017Y0213541D01*
X0286032Y0213360D01*
X0286043Y0213179D01*
X0286050Y0212998D01*
X0286052Y0212817D01*
X0286052Y0070337D01*
X0287233Y0070337D02*
X0287233Y0212817D01*
X0287235Y0212998D01*
X0287242Y0213179D01*
X0287253Y0213360D01*
X0287268Y0213541D01*
X0287288Y0213721D01*
X0287312Y0213901D01*
X0287340Y0214080D01*
X0287373Y0214258D01*
X0287410Y0214435D01*
X0287451Y0214612D01*
X0287496Y0214787D01*
X0287546Y0214962D01*
X0287600Y0215135D01*
X0287658Y0215306D01*
X0287720Y0215477D01*
X0287787Y0215645D01*
X0287857Y0215812D01*
X0287931Y0215978D01*
X0288010Y0216141D01*
X0288092Y0216302D01*
X0288178Y0216462D01*
X0288268Y0216619D01*
X0288362Y0216774D01*
X0288459Y0216927D01*
X0288561Y0217077D01*
X0288665Y0217225D01*
X0288774Y0217371D01*
X0288885Y0217513D01*
X0289001Y0217653D01*
X0289119Y0217790D01*
X0289241Y0217925D01*
X0289366Y0218056D01*
X0289494Y0218184D01*
X0289625Y0218309D01*
X0289760Y0218431D01*
X0289897Y0218549D01*
X0290037Y0218665D01*
X0290179Y0218776D01*
X0290325Y0218885D01*
X0290473Y0218989D01*
X0290623Y0219091D01*
X0290776Y0219188D01*
X0290931Y0219282D01*
X0291088Y0219372D01*
X0291248Y0219458D01*
X0291409Y0219540D01*
X0291572Y0219619D01*
X0291738Y0219693D01*
X0291905Y0219763D01*
X0292073Y0219830D01*
X0292244Y0219892D01*
X0292415Y0219950D01*
X0292588Y0220004D01*
X0292763Y0220054D01*
X0292938Y0220099D01*
X0293115Y0220140D01*
X0293292Y0220177D01*
X0293470Y0220210D01*
X0293649Y0220238D01*
X0293829Y0220262D01*
X0294009Y0220282D01*
X0294190Y0220297D01*
X0294371Y0220308D01*
X0294552Y0220315D01*
X0294733Y0220317D01*
X0358473Y0220317D01*
X0358654Y0220315D01*
X0358835Y0220308D01*
X0359016Y0220297D01*
X0359197Y0220282D01*
X0359377Y0220262D01*
X0359557Y0220238D01*
X0359736Y0220210D01*
X0359914Y0220177D01*
X0360091Y0220140D01*
X0360268Y0220099D01*
X0360443Y0220054D01*
X0360618Y0220004D01*
X0360791Y0219950D01*
X0360962Y0219892D01*
X0361133Y0219830D01*
X0361301Y0219763D01*
X0361468Y0219693D01*
X0361634Y0219619D01*
X0361797Y0219540D01*
X0361958Y0219458D01*
X0362118Y0219372D01*
X0362275Y0219282D01*
X0362430Y0219188D01*
X0362583Y0219091D01*
X0362733Y0218989D01*
X0362881Y0218885D01*
X0363027Y0218776D01*
X0363169Y0218665D01*
X0363309Y0218549D01*
X0363446Y0218431D01*
X0363581Y0218309D01*
X0363712Y0218184D01*
X0363840Y0218056D01*
X0363965Y0217925D01*
X0364087Y0217790D01*
X0364205Y0217653D01*
X0364321Y0217513D01*
X0364432Y0217371D01*
X0364541Y0217225D01*
X0364645Y0217077D01*
X0364747Y0216927D01*
X0364844Y0216774D01*
X0364938Y0216619D01*
X0365028Y0216462D01*
X0365114Y0216302D01*
X0365196Y0216141D01*
X0365275Y0215978D01*
X0365349Y0215812D01*
X0365419Y0215645D01*
X0365486Y0215477D01*
X0365548Y0215306D01*
X0365606Y0215135D01*
X0365660Y0214962D01*
X0365710Y0214787D01*
X0365755Y0214612D01*
X0365796Y0214435D01*
X0365833Y0214258D01*
X0365866Y0214080D01*
X0365894Y0213901D01*
X0365918Y0213721D01*
X0365938Y0213541D01*
X0365953Y0213360D01*
X0365964Y0213179D01*
X0365971Y0212998D01*
X0365973Y0212817D01*
X0214812Y0220317D02*
X0214631Y0220315D01*
X0214450Y0220308D01*
X0214269Y0220297D01*
X0214088Y0220282D01*
X0213908Y0220262D01*
X0213728Y0220238D01*
X0213549Y0220210D01*
X0213371Y0220177D01*
X0213194Y0220140D01*
X0213017Y0220099D01*
X0212842Y0220054D01*
X0212667Y0220004D01*
X0212494Y0219950D01*
X0212323Y0219892D01*
X0212152Y0219830D01*
X0211984Y0219763D01*
X0211817Y0219693D01*
X0211651Y0219619D01*
X0211488Y0219540D01*
X0211327Y0219458D01*
X0211167Y0219372D01*
X0211010Y0219282D01*
X0210855Y0219188D01*
X0210702Y0219091D01*
X0210552Y0218989D01*
X0210404Y0218885D01*
X0210258Y0218776D01*
X0210116Y0218665D01*
X0209976Y0218549D01*
X0209839Y0218431D01*
X0209704Y0218309D01*
X0209573Y0218184D01*
X0209445Y0218056D01*
X0209320Y0217925D01*
X0209198Y0217790D01*
X0209080Y0217653D01*
X0208964Y0217513D01*
X0208853Y0217371D01*
X0208744Y0217225D01*
X0208640Y0217077D01*
X0208538Y0216927D01*
X0208441Y0216774D01*
X0208347Y0216619D01*
X0208257Y0216462D01*
X0208171Y0216302D01*
X0208089Y0216141D01*
X0208010Y0215978D01*
X0207936Y0215812D01*
X0207866Y0215645D01*
X0207799Y0215477D01*
X0207737Y0215306D01*
X0207679Y0215135D01*
X0207625Y0214962D01*
X0207575Y0214787D01*
X0207530Y0214612D01*
X0207489Y0214435D01*
X0207452Y0214258D01*
X0207419Y0214080D01*
X0207391Y0213901D01*
X0207367Y0213721D01*
X0207347Y0213541D01*
X0207332Y0213360D01*
X0207321Y0213179D01*
X0207314Y0212998D01*
X0207312Y0212817D01*
X0120324Y0220317D02*
X0120143Y0220315D01*
X0119962Y0220308D01*
X0119781Y0220297D01*
X0119600Y0220282D01*
X0119420Y0220262D01*
X0119240Y0220238D01*
X0119061Y0220210D01*
X0118883Y0220177D01*
X0118706Y0220140D01*
X0118529Y0220099D01*
X0118354Y0220054D01*
X0118179Y0220004D01*
X0118006Y0219950D01*
X0117835Y0219892D01*
X0117664Y0219830D01*
X0117496Y0219763D01*
X0117329Y0219693D01*
X0117163Y0219619D01*
X0117000Y0219540D01*
X0116839Y0219458D01*
X0116679Y0219372D01*
X0116522Y0219282D01*
X0116367Y0219188D01*
X0116214Y0219091D01*
X0116064Y0218989D01*
X0115916Y0218885D01*
X0115770Y0218776D01*
X0115628Y0218665D01*
X0115488Y0218549D01*
X0115351Y0218431D01*
X0115216Y0218309D01*
X0115085Y0218184D01*
X0114957Y0218056D01*
X0114832Y0217925D01*
X0114710Y0217790D01*
X0114592Y0217653D01*
X0114476Y0217513D01*
X0114365Y0217371D01*
X0114256Y0217225D01*
X0114152Y0217077D01*
X0114050Y0216927D01*
X0113953Y0216774D01*
X0113859Y0216619D01*
X0113769Y0216462D01*
X0113683Y0216302D01*
X0113601Y0216141D01*
X0113522Y0215978D01*
X0113448Y0215812D01*
X0113378Y0215645D01*
X0113311Y0215477D01*
X0113249Y0215306D01*
X0113191Y0215135D01*
X0113137Y0214962D01*
X0113087Y0214787D01*
X0113042Y0214612D01*
X0113001Y0214435D01*
X0112964Y0214258D01*
X0112931Y0214080D01*
X0112903Y0213901D01*
X0112879Y0213721D01*
X0112859Y0213541D01*
X0112844Y0213360D01*
X0112833Y0213179D01*
X0112826Y0212998D01*
X0112824Y0212817D01*
X0112824Y0070337D01*
X0111643Y0070337D02*
X0111643Y0212817D01*
X0111641Y0212998D01*
X0111634Y0213179D01*
X0111623Y0213360D01*
X0111608Y0213541D01*
X0111588Y0213721D01*
X0111564Y0213901D01*
X0111536Y0214080D01*
X0111503Y0214258D01*
X0111466Y0214435D01*
X0111425Y0214612D01*
X0111380Y0214787D01*
X0111330Y0214962D01*
X0111276Y0215135D01*
X0111218Y0215306D01*
X0111156Y0215477D01*
X0111089Y0215645D01*
X0111019Y0215812D01*
X0110945Y0215978D01*
X0110866Y0216141D01*
X0110784Y0216302D01*
X0110698Y0216462D01*
X0110608Y0216619D01*
X0110514Y0216774D01*
X0110417Y0216927D01*
X0110315Y0217077D01*
X0110211Y0217225D01*
X0110102Y0217371D01*
X0109991Y0217513D01*
X0109875Y0217653D01*
X0109757Y0217790D01*
X0109635Y0217925D01*
X0109510Y0218056D01*
X0109382Y0218184D01*
X0109251Y0218309D01*
X0109116Y0218431D01*
X0108979Y0218549D01*
X0108839Y0218665D01*
X0108697Y0218776D01*
X0108551Y0218885D01*
X0108403Y0218989D01*
X0108253Y0219091D01*
X0108100Y0219188D01*
X0107945Y0219282D01*
X0107788Y0219372D01*
X0107628Y0219458D01*
X0107467Y0219540D01*
X0107304Y0219619D01*
X0107138Y0219693D01*
X0106971Y0219763D01*
X0106803Y0219830D01*
X0106632Y0219892D01*
X0106461Y0219950D01*
X0106288Y0220004D01*
X0106113Y0220054D01*
X0105938Y0220099D01*
X0105761Y0220140D01*
X0105584Y0220177D01*
X0105406Y0220210D01*
X0105227Y0220238D01*
X0105047Y0220262D01*
X0104867Y0220282D01*
X0104686Y0220297D01*
X0104505Y0220308D01*
X0104324Y0220315D01*
X0104143Y0220317D01*
X0025422Y0178979D02*
X0009674Y0178979D01*
X0009550Y0178977D01*
X0009427Y0178971D01*
X0009303Y0178962D01*
X0009181Y0178948D01*
X0009058Y0178931D01*
X0008936Y0178909D01*
X0008815Y0178884D01*
X0008695Y0178855D01*
X0008576Y0178823D01*
X0008457Y0178786D01*
X0008340Y0178746D01*
X0008225Y0178703D01*
X0008110Y0178655D01*
X0007998Y0178604D01*
X0007887Y0178550D01*
X0007777Y0178492D01*
X0007670Y0178431D01*
X0007564Y0178366D01*
X0007461Y0178298D01*
X0007360Y0178227D01*
X0007261Y0178153D01*
X0007164Y0178076D01*
X0007070Y0177995D01*
X0006979Y0177912D01*
X0006890Y0177826D01*
X0006804Y0177737D01*
X0006721Y0177646D01*
X0006640Y0177552D01*
X0006563Y0177455D01*
X0006489Y0177356D01*
X0006418Y0177255D01*
X0006350Y0177152D01*
X0006285Y0177046D01*
X0006224Y0176939D01*
X0006166Y0176829D01*
X0006112Y0176718D01*
X0006061Y0176606D01*
X0006013Y0176491D01*
X0005970Y0176376D01*
X0005930Y0176259D01*
X0005893Y0176140D01*
X0005861Y0176021D01*
X0005832Y0175901D01*
X0005807Y0175780D01*
X0005785Y0175658D01*
X0005768Y0175535D01*
X0005754Y0175413D01*
X0005745Y0175289D01*
X0005739Y0175166D01*
X0005737Y0175042D01*
X0005737Y0155357D01*
X0005739Y0155233D01*
X0005745Y0155110D01*
X0005754Y0154986D01*
X0005768Y0154864D01*
X0005785Y0154741D01*
X0005807Y0154619D01*
X0005832Y0154498D01*
X0005861Y0154378D01*
X0005893Y0154259D01*
X0005930Y0154140D01*
X0005970Y0154023D01*
X0006013Y0153908D01*
X0006061Y0153793D01*
X0006112Y0153681D01*
X0006166Y0153570D01*
X0006224Y0153460D01*
X0006285Y0153353D01*
X0006350Y0153247D01*
X0006418Y0153144D01*
X0006489Y0153043D01*
X0006563Y0152944D01*
X0006640Y0152847D01*
X0006721Y0152753D01*
X0006804Y0152662D01*
X0006890Y0152573D01*
X0006979Y0152487D01*
X0007070Y0152404D01*
X0007164Y0152323D01*
X0007261Y0152246D01*
X0007360Y0152172D01*
X0007461Y0152101D01*
X0007564Y0152033D01*
X0007670Y0151968D01*
X0007777Y0151907D01*
X0007887Y0151849D01*
X0007998Y0151795D01*
X0008110Y0151744D01*
X0008225Y0151696D01*
X0008340Y0151653D01*
X0008457Y0151613D01*
X0008576Y0151576D01*
X0008695Y0151544D01*
X0008815Y0151515D01*
X0008936Y0151490D01*
X0009058Y0151468D01*
X0009181Y0151451D01*
X0009303Y0151437D01*
X0009427Y0151428D01*
X0009550Y0151422D01*
X0009674Y0151420D01*
X0025422Y0151420D01*
X0025546Y0151422D01*
X0025669Y0151428D01*
X0025793Y0151437D01*
X0025915Y0151451D01*
X0026038Y0151468D01*
X0026160Y0151490D01*
X0026281Y0151515D01*
X0026401Y0151544D01*
X0026520Y0151576D01*
X0026639Y0151613D01*
X0026756Y0151653D01*
X0026871Y0151696D01*
X0026986Y0151744D01*
X0027098Y0151795D01*
X0027209Y0151849D01*
X0027319Y0151907D01*
X0027426Y0151968D01*
X0027532Y0152033D01*
X0027635Y0152101D01*
X0027736Y0152172D01*
X0027835Y0152246D01*
X0027932Y0152323D01*
X0028026Y0152404D01*
X0028117Y0152487D01*
X0028206Y0152573D01*
X0028292Y0152662D01*
X0028375Y0152753D01*
X0028456Y0152847D01*
X0028533Y0152944D01*
X0028607Y0153043D01*
X0028678Y0153144D01*
X0028746Y0153247D01*
X0028811Y0153353D01*
X0028872Y0153460D01*
X0028930Y0153570D01*
X0028984Y0153681D01*
X0029035Y0153793D01*
X0029083Y0153908D01*
X0029126Y0154023D01*
X0029166Y0154140D01*
X0029203Y0154259D01*
X0029235Y0154378D01*
X0029264Y0154498D01*
X0029289Y0154619D01*
X0029311Y0154741D01*
X0029328Y0154864D01*
X0029342Y0154986D01*
X0029351Y0155110D01*
X0029357Y0155233D01*
X0029359Y0155357D01*
X0029359Y0175042D01*
X0029357Y0175166D01*
X0029351Y0175289D01*
X0029342Y0175413D01*
X0029328Y0175535D01*
X0029311Y0175658D01*
X0029289Y0175780D01*
X0029264Y0175901D01*
X0029235Y0176021D01*
X0029203Y0176140D01*
X0029166Y0176259D01*
X0029126Y0176376D01*
X0029083Y0176491D01*
X0029035Y0176606D01*
X0028984Y0176718D01*
X0028930Y0176829D01*
X0028872Y0176939D01*
X0028811Y0177046D01*
X0028746Y0177152D01*
X0028678Y0177255D01*
X0028607Y0177356D01*
X0028533Y0177455D01*
X0028456Y0177552D01*
X0028375Y0177646D01*
X0028292Y0177737D01*
X0028206Y0177826D01*
X0028117Y0177912D01*
X0028026Y0177995D01*
X0027932Y0178076D01*
X0027835Y0178153D01*
X0027736Y0178227D01*
X0027635Y0178298D01*
X0027532Y0178366D01*
X0027426Y0178431D01*
X0027319Y0178492D01*
X0027209Y0178550D01*
X0027098Y0178604D01*
X0026986Y0178655D01*
X0026871Y0178703D01*
X0026756Y0178746D01*
X0026639Y0178786D01*
X0026520Y0178823D01*
X0026401Y0178855D01*
X0026281Y0178884D01*
X0026160Y0178909D01*
X0026038Y0178931D01*
X0025915Y0178948D01*
X0025793Y0178962D01*
X0025669Y0178971D01*
X0025546Y0178977D01*
X0025422Y0178979D01*
X0025422Y0119924D02*
X0009674Y0119924D01*
X0009550Y0119922D01*
X0009427Y0119916D01*
X0009303Y0119907D01*
X0009181Y0119893D01*
X0009058Y0119876D01*
X0008936Y0119854D01*
X0008815Y0119829D01*
X0008695Y0119800D01*
X0008576Y0119768D01*
X0008457Y0119731D01*
X0008340Y0119691D01*
X0008225Y0119648D01*
X0008110Y0119600D01*
X0007998Y0119549D01*
X0007887Y0119495D01*
X0007777Y0119437D01*
X0007670Y0119376D01*
X0007564Y0119311D01*
X0007461Y0119243D01*
X0007360Y0119172D01*
X0007261Y0119098D01*
X0007164Y0119021D01*
X0007070Y0118940D01*
X0006979Y0118857D01*
X0006890Y0118771D01*
X0006804Y0118682D01*
X0006721Y0118591D01*
X0006640Y0118497D01*
X0006563Y0118400D01*
X0006489Y0118301D01*
X0006418Y0118200D01*
X0006350Y0118097D01*
X0006285Y0117991D01*
X0006224Y0117884D01*
X0006166Y0117774D01*
X0006112Y0117663D01*
X0006061Y0117551D01*
X0006013Y0117436D01*
X0005970Y0117321D01*
X0005930Y0117204D01*
X0005893Y0117085D01*
X0005861Y0116966D01*
X0005832Y0116846D01*
X0005807Y0116725D01*
X0005785Y0116603D01*
X0005768Y0116480D01*
X0005754Y0116358D01*
X0005745Y0116234D01*
X0005739Y0116111D01*
X0005737Y0115987D01*
X0005737Y0096302D01*
X0005739Y0096178D01*
X0005745Y0096055D01*
X0005754Y0095931D01*
X0005768Y0095809D01*
X0005785Y0095686D01*
X0005807Y0095564D01*
X0005832Y0095443D01*
X0005861Y0095323D01*
X0005893Y0095204D01*
X0005930Y0095085D01*
X0005970Y0094968D01*
X0006013Y0094853D01*
X0006061Y0094738D01*
X0006112Y0094626D01*
X0006166Y0094515D01*
X0006224Y0094405D01*
X0006285Y0094298D01*
X0006350Y0094192D01*
X0006418Y0094089D01*
X0006489Y0093988D01*
X0006563Y0093889D01*
X0006640Y0093792D01*
X0006721Y0093698D01*
X0006804Y0093607D01*
X0006890Y0093518D01*
X0006979Y0093432D01*
X0007070Y0093349D01*
X0007164Y0093268D01*
X0007261Y0093191D01*
X0007360Y0093117D01*
X0007461Y0093046D01*
X0007564Y0092978D01*
X0007670Y0092913D01*
X0007777Y0092852D01*
X0007887Y0092794D01*
X0007998Y0092740D01*
X0008110Y0092689D01*
X0008225Y0092641D01*
X0008340Y0092598D01*
X0008457Y0092558D01*
X0008576Y0092521D01*
X0008695Y0092489D01*
X0008815Y0092460D01*
X0008936Y0092435D01*
X0009058Y0092413D01*
X0009181Y0092396D01*
X0009303Y0092382D01*
X0009427Y0092373D01*
X0009550Y0092367D01*
X0009674Y0092365D01*
X0025422Y0092365D01*
X0025546Y0092367D01*
X0025669Y0092373D01*
X0025793Y0092382D01*
X0025915Y0092396D01*
X0026038Y0092413D01*
X0026160Y0092435D01*
X0026281Y0092460D01*
X0026401Y0092489D01*
X0026520Y0092521D01*
X0026639Y0092558D01*
X0026756Y0092598D01*
X0026871Y0092641D01*
X0026986Y0092689D01*
X0027098Y0092740D01*
X0027209Y0092794D01*
X0027319Y0092852D01*
X0027426Y0092913D01*
X0027532Y0092978D01*
X0027635Y0093046D01*
X0027736Y0093117D01*
X0027835Y0093191D01*
X0027932Y0093268D01*
X0028026Y0093349D01*
X0028117Y0093432D01*
X0028206Y0093518D01*
X0028292Y0093607D01*
X0028375Y0093698D01*
X0028456Y0093792D01*
X0028533Y0093889D01*
X0028607Y0093988D01*
X0028678Y0094089D01*
X0028746Y0094192D01*
X0028811Y0094298D01*
X0028872Y0094405D01*
X0028930Y0094515D01*
X0028984Y0094626D01*
X0029035Y0094738D01*
X0029083Y0094853D01*
X0029126Y0094968D01*
X0029166Y0095085D01*
X0029203Y0095204D01*
X0029235Y0095323D01*
X0029264Y0095443D01*
X0029289Y0095564D01*
X0029311Y0095686D01*
X0029328Y0095809D01*
X0029342Y0095931D01*
X0029351Y0096055D01*
X0029357Y0096178D01*
X0029359Y0096302D01*
X0029359Y0115987D01*
X0029357Y0116111D01*
X0029351Y0116234D01*
X0029342Y0116358D01*
X0029328Y0116480D01*
X0029311Y0116603D01*
X0029289Y0116725D01*
X0029264Y0116846D01*
X0029235Y0116966D01*
X0029203Y0117085D01*
X0029166Y0117204D01*
X0029126Y0117321D01*
X0029083Y0117436D01*
X0029035Y0117551D01*
X0028984Y0117663D01*
X0028930Y0117774D01*
X0028872Y0117884D01*
X0028811Y0117991D01*
X0028746Y0118097D01*
X0028678Y0118200D01*
X0028607Y0118301D01*
X0028533Y0118400D01*
X0028456Y0118497D01*
X0028375Y0118591D01*
X0028292Y0118682D01*
X0028206Y0118771D01*
X0028117Y0118857D01*
X0028026Y0118940D01*
X0027932Y0119021D01*
X0027835Y0119098D01*
X0027736Y0119172D01*
X0027635Y0119243D01*
X0027532Y0119311D01*
X0027426Y0119376D01*
X0027319Y0119437D01*
X0027209Y0119495D01*
X0027098Y0119549D01*
X0026986Y0119600D01*
X0026871Y0119648D01*
X0026756Y0119691D01*
X0026639Y0119731D01*
X0026520Y0119768D01*
X0026401Y0119800D01*
X0026281Y0119829D01*
X0026160Y0119854D01*
X0026038Y0119876D01*
X0025915Y0119893D01*
X0025793Y0119907D01*
X0025669Y0119916D01*
X0025546Y0119922D01*
X0025422Y0119924D01*
X0104143Y0062837D02*
X0104324Y0062839D01*
X0104505Y0062846D01*
X0104686Y0062857D01*
X0104867Y0062872D01*
X0105047Y0062892D01*
X0105227Y0062916D01*
X0105406Y0062944D01*
X0105584Y0062977D01*
X0105761Y0063014D01*
X0105938Y0063055D01*
X0106113Y0063100D01*
X0106288Y0063150D01*
X0106461Y0063204D01*
X0106632Y0063262D01*
X0106803Y0063324D01*
X0106971Y0063391D01*
X0107138Y0063461D01*
X0107304Y0063535D01*
X0107467Y0063614D01*
X0107628Y0063696D01*
X0107788Y0063782D01*
X0107945Y0063872D01*
X0108100Y0063966D01*
X0108253Y0064063D01*
X0108403Y0064165D01*
X0108551Y0064269D01*
X0108697Y0064378D01*
X0108839Y0064489D01*
X0108979Y0064605D01*
X0109116Y0064723D01*
X0109251Y0064845D01*
X0109382Y0064970D01*
X0109510Y0065098D01*
X0109635Y0065229D01*
X0109757Y0065364D01*
X0109875Y0065501D01*
X0109991Y0065641D01*
X0110102Y0065783D01*
X0110211Y0065929D01*
X0110315Y0066077D01*
X0110417Y0066227D01*
X0110514Y0066380D01*
X0110608Y0066535D01*
X0110698Y0066692D01*
X0110784Y0066852D01*
X0110866Y0067013D01*
X0110945Y0067176D01*
X0111019Y0067342D01*
X0111089Y0067509D01*
X0111156Y0067677D01*
X0111218Y0067848D01*
X0111276Y0068019D01*
X0111330Y0068192D01*
X0111380Y0068367D01*
X0111425Y0068542D01*
X0111466Y0068719D01*
X0111503Y0068896D01*
X0111536Y0069074D01*
X0111564Y0069253D01*
X0111588Y0069433D01*
X0111608Y0069613D01*
X0111623Y0069794D01*
X0111634Y0069975D01*
X0111641Y0070156D01*
X0111643Y0070337D01*
X0112824Y0070337D02*
X0112826Y0070156D01*
X0112833Y0069975D01*
X0112844Y0069794D01*
X0112859Y0069613D01*
X0112879Y0069433D01*
X0112903Y0069253D01*
X0112931Y0069074D01*
X0112964Y0068896D01*
X0113001Y0068719D01*
X0113042Y0068542D01*
X0113087Y0068367D01*
X0113137Y0068192D01*
X0113191Y0068019D01*
X0113249Y0067848D01*
X0113311Y0067677D01*
X0113378Y0067509D01*
X0113448Y0067342D01*
X0113522Y0067176D01*
X0113601Y0067013D01*
X0113683Y0066852D01*
X0113769Y0066692D01*
X0113859Y0066535D01*
X0113953Y0066380D01*
X0114050Y0066227D01*
X0114152Y0066077D01*
X0114256Y0065929D01*
X0114365Y0065783D01*
X0114476Y0065641D01*
X0114592Y0065501D01*
X0114710Y0065364D01*
X0114832Y0065229D01*
X0114957Y0065098D01*
X0115085Y0064970D01*
X0115216Y0064845D01*
X0115351Y0064723D01*
X0115488Y0064605D01*
X0115628Y0064489D01*
X0115770Y0064378D01*
X0115916Y0064269D01*
X0116064Y0064165D01*
X0116214Y0064063D01*
X0116367Y0063966D01*
X0116522Y0063872D01*
X0116679Y0063782D01*
X0116839Y0063696D01*
X0117000Y0063614D01*
X0117163Y0063535D01*
X0117329Y0063461D01*
X0117496Y0063391D01*
X0117664Y0063324D01*
X0117835Y0063262D01*
X0118006Y0063204D01*
X0118179Y0063150D01*
X0118354Y0063100D01*
X0118529Y0063055D01*
X0118706Y0063014D01*
X0118883Y0062977D01*
X0119061Y0062944D01*
X0119240Y0062916D01*
X0119420Y0062892D01*
X0119600Y0062872D01*
X0119781Y0062857D01*
X0119962Y0062846D01*
X0120143Y0062839D01*
X0120324Y0062837D01*
X0278552Y0062837D02*
X0278733Y0062839D01*
X0278914Y0062846D01*
X0279095Y0062857D01*
X0279276Y0062872D01*
X0279456Y0062892D01*
X0279636Y0062916D01*
X0279815Y0062944D01*
X0279993Y0062977D01*
X0280170Y0063014D01*
X0280347Y0063055D01*
X0280522Y0063100D01*
X0280697Y0063150D01*
X0280870Y0063204D01*
X0281041Y0063262D01*
X0281212Y0063324D01*
X0281380Y0063391D01*
X0281547Y0063461D01*
X0281713Y0063535D01*
X0281876Y0063614D01*
X0282037Y0063696D01*
X0282197Y0063782D01*
X0282354Y0063872D01*
X0282509Y0063966D01*
X0282662Y0064063D01*
X0282812Y0064165D01*
X0282960Y0064269D01*
X0283106Y0064378D01*
X0283248Y0064489D01*
X0283388Y0064605D01*
X0283525Y0064723D01*
X0283660Y0064845D01*
X0283791Y0064970D01*
X0283919Y0065098D01*
X0284044Y0065229D01*
X0284166Y0065364D01*
X0284284Y0065501D01*
X0284400Y0065641D01*
X0284511Y0065783D01*
X0284620Y0065929D01*
X0284724Y0066077D01*
X0284826Y0066227D01*
X0284923Y0066380D01*
X0285017Y0066535D01*
X0285107Y0066692D01*
X0285193Y0066852D01*
X0285275Y0067013D01*
X0285354Y0067176D01*
X0285428Y0067342D01*
X0285498Y0067509D01*
X0285565Y0067677D01*
X0285627Y0067848D01*
X0285685Y0068019D01*
X0285739Y0068192D01*
X0285789Y0068367D01*
X0285834Y0068542D01*
X0285875Y0068719D01*
X0285912Y0068896D01*
X0285945Y0069074D01*
X0285973Y0069253D01*
X0285997Y0069433D01*
X0286017Y0069613D01*
X0286032Y0069794D01*
X0286043Y0069975D01*
X0286050Y0070156D01*
X0286052Y0070337D01*
X0287233Y0070337D02*
X0287235Y0070156D01*
X0287242Y0069975D01*
X0287253Y0069794D01*
X0287268Y0069613D01*
X0287288Y0069433D01*
X0287312Y0069253D01*
X0287340Y0069074D01*
X0287373Y0068896D01*
X0287410Y0068719D01*
X0287451Y0068542D01*
X0287496Y0068367D01*
X0287546Y0068192D01*
X0287600Y0068019D01*
X0287658Y0067848D01*
X0287720Y0067677D01*
X0287787Y0067509D01*
X0287857Y0067342D01*
X0287931Y0067176D01*
X0288010Y0067013D01*
X0288092Y0066852D01*
X0288178Y0066692D01*
X0288268Y0066535D01*
X0288362Y0066380D01*
X0288459Y0066227D01*
X0288561Y0066077D01*
X0288665Y0065929D01*
X0288774Y0065783D01*
X0288885Y0065641D01*
X0289001Y0065501D01*
X0289119Y0065364D01*
X0289241Y0065229D01*
X0289366Y0065098D01*
X0289494Y0064970D01*
X0289625Y0064845D01*
X0289760Y0064723D01*
X0289897Y0064605D01*
X0290037Y0064489D01*
X0290179Y0064378D01*
X0290325Y0064269D01*
X0290473Y0064165D01*
X0290623Y0064063D01*
X0290776Y0063966D01*
X0290931Y0063872D01*
X0291088Y0063782D01*
X0291248Y0063696D01*
X0291409Y0063614D01*
X0291572Y0063535D01*
X0291738Y0063461D01*
X0291905Y0063391D01*
X0292073Y0063324D01*
X0292244Y0063262D01*
X0292415Y0063204D01*
X0292588Y0063150D01*
X0292763Y0063100D01*
X0292938Y0063055D01*
X0293115Y0063014D01*
X0293292Y0062977D01*
X0293470Y0062944D01*
X0293649Y0062916D01*
X0293829Y0062892D01*
X0294009Y0062872D01*
X0294190Y0062857D01*
X0294371Y0062846D01*
X0294552Y0062839D01*
X0294733Y0062837D01*
X0452961Y0062837D02*
X0453142Y0062839D01*
X0453323Y0062846D01*
X0453504Y0062857D01*
X0453685Y0062872D01*
X0453865Y0062892D01*
X0454045Y0062916D01*
X0454224Y0062944D01*
X0454402Y0062977D01*
X0454579Y0063014D01*
X0454756Y0063055D01*
X0454931Y0063100D01*
X0455106Y0063150D01*
X0455279Y0063204D01*
X0455450Y0063262D01*
X0455621Y0063324D01*
X0455789Y0063391D01*
X0455956Y0063461D01*
X0456122Y0063535D01*
X0456285Y0063614D01*
X0456446Y0063696D01*
X0456606Y0063782D01*
X0456763Y0063872D01*
X0456918Y0063966D01*
X0457071Y0064063D01*
X0457221Y0064165D01*
X0457369Y0064269D01*
X0457515Y0064378D01*
X0457657Y0064489D01*
X0457797Y0064605D01*
X0457934Y0064723D01*
X0458069Y0064845D01*
X0458200Y0064970D01*
X0458328Y0065098D01*
X0458453Y0065229D01*
X0458575Y0065364D01*
X0458693Y0065501D01*
X0458809Y0065641D01*
X0458920Y0065783D01*
X0459029Y0065929D01*
X0459133Y0066077D01*
X0459235Y0066227D01*
X0459332Y0066380D01*
X0459426Y0066535D01*
X0459516Y0066692D01*
X0459602Y0066852D01*
X0459684Y0067013D01*
X0459763Y0067176D01*
X0459837Y0067342D01*
X0459907Y0067509D01*
X0459974Y0067677D01*
X0460036Y0067848D01*
X0460094Y0068019D01*
X0460148Y0068192D01*
X0460198Y0068367D01*
X0460243Y0068542D01*
X0460284Y0068719D01*
X0460321Y0068896D01*
X0460354Y0069074D01*
X0460382Y0069253D01*
X0460406Y0069433D01*
X0460426Y0069613D01*
X0460441Y0069794D01*
X0460452Y0069975D01*
X0460459Y0070156D01*
X0460461Y0070337D01*
X0461643Y0070337D02*
X0461645Y0070156D01*
X0461652Y0069975D01*
X0461663Y0069794D01*
X0461678Y0069613D01*
X0461698Y0069433D01*
X0461722Y0069253D01*
X0461750Y0069074D01*
X0461783Y0068896D01*
X0461820Y0068719D01*
X0461861Y0068542D01*
X0461906Y0068367D01*
X0461956Y0068192D01*
X0462010Y0068019D01*
X0462068Y0067848D01*
X0462130Y0067677D01*
X0462197Y0067509D01*
X0462267Y0067342D01*
X0462341Y0067176D01*
X0462420Y0067013D01*
X0462502Y0066852D01*
X0462588Y0066692D01*
X0462678Y0066535D01*
X0462772Y0066380D01*
X0462869Y0066227D01*
X0462971Y0066077D01*
X0463075Y0065929D01*
X0463184Y0065783D01*
X0463295Y0065641D01*
X0463411Y0065501D01*
X0463529Y0065364D01*
X0463651Y0065229D01*
X0463776Y0065098D01*
X0463904Y0064970D01*
X0464035Y0064845D01*
X0464170Y0064723D01*
X0464307Y0064605D01*
X0464447Y0064489D01*
X0464589Y0064378D01*
X0464735Y0064269D01*
X0464883Y0064165D01*
X0465033Y0064063D01*
X0465186Y0063966D01*
X0465341Y0063872D01*
X0465498Y0063782D01*
X0465658Y0063696D01*
X0465819Y0063614D01*
X0465982Y0063535D01*
X0466148Y0063461D01*
X0466315Y0063391D01*
X0466483Y0063324D01*
X0466654Y0063262D01*
X0466825Y0063204D01*
X0466998Y0063150D01*
X0467173Y0063100D01*
X0467348Y0063055D01*
X0467525Y0063014D01*
X0467702Y0062977D01*
X0467880Y0062944D01*
X0468059Y0062916D01*
X0468239Y0062892D01*
X0468419Y0062872D01*
X0468600Y0062857D01*
X0468781Y0062846D01*
X0468962Y0062839D01*
X0469143Y0062837D01*
X0211599Y0167028D02*
X0211599Y0170546D01*
X0211597Y0170611D01*
X0211591Y0170675D01*
X0211582Y0170739D01*
X0211569Y0170803D01*
X0211552Y0170865D01*
X0211532Y0170927D01*
X0211508Y0170987D01*
X0211481Y0171046D01*
X0211450Y0171103D01*
X0211416Y0171158D01*
X0211379Y0171211D01*
X0211339Y0171261D01*
X0211296Y0171310D01*
X0211250Y0171356D01*
X0211201Y0171399D01*
X0211151Y0171439D01*
X0211098Y0171476D01*
X0211043Y0171510D01*
X0210986Y0171541D01*
X0210927Y0171568D01*
X0210867Y0171592D01*
X0210805Y0171612D01*
X0210743Y0171629D01*
X0210679Y0171642D01*
X0210615Y0171651D01*
X0210551Y0171657D01*
X0210486Y0171659D01*
X0210486Y0171660D02*
X0200114Y0171660D01*
X0200114Y0171659D02*
X0200049Y0171657D01*
X0199985Y0171651D01*
X0199921Y0171642D01*
X0199857Y0171629D01*
X0199795Y0171612D01*
X0199733Y0171592D01*
X0199673Y0171568D01*
X0199614Y0171541D01*
X0199558Y0171510D01*
X0199502Y0171476D01*
X0199449Y0171439D01*
X0199399Y0171399D01*
X0199350Y0171356D01*
X0199304Y0171310D01*
X0199261Y0171261D01*
X0199221Y0171211D01*
X0199184Y0171158D01*
X0199150Y0171103D01*
X0199119Y0171046D01*
X0199092Y0170987D01*
X0199068Y0170927D01*
X0199048Y0170865D01*
X0199031Y0170803D01*
X0199018Y0170739D01*
X0199009Y0170675D01*
X0199003Y0170611D01*
X0199001Y0170546D01*
X0199001Y0167393D01*
X0199003Y0167323D01*
X0199009Y0167254D01*
X0199019Y0167184D01*
X0199032Y0167116D01*
X0199050Y0167048D01*
X0199071Y0166982D01*
X0199096Y0166917D01*
X0199124Y0166853D01*
X0199156Y0166791D01*
X0199192Y0166731D01*
X0199231Y0166673D01*
X0199273Y0166617D01*
X0199318Y0166563D01*
X0199366Y0166513D01*
X0199416Y0166465D01*
X0199470Y0166420D01*
X0199526Y0166378D01*
X0199584Y0166339D01*
X0199644Y0166303D01*
X0199706Y0166271D01*
X0199770Y0166243D01*
X0199835Y0166218D01*
X0199901Y0166197D01*
X0199969Y0166179D01*
X0200037Y0166166D01*
X0200107Y0166156D01*
X0200176Y0166150D01*
X0200246Y0166148D01*
X0210719Y0166148D01*
X0210777Y0166150D01*
X0210834Y0166156D01*
X0210891Y0166165D01*
X0210947Y0166178D01*
X0211002Y0166195D01*
X0211056Y0166215D01*
X0211108Y0166239D01*
X0211159Y0166266D01*
X0211208Y0166296D01*
X0211255Y0166330D01*
X0211299Y0166366D01*
X0211341Y0166406D01*
X0211381Y0166448D01*
X0211417Y0166492D01*
X0211451Y0166539D01*
X0211481Y0166588D01*
X0211508Y0166639D01*
X0211532Y0166691D01*
X0211552Y0166745D01*
X0211569Y0166800D01*
X0211582Y0166856D01*
X0211591Y0166913D01*
X0211597Y0166970D01*
X0211599Y0167028D01*
X0210418Y0168510D02*
X0210418Y0169691D01*
X0210419Y0169691D02*
X0210405Y0169750D01*
X0210388Y0169808D01*
X0210367Y0169865D01*
X0210343Y0169921D01*
X0210315Y0169975D01*
X0210285Y0170027D01*
X0210251Y0170078D01*
X0210214Y0170126D01*
X0210175Y0170172D01*
X0210132Y0170215D01*
X0210088Y0170256D01*
X0210040Y0170294D01*
X0209991Y0170329D01*
X0209939Y0170361D01*
X0209886Y0170390D01*
X0209831Y0170416D01*
X0209775Y0170438D01*
X0209717Y0170457D01*
X0209658Y0170473D01*
X0209599Y0170484D01*
X0209539Y0170493D01*
X0209478Y0170497D01*
X0209418Y0170498D01*
X0209357Y0170495D01*
X0209297Y0170489D01*
X0209237Y0170479D01*
X0201363Y0170479D01*
X0201297Y0170477D01*
X0201231Y0170472D01*
X0201165Y0170462D01*
X0201100Y0170449D01*
X0201036Y0170433D01*
X0200973Y0170413D01*
X0200911Y0170389D01*
X0200851Y0170362D01*
X0200792Y0170332D01*
X0200735Y0170298D01*
X0200680Y0170261D01*
X0200627Y0170221D01*
X0200576Y0170179D01*
X0200528Y0170133D01*
X0200482Y0170085D01*
X0200440Y0170034D01*
X0200400Y0169981D01*
X0200363Y0169926D01*
X0200329Y0169869D01*
X0200299Y0169810D01*
X0200272Y0169750D01*
X0200248Y0169688D01*
X0200228Y0169625D01*
X0200212Y0169561D01*
X0200199Y0169496D01*
X0200189Y0169430D01*
X0200184Y0169364D01*
X0200182Y0169298D01*
X0200182Y0168510D01*
X0200182Y0168511D02*
X0200184Y0168442D01*
X0200190Y0168374D01*
X0200200Y0168306D01*
X0200214Y0168238D01*
X0200232Y0168172D01*
X0200253Y0168107D01*
X0200279Y0168043D01*
X0200308Y0167981D01*
X0200340Y0167920D01*
X0200376Y0167862D01*
X0200416Y0167806D01*
X0200458Y0167752D01*
X0200504Y0167701D01*
X0200553Y0167652D01*
X0200604Y0167606D01*
X0200658Y0167564D01*
X0200714Y0167524D01*
X0200772Y0167488D01*
X0200833Y0167456D01*
X0200895Y0167427D01*
X0200959Y0167401D01*
X0201024Y0167380D01*
X0201090Y0167362D01*
X0201158Y0167348D01*
X0201226Y0167338D01*
X0201294Y0167332D01*
X0201363Y0167330D01*
X0201363Y0167329D02*
X0209631Y0167329D01*
X0209630Y0167329D02*
X0209689Y0167343D01*
X0209748Y0167360D01*
X0209805Y0167381D01*
X0209860Y0167405D01*
X0209914Y0167432D01*
X0209967Y0167463D01*
X0210017Y0167497D01*
X0210065Y0167533D01*
X0210111Y0167573D01*
X0210155Y0167615D01*
X0210195Y0167660D01*
X0210233Y0167707D01*
X0210269Y0167757D01*
X0210301Y0167808D01*
X0210330Y0167861D01*
X0210355Y0167916D01*
X0210377Y0167973D01*
X0210396Y0168030D01*
X0210412Y0168089D01*
X0210423Y0168148D01*
X0210432Y0168208D01*
X0210436Y0168269D01*
X0210437Y0168329D01*
X0210434Y0168390D01*
X0210428Y0168450D01*
X0210417Y0168510D01*
D21*
X0402151Y0130824D03*
D22*
X0385603Y0144904D02*
X0385570Y0144937D01*
X0385587Y0144937D02*
X0385537Y0144937D01*
X0385511Y0144921D02*
X0385495Y0144904D01*
X0385461Y0144904D01*
X0385445Y0144921D01*
X0385511Y0144987D01*
X0385511Y0144921D01*
X0385537Y0144904D02*
X0385537Y0145004D01*
X0385587Y0145004D01*
X0385603Y0144987D01*
X0385603Y0144954D01*
X0385587Y0144937D01*
X0385511Y0144987D02*
X0385495Y0145004D01*
X0385461Y0145004D01*
X0385445Y0144987D01*
X0385445Y0144921D01*
X0385419Y0144904D02*
X0385352Y0144904D01*
X0385419Y0144971D01*
X0385419Y0144987D01*
X0385402Y0145004D01*
X0385369Y0145004D01*
X0385352Y0144987D01*
X0385327Y0144987D02*
X0385327Y0144954D01*
X0385310Y0144937D01*
X0385260Y0144937D01*
X0385260Y0144904D02*
X0385260Y0145004D01*
X0385310Y0145004D01*
X0385327Y0144987D01*
X0385235Y0145004D02*
X0385168Y0145004D01*
X0385202Y0145004D02*
X0385202Y0144904D01*
X0385143Y0144904D02*
X0385076Y0144904D01*
X0385051Y0144904D02*
X0385018Y0144937D01*
X0385034Y0144937D02*
X0384984Y0144937D01*
X0384984Y0144904D02*
X0384984Y0145004D01*
X0385034Y0145004D01*
X0385051Y0144987D01*
X0385051Y0144954D01*
X0385034Y0144937D01*
X0385076Y0144971D02*
X0385110Y0145004D01*
X0385110Y0144904D01*
X0384959Y0145004D02*
X0384892Y0145004D01*
X0384867Y0144987D02*
X0384867Y0144954D01*
X0384850Y0144937D01*
X0384800Y0144937D01*
X0384800Y0144904D02*
X0384800Y0145004D01*
X0384850Y0145004D01*
X0384867Y0144987D01*
X0384925Y0145004D02*
X0384925Y0144904D01*
D23*
X0554435Y0067665D02*
X0555123Y0067877D01*
X0555123Y0067876D02*
X0555199Y0067641D01*
X0555282Y0067407D01*
X0555370Y0067175D01*
X0555464Y0066946D01*
X0555564Y0066719D01*
X0555669Y0066495D01*
X0555779Y0066273D01*
X0555895Y0066054D01*
X0556017Y0065837D01*
X0556143Y0065624D01*
X0556275Y0065414D01*
X0556411Y0065207D01*
X0556553Y0065004D01*
X0556700Y0064804D01*
X0556851Y0064608D01*
X0557008Y0064416D01*
X0557169Y0064227D01*
X0557334Y0064043D01*
X0557504Y0063862D01*
X0557678Y0063686D01*
X0557857Y0063514D01*
X0558039Y0063347D01*
X0558226Y0063184D01*
X0558417Y0063025D01*
X0558611Y0062872D01*
X0558810Y0062723D01*
X0559011Y0062579D01*
X0559217Y0062440D01*
X0559425Y0062306D01*
X0559637Y0062177D01*
X0559852Y0062053D01*
X0560070Y0061935D01*
X0560290Y0061822D01*
X0560514Y0061715D01*
X0560739Y0061613D01*
X0560968Y0061516D01*
X0561198Y0061425D01*
X0561431Y0061340D01*
X0561666Y0061261D01*
X0561903Y0061187D01*
X0562141Y0061119D01*
X0562381Y0061057D01*
X0562622Y0061001D01*
X0562865Y0060950D01*
X0563109Y0060906D01*
X0563354Y0060868D01*
X0563600Y0060835D01*
X0563846Y0060809D01*
X0564093Y0060789D01*
X0564340Y0060774D01*
X0564588Y0060766D01*
X0564836Y0060764D01*
X0565084Y0060768D01*
X0565332Y0060778D01*
X0565579Y0060794D01*
X0565826Y0060816D01*
X0566072Y0060844D01*
X0566318Y0060878D01*
X0566562Y0060918D01*
X0566806Y0060964D01*
X0567048Y0061016D01*
X0567289Y0061074D01*
X0567529Y0061138D01*
X0567766Y0061208D01*
X0568003Y0061283D01*
X0568237Y0061364D01*
X0568469Y0061451D01*
X0568699Y0061544D01*
X0568927Y0061642D01*
X0569152Y0061745D01*
X0569374Y0061854D01*
X0569594Y0061969D01*
X0569811Y0062089D01*
X0570025Y0062214D01*
X0570236Y0062344D01*
X0570443Y0062480D01*
X0570648Y0062620D01*
X0570848Y0062765D01*
X0571046Y0062916D01*
X0571491Y0062351D01*
X0571491Y0062350D01*
X0571280Y0062189D01*
X0571065Y0062033D01*
X0570846Y0061883D01*
X0570624Y0061738D01*
X0570398Y0061598D01*
X0570169Y0061464D01*
X0569937Y0061336D01*
X0569701Y0061213D01*
X0569463Y0061096D01*
X0569221Y0060985D01*
X0568978Y0060880D01*
X0568731Y0060781D01*
X0568483Y0060687D01*
X0568232Y0060600D01*
X0567979Y0060520D01*
X0567724Y0060445D01*
X0567467Y0060377D01*
X0567209Y0060315D01*
X0566950Y0060259D01*
X0566689Y0060209D01*
X0566427Y0060167D01*
X0566164Y0060130D01*
X0565900Y0060100D01*
X0565635Y0060076D01*
X0565370Y0060059D01*
X0565105Y0060048D01*
X0564840Y0060044D01*
X0564574Y0060046D01*
X0564309Y0060055D01*
X0564043Y0060070D01*
X0563779Y0060092D01*
X0563515Y0060120D01*
X0563252Y0060155D01*
X0562989Y0060196D01*
X0562728Y0060244D01*
X0562468Y0060297D01*
X0562209Y0060358D01*
X0561952Y0060424D01*
X0561697Y0060497D01*
X0561443Y0060576D01*
X0561192Y0060661D01*
X0560942Y0060752D01*
X0560695Y0060850D01*
X0560451Y0060953D01*
X0560209Y0061062D01*
X0559970Y0061177D01*
X0559733Y0061298D01*
X0559500Y0061425D01*
X0559270Y0061558D01*
X0559043Y0061696D01*
X0558819Y0061839D01*
X0558600Y0061988D01*
X0558383Y0062142D01*
X0558171Y0062302D01*
X0557963Y0062466D01*
X0557759Y0062636D01*
X0557559Y0062811D01*
X0557363Y0062990D01*
X0557172Y0063174D01*
X0556985Y0063363D01*
X0556803Y0063557D01*
X0556626Y0063754D01*
X0556453Y0063956D01*
X0556286Y0064162D01*
X0556124Y0064373D01*
X0555966Y0064587D01*
X0555815Y0064805D01*
X0555668Y0065026D01*
X0555527Y0065251D01*
X0555392Y0065479D01*
X0555262Y0065711D01*
X0555138Y0065946D01*
X0555020Y0066184D01*
X0554907Y0066424D01*
X0554800Y0066667D01*
X0554700Y0066913D01*
X0554605Y0067161D01*
X0554517Y0067412D01*
X0554435Y0067664D01*
X0554506Y0067686D01*
X0554588Y0067435D01*
X0554676Y0067187D01*
X0554770Y0066940D01*
X0554870Y0066696D01*
X0554975Y0066455D01*
X0555087Y0066216D01*
X0555205Y0065980D01*
X0555328Y0065747D01*
X0555457Y0065517D01*
X0555591Y0065290D01*
X0555731Y0065066D01*
X0555877Y0064847D01*
X0556028Y0064630D01*
X0556184Y0064418D01*
X0556345Y0064209D01*
X0556511Y0064004D01*
X0556682Y0063804D01*
X0556858Y0063607D01*
X0557039Y0063415D01*
X0557224Y0063228D01*
X0557414Y0063045D01*
X0557609Y0062867D01*
X0557807Y0062693D01*
X0558010Y0062525D01*
X0558217Y0062361D01*
X0558428Y0062203D01*
X0558642Y0062050D01*
X0558861Y0061902D01*
X0559083Y0061759D01*
X0559308Y0061622D01*
X0559537Y0061491D01*
X0559768Y0061365D01*
X0560003Y0061245D01*
X0560241Y0061130D01*
X0560481Y0061022D01*
X0560724Y0060919D01*
X0560969Y0060822D01*
X0561217Y0060732D01*
X0561466Y0060647D01*
X0561718Y0060569D01*
X0561972Y0060496D01*
X0562227Y0060430D01*
X0562484Y0060371D01*
X0562742Y0060317D01*
X0563002Y0060270D01*
X0563262Y0060229D01*
X0563524Y0060195D01*
X0563786Y0060167D01*
X0564049Y0060145D01*
X0564312Y0060130D01*
X0564575Y0060121D01*
X0564839Y0060119D01*
X0565103Y0060123D01*
X0565366Y0060134D01*
X0565629Y0060151D01*
X0565892Y0060174D01*
X0566154Y0060204D01*
X0566415Y0060241D01*
X0566675Y0060283D01*
X0566935Y0060332D01*
X0567192Y0060388D01*
X0567449Y0060449D01*
X0567704Y0060517D01*
X0567957Y0060591D01*
X0568208Y0060672D01*
X0568457Y0060758D01*
X0568704Y0060850D01*
X0568949Y0060949D01*
X0569191Y0061053D01*
X0569430Y0061164D01*
X0569667Y0061280D01*
X0569901Y0061402D01*
X0570132Y0061529D01*
X0570359Y0061662D01*
X0570584Y0061801D01*
X0570804Y0061945D01*
X0571022Y0062094D01*
X0571235Y0062249D01*
X0571445Y0062409D01*
X0571398Y0062468D01*
X0571190Y0062309D01*
X0570978Y0062156D01*
X0570762Y0062007D01*
X0570543Y0061864D01*
X0570320Y0061726D01*
X0570094Y0061594D01*
X0569865Y0061467D01*
X0569633Y0061346D01*
X0569398Y0061231D01*
X0569160Y0061122D01*
X0568920Y0061018D01*
X0568677Y0060920D01*
X0568431Y0060828D01*
X0568184Y0060743D01*
X0567935Y0060663D01*
X0567683Y0060589D01*
X0567430Y0060522D01*
X0567176Y0060461D01*
X0566920Y0060406D01*
X0566662Y0060357D01*
X0566404Y0060315D01*
X0566145Y0060279D01*
X0565884Y0060249D01*
X0565624Y0060226D01*
X0565362Y0060209D01*
X0565101Y0060198D01*
X0564839Y0060194D01*
X0564577Y0060196D01*
X0564315Y0060205D01*
X0564054Y0060220D01*
X0563793Y0060241D01*
X0563532Y0060269D01*
X0563273Y0060303D01*
X0563014Y0060344D01*
X0562756Y0060391D01*
X0562500Y0060444D01*
X0562245Y0060503D01*
X0561992Y0060569D01*
X0561740Y0060641D01*
X0561490Y0060718D01*
X0561242Y0060802D01*
X0560996Y0060892D01*
X0560752Y0060988D01*
X0560511Y0061090D01*
X0560272Y0061198D01*
X0560036Y0061312D01*
X0559803Y0061431D01*
X0559573Y0061556D01*
X0559346Y0061687D01*
X0559122Y0061823D01*
X0558902Y0061964D01*
X0558685Y0062111D01*
X0558472Y0062263D01*
X0558263Y0062420D01*
X0558057Y0062583D01*
X0557856Y0062750D01*
X0557659Y0062922D01*
X0557466Y0063099D01*
X0557277Y0063281D01*
X0557093Y0063467D01*
X0556913Y0063658D01*
X0556739Y0063853D01*
X0556569Y0064052D01*
X0556404Y0064255D01*
X0556244Y0064463D01*
X0556089Y0064674D01*
X0555939Y0064888D01*
X0555795Y0065107D01*
X0555656Y0065329D01*
X0555522Y0065554D01*
X0555394Y0065782D01*
X0555272Y0066014D01*
X0555155Y0066248D01*
X0555044Y0066486D01*
X0554939Y0066725D01*
X0554840Y0066968D01*
X0554746Y0067212D01*
X0554659Y0067459D01*
X0554578Y0067708D01*
X0554650Y0067730D01*
X0554730Y0067483D01*
X0554817Y0067238D01*
X0554909Y0066995D01*
X0555008Y0066754D01*
X0555112Y0066516D01*
X0555222Y0066281D01*
X0555338Y0066048D01*
X0555460Y0065818D01*
X0555587Y0065591D01*
X0555720Y0065368D01*
X0555858Y0065147D01*
X0556001Y0064930D01*
X0556150Y0064717D01*
X0556304Y0064508D01*
X0556463Y0064302D01*
X0556626Y0064100D01*
X0556795Y0063902D01*
X0556969Y0063708D01*
X0557147Y0063519D01*
X0557330Y0063334D01*
X0557517Y0063154D01*
X0557709Y0062978D01*
X0557905Y0062807D01*
X0558105Y0062641D01*
X0558309Y0062480D01*
X0558517Y0062324D01*
X0558728Y0062173D01*
X0558944Y0062027D01*
X0559162Y0061886D01*
X0559384Y0061751D01*
X0559610Y0061621D01*
X0559838Y0061497D01*
X0560070Y0061379D01*
X0560304Y0061266D01*
X0560541Y0061159D01*
X0560781Y0061058D01*
X0561022Y0060963D01*
X0561267Y0060873D01*
X0561513Y0060790D01*
X0561761Y0060712D01*
X0562011Y0060641D01*
X0562263Y0060576D01*
X0562516Y0060517D01*
X0562771Y0060464D01*
X0563027Y0060418D01*
X0563283Y0060378D01*
X0563541Y0060344D01*
X0563800Y0060316D01*
X0564059Y0060295D01*
X0564319Y0060280D01*
X0564578Y0060271D01*
X0564838Y0060269D01*
X0565098Y0060273D01*
X0565358Y0060284D01*
X0565618Y0060300D01*
X0565877Y0060324D01*
X0566135Y0060353D01*
X0566393Y0060389D01*
X0566649Y0060431D01*
X0566905Y0060479D01*
X0567159Y0060534D01*
X0567412Y0060595D01*
X0567663Y0060662D01*
X0567912Y0060735D01*
X0568160Y0060814D01*
X0568406Y0060899D01*
X0568649Y0060990D01*
X0568891Y0061087D01*
X0569129Y0061190D01*
X0569365Y0061299D01*
X0569599Y0061413D01*
X0569830Y0061533D01*
X0570057Y0061659D01*
X0570282Y0061791D01*
X0570503Y0061927D01*
X0570720Y0062069D01*
X0570935Y0062217D01*
X0571145Y0062369D01*
X0571352Y0062527D01*
X0571306Y0062586D01*
X0571100Y0062429D01*
X0570891Y0062278D01*
X0570678Y0062131D01*
X0570462Y0061990D01*
X0570243Y0061855D01*
X0570020Y0061724D01*
X0569794Y0061599D01*
X0569565Y0061480D01*
X0569333Y0061366D01*
X0569099Y0061258D01*
X0568862Y0061156D01*
X0568622Y0061060D01*
X0568380Y0060969D01*
X0568136Y0060885D01*
X0567890Y0060806D01*
X0567643Y0060734D01*
X0567393Y0060667D01*
X0567142Y0060607D01*
X0566890Y0060553D01*
X0566636Y0060505D01*
X0566381Y0060463D01*
X0566125Y0060428D01*
X0565869Y0060398D01*
X0565612Y0060375D01*
X0565354Y0060359D01*
X0565096Y0060348D01*
X0564838Y0060344D01*
X0564580Y0060346D01*
X0564322Y0060355D01*
X0564064Y0060370D01*
X0563807Y0060391D01*
X0563550Y0060418D01*
X0563294Y0060452D01*
X0563039Y0060492D01*
X0562785Y0060538D01*
X0562532Y0060590D01*
X0562281Y0060649D01*
X0562031Y0060714D01*
X0561783Y0060784D01*
X0561536Y0060861D01*
X0561292Y0060944D01*
X0561049Y0061033D01*
X0560809Y0061127D01*
X0560571Y0061228D01*
X0560336Y0061334D01*
X0560103Y0061446D01*
X0559873Y0061564D01*
X0559646Y0061687D01*
X0559423Y0061816D01*
X0559202Y0061950D01*
X0558985Y0062089D01*
X0558771Y0062234D01*
X0558561Y0062384D01*
X0558355Y0062539D01*
X0558152Y0062699D01*
X0557953Y0062864D01*
X0557759Y0063034D01*
X0557569Y0063208D01*
X0557383Y0063388D01*
X0557201Y0063571D01*
X0557024Y0063759D01*
X0556852Y0063951D01*
X0556684Y0064148D01*
X0556521Y0064348D01*
X0556364Y0064552D01*
X0556211Y0064761D01*
X0556063Y0064972D01*
X0555921Y0065188D01*
X0555784Y0065407D01*
X0555652Y0065629D01*
X0555526Y0065854D01*
X0555405Y0066082D01*
X0555290Y0066313D01*
X0555181Y0066547D01*
X0555077Y0066783D01*
X0554979Y0067022D01*
X0554887Y0067264D01*
X0554801Y0067507D01*
X0554721Y0067752D01*
X0554793Y0067775D01*
X0554872Y0067531D01*
X0554958Y0067289D01*
X0555049Y0067050D01*
X0555146Y0066812D01*
X0555249Y0066578D01*
X0555358Y0066346D01*
X0555472Y0066116D01*
X0555592Y0065889D01*
X0555717Y0065666D01*
X0555848Y0065445D01*
X0555984Y0065228D01*
X0556125Y0065014D01*
X0556272Y0064804D01*
X0556424Y0064597D01*
X0556580Y0064395D01*
X0556742Y0064196D01*
X0556908Y0064001D01*
X0557079Y0063810D01*
X0557255Y0063623D01*
X0557435Y0063441D01*
X0557620Y0063263D01*
X0557809Y0063090D01*
X0558002Y0062921D01*
X0558199Y0062757D01*
X0558400Y0062599D01*
X0558605Y0062445D01*
X0558814Y0062296D01*
X0559026Y0062152D01*
X0559242Y0062013D01*
X0559461Y0061880D01*
X0559683Y0061752D01*
X0559908Y0061630D01*
X0560137Y0061513D01*
X0560368Y0061402D01*
X0560601Y0061296D01*
X0560837Y0061197D01*
X0561076Y0061103D01*
X0561316Y0061015D01*
X0561559Y0060932D01*
X0561804Y0060856D01*
X0562050Y0060786D01*
X0562299Y0060722D01*
X0562548Y0060664D01*
X0562799Y0060612D01*
X0563052Y0060566D01*
X0563305Y0060526D01*
X0563559Y0060493D01*
X0563814Y0060465D01*
X0564069Y0060444D01*
X0564325Y0060430D01*
X0564581Y0060421D01*
X0564838Y0060419D01*
X0565094Y0060423D01*
X0565350Y0060433D01*
X0565606Y0060450D01*
X0565861Y0060473D01*
X0566116Y0060502D01*
X0566370Y0060537D01*
X0566623Y0060579D01*
X0566875Y0060626D01*
X0567125Y0060680D01*
X0567375Y0060740D01*
X0567622Y0060806D01*
X0567868Y0060878D01*
X0568112Y0060956D01*
X0568355Y0061040D01*
X0568595Y0061130D01*
X0568832Y0061225D01*
X0569068Y0061327D01*
X0569301Y0061434D01*
X0569531Y0061547D01*
X0569758Y0061665D01*
X0569983Y0061789D01*
X0570204Y0061919D01*
X0570422Y0062054D01*
X0570637Y0062194D01*
X0570848Y0062339D01*
X0571055Y0062489D01*
X0571259Y0062645D01*
X0571213Y0062704D01*
X0571010Y0062549D01*
X0570804Y0062400D01*
X0570595Y0062256D01*
X0570381Y0062117D01*
X0570165Y0061983D01*
X0569945Y0061854D01*
X0569723Y0061731D01*
X0569497Y0061614D01*
X0569268Y0061502D01*
X0569037Y0061395D01*
X0568803Y0061295D01*
X0568567Y0061200D01*
X0568329Y0061110D01*
X0568089Y0061027D01*
X0567846Y0060950D01*
X0567602Y0060878D01*
X0567356Y0060813D01*
X0567108Y0060753D01*
X0566860Y0060700D01*
X0566610Y0060652D01*
X0566358Y0060611D01*
X0566106Y0060576D01*
X0565854Y0060547D01*
X0565600Y0060525D01*
X0565346Y0060508D01*
X0565092Y0060498D01*
X0564837Y0060494D01*
X0564583Y0060496D01*
X0564329Y0060505D01*
X0564074Y0060519D01*
X0563821Y0060540D01*
X0563568Y0060567D01*
X0563315Y0060600D01*
X0563064Y0060640D01*
X0562814Y0060685D01*
X0562564Y0060737D01*
X0562317Y0060795D01*
X0562070Y0060858D01*
X0561825Y0060928D01*
X0561582Y0061004D01*
X0561341Y0061085D01*
X0561102Y0061173D01*
X0560866Y0061266D01*
X0560631Y0061365D01*
X0560399Y0061470D01*
X0560170Y0061580D01*
X0559943Y0061696D01*
X0559720Y0061818D01*
X0559499Y0061945D01*
X0559282Y0062077D01*
X0559068Y0062214D01*
X0558857Y0062357D01*
X0558650Y0062505D01*
X0558446Y0062658D01*
X0558247Y0062816D01*
X0558051Y0062978D01*
X0557859Y0063146D01*
X0557672Y0063318D01*
X0557488Y0063494D01*
X0557309Y0063675D01*
X0557135Y0063860D01*
X0556965Y0064050D01*
X0556800Y0064243D01*
X0556639Y0064441D01*
X0556484Y0064642D01*
X0556333Y0064848D01*
X0556188Y0065056D01*
X0556047Y0065269D01*
X0555912Y0065484D01*
X0555782Y0065703D01*
X0555658Y0065925D01*
X0555539Y0066150D01*
X0555425Y0066378D01*
X0555318Y0066608D01*
X0555215Y0066842D01*
X0555119Y0067077D01*
X0555028Y0067315D01*
X0554943Y0067555D01*
X0554865Y0067797D01*
X0554936Y0067819D01*
X0555015Y0067579D01*
X0555099Y0067340D01*
X0555189Y0067104D01*
X0555285Y0066871D01*
X0555386Y0066639D01*
X0555493Y0066410D01*
X0555606Y0066184D01*
X0555724Y0065961D01*
X0555847Y0065740D01*
X0555976Y0065523D01*
X0556110Y0065309D01*
X0556250Y0065098D01*
X0556394Y0064891D01*
X0556544Y0064687D01*
X0556698Y0064487D01*
X0556857Y0064291D01*
X0557021Y0064099D01*
X0557190Y0063911D01*
X0557363Y0063727D01*
X0557541Y0063547D01*
X0557723Y0063372D01*
X0557909Y0063201D01*
X0558100Y0063035D01*
X0558294Y0062874D01*
X0558492Y0062717D01*
X0558694Y0062565D01*
X0558900Y0062419D01*
X0559109Y0062277D01*
X0559322Y0062140D01*
X0559537Y0062009D01*
X0559756Y0061883D01*
X0559978Y0061763D01*
X0560203Y0061647D01*
X0560431Y0061538D01*
X0560661Y0061434D01*
X0560894Y0061336D01*
X0561129Y0061243D01*
X0561366Y0061156D01*
X0561606Y0061075D01*
X0561847Y0061000D01*
X0562090Y0060931D01*
X0562334Y0060867D01*
X0562580Y0060810D01*
X0562828Y0060759D01*
X0563076Y0060714D01*
X0563326Y0060675D01*
X0563577Y0060642D01*
X0563828Y0060615D01*
X0564080Y0060594D01*
X0564332Y0060580D01*
X0564584Y0060571D01*
X0564837Y0060569D01*
X0565090Y0060573D01*
X0565342Y0060583D01*
X0565594Y0060600D01*
X0565846Y0060622D01*
X0566097Y0060651D01*
X0566347Y0060685D01*
X0566596Y0060726D01*
X0566845Y0060773D01*
X0567092Y0060826D01*
X0567337Y0060885D01*
X0567582Y0060950D01*
X0567824Y0061021D01*
X0568065Y0061098D01*
X0568303Y0061181D01*
X0568540Y0061269D01*
X0568774Y0061364D01*
X0569006Y0061464D01*
X0569236Y0061569D01*
X0569463Y0061681D01*
X0569687Y0061797D01*
X0569908Y0061920D01*
X0570126Y0062047D01*
X0570341Y0062180D01*
X0570553Y0062318D01*
X0570761Y0062461D01*
X0570965Y0062609D01*
X0571166Y0062763D01*
X0571120Y0062821D01*
X0570920Y0062669D01*
X0570717Y0062522D01*
X0570511Y0062380D01*
X0570301Y0062243D01*
X0570087Y0062111D01*
X0569871Y0061985D01*
X0569651Y0061863D01*
X0569429Y0061747D01*
X0569204Y0061637D01*
X0568976Y0061532D01*
X0568745Y0061433D01*
X0568513Y0061339D01*
X0568278Y0061251D01*
X0568041Y0061169D01*
X0567802Y0061093D01*
X0567561Y0061023D01*
X0567319Y0060958D01*
X0567075Y0060899D01*
X0566830Y0060847D01*
X0566583Y0060800D01*
X0566336Y0060760D01*
X0566087Y0060725D01*
X0565838Y0060697D01*
X0565588Y0060674D01*
X0565338Y0060658D01*
X0565087Y0060648D01*
X0564837Y0060644D01*
X0564586Y0060646D01*
X0564335Y0060655D01*
X0564085Y0060669D01*
X0563835Y0060690D01*
X0563585Y0060716D01*
X0563337Y0060749D01*
X0563089Y0060788D01*
X0562842Y0060833D01*
X0562597Y0060883D01*
X0562352Y0060940D01*
X0562109Y0061003D01*
X0561868Y0061072D01*
X0561629Y0061146D01*
X0561391Y0061227D01*
X0561156Y0061313D01*
X0560922Y0061405D01*
X0560691Y0061503D01*
X0560463Y0061606D01*
X0560237Y0061715D01*
X0560013Y0061829D01*
X0559793Y0061949D01*
X0559576Y0062074D01*
X0559361Y0062204D01*
X0559150Y0062340D01*
X0558943Y0062480D01*
X0558739Y0062626D01*
X0558538Y0062777D01*
X0558341Y0062932D01*
X0558148Y0063092D01*
X0557959Y0063257D01*
X0557774Y0063427D01*
X0557594Y0063601D01*
X0557417Y0063779D01*
X0557245Y0063962D01*
X0557078Y0064148D01*
X0556915Y0064339D01*
X0556757Y0064534D01*
X0556604Y0064732D01*
X0556455Y0064935D01*
X0556312Y0065140D01*
X0556174Y0065349D01*
X0556040Y0065562D01*
X0555912Y0065778D01*
X0555790Y0065996D01*
X0555673Y0066218D01*
X0555561Y0066443D01*
X0555454Y0066670D01*
X0555354Y0066900D01*
X0555259Y0067132D01*
X0555169Y0067366D01*
X0555086Y0067603D01*
X0555008Y0067841D01*
X0555080Y0067863D01*
X0555157Y0067626D01*
X0555240Y0067392D01*
X0555329Y0067159D01*
X0555423Y0066929D01*
X0555523Y0066701D01*
X0555628Y0066475D01*
X0555739Y0066252D01*
X0555856Y0066032D01*
X0555978Y0065815D01*
X0556105Y0065601D01*
X0556237Y0065390D01*
X0556374Y0065182D01*
X0556516Y0064978D01*
X0556664Y0064777D01*
X0556816Y0064580D01*
X0556973Y0064387D01*
X0557135Y0064198D01*
X0557301Y0064012D01*
X0557471Y0063831D01*
X0557647Y0063654D01*
X0557826Y0063481D01*
X0558009Y0063313D01*
X0558197Y0063149D01*
X0558389Y0062990D01*
X0558584Y0062836D01*
X0558783Y0062686D01*
X0558986Y0062542D01*
X0559192Y0062402D01*
X0559401Y0062268D01*
X0559614Y0062138D01*
X0559830Y0062014D01*
X0560049Y0061895D01*
X0560270Y0061782D01*
X0560494Y0061674D01*
X0560721Y0061571D01*
X0560951Y0061474D01*
X0561182Y0061383D01*
X0561416Y0061298D01*
X0561652Y0061218D01*
X0561890Y0061144D01*
X0562129Y0061075D01*
X0562370Y0061013D01*
X0562613Y0060957D01*
X0562856Y0060906D01*
X0563101Y0060862D01*
X0563347Y0060823D01*
X0563594Y0060791D01*
X0563842Y0060764D01*
X0564090Y0060744D01*
X0564338Y0060729D01*
X0564587Y0060721D01*
X0564836Y0060719D01*
X0565085Y0060723D01*
X0565334Y0060733D01*
X0565582Y0060749D01*
X0565830Y0060771D01*
X0566078Y0060799D01*
X0566324Y0060834D01*
X0566570Y0060874D01*
X0566815Y0060920D01*
X0567058Y0060972D01*
X0567300Y0061031D01*
X0567541Y0061095D01*
X0567780Y0061165D01*
X0568017Y0061240D01*
X0568252Y0061322D01*
X0568485Y0061409D01*
X0568716Y0061502D01*
X0568945Y0061601D01*
X0569171Y0061705D01*
X0569395Y0061814D01*
X0569615Y0061929D01*
X0569833Y0062050D01*
X0570048Y0062175D01*
X0570260Y0062306D01*
X0570469Y0062442D01*
X0570674Y0062583D01*
X0570875Y0062729D01*
X0571073Y0062880D01*
X0571491Y0079457D02*
X0571045Y0078892D01*
X0571046Y0078892D02*
X0570849Y0079042D01*
X0570648Y0079188D01*
X0570444Y0079328D01*
X0570236Y0079464D01*
X0570025Y0079594D01*
X0569811Y0079719D01*
X0569594Y0079839D01*
X0569374Y0079954D01*
X0569152Y0080063D01*
X0568927Y0080166D01*
X0568699Y0080264D01*
X0568469Y0080357D01*
X0568237Y0080444D01*
X0568003Y0080525D01*
X0567767Y0080600D01*
X0567529Y0080670D01*
X0567289Y0080734D01*
X0567048Y0080792D01*
X0566806Y0080844D01*
X0566562Y0080890D01*
X0566318Y0080930D01*
X0566072Y0080964D01*
X0565826Y0080992D01*
X0565579Y0081014D01*
X0565332Y0081030D01*
X0565084Y0081040D01*
X0564836Y0081044D01*
X0564588Y0081042D01*
X0564341Y0081034D01*
X0564093Y0081019D01*
X0563846Y0080999D01*
X0563600Y0080973D01*
X0563354Y0080940D01*
X0563109Y0080902D01*
X0562865Y0080858D01*
X0562622Y0080807D01*
X0562381Y0080751D01*
X0562141Y0080689D01*
X0561903Y0080621D01*
X0561666Y0080548D01*
X0561431Y0080468D01*
X0561198Y0080383D01*
X0560968Y0080292D01*
X0560740Y0080196D01*
X0560514Y0080093D01*
X0560290Y0079986D01*
X0560070Y0079873D01*
X0559852Y0079755D01*
X0559637Y0079631D01*
X0559425Y0079502D01*
X0559217Y0079368D01*
X0559011Y0079229D01*
X0558810Y0079085D01*
X0558612Y0078937D01*
X0558417Y0078783D01*
X0558226Y0078625D01*
X0558040Y0078462D01*
X0557857Y0078294D01*
X0557678Y0078122D01*
X0557504Y0077946D01*
X0557334Y0077765D01*
X0557169Y0077581D01*
X0557008Y0077392D01*
X0556851Y0077200D01*
X0556700Y0077004D01*
X0556553Y0076804D01*
X0556411Y0076601D01*
X0556275Y0076394D01*
X0556143Y0076184D01*
X0556017Y0075971D01*
X0555895Y0075755D01*
X0555780Y0075535D01*
X0555669Y0075314D01*
X0555564Y0075089D01*
X0555464Y0074862D01*
X0555370Y0074633D01*
X0555282Y0074401D01*
X0555199Y0074167D01*
X0555123Y0073932D01*
X0554435Y0074144D01*
X0554517Y0074397D01*
X0554605Y0074647D01*
X0554700Y0074895D01*
X0554801Y0075141D01*
X0554907Y0075384D01*
X0555020Y0075625D01*
X0555138Y0075862D01*
X0555262Y0076097D01*
X0555392Y0076329D01*
X0555527Y0076557D01*
X0555668Y0076782D01*
X0555815Y0077004D01*
X0555967Y0077221D01*
X0556124Y0077435D01*
X0556286Y0077646D01*
X0556453Y0077852D01*
X0556626Y0078054D01*
X0556803Y0078252D01*
X0556985Y0078445D01*
X0557172Y0078634D01*
X0557363Y0078818D01*
X0557559Y0078997D01*
X0557759Y0079172D01*
X0557963Y0079342D01*
X0558171Y0079506D01*
X0558384Y0079666D01*
X0558600Y0079820D01*
X0558820Y0079969D01*
X0559043Y0080112D01*
X0559270Y0080250D01*
X0559500Y0080383D01*
X0559733Y0080510D01*
X0559970Y0080631D01*
X0560209Y0080746D01*
X0560451Y0080855D01*
X0560696Y0080959D01*
X0560943Y0081056D01*
X0561192Y0081147D01*
X0561443Y0081232D01*
X0561697Y0081311D01*
X0561952Y0081384D01*
X0562209Y0081450D01*
X0562468Y0081511D01*
X0562728Y0081565D01*
X0562989Y0081612D01*
X0563252Y0081653D01*
X0563515Y0081688D01*
X0563779Y0081716D01*
X0564044Y0081738D01*
X0564309Y0081753D01*
X0564574Y0081762D01*
X0564840Y0081764D01*
X0565105Y0081760D01*
X0565371Y0081749D01*
X0565635Y0081732D01*
X0565900Y0081708D01*
X0566164Y0081678D01*
X0566427Y0081641D01*
X0566689Y0081598D01*
X0566950Y0081549D01*
X0567209Y0081493D01*
X0567468Y0081431D01*
X0567724Y0081363D01*
X0567979Y0081288D01*
X0568232Y0081207D01*
X0568483Y0081120D01*
X0568731Y0081027D01*
X0568978Y0080928D01*
X0569222Y0080823D01*
X0569463Y0080712D01*
X0569701Y0080595D01*
X0569937Y0080472D01*
X0570169Y0080344D01*
X0570398Y0080210D01*
X0570624Y0080070D01*
X0570847Y0079925D01*
X0571065Y0079774D01*
X0571280Y0079619D01*
X0571491Y0079458D01*
X0571445Y0079399D01*
X0571235Y0079559D01*
X0571022Y0079713D01*
X0570805Y0079863D01*
X0570584Y0080007D01*
X0570359Y0080146D01*
X0570132Y0080279D01*
X0569901Y0080406D01*
X0569667Y0080528D01*
X0569430Y0080644D01*
X0569191Y0080755D01*
X0568949Y0080859D01*
X0568704Y0080958D01*
X0568457Y0081050D01*
X0568208Y0081136D01*
X0567957Y0081217D01*
X0567704Y0081291D01*
X0567449Y0081359D01*
X0567193Y0081420D01*
X0566935Y0081476D01*
X0566676Y0081525D01*
X0566415Y0081567D01*
X0566154Y0081604D01*
X0565892Y0081634D01*
X0565630Y0081657D01*
X0565366Y0081674D01*
X0565103Y0081685D01*
X0564839Y0081689D01*
X0564576Y0081687D01*
X0564312Y0081678D01*
X0564049Y0081663D01*
X0563786Y0081641D01*
X0563524Y0081613D01*
X0563262Y0081579D01*
X0563002Y0081538D01*
X0562742Y0081491D01*
X0562484Y0081437D01*
X0562227Y0081378D01*
X0561972Y0081312D01*
X0561718Y0081239D01*
X0561467Y0081161D01*
X0561217Y0081076D01*
X0560969Y0080986D01*
X0560724Y0080889D01*
X0560481Y0080786D01*
X0560241Y0080678D01*
X0560003Y0080563D01*
X0559768Y0080443D01*
X0559537Y0080317D01*
X0559308Y0080186D01*
X0559083Y0080049D01*
X0558861Y0079906D01*
X0558643Y0079759D01*
X0558428Y0079605D01*
X0558217Y0079447D01*
X0558010Y0079283D01*
X0557807Y0079115D01*
X0557609Y0078942D01*
X0557414Y0078763D01*
X0557224Y0078580D01*
X0557039Y0078393D01*
X0556858Y0078201D01*
X0556682Y0078005D01*
X0556511Y0077804D01*
X0556345Y0077599D01*
X0556184Y0077391D01*
X0556028Y0077178D01*
X0555877Y0076962D01*
X0555731Y0076742D01*
X0555591Y0076518D01*
X0555457Y0076291D01*
X0555328Y0076061D01*
X0555205Y0075828D01*
X0555087Y0075592D01*
X0554976Y0075353D01*
X0554870Y0075112D01*
X0554770Y0074868D01*
X0554676Y0074621D01*
X0554588Y0074373D01*
X0554506Y0074122D01*
X0554578Y0074100D01*
X0554659Y0074349D01*
X0554746Y0074596D01*
X0554840Y0074840D01*
X0554939Y0075083D01*
X0555044Y0075323D01*
X0555155Y0075560D01*
X0555272Y0075794D01*
X0555394Y0076026D01*
X0555522Y0076254D01*
X0555656Y0076479D01*
X0555795Y0076701D01*
X0555939Y0076920D01*
X0556089Y0077134D01*
X0556244Y0077346D01*
X0556404Y0077553D01*
X0556569Y0077756D01*
X0556739Y0077955D01*
X0556914Y0078150D01*
X0557093Y0078341D01*
X0557277Y0078527D01*
X0557466Y0078709D01*
X0557659Y0078886D01*
X0557856Y0079058D01*
X0558058Y0079225D01*
X0558263Y0079388D01*
X0558472Y0079545D01*
X0558685Y0079697D01*
X0558902Y0079844D01*
X0559123Y0079985D01*
X0559346Y0080121D01*
X0559573Y0080252D01*
X0559803Y0080377D01*
X0560036Y0080496D01*
X0560272Y0080610D01*
X0560511Y0080718D01*
X0560752Y0080820D01*
X0560996Y0080916D01*
X0561242Y0081006D01*
X0561490Y0081090D01*
X0561740Y0081168D01*
X0561992Y0081239D01*
X0562245Y0081305D01*
X0562500Y0081364D01*
X0562757Y0081417D01*
X0563014Y0081464D01*
X0563273Y0081505D01*
X0563533Y0081539D01*
X0563793Y0081567D01*
X0564054Y0081588D01*
X0564315Y0081603D01*
X0564577Y0081612D01*
X0564839Y0081614D01*
X0565101Y0081610D01*
X0565362Y0081599D01*
X0565624Y0081582D01*
X0565885Y0081559D01*
X0566145Y0081529D01*
X0566404Y0081493D01*
X0566662Y0081451D01*
X0566920Y0081402D01*
X0567176Y0081347D01*
X0567430Y0081286D01*
X0567683Y0081219D01*
X0567935Y0081145D01*
X0568184Y0081065D01*
X0568432Y0080979D01*
X0568677Y0080888D01*
X0568920Y0080790D01*
X0569160Y0080686D01*
X0569398Y0080577D01*
X0569633Y0080461D01*
X0569865Y0080340D01*
X0570095Y0080214D01*
X0570321Y0080082D01*
X0570543Y0079944D01*
X0570763Y0079801D01*
X0570978Y0079652D01*
X0571190Y0079499D01*
X0571399Y0079340D01*
X0571352Y0079281D01*
X0571145Y0079439D01*
X0570935Y0079591D01*
X0570721Y0079739D01*
X0570503Y0079881D01*
X0570282Y0080017D01*
X0570057Y0080149D01*
X0569830Y0080274D01*
X0569599Y0080395D01*
X0569366Y0080509D01*
X0569129Y0080618D01*
X0568891Y0080721D01*
X0568650Y0080818D01*
X0568406Y0080909D01*
X0568160Y0080994D01*
X0567913Y0081073D01*
X0567663Y0081146D01*
X0567412Y0081213D01*
X0567159Y0081274D01*
X0566905Y0081329D01*
X0566649Y0081377D01*
X0566393Y0081419D01*
X0566135Y0081455D01*
X0565877Y0081484D01*
X0565618Y0081508D01*
X0565358Y0081524D01*
X0565099Y0081535D01*
X0564839Y0081539D01*
X0564579Y0081537D01*
X0564319Y0081528D01*
X0564059Y0081513D01*
X0563800Y0081492D01*
X0563541Y0081464D01*
X0563284Y0081430D01*
X0563027Y0081390D01*
X0562771Y0081344D01*
X0562516Y0081291D01*
X0562263Y0081232D01*
X0562011Y0081167D01*
X0561761Y0081096D01*
X0561513Y0081018D01*
X0561267Y0080935D01*
X0561023Y0080846D01*
X0560781Y0080750D01*
X0560541Y0080649D01*
X0560304Y0080542D01*
X0560070Y0080429D01*
X0559838Y0080311D01*
X0559610Y0080187D01*
X0559385Y0080057D01*
X0559162Y0079922D01*
X0558944Y0079781D01*
X0558728Y0079635D01*
X0558517Y0079484D01*
X0558309Y0079328D01*
X0558105Y0079167D01*
X0557905Y0079001D01*
X0557709Y0078830D01*
X0557517Y0078654D01*
X0557330Y0078474D01*
X0557147Y0078289D01*
X0556969Y0078100D01*
X0556795Y0077906D01*
X0556627Y0077708D01*
X0556463Y0077506D01*
X0556304Y0077301D01*
X0556150Y0077091D01*
X0556001Y0076878D01*
X0555858Y0076661D01*
X0555720Y0076440D01*
X0555587Y0076217D01*
X0555460Y0075990D01*
X0555338Y0075760D01*
X0555223Y0075527D01*
X0555112Y0075292D01*
X0555008Y0075054D01*
X0554909Y0074813D01*
X0554817Y0074570D01*
X0554730Y0074325D01*
X0554650Y0074078D01*
X0554721Y0074056D01*
X0554801Y0074301D01*
X0554887Y0074544D01*
X0554979Y0074786D01*
X0555077Y0075025D01*
X0555181Y0075261D01*
X0555290Y0075495D01*
X0555405Y0075726D01*
X0555526Y0075954D01*
X0555652Y0076180D01*
X0555784Y0076402D01*
X0555921Y0076620D01*
X0556063Y0076836D01*
X0556211Y0077047D01*
X0556364Y0077256D01*
X0556522Y0077460D01*
X0556684Y0077660D01*
X0556852Y0077857D01*
X0557024Y0078049D01*
X0557201Y0078237D01*
X0557383Y0078421D01*
X0557569Y0078600D01*
X0557759Y0078774D01*
X0557954Y0078944D01*
X0558152Y0079109D01*
X0558355Y0079269D01*
X0558561Y0079424D01*
X0558771Y0079574D01*
X0558985Y0079719D01*
X0559202Y0079858D01*
X0559423Y0079992D01*
X0559647Y0080121D01*
X0559873Y0080244D01*
X0560103Y0080362D01*
X0560336Y0080474D01*
X0560571Y0080580D01*
X0560809Y0080681D01*
X0561049Y0080775D01*
X0561292Y0080864D01*
X0561536Y0080947D01*
X0561783Y0081024D01*
X0562031Y0081094D01*
X0562281Y0081159D01*
X0562532Y0081218D01*
X0562785Y0081270D01*
X0563039Y0081316D01*
X0563294Y0081356D01*
X0563550Y0081390D01*
X0563807Y0081417D01*
X0564064Y0081438D01*
X0564322Y0081453D01*
X0564580Y0081462D01*
X0564838Y0081464D01*
X0565096Y0081460D01*
X0565354Y0081449D01*
X0565612Y0081433D01*
X0565869Y0081410D01*
X0566126Y0081380D01*
X0566381Y0081345D01*
X0566636Y0081303D01*
X0566890Y0081255D01*
X0567142Y0081201D01*
X0567393Y0081141D01*
X0567643Y0081074D01*
X0567891Y0081002D01*
X0568136Y0080923D01*
X0568380Y0080839D01*
X0568622Y0080748D01*
X0568862Y0080652D01*
X0569099Y0080549D01*
X0569333Y0080441D01*
X0569565Y0080328D01*
X0569794Y0080208D01*
X0570020Y0080084D01*
X0570243Y0079953D01*
X0570462Y0079817D01*
X0570679Y0079676D01*
X0570891Y0079530D01*
X0571100Y0079379D01*
X0571306Y0079222D01*
X0571259Y0079163D01*
X0571055Y0079319D01*
X0570848Y0079469D01*
X0570637Y0079614D01*
X0570422Y0079754D01*
X0570204Y0079889D01*
X0569983Y0080019D01*
X0569758Y0080142D01*
X0569531Y0080261D01*
X0569301Y0080374D01*
X0569068Y0080481D01*
X0568833Y0080582D01*
X0568595Y0080678D01*
X0568355Y0080768D01*
X0568113Y0080852D01*
X0567868Y0080930D01*
X0567622Y0081002D01*
X0567375Y0081068D01*
X0567125Y0081128D01*
X0566875Y0081182D01*
X0566623Y0081229D01*
X0566370Y0081271D01*
X0566116Y0081306D01*
X0565861Y0081335D01*
X0565606Y0081358D01*
X0565350Y0081375D01*
X0565094Y0081385D01*
X0564838Y0081389D01*
X0564582Y0081387D01*
X0564325Y0081378D01*
X0564069Y0081364D01*
X0563814Y0081343D01*
X0563559Y0081315D01*
X0563305Y0081282D01*
X0563052Y0081242D01*
X0562799Y0081196D01*
X0562548Y0081144D01*
X0562299Y0081086D01*
X0562051Y0081022D01*
X0561804Y0080952D01*
X0561559Y0080876D01*
X0561317Y0080793D01*
X0561076Y0080705D01*
X0560837Y0080611D01*
X0560601Y0080512D01*
X0560368Y0080406D01*
X0560137Y0080295D01*
X0559909Y0080178D01*
X0559683Y0080056D01*
X0559461Y0079928D01*
X0559242Y0079795D01*
X0559026Y0079656D01*
X0558814Y0079512D01*
X0558605Y0079364D01*
X0558401Y0079210D01*
X0558199Y0079051D01*
X0558002Y0078887D01*
X0557809Y0078718D01*
X0557620Y0078545D01*
X0557436Y0078367D01*
X0557255Y0078185D01*
X0557080Y0077998D01*
X0556908Y0077808D01*
X0556742Y0077613D01*
X0556580Y0077414D01*
X0556424Y0077211D01*
X0556272Y0077004D01*
X0556126Y0076794D01*
X0555984Y0076580D01*
X0555848Y0076363D01*
X0555717Y0076142D01*
X0555592Y0075919D01*
X0555472Y0075692D01*
X0555358Y0075463D01*
X0555249Y0075230D01*
X0555146Y0074996D01*
X0555049Y0074758D01*
X0554958Y0074519D01*
X0554872Y0074277D01*
X0554793Y0074033D01*
X0554865Y0074011D01*
X0554944Y0074253D01*
X0555028Y0074493D01*
X0555119Y0074731D01*
X0555215Y0074967D01*
X0555318Y0075200D01*
X0555425Y0075430D01*
X0555539Y0075658D01*
X0555658Y0075883D01*
X0555782Y0076105D01*
X0555912Y0076324D01*
X0556047Y0076539D01*
X0556188Y0076752D01*
X0556333Y0076961D01*
X0556484Y0077166D01*
X0556639Y0077367D01*
X0556800Y0077565D01*
X0556965Y0077758D01*
X0557135Y0077948D01*
X0557309Y0078133D01*
X0557488Y0078314D01*
X0557672Y0078490D01*
X0557859Y0078662D01*
X0558051Y0078830D01*
X0558247Y0078992D01*
X0558446Y0079150D01*
X0558650Y0079303D01*
X0558857Y0079451D01*
X0559068Y0079594D01*
X0559282Y0079731D01*
X0559499Y0079863D01*
X0559720Y0079990D01*
X0559944Y0080112D01*
X0560170Y0080228D01*
X0560399Y0080338D01*
X0560631Y0080443D01*
X0560866Y0080542D01*
X0561103Y0080635D01*
X0561342Y0080723D01*
X0561583Y0080804D01*
X0561826Y0080880D01*
X0562070Y0080950D01*
X0562317Y0081013D01*
X0562565Y0081071D01*
X0562814Y0081123D01*
X0563064Y0081168D01*
X0563316Y0081208D01*
X0563568Y0081241D01*
X0563821Y0081268D01*
X0564075Y0081289D01*
X0564329Y0081303D01*
X0564583Y0081312D01*
X0564838Y0081314D01*
X0565092Y0081310D01*
X0565346Y0081300D01*
X0565600Y0081283D01*
X0565854Y0081261D01*
X0566107Y0081232D01*
X0566359Y0081197D01*
X0566610Y0081155D01*
X0566860Y0081108D01*
X0567109Y0081055D01*
X0567356Y0080995D01*
X0567602Y0080930D01*
X0567846Y0080858D01*
X0568089Y0080781D01*
X0568329Y0080698D01*
X0568568Y0080608D01*
X0568804Y0080513D01*
X0569037Y0080413D01*
X0569268Y0080306D01*
X0569497Y0080194D01*
X0569723Y0080077D01*
X0569945Y0079953D01*
X0570165Y0079825D01*
X0570382Y0079691D01*
X0570595Y0079552D01*
X0570804Y0079408D01*
X0571010Y0079259D01*
X0571213Y0079104D01*
X0571166Y0079045D01*
X0570966Y0079198D01*
X0570761Y0079347D01*
X0570553Y0079490D01*
X0570341Y0079628D01*
X0570126Y0079761D01*
X0569908Y0079888D01*
X0569687Y0080011D01*
X0569463Y0080127D01*
X0569236Y0080239D01*
X0569007Y0080344D01*
X0568775Y0080444D01*
X0568540Y0080538D01*
X0568304Y0080627D01*
X0568065Y0080710D01*
X0567824Y0080787D01*
X0567582Y0080858D01*
X0567338Y0080923D01*
X0567092Y0080982D01*
X0566845Y0081035D01*
X0566597Y0081082D01*
X0566347Y0081123D01*
X0566097Y0081157D01*
X0565846Y0081186D01*
X0565594Y0081208D01*
X0565342Y0081225D01*
X0565090Y0081235D01*
X0564837Y0081239D01*
X0564585Y0081237D01*
X0564332Y0081228D01*
X0564080Y0081214D01*
X0563828Y0081193D01*
X0563577Y0081166D01*
X0563326Y0081133D01*
X0563077Y0081094D01*
X0562828Y0081049D01*
X0562581Y0080998D01*
X0562335Y0080941D01*
X0562090Y0080877D01*
X0561847Y0080808D01*
X0561606Y0080733D01*
X0561366Y0080652D01*
X0561129Y0080565D01*
X0560894Y0080473D01*
X0560661Y0080374D01*
X0560431Y0080270D01*
X0560203Y0080161D01*
X0559979Y0080045D01*
X0559757Y0079925D01*
X0559538Y0079799D01*
X0559322Y0079668D01*
X0559109Y0079531D01*
X0558900Y0079389D01*
X0558694Y0079243D01*
X0558492Y0079091D01*
X0558294Y0078934D01*
X0558100Y0078773D01*
X0557909Y0078607D01*
X0557723Y0078436D01*
X0557541Y0078261D01*
X0557363Y0078081D01*
X0557190Y0077897D01*
X0557022Y0077709D01*
X0556858Y0077517D01*
X0556698Y0077321D01*
X0556544Y0077121D01*
X0556394Y0076917D01*
X0556250Y0076710D01*
X0556110Y0076499D01*
X0555976Y0076285D01*
X0555847Y0076068D01*
X0555724Y0075847D01*
X0555606Y0075624D01*
X0555493Y0075398D01*
X0555386Y0075169D01*
X0555285Y0074938D01*
X0555189Y0074704D01*
X0555099Y0074468D01*
X0555015Y0074229D01*
X0554936Y0073989D01*
X0555008Y0073967D01*
X0555086Y0074206D01*
X0555169Y0074442D01*
X0555259Y0074676D01*
X0555354Y0074909D01*
X0555454Y0075138D01*
X0555561Y0075365D01*
X0555673Y0075590D01*
X0555790Y0075812D01*
X0555912Y0076030D01*
X0556040Y0076246D01*
X0556174Y0076459D01*
X0556312Y0076668D01*
X0556455Y0076874D01*
X0556604Y0077076D01*
X0556757Y0077274D01*
X0556915Y0077469D01*
X0557078Y0077660D01*
X0557246Y0077846D01*
X0557418Y0078029D01*
X0557594Y0078207D01*
X0557775Y0078381D01*
X0557959Y0078551D01*
X0558148Y0078716D01*
X0558341Y0078876D01*
X0558538Y0079032D01*
X0558739Y0079182D01*
X0558943Y0079328D01*
X0559150Y0079468D01*
X0559362Y0079604D01*
X0559576Y0079734D01*
X0559793Y0079859D01*
X0560014Y0079979D01*
X0560237Y0080093D01*
X0560463Y0080202D01*
X0560691Y0080305D01*
X0560922Y0080403D01*
X0561156Y0080495D01*
X0561391Y0080581D01*
X0561629Y0080662D01*
X0561868Y0080736D01*
X0562110Y0080805D01*
X0562352Y0080868D01*
X0562597Y0080925D01*
X0562842Y0080975D01*
X0563089Y0081020D01*
X0563337Y0081059D01*
X0563586Y0081092D01*
X0563835Y0081119D01*
X0564085Y0081139D01*
X0564335Y0081153D01*
X0564586Y0081162D01*
X0564837Y0081164D01*
X0565088Y0081160D01*
X0565338Y0081150D01*
X0565588Y0081134D01*
X0565838Y0081111D01*
X0566087Y0081083D01*
X0566336Y0081048D01*
X0566583Y0081008D01*
X0566830Y0080961D01*
X0567075Y0080909D01*
X0567319Y0080850D01*
X0567561Y0080785D01*
X0567802Y0080715D01*
X0568041Y0080639D01*
X0568278Y0080557D01*
X0568513Y0080469D01*
X0568746Y0080375D01*
X0568976Y0080276D01*
X0569204Y0080171D01*
X0569429Y0080060D01*
X0569651Y0079945D01*
X0569871Y0079823D01*
X0570087Y0079697D01*
X0570301Y0079565D01*
X0570511Y0079428D01*
X0570717Y0079286D01*
X0570921Y0079138D01*
X0571120Y0078986D01*
X0571074Y0078927D01*
X0570876Y0079078D01*
X0570674Y0079225D01*
X0570469Y0079366D01*
X0570260Y0079502D01*
X0570049Y0079633D01*
X0569834Y0079758D01*
X0569616Y0079879D01*
X0569395Y0079994D01*
X0569171Y0080103D01*
X0568945Y0080207D01*
X0568717Y0080306D01*
X0568486Y0080399D01*
X0568252Y0080486D01*
X0568017Y0080568D01*
X0567780Y0080643D01*
X0567541Y0080713D01*
X0567300Y0080777D01*
X0567058Y0080835D01*
X0566815Y0080888D01*
X0566570Y0080934D01*
X0566325Y0080974D01*
X0566078Y0081009D01*
X0565831Y0081037D01*
X0565583Y0081059D01*
X0565334Y0081075D01*
X0565085Y0081085D01*
X0564836Y0081089D01*
X0564587Y0081087D01*
X0564339Y0081079D01*
X0564090Y0081064D01*
X0563842Y0081044D01*
X0563594Y0081017D01*
X0563348Y0080985D01*
X0563102Y0080946D01*
X0562857Y0080902D01*
X0562613Y0080851D01*
X0562370Y0080795D01*
X0562129Y0080733D01*
X0561890Y0080664D01*
X0561652Y0080590D01*
X0561416Y0080510D01*
X0561182Y0080425D01*
X0560951Y0080334D01*
X0560722Y0080237D01*
X0560495Y0080134D01*
X0560270Y0080026D01*
X0560049Y0079913D01*
X0559830Y0079794D01*
X0559614Y0079670D01*
X0559401Y0079540D01*
X0559192Y0079406D01*
X0558986Y0079266D01*
X0558783Y0079122D01*
X0558584Y0078972D01*
X0558389Y0078818D01*
X0558197Y0078659D01*
X0558010Y0078495D01*
X0557826Y0078327D01*
X0557647Y0078154D01*
X0557472Y0077977D01*
X0557301Y0077796D01*
X0557135Y0077610D01*
X0556973Y0077421D01*
X0556816Y0077228D01*
X0556664Y0077031D01*
X0556517Y0076830D01*
X0556374Y0076626D01*
X0556237Y0076418D01*
X0556105Y0076207D01*
X0555978Y0075993D01*
X0555856Y0075776D01*
X0555739Y0075556D01*
X0555628Y0075333D01*
X0555523Y0075108D01*
X0555423Y0074879D01*
X0555329Y0074649D01*
X0555240Y0074416D01*
X0555157Y0074182D01*
X0555080Y0073945D01*
D24*
X0555799Y0083504D02*
X0556966Y0083504D01*
X0557200Y0083737D01*
X0557200Y0084205D01*
X0556966Y0084438D01*
X0555799Y0084438D01*
X0556266Y0084977D02*
X0555799Y0085444D01*
X0557200Y0085444D01*
X0557200Y0084977D02*
X0557200Y0085911D01*
M02*
