G75*
%MOIN*%
%OFA0B0*%
%FSLAX25Y25*%
%IPPOS*%
%LPD*%
%AMOC8*
5,1,8,0,0,1.08239X$1,22.5*
%
%ADD10C,0.00000*%
D10*
X0011643Y0027404D02*
X0562824Y0027404D01*
X0562824Y0027403D02*
X0563062Y0027406D01*
X0563300Y0027414D01*
X0563537Y0027429D01*
X0563774Y0027449D01*
X0564010Y0027475D01*
X0564246Y0027506D01*
X0564481Y0027543D01*
X0564715Y0027586D01*
X0564948Y0027635D01*
X0565180Y0027689D01*
X0565410Y0027749D01*
X0565639Y0027814D01*
X0565866Y0027885D01*
X0566091Y0027961D01*
X0566314Y0028043D01*
X0566536Y0028130D01*
X0566755Y0028222D01*
X0566972Y0028320D01*
X0567186Y0028422D01*
X0567398Y0028530D01*
X0567608Y0028644D01*
X0567814Y0028762D01*
X0568018Y0028885D01*
X0568218Y0029013D01*
X0568415Y0029145D01*
X0568610Y0029283D01*
X0568800Y0029425D01*
X0568988Y0029572D01*
X0569171Y0029723D01*
X0569351Y0029878D01*
X0569527Y0030038D01*
X0569699Y0030202D01*
X0569868Y0030371D01*
X0570032Y0030543D01*
X0570192Y0030719D01*
X0570347Y0030899D01*
X0570498Y0031082D01*
X0570645Y0031270D01*
X0570787Y0031460D01*
X0570925Y0031655D01*
X0571057Y0031852D01*
X0571185Y0032052D01*
X0571308Y0032256D01*
X0571426Y0032462D01*
X0571540Y0032672D01*
X0571648Y0032884D01*
X0571750Y0033098D01*
X0571848Y0033315D01*
X0571940Y0033534D01*
X0572027Y0033756D01*
X0572109Y0033979D01*
X0572185Y0034204D01*
X0572256Y0034431D01*
X0572321Y0034660D01*
X0572381Y0034890D01*
X0572435Y0035122D01*
X0572484Y0035355D01*
X0572527Y0035589D01*
X0572564Y0035824D01*
X0572595Y0036060D01*
X0572621Y0036296D01*
X0572641Y0036533D01*
X0572656Y0036770D01*
X0572664Y0037008D01*
X0572667Y0037246D01*
X0572666Y0037246D02*
X0572666Y0214412D01*
X0572667Y0214412D02*
X0572664Y0214650D01*
X0572656Y0214888D01*
X0572641Y0215125D01*
X0572621Y0215362D01*
X0572595Y0215598D01*
X0572564Y0215834D01*
X0572527Y0216069D01*
X0572484Y0216303D01*
X0572435Y0216536D01*
X0572381Y0216768D01*
X0572321Y0216998D01*
X0572256Y0217227D01*
X0572185Y0217454D01*
X0572109Y0217679D01*
X0572027Y0217902D01*
X0571940Y0218124D01*
X0571848Y0218343D01*
X0571750Y0218560D01*
X0571648Y0218774D01*
X0571540Y0218986D01*
X0571426Y0219196D01*
X0571308Y0219402D01*
X0571185Y0219606D01*
X0571057Y0219806D01*
X0570925Y0220003D01*
X0570787Y0220198D01*
X0570645Y0220388D01*
X0570498Y0220576D01*
X0570347Y0220759D01*
X0570192Y0220939D01*
X0570032Y0221115D01*
X0569868Y0221287D01*
X0569699Y0221456D01*
X0569527Y0221620D01*
X0569351Y0221780D01*
X0569171Y0221935D01*
X0568988Y0222086D01*
X0568800Y0222233D01*
X0568610Y0222375D01*
X0568415Y0222513D01*
X0568218Y0222645D01*
X0568018Y0222773D01*
X0567814Y0222896D01*
X0567608Y0223014D01*
X0567398Y0223128D01*
X0567186Y0223236D01*
X0566972Y0223338D01*
X0566755Y0223436D01*
X0566536Y0223528D01*
X0566314Y0223615D01*
X0566091Y0223697D01*
X0565866Y0223773D01*
X0565639Y0223844D01*
X0565410Y0223909D01*
X0565180Y0223969D01*
X0564948Y0224023D01*
X0564715Y0224072D01*
X0564481Y0224115D01*
X0564246Y0224152D01*
X0564010Y0224183D01*
X0563774Y0224209D01*
X0563537Y0224229D01*
X0563300Y0224244D01*
X0563062Y0224252D01*
X0562824Y0224255D01*
X0562824Y0224254D02*
X0011643Y0224254D01*
X0011643Y0224255D02*
X0011405Y0224252D01*
X0011167Y0224244D01*
X0010930Y0224229D01*
X0010693Y0224209D01*
X0010457Y0224183D01*
X0010221Y0224152D01*
X0009986Y0224115D01*
X0009752Y0224072D01*
X0009519Y0224023D01*
X0009287Y0223969D01*
X0009057Y0223909D01*
X0008828Y0223844D01*
X0008601Y0223773D01*
X0008376Y0223697D01*
X0008153Y0223615D01*
X0007931Y0223528D01*
X0007712Y0223436D01*
X0007495Y0223338D01*
X0007281Y0223236D01*
X0007069Y0223128D01*
X0006859Y0223014D01*
X0006653Y0222896D01*
X0006449Y0222773D01*
X0006249Y0222645D01*
X0006052Y0222513D01*
X0005857Y0222375D01*
X0005667Y0222233D01*
X0005479Y0222086D01*
X0005296Y0221935D01*
X0005116Y0221780D01*
X0004940Y0221620D01*
X0004768Y0221456D01*
X0004599Y0221287D01*
X0004435Y0221115D01*
X0004275Y0220939D01*
X0004120Y0220759D01*
X0003969Y0220576D01*
X0003822Y0220388D01*
X0003680Y0220198D01*
X0003542Y0220003D01*
X0003410Y0219806D01*
X0003282Y0219606D01*
X0003159Y0219402D01*
X0003041Y0219196D01*
X0002927Y0218986D01*
X0002819Y0218774D01*
X0002717Y0218560D01*
X0002619Y0218343D01*
X0002527Y0218124D01*
X0002440Y0217902D01*
X0002358Y0217679D01*
X0002282Y0217454D01*
X0002211Y0217227D01*
X0002146Y0216998D01*
X0002086Y0216768D01*
X0002032Y0216536D01*
X0001983Y0216303D01*
X0001940Y0216069D01*
X0001903Y0215834D01*
X0001872Y0215598D01*
X0001846Y0215362D01*
X0001826Y0215125D01*
X0001811Y0214888D01*
X0001803Y0214650D01*
X0001800Y0214412D01*
X0001800Y0037246D01*
X0001803Y0037008D01*
X0001811Y0036770D01*
X0001826Y0036533D01*
X0001846Y0036296D01*
X0001872Y0036060D01*
X0001903Y0035824D01*
X0001940Y0035589D01*
X0001983Y0035355D01*
X0002032Y0035122D01*
X0002086Y0034890D01*
X0002146Y0034660D01*
X0002211Y0034431D01*
X0002282Y0034204D01*
X0002358Y0033979D01*
X0002440Y0033756D01*
X0002527Y0033534D01*
X0002619Y0033315D01*
X0002717Y0033098D01*
X0002819Y0032884D01*
X0002927Y0032672D01*
X0003041Y0032462D01*
X0003159Y0032256D01*
X0003282Y0032052D01*
X0003410Y0031852D01*
X0003542Y0031655D01*
X0003680Y0031460D01*
X0003822Y0031270D01*
X0003969Y0031082D01*
X0004120Y0030899D01*
X0004275Y0030719D01*
X0004435Y0030543D01*
X0004599Y0030371D01*
X0004768Y0030202D01*
X0004940Y0030038D01*
X0005116Y0029878D01*
X0005296Y0029723D01*
X0005479Y0029572D01*
X0005667Y0029425D01*
X0005857Y0029283D01*
X0006052Y0029145D01*
X0006249Y0029013D01*
X0006449Y0028885D01*
X0006653Y0028762D01*
X0006859Y0028644D01*
X0007069Y0028530D01*
X0007281Y0028422D01*
X0007495Y0028320D01*
X0007712Y0028222D01*
X0007931Y0028130D01*
X0008153Y0028043D01*
X0008376Y0027961D01*
X0008601Y0027885D01*
X0008828Y0027814D01*
X0009057Y0027749D01*
X0009287Y0027689D01*
X0009519Y0027635D01*
X0009752Y0027586D01*
X0009986Y0027543D01*
X0010221Y0027506D01*
X0010457Y0027475D01*
X0010693Y0027449D01*
X0010930Y0027429D01*
X0011167Y0027414D01*
X0011405Y0027406D01*
X0011643Y0027403D01*
X0007312Y0039215D02*
X0007314Y0039373D01*
X0007320Y0039531D01*
X0007330Y0039689D01*
X0007344Y0039847D01*
X0007362Y0040004D01*
X0007383Y0040161D01*
X0007409Y0040317D01*
X0007439Y0040473D01*
X0007472Y0040628D01*
X0007510Y0040781D01*
X0007551Y0040934D01*
X0007596Y0041086D01*
X0007645Y0041237D01*
X0007698Y0041386D01*
X0007754Y0041534D01*
X0007814Y0041680D01*
X0007878Y0041825D01*
X0007946Y0041968D01*
X0008017Y0042110D01*
X0008091Y0042250D01*
X0008169Y0042387D01*
X0008251Y0042523D01*
X0008335Y0042657D01*
X0008424Y0042788D01*
X0008515Y0042917D01*
X0008610Y0043044D01*
X0008707Y0043169D01*
X0008808Y0043291D01*
X0008912Y0043410D01*
X0009019Y0043527D01*
X0009129Y0043641D01*
X0009242Y0043752D01*
X0009357Y0043861D01*
X0009475Y0043966D01*
X0009596Y0044068D01*
X0009719Y0044168D01*
X0009845Y0044264D01*
X0009973Y0044357D01*
X0010103Y0044447D01*
X0010236Y0044533D01*
X0010371Y0044617D01*
X0010507Y0044696D01*
X0010646Y0044773D01*
X0010787Y0044845D01*
X0010929Y0044915D01*
X0011073Y0044980D01*
X0011219Y0045042D01*
X0011366Y0045100D01*
X0011515Y0045155D01*
X0011665Y0045206D01*
X0011816Y0045253D01*
X0011968Y0045296D01*
X0012121Y0045335D01*
X0012276Y0045371D01*
X0012431Y0045402D01*
X0012587Y0045430D01*
X0012743Y0045454D01*
X0012900Y0045474D01*
X0013058Y0045490D01*
X0013215Y0045502D01*
X0013374Y0045510D01*
X0013532Y0045514D01*
X0013690Y0045514D01*
X0013848Y0045510D01*
X0014007Y0045502D01*
X0014164Y0045490D01*
X0014322Y0045474D01*
X0014479Y0045454D01*
X0014635Y0045430D01*
X0014791Y0045402D01*
X0014946Y0045371D01*
X0015101Y0045335D01*
X0015254Y0045296D01*
X0015406Y0045253D01*
X0015557Y0045206D01*
X0015707Y0045155D01*
X0015856Y0045100D01*
X0016003Y0045042D01*
X0016149Y0044980D01*
X0016293Y0044915D01*
X0016435Y0044845D01*
X0016576Y0044773D01*
X0016715Y0044696D01*
X0016851Y0044617D01*
X0016986Y0044533D01*
X0017119Y0044447D01*
X0017249Y0044357D01*
X0017377Y0044264D01*
X0017503Y0044168D01*
X0017626Y0044068D01*
X0017747Y0043966D01*
X0017865Y0043861D01*
X0017980Y0043752D01*
X0018093Y0043641D01*
X0018203Y0043527D01*
X0018310Y0043410D01*
X0018414Y0043291D01*
X0018515Y0043169D01*
X0018612Y0043044D01*
X0018707Y0042917D01*
X0018798Y0042788D01*
X0018887Y0042657D01*
X0018971Y0042523D01*
X0019053Y0042387D01*
X0019131Y0042250D01*
X0019205Y0042110D01*
X0019276Y0041968D01*
X0019344Y0041825D01*
X0019408Y0041680D01*
X0019468Y0041534D01*
X0019524Y0041386D01*
X0019577Y0041237D01*
X0019626Y0041086D01*
X0019671Y0040934D01*
X0019712Y0040781D01*
X0019750Y0040628D01*
X0019783Y0040473D01*
X0019813Y0040317D01*
X0019839Y0040161D01*
X0019860Y0040004D01*
X0019878Y0039847D01*
X0019892Y0039689D01*
X0019902Y0039531D01*
X0019908Y0039373D01*
X0019910Y0039215D01*
X0019908Y0039057D01*
X0019902Y0038899D01*
X0019892Y0038741D01*
X0019878Y0038583D01*
X0019860Y0038426D01*
X0019839Y0038269D01*
X0019813Y0038113D01*
X0019783Y0037957D01*
X0019750Y0037802D01*
X0019712Y0037649D01*
X0019671Y0037496D01*
X0019626Y0037344D01*
X0019577Y0037193D01*
X0019524Y0037044D01*
X0019468Y0036896D01*
X0019408Y0036750D01*
X0019344Y0036605D01*
X0019276Y0036462D01*
X0019205Y0036320D01*
X0019131Y0036180D01*
X0019053Y0036043D01*
X0018971Y0035907D01*
X0018887Y0035773D01*
X0018798Y0035642D01*
X0018707Y0035513D01*
X0018612Y0035386D01*
X0018515Y0035261D01*
X0018414Y0035139D01*
X0018310Y0035020D01*
X0018203Y0034903D01*
X0018093Y0034789D01*
X0017980Y0034678D01*
X0017865Y0034569D01*
X0017747Y0034464D01*
X0017626Y0034362D01*
X0017503Y0034262D01*
X0017377Y0034166D01*
X0017249Y0034073D01*
X0017119Y0033983D01*
X0016986Y0033897D01*
X0016851Y0033813D01*
X0016715Y0033734D01*
X0016576Y0033657D01*
X0016435Y0033585D01*
X0016293Y0033515D01*
X0016149Y0033450D01*
X0016003Y0033388D01*
X0015856Y0033330D01*
X0015707Y0033275D01*
X0015557Y0033224D01*
X0015406Y0033177D01*
X0015254Y0033134D01*
X0015101Y0033095D01*
X0014946Y0033059D01*
X0014791Y0033028D01*
X0014635Y0033000D01*
X0014479Y0032976D01*
X0014322Y0032956D01*
X0014164Y0032940D01*
X0014007Y0032928D01*
X0013848Y0032920D01*
X0013690Y0032916D01*
X0013532Y0032916D01*
X0013374Y0032920D01*
X0013215Y0032928D01*
X0013058Y0032940D01*
X0012900Y0032956D01*
X0012743Y0032976D01*
X0012587Y0033000D01*
X0012431Y0033028D01*
X0012276Y0033059D01*
X0012121Y0033095D01*
X0011968Y0033134D01*
X0011816Y0033177D01*
X0011665Y0033224D01*
X0011515Y0033275D01*
X0011366Y0033330D01*
X0011219Y0033388D01*
X0011073Y0033450D01*
X0010929Y0033515D01*
X0010787Y0033585D01*
X0010646Y0033657D01*
X0010507Y0033734D01*
X0010371Y0033813D01*
X0010236Y0033897D01*
X0010103Y0033983D01*
X0009973Y0034073D01*
X0009845Y0034166D01*
X0009719Y0034262D01*
X0009596Y0034362D01*
X0009475Y0034464D01*
X0009357Y0034569D01*
X0009242Y0034678D01*
X0009129Y0034789D01*
X0009019Y0034903D01*
X0008912Y0035020D01*
X0008808Y0035139D01*
X0008707Y0035261D01*
X0008610Y0035386D01*
X0008515Y0035513D01*
X0008424Y0035642D01*
X0008335Y0035773D01*
X0008251Y0035907D01*
X0008169Y0036043D01*
X0008091Y0036180D01*
X0008017Y0036320D01*
X0007946Y0036462D01*
X0007878Y0036605D01*
X0007814Y0036750D01*
X0007754Y0036896D01*
X0007698Y0037044D01*
X0007645Y0037193D01*
X0007596Y0037344D01*
X0007551Y0037496D01*
X0007510Y0037649D01*
X0007472Y0037802D01*
X0007439Y0037957D01*
X0007409Y0038113D01*
X0007383Y0038269D01*
X0007362Y0038426D01*
X0007344Y0038583D01*
X0007330Y0038741D01*
X0007320Y0038899D01*
X0007314Y0039057D01*
X0007312Y0039215D01*
X0344147Y0153388D02*
X0344149Y0153546D01*
X0344155Y0153704D01*
X0344165Y0153862D01*
X0344179Y0154020D01*
X0344197Y0154177D01*
X0344218Y0154334D01*
X0344244Y0154490D01*
X0344274Y0154646D01*
X0344307Y0154801D01*
X0344345Y0154954D01*
X0344386Y0155107D01*
X0344431Y0155259D01*
X0344480Y0155410D01*
X0344533Y0155559D01*
X0344589Y0155707D01*
X0344649Y0155853D01*
X0344713Y0155998D01*
X0344781Y0156141D01*
X0344852Y0156283D01*
X0344926Y0156423D01*
X0345004Y0156560D01*
X0345086Y0156696D01*
X0345170Y0156830D01*
X0345259Y0156961D01*
X0345350Y0157090D01*
X0345445Y0157217D01*
X0345542Y0157342D01*
X0345643Y0157464D01*
X0345747Y0157583D01*
X0345854Y0157700D01*
X0345964Y0157814D01*
X0346077Y0157925D01*
X0346192Y0158034D01*
X0346310Y0158139D01*
X0346431Y0158241D01*
X0346554Y0158341D01*
X0346680Y0158437D01*
X0346808Y0158530D01*
X0346938Y0158620D01*
X0347071Y0158706D01*
X0347206Y0158790D01*
X0347342Y0158869D01*
X0347481Y0158946D01*
X0347622Y0159018D01*
X0347764Y0159088D01*
X0347908Y0159153D01*
X0348054Y0159215D01*
X0348201Y0159273D01*
X0348350Y0159328D01*
X0348500Y0159379D01*
X0348651Y0159426D01*
X0348803Y0159469D01*
X0348956Y0159508D01*
X0349111Y0159544D01*
X0349266Y0159575D01*
X0349422Y0159603D01*
X0349578Y0159627D01*
X0349735Y0159647D01*
X0349893Y0159663D01*
X0350050Y0159675D01*
X0350209Y0159683D01*
X0350367Y0159687D01*
X0350525Y0159687D01*
X0350683Y0159683D01*
X0350842Y0159675D01*
X0350999Y0159663D01*
X0351157Y0159647D01*
X0351314Y0159627D01*
X0351470Y0159603D01*
X0351626Y0159575D01*
X0351781Y0159544D01*
X0351936Y0159508D01*
X0352089Y0159469D01*
X0352241Y0159426D01*
X0352392Y0159379D01*
X0352542Y0159328D01*
X0352691Y0159273D01*
X0352838Y0159215D01*
X0352984Y0159153D01*
X0353128Y0159088D01*
X0353270Y0159018D01*
X0353411Y0158946D01*
X0353550Y0158869D01*
X0353686Y0158790D01*
X0353821Y0158706D01*
X0353954Y0158620D01*
X0354084Y0158530D01*
X0354212Y0158437D01*
X0354338Y0158341D01*
X0354461Y0158241D01*
X0354582Y0158139D01*
X0354700Y0158034D01*
X0354815Y0157925D01*
X0354928Y0157814D01*
X0355038Y0157700D01*
X0355145Y0157583D01*
X0355249Y0157464D01*
X0355350Y0157342D01*
X0355447Y0157217D01*
X0355542Y0157090D01*
X0355633Y0156961D01*
X0355722Y0156830D01*
X0355806Y0156696D01*
X0355888Y0156560D01*
X0355966Y0156423D01*
X0356040Y0156283D01*
X0356111Y0156141D01*
X0356179Y0155998D01*
X0356243Y0155853D01*
X0356303Y0155707D01*
X0356359Y0155559D01*
X0356412Y0155410D01*
X0356461Y0155259D01*
X0356506Y0155107D01*
X0356547Y0154954D01*
X0356585Y0154801D01*
X0356618Y0154646D01*
X0356648Y0154490D01*
X0356674Y0154334D01*
X0356695Y0154177D01*
X0356713Y0154020D01*
X0356727Y0153862D01*
X0356737Y0153704D01*
X0356743Y0153546D01*
X0356745Y0153388D01*
X0356743Y0153230D01*
X0356737Y0153072D01*
X0356727Y0152914D01*
X0356713Y0152756D01*
X0356695Y0152599D01*
X0356674Y0152442D01*
X0356648Y0152286D01*
X0356618Y0152130D01*
X0356585Y0151975D01*
X0356547Y0151822D01*
X0356506Y0151669D01*
X0356461Y0151517D01*
X0356412Y0151366D01*
X0356359Y0151217D01*
X0356303Y0151069D01*
X0356243Y0150923D01*
X0356179Y0150778D01*
X0356111Y0150635D01*
X0356040Y0150493D01*
X0355966Y0150353D01*
X0355888Y0150216D01*
X0355806Y0150080D01*
X0355722Y0149946D01*
X0355633Y0149815D01*
X0355542Y0149686D01*
X0355447Y0149559D01*
X0355350Y0149434D01*
X0355249Y0149312D01*
X0355145Y0149193D01*
X0355038Y0149076D01*
X0354928Y0148962D01*
X0354815Y0148851D01*
X0354700Y0148742D01*
X0354582Y0148637D01*
X0354461Y0148535D01*
X0354338Y0148435D01*
X0354212Y0148339D01*
X0354084Y0148246D01*
X0353954Y0148156D01*
X0353821Y0148070D01*
X0353686Y0147986D01*
X0353550Y0147907D01*
X0353411Y0147830D01*
X0353270Y0147758D01*
X0353128Y0147688D01*
X0352984Y0147623D01*
X0352838Y0147561D01*
X0352691Y0147503D01*
X0352542Y0147448D01*
X0352392Y0147397D01*
X0352241Y0147350D01*
X0352089Y0147307D01*
X0351936Y0147268D01*
X0351781Y0147232D01*
X0351626Y0147201D01*
X0351470Y0147173D01*
X0351314Y0147149D01*
X0351157Y0147129D01*
X0350999Y0147113D01*
X0350842Y0147101D01*
X0350683Y0147093D01*
X0350525Y0147089D01*
X0350367Y0147089D01*
X0350209Y0147093D01*
X0350050Y0147101D01*
X0349893Y0147113D01*
X0349735Y0147129D01*
X0349578Y0147149D01*
X0349422Y0147173D01*
X0349266Y0147201D01*
X0349111Y0147232D01*
X0348956Y0147268D01*
X0348803Y0147307D01*
X0348651Y0147350D01*
X0348500Y0147397D01*
X0348350Y0147448D01*
X0348201Y0147503D01*
X0348054Y0147561D01*
X0347908Y0147623D01*
X0347764Y0147688D01*
X0347622Y0147758D01*
X0347481Y0147830D01*
X0347342Y0147907D01*
X0347206Y0147986D01*
X0347071Y0148070D01*
X0346938Y0148156D01*
X0346808Y0148246D01*
X0346680Y0148339D01*
X0346554Y0148435D01*
X0346431Y0148535D01*
X0346310Y0148637D01*
X0346192Y0148742D01*
X0346077Y0148851D01*
X0345964Y0148962D01*
X0345854Y0149076D01*
X0345747Y0149193D01*
X0345643Y0149312D01*
X0345542Y0149434D01*
X0345445Y0149559D01*
X0345350Y0149686D01*
X0345259Y0149815D01*
X0345170Y0149946D01*
X0345086Y0150080D01*
X0345004Y0150216D01*
X0344926Y0150353D01*
X0344852Y0150493D01*
X0344781Y0150635D01*
X0344713Y0150778D01*
X0344649Y0150923D01*
X0344589Y0151069D01*
X0344533Y0151217D01*
X0344480Y0151366D01*
X0344431Y0151517D01*
X0344386Y0151669D01*
X0344345Y0151822D01*
X0344307Y0151975D01*
X0344274Y0152130D01*
X0344244Y0152286D01*
X0344218Y0152442D01*
X0344197Y0152599D01*
X0344179Y0152756D01*
X0344165Y0152914D01*
X0344155Y0153072D01*
X0344149Y0153230D01*
X0344147Y0153388D01*
X0442615Y0140904D02*
X0442617Y0141005D01*
X0442623Y0141106D01*
X0442633Y0141207D01*
X0442647Y0141307D01*
X0442665Y0141406D01*
X0442687Y0141505D01*
X0442712Y0141603D01*
X0442742Y0141700D01*
X0442775Y0141795D01*
X0442812Y0141889D01*
X0442853Y0141982D01*
X0442897Y0142073D01*
X0442945Y0142162D01*
X0442997Y0142249D01*
X0443052Y0142334D01*
X0443110Y0142416D01*
X0443171Y0142497D01*
X0443236Y0142575D01*
X0443303Y0142650D01*
X0443373Y0142722D01*
X0443447Y0142792D01*
X0443523Y0142859D01*
X0443601Y0142923D01*
X0443682Y0142983D01*
X0443765Y0143040D01*
X0443851Y0143094D01*
X0443939Y0143145D01*
X0444028Y0143192D01*
X0444119Y0143236D01*
X0444212Y0143275D01*
X0444307Y0143312D01*
X0444402Y0143344D01*
X0444499Y0143373D01*
X0444598Y0143397D01*
X0444696Y0143418D01*
X0444796Y0143435D01*
X0444896Y0143448D01*
X0444997Y0143457D01*
X0445098Y0143462D01*
X0445199Y0143463D01*
X0445300Y0143460D01*
X0445401Y0143453D01*
X0445502Y0143442D01*
X0445602Y0143427D01*
X0445701Y0143408D01*
X0445800Y0143385D01*
X0445897Y0143359D01*
X0445994Y0143328D01*
X0446089Y0143294D01*
X0446182Y0143256D01*
X0446275Y0143214D01*
X0446365Y0143169D01*
X0446454Y0143120D01*
X0446540Y0143068D01*
X0446624Y0143012D01*
X0446707Y0142953D01*
X0446786Y0142891D01*
X0446864Y0142826D01*
X0446938Y0142758D01*
X0447010Y0142686D01*
X0447079Y0142613D01*
X0447145Y0142536D01*
X0447208Y0142457D01*
X0447268Y0142375D01*
X0447324Y0142291D01*
X0447377Y0142205D01*
X0447427Y0142117D01*
X0447473Y0142027D01*
X0447516Y0141936D01*
X0447555Y0141842D01*
X0447590Y0141747D01*
X0447621Y0141651D01*
X0447649Y0141554D01*
X0447673Y0141456D01*
X0447693Y0141357D01*
X0447709Y0141257D01*
X0447721Y0141156D01*
X0447729Y0141056D01*
X0447733Y0140955D01*
X0447733Y0140853D01*
X0447729Y0140752D01*
X0447721Y0140652D01*
X0447709Y0140551D01*
X0447693Y0140451D01*
X0447673Y0140352D01*
X0447649Y0140254D01*
X0447621Y0140157D01*
X0447590Y0140061D01*
X0447555Y0139966D01*
X0447516Y0139872D01*
X0447473Y0139781D01*
X0447427Y0139691D01*
X0447377Y0139603D01*
X0447324Y0139517D01*
X0447268Y0139433D01*
X0447208Y0139351D01*
X0447145Y0139272D01*
X0447079Y0139195D01*
X0447010Y0139122D01*
X0446938Y0139050D01*
X0446864Y0138982D01*
X0446786Y0138917D01*
X0446707Y0138855D01*
X0446624Y0138796D01*
X0446540Y0138740D01*
X0446453Y0138688D01*
X0446365Y0138639D01*
X0446275Y0138594D01*
X0446182Y0138552D01*
X0446089Y0138514D01*
X0445994Y0138480D01*
X0445897Y0138449D01*
X0445800Y0138423D01*
X0445701Y0138400D01*
X0445602Y0138381D01*
X0445502Y0138366D01*
X0445401Y0138355D01*
X0445300Y0138348D01*
X0445199Y0138345D01*
X0445098Y0138346D01*
X0444997Y0138351D01*
X0444896Y0138360D01*
X0444796Y0138373D01*
X0444696Y0138390D01*
X0444598Y0138411D01*
X0444499Y0138435D01*
X0444402Y0138464D01*
X0444307Y0138496D01*
X0444212Y0138533D01*
X0444119Y0138572D01*
X0444028Y0138616D01*
X0443939Y0138663D01*
X0443851Y0138714D01*
X0443765Y0138768D01*
X0443682Y0138825D01*
X0443601Y0138885D01*
X0443523Y0138949D01*
X0443447Y0139016D01*
X0443373Y0139086D01*
X0443303Y0139158D01*
X0443236Y0139233D01*
X0443171Y0139311D01*
X0443110Y0139392D01*
X0443052Y0139474D01*
X0442997Y0139559D01*
X0442945Y0139646D01*
X0442897Y0139735D01*
X0442853Y0139826D01*
X0442812Y0139919D01*
X0442775Y0140013D01*
X0442742Y0140108D01*
X0442712Y0140205D01*
X0442687Y0140303D01*
X0442665Y0140402D01*
X0442647Y0140501D01*
X0442633Y0140601D01*
X0442623Y0140702D01*
X0442617Y0140803D01*
X0442615Y0140904D01*
X0472733Y0140904D02*
X0472735Y0140992D01*
X0472741Y0141080D01*
X0472751Y0141168D01*
X0472765Y0141256D01*
X0472782Y0141342D01*
X0472804Y0141428D01*
X0472829Y0141512D01*
X0472859Y0141596D01*
X0472891Y0141678D01*
X0472928Y0141758D01*
X0472968Y0141837D01*
X0473012Y0141914D01*
X0473059Y0141989D01*
X0473109Y0142061D01*
X0473163Y0142132D01*
X0473219Y0142199D01*
X0473279Y0142265D01*
X0473341Y0142327D01*
X0473407Y0142387D01*
X0473474Y0142443D01*
X0473545Y0142497D01*
X0473617Y0142547D01*
X0473692Y0142594D01*
X0473769Y0142638D01*
X0473848Y0142678D01*
X0473928Y0142715D01*
X0474010Y0142747D01*
X0474094Y0142777D01*
X0474178Y0142802D01*
X0474264Y0142824D01*
X0474350Y0142841D01*
X0474438Y0142855D01*
X0474526Y0142865D01*
X0474614Y0142871D01*
X0474702Y0142873D01*
X0474790Y0142871D01*
X0474878Y0142865D01*
X0474966Y0142855D01*
X0475054Y0142841D01*
X0475140Y0142824D01*
X0475226Y0142802D01*
X0475310Y0142777D01*
X0475394Y0142747D01*
X0475476Y0142715D01*
X0475556Y0142678D01*
X0475635Y0142638D01*
X0475712Y0142594D01*
X0475787Y0142547D01*
X0475859Y0142497D01*
X0475930Y0142443D01*
X0475997Y0142387D01*
X0476063Y0142327D01*
X0476125Y0142265D01*
X0476185Y0142199D01*
X0476241Y0142132D01*
X0476295Y0142061D01*
X0476345Y0141989D01*
X0476392Y0141914D01*
X0476436Y0141837D01*
X0476476Y0141758D01*
X0476513Y0141678D01*
X0476545Y0141596D01*
X0476575Y0141512D01*
X0476600Y0141428D01*
X0476622Y0141342D01*
X0476639Y0141256D01*
X0476653Y0141168D01*
X0476663Y0141080D01*
X0476669Y0140992D01*
X0476671Y0140904D01*
X0476669Y0140816D01*
X0476663Y0140728D01*
X0476653Y0140640D01*
X0476639Y0140552D01*
X0476622Y0140466D01*
X0476600Y0140380D01*
X0476575Y0140296D01*
X0476545Y0140212D01*
X0476513Y0140130D01*
X0476476Y0140050D01*
X0476436Y0139971D01*
X0476392Y0139894D01*
X0476345Y0139819D01*
X0476295Y0139747D01*
X0476241Y0139676D01*
X0476185Y0139609D01*
X0476125Y0139543D01*
X0476063Y0139481D01*
X0475997Y0139421D01*
X0475930Y0139365D01*
X0475859Y0139311D01*
X0475787Y0139261D01*
X0475712Y0139214D01*
X0475635Y0139170D01*
X0475556Y0139130D01*
X0475476Y0139093D01*
X0475394Y0139061D01*
X0475310Y0139031D01*
X0475226Y0139006D01*
X0475140Y0138984D01*
X0475054Y0138967D01*
X0474966Y0138953D01*
X0474878Y0138943D01*
X0474790Y0138937D01*
X0474702Y0138935D01*
X0474614Y0138937D01*
X0474526Y0138943D01*
X0474438Y0138953D01*
X0474350Y0138967D01*
X0474264Y0138984D01*
X0474178Y0139006D01*
X0474094Y0139031D01*
X0474010Y0139061D01*
X0473928Y0139093D01*
X0473848Y0139130D01*
X0473769Y0139170D01*
X0473692Y0139214D01*
X0473617Y0139261D01*
X0473545Y0139311D01*
X0473474Y0139365D01*
X0473407Y0139421D01*
X0473341Y0139481D01*
X0473279Y0139543D01*
X0473219Y0139609D01*
X0473163Y0139676D01*
X0473109Y0139747D01*
X0473059Y0139819D01*
X0473012Y0139894D01*
X0472968Y0139971D01*
X0472928Y0140050D01*
X0472891Y0140130D01*
X0472859Y0140212D01*
X0472829Y0140296D01*
X0472804Y0140380D01*
X0472782Y0140466D01*
X0472765Y0140552D01*
X0472751Y0140640D01*
X0472741Y0140728D01*
X0472735Y0140816D01*
X0472733Y0140904D01*
X0552134Y0139609D02*
X0552136Y0139708D01*
X0552142Y0139807D01*
X0552152Y0139906D01*
X0552166Y0140004D01*
X0552184Y0140101D01*
X0552206Y0140198D01*
X0552231Y0140294D01*
X0552261Y0140388D01*
X0552294Y0140482D01*
X0552331Y0140574D01*
X0552372Y0140664D01*
X0552416Y0140753D01*
X0552464Y0140839D01*
X0552515Y0140924D01*
X0552570Y0141007D01*
X0552628Y0141087D01*
X0552689Y0141165D01*
X0552753Y0141241D01*
X0552820Y0141314D01*
X0552890Y0141384D01*
X0552963Y0141451D01*
X0553039Y0141515D01*
X0553117Y0141576D01*
X0553197Y0141634D01*
X0553280Y0141689D01*
X0553364Y0141740D01*
X0553451Y0141788D01*
X0553540Y0141832D01*
X0553630Y0141873D01*
X0553722Y0141910D01*
X0553816Y0141943D01*
X0553910Y0141973D01*
X0554006Y0141998D01*
X0554103Y0142020D01*
X0554200Y0142038D01*
X0554298Y0142052D01*
X0554397Y0142062D01*
X0554496Y0142068D01*
X0554595Y0142070D01*
X0554694Y0142068D01*
X0554793Y0142062D01*
X0554892Y0142052D01*
X0554990Y0142038D01*
X0555087Y0142020D01*
X0555184Y0141998D01*
X0555280Y0141973D01*
X0555374Y0141943D01*
X0555468Y0141910D01*
X0555560Y0141873D01*
X0555650Y0141832D01*
X0555739Y0141788D01*
X0555825Y0141740D01*
X0555910Y0141689D01*
X0555993Y0141634D01*
X0556073Y0141576D01*
X0556151Y0141515D01*
X0556227Y0141451D01*
X0556300Y0141384D01*
X0556370Y0141314D01*
X0556437Y0141241D01*
X0556501Y0141165D01*
X0556562Y0141087D01*
X0556620Y0141007D01*
X0556675Y0140924D01*
X0556726Y0140840D01*
X0556774Y0140753D01*
X0556818Y0140664D01*
X0556859Y0140574D01*
X0556896Y0140482D01*
X0556929Y0140388D01*
X0556959Y0140294D01*
X0556984Y0140198D01*
X0557006Y0140101D01*
X0557024Y0140004D01*
X0557038Y0139906D01*
X0557048Y0139807D01*
X0557054Y0139708D01*
X0557056Y0139609D01*
X0557054Y0139510D01*
X0557048Y0139411D01*
X0557038Y0139312D01*
X0557024Y0139214D01*
X0557006Y0139117D01*
X0556984Y0139020D01*
X0556959Y0138924D01*
X0556929Y0138830D01*
X0556896Y0138736D01*
X0556859Y0138644D01*
X0556818Y0138554D01*
X0556774Y0138465D01*
X0556726Y0138379D01*
X0556675Y0138294D01*
X0556620Y0138211D01*
X0556562Y0138131D01*
X0556501Y0138053D01*
X0556437Y0137977D01*
X0556370Y0137904D01*
X0556300Y0137834D01*
X0556227Y0137767D01*
X0556151Y0137703D01*
X0556073Y0137642D01*
X0555993Y0137584D01*
X0555910Y0137529D01*
X0555826Y0137478D01*
X0555739Y0137430D01*
X0555650Y0137386D01*
X0555560Y0137345D01*
X0555468Y0137308D01*
X0555374Y0137275D01*
X0555280Y0137245D01*
X0555184Y0137220D01*
X0555087Y0137198D01*
X0554990Y0137180D01*
X0554892Y0137166D01*
X0554793Y0137156D01*
X0554694Y0137150D01*
X0554595Y0137148D01*
X0554496Y0137150D01*
X0554397Y0137156D01*
X0554298Y0137166D01*
X0554200Y0137180D01*
X0554103Y0137198D01*
X0554006Y0137220D01*
X0553910Y0137245D01*
X0553816Y0137275D01*
X0553722Y0137308D01*
X0553630Y0137345D01*
X0553540Y0137386D01*
X0553451Y0137430D01*
X0553365Y0137478D01*
X0553280Y0137529D01*
X0553197Y0137584D01*
X0553117Y0137642D01*
X0553039Y0137703D01*
X0552963Y0137767D01*
X0552890Y0137834D01*
X0552820Y0137904D01*
X0552753Y0137977D01*
X0552689Y0138053D01*
X0552628Y0138131D01*
X0552570Y0138211D01*
X0552515Y0138294D01*
X0552464Y0138378D01*
X0552416Y0138465D01*
X0552372Y0138554D01*
X0552331Y0138644D01*
X0552294Y0138736D01*
X0552261Y0138830D01*
X0552231Y0138924D01*
X0552206Y0139020D01*
X0552184Y0139117D01*
X0552166Y0139214D01*
X0552152Y0139312D01*
X0552142Y0139411D01*
X0552136Y0139510D01*
X0552134Y0139609D01*
X0552134Y0108113D02*
X0552136Y0108212D01*
X0552142Y0108311D01*
X0552152Y0108410D01*
X0552166Y0108508D01*
X0552184Y0108605D01*
X0552206Y0108702D01*
X0552231Y0108798D01*
X0552261Y0108892D01*
X0552294Y0108986D01*
X0552331Y0109078D01*
X0552372Y0109168D01*
X0552416Y0109257D01*
X0552464Y0109343D01*
X0552515Y0109428D01*
X0552570Y0109511D01*
X0552628Y0109591D01*
X0552689Y0109669D01*
X0552753Y0109745D01*
X0552820Y0109818D01*
X0552890Y0109888D01*
X0552963Y0109955D01*
X0553039Y0110019D01*
X0553117Y0110080D01*
X0553197Y0110138D01*
X0553280Y0110193D01*
X0553364Y0110244D01*
X0553451Y0110292D01*
X0553540Y0110336D01*
X0553630Y0110377D01*
X0553722Y0110414D01*
X0553816Y0110447D01*
X0553910Y0110477D01*
X0554006Y0110502D01*
X0554103Y0110524D01*
X0554200Y0110542D01*
X0554298Y0110556D01*
X0554397Y0110566D01*
X0554496Y0110572D01*
X0554595Y0110574D01*
X0554694Y0110572D01*
X0554793Y0110566D01*
X0554892Y0110556D01*
X0554990Y0110542D01*
X0555087Y0110524D01*
X0555184Y0110502D01*
X0555280Y0110477D01*
X0555374Y0110447D01*
X0555468Y0110414D01*
X0555560Y0110377D01*
X0555650Y0110336D01*
X0555739Y0110292D01*
X0555825Y0110244D01*
X0555910Y0110193D01*
X0555993Y0110138D01*
X0556073Y0110080D01*
X0556151Y0110019D01*
X0556227Y0109955D01*
X0556300Y0109888D01*
X0556370Y0109818D01*
X0556437Y0109745D01*
X0556501Y0109669D01*
X0556562Y0109591D01*
X0556620Y0109511D01*
X0556675Y0109428D01*
X0556726Y0109344D01*
X0556774Y0109257D01*
X0556818Y0109168D01*
X0556859Y0109078D01*
X0556896Y0108986D01*
X0556929Y0108892D01*
X0556959Y0108798D01*
X0556984Y0108702D01*
X0557006Y0108605D01*
X0557024Y0108508D01*
X0557038Y0108410D01*
X0557048Y0108311D01*
X0557054Y0108212D01*
X0557056Y0108113D01*
X0557054Y0108014D01*
X0557048Y0107915D01*
X0557038Y0107816D01*
X0557024Y0107718D01*
X0557006Y0107621D01*
X0556984Y0107524D01*
X0556959Y0107428D01*
X0556929Y0107334D01*
X0556896Y0107240D01*
X0556859Y0107148D01*
X0556818Y0107058D01*
X0556774Y0106969D01*
X0556726Y0106883D01*
X0556675Y0106798D01*
X0556620Y0106715D01*
X0556562Y0106635D01*
X0556501Y0106557D01*
X0556437Y0106481D01*
X0556370Y0106408D01*
X0556300Y0106338D01*
X0556227Y0106271D01*
X0556151Y0106207D01*
X0556073Y0106146D01*
X0555993Y0106088D01*
X0555910Y0106033D01*
X0555826Y0105982D01*
X0555739Y0105934D01*
X0555650Y0105890D01*
X0555560Y0105849D01*
X0555468Y0105812D01*
X0555374Y0105779D01*
X0555280Y0105749D01*
X0555184Y0105724D01*
X0555087Y0105702D01*
X0554990Y0105684D01*
X0554892Y0105670D01*
X0554793Y0105660D01*
X0554694Y0105654D01*
X0554595Y0105652D01*
X0554496Y0105654D01*
X0554397Y0105660D01*
X0554298Y0105670D01*
X0554200Y0105684D01*
X0554103Y0105702D01*
X0554006Y0105724D01*
X0553910Y0105749D01*
X0553816Y0105779D01*
X0553722Y0105812D01*
X0553630Y0105849D01*
X0553540Y0105890D01*
X0553451Y0105934D01*
X0553365Y0105982D01*
X0553280Y0106033D01*
X0553197Y0106088D01*
X0553117Y0106146D01*
X0553039Y0106207D01*
X0552963Y0106271D01*
X0552890Y0106338D01*
X0552820Y0106408D01*
X0552753Y0106481D01*
X0552689Y0106557D01*
X0552628Y0106635D01*
X0552570Y0106715D01*
X0552515Y0106798D01*
X0552464Y0106882D01*
X0552416Y0106969D01*
X0552372Y0107058D01*
X0552331Y0107148D01*
X0552294Y0107240D01*
X0552261Y0107334D01*
X0552231Y0107428D01*
X0552206Y0107524D01*
X0552184Y0107621D01*
X0552166Y0107718D01*
X0552152Y0107816D01*
X0552142Y0107915D01*
X0552136Y0108014D01*
X0552134Y0108113D01*
X0554556Y0039215D02*
X0554558Y0039373D01*
X0554564Y0039531D01*
X0554574Y0039689D01*
X0554588Y0039847D01*
X0554606Y0040004D01*
X0554627Y0040161D01*
X0554653Y0040317D01*
X0554683Y0040473D01*
X0554716Y0040628D01*
X0554754Y0040781D01*
X0554795Y0040934D01*
X0554840Y0041086D01*
X0554889Y0041237D01*
X0554942Y0041386D01*
X0554998Y0041534D01*
X0555058Y0041680D01*
X0555122Y0041825D01*
X0555190Y0041968D01*
X0555261Y0042110D01*
X0555335Y0042250D01*
X0555413Y0042387D01*
X0555495Y0042523D01*
X0555579Y0042657D01*
X0555668Y0042788D01*
X0555759Y0042917D01*
X0555854Y0043044D01*
X0555951Y0043169D01*
X0556052Y0043291D01*
X0556156Y0043410D01*
X0556263Y0043527D01*
X0556373Y0043641D01*
X0556486Y0043752D01*
X0556601Y0043861D01*
X0556719Y0043966D01*
X0556840Y0044068D01*
X0556963Y0044168D01*
X0557089Y0044264D01*
X0557217Y0044357D01*
X0557347Y0044447D01*
X0557480Y0044533D01*
X0557615Y0044617D01*
X0557751Y0044696D01*
X0557890Y0044773D01*
X0558031Y0044845D01*
X0558173Y0044915D01*
X0558317Y0044980D01*
X0558463Y0045042D01*
X0558610Y0045100D01*
X0558759Y0045155D01*
X0558909Y0045206D01*
X0559060Y0045253D01*
X0559212Y0045296D01*
X0559365Y0045335D01*
X0559520Y0045371D01*
X0559675Y0045402D01*
X0559831Y0045430D01*
X0559987Y0045454D01*
X0560144Y0045474D01*
X0560302Y0045490D01*
X0560459Y0045502D01*
X0560618Y0045510D01*
X0560776Y0045514D01*
X0560934Y0045514D01*
X0561092Y0045510D01*
X0561251Y0045502D01*
X0561408Y0045490D01*
X0561566Y0045474D01*
X0561723Y0045454D01*
X0561879Y0045430D01*
X0562035Y0045402D01*
X0562190Y0045371D01*
X0562345Y0045335D01*
X0562498Y0045296D01*
X0562650Y0045253D01*
X0562801Y0045206D01*
X0562951Y0045155D01*
X0563100Y0045100D01*
X0563247Y0045042D01*
X0563393Y0044980D01*
X0563537Y0044915D01*
X0563679Y0044845D01*
X0563820Y0044773D01*
X0563959Y0044696D01*
X0564095Y0044617D01*
X0564230Y0044533D01*
X0564363Y0044447D01*
X0564493Y0044357D01*
X0564621Y0044264D01*
X0564747Y0044168D01*
X0564870Y0044068D01*
X0564991Y0043966D01*
X0565109Y0043861D01*
X0565224Y0043752D01*
X0565337Y0043641D01*
X0565447Y0043527D01*
X0565554Y0043410D01*
X0565658Y0043291D01*
X0565759Y0043169D01*
X0565856Y0043044D01*
X0565951Y0042917D01*
X0566042Y0042788D01*
X0566131Y0042657D01*
X0566215Y0042523D01*
X0566297Y0042387D01*
X0566375Y0042250D01*
X0566449Y0042110D01*
X0566520Y0041968D01*
X0566588Y0041825D01*
X0566652Y0041680D01*
X0566712Y0041534D01*
X0566768Y0041386D01*
X0566821Y0041237D01*
X0566870Y0041086D01*
X0566915Y0040934D01*
X0566956Y0040781D01*
X0566994Y0040628D01*
X0567027Y0040473D01*
X0567057Y0040317D01*
X0567083Y0040161D01*
X0567104Y0040004D01*
X0567122Y0039847D01*
X0567136Y0039689D01*
X0567146Y0039531D01*
X0567152Y0039373D01*
X0567154Y0039215D01*
X0567152Y0039057D01*
X0567146Y0038899D01*
X0567136Y0038741D01*
X0567122Y0038583D01*
X0567104Y0038426D01*
X0567083Y0038269D01*
X0567057Y0038113D01*
X0567027Y0037957D01*
X0566994Y0037802D01*
X0566956Y0037649D01*
X0566915Y0037496D01*
X0566870Y0037344D01*
X0566821Y0037193D01*
X0566768Y0037044D01*
X0566712Y0036896D01*
X0566652Y0036750D01*
X0566588Y0036605D01*
X0566520Y0036462D01*
X0566449Y0036320D01*
X0566375Y0036180D01*
X0566297Y0036043D01*
X0566215Y0035907D01*
X0566131Y0035773D01*
X0566042Y0035642D01*
X0565951Y0035513D01*
X0565856Y0035386D01*
X0565759Y0035261D01*
X0565658Y0035139D01*
X0565554Y0035020D01*
X0565447Y0034903D01*
X0565337Y0034789D01*
X0565224Y0034678D01*
X0565109Y0034569D01*
X0564991Y0034464D01*
X0564870Y0034362D01*
X0564747Y0034262D01*
X0564621Y0034166D01*
X0564493Y0034073D01*
X0564363Y0033983D01*
X0564230Y0033897D01*
X0564095Y0033813D01*
X0563959Y0033734D01*
X0563820Y0033657D01*
X0563679Y0033585D01*
X0563537Y0033515D01*
X0563393Y0033450D01*
X0563247Y0033388D01*
X0563100Y0033330D01*
X0562951Y0033275D01*
X0562801Y0033224D01*
X0562650Y0033177D01*
X0562498Y0033134D01*
X0562345Y0033095D01*
X0562190Y0033059D01*
X0562035Y0033028D01*
X0561879Y0033000D01*
X0561723Y0032976D01*
X0561566Y0032956D01*
X0561408Y0032940D01*
X0561251Y0032928D01*
X0561092Y0032920D01*
X0560934Y0032916D01*
X0560776Y0032916D01*
X0560618Y0032920D01*
X0560459Y0032928D01*
X0560302Y0032940D01*
X0560144Y0032956D01*
X0559987Y0032976D01*
X0559831Y0033000D01*
X0559675Y0033028D01*
X0559520Y0033059D01*
X0559365Y0033095D01*
X0559212Y0033134D01*
X0559060Y0033177D01*
X0558909Y0033224D01*
X0558759Y0033275D01*
X0558610Y0033330D01*
X0558463Y0033388D01*
X0558317Y0033450D01*
X0558173Y0033515D01*
X0558031Y0033585D01*
X0557890Y0033657D01*
X0557751Y0033734D01*
X0557615Y0033813D01*
X0557480Y0033897D01*
X0557347Y0033983D01*
X0557217Y0034073D01*
X0557089Y0034166D01*
X0556963Y0034262D01*
X0556840Y0034362D01*
X0556719Y0034464D01*
X0556601Y0034569D01*
X0556486Y0034678D01*
X0556373Y0034789D01*
X0556263Y0034903D01*
X0556156Y0035020D01*
X0556052Y0035139D01*
X0555951Y0035261D01*
X0555854Y0035386D01*
X0555759Y0035513D01*
X0555668Y0035642D01*
X0555579Y0035773D01*
X0555495Y0035907D01*
X0555413Y0036043D01*
X0555335Y0036180D01*
X0555261Y0036320D01*
X0555190Y0036462D01*
X0555122Y0036605D01*
X0555058Y0036750D01*
X0554998Y0036896D01*
X0554942Y0037044D01*
X0554889Y0037193D01*
X0554840Y0037344D01*
X0554795Y0037496D01*
X0554754Y0037649D01*
X0554716Y0037802D01*
X0554683Y0037957D01*
X0554653Y0038113D01*
X0554627Y0038269D01*
X0554606Y0038426D01*
X0554588Y0038583D01*
X0554574Y0038741D01*
X0554564Y0038899D01*
X0554558Y0039057D01*
X0554556Y0039215D01*
X0554556Y0212443D02*
X0554558Y0212601D01*
X0554564Y0212759D01*
X0554574Y0212917D01*
X0554588Y0213075D01*
X0554606Y0213232D01*
X0554627Y0213389D01*
X0554653Y0213545D01*
X0554683Y0213701D01*
X0554716Y0213856D01*
X0554754Y0214009D01*
X0554795Y0214162D01*
X0554840Y0214314D01*
X0554889Y0214465D01*
X0554942Y0214614D01*
X0554998Y0214762D01*
X0555058Y0214908D01*
X0555122Y0215053D01*
X0555190Y0215196D01*
X0555261Y0215338D01*
X0555335Y0215478D01*
X0555413Y0215615D01*
X0555495Y0215751D01*
X0555579Y0215885D01*
X0555668Y0216016D01*
X0555759Y0216145D01*
X0555854Y0216272D01*
X0555951Y0216397D01*
X0556052Y0216519D01*
X0556156Y0216638D01*
X0556263Y0216755D01*
X0556373Y0216869D01*
X0556486Y0216980D01*
X0556601Y0217089D01*
X0556719Y0217194D01*
X0556840Y0217296D01*
X0556963Y0217396D01*
X0557089Y0217492D01*
X0557217Y0217585D01*
X0557347Y0217675D01*
X0557480Y0217761D01*
X0557615Y0217845D01*
X0557751Y0217924D01*
X0557890Y0218001D01*
X0558031Y0218073D01*
X0558173Y0218143D01*
X0558317Y0218208D01*
X0558463Y0218270D01*
X0558610Y0218328D01*
X0558759Y0218383D01*
X0558909Y0218434D01*
X0559060Y0218481D01*
X0559212Y0218524D01*
X0559365Y0218563D01*
X0559520Y0218599D01*
X0559675Y0218630D01*
X0559831Y0218658D01*
X0559987Y0218682D01*
X0560144Y0218702D01*
X0560302Y0218718D01*
X0560459Y0218730D01*
X0560618Y0218738D01*
X0560776Y0218742D01*
X0560934Y0218742D01*
X0561092Y0218738D01*
X0561251Y0218730D01*
X0561408Y0218718D01*
X0561566Y0218702D01*
X0561723Y0218682D01*
X0561879Y0218658D01*
X0562035Y0218630D01*
X0562190Y0218599D01*
X0562345Y0218563D01*
X0562498Y0218524D01*
X0562650Y0218481D01*
X0562801Y0218434D01*
X0562951Y0218383D01*
X0563100Y0218328D01*
X0563247Y0218270D01*
X0563393Y0218208D01*
X0563537Y0218143D01*
X0563679Y0218073D01*
X0563820Y0218001D01*
X0563959Y0217924D01*
X0564095Y0217845D01*
X0564230Y0217761D01*
X0564363Y0217675D01*
X0564493Y0217585D01*
X0564621Y0217492D01*
X0564747Y0217396D01*
X0564870Y0217296D01*
X0564991Y0217194D01*
X0565109Y0217089D01*
X0565224Y0216980D01*
X0565337Y0216869D01*
X0565447Y0216755D01*
X0565554Y0216638D01*
X0565658Y0216519D01*
X0565759Y0216397D01*
X0565856Y0216272D01*
X0565951Y0216145D01*
X0566042Y0216016D01*
X0566131Y0215885D01*
X0566215Y0215751D01*
X0566297Y0215615D01*
X0566375Y0215478D01*
X0566449Y0215338D01*
X0566520Y0215196D01*
X0566588Y0215053D01*
X0566652Y0214908D01*
X0566712Y0214762D01*
X0566768Y0214614D01*
X0566821Y0214465D01*
X0566870Y0214314D01*
X0566915Y0214162D01*
X0566956Y0214009D01*
X0566994Y0213856D01*
X0567027Y0213701D01*
X0567057Y0213545D01*
X0567083Y0213389D01*
X0567104Y0213232D01*
X0567122Y0213075D01*
X0567136Y0212917D01*
X0567146Y0212759D01*
X0567152Y0212601D01*
X0567154Y0212443D01*
X0567152Y0212285D01*
X0567146Y0212127D01*
X0567136Y0211969D01*
X0567122Y0211811D01*
X0567104Y0211654D01*
X0567083Y0211497D01*
X0567057Y0211341D01*
X0567027Y0211185D01*
X0566994Y0211030D01*
X0566956Y0210877D01*
X0566915Y0210724D01*
X0566870Y0210572D01*
X0566821Y0210421D01*
X0566768Y0210272D01*
X0566712Y0210124D01*
X0566652Y0209978D01*
X0566588Y0209833D01*
X0566520Y0209690D01*
X0566449Y0209548D01*
X0566375Y0209408D01*
X0566297Y0209271D01*
X0566215Y0209135D01*
X0566131Y0209001D01*
X0566042Y0208870D01*
X0565951Y0208741D01*
X0565856Y0208614D01*
X0565759Y0208489D01*
X0565658Y0208367D01*
X0565554Y0208248D01*
X0565447Y0208131D01*
X0565337Y0208017D01*
X0565224Y0207906D01*
X0565109Y0207797D01*
X0564991Y0207692D01*
X0564870Y0207590D01*
X0564747Y0207490D01*
X0564621Y0207394D01*
X0564493Y0207301D01*
X0564363Y0207211D01*
X0564230Y0207125D01*
X0564095Y0207041D01*
X0563959Y0206962D01*
X0563820Y0206885D01*
X0563679Y0206813D01*
X0563537Y0206743D01*
X0563393Y0206678D01*
X0563247Y0206616D01*
X0563100Y0206558D01*
X0562951Y0206503D01*
X0562801Y0206452D01*
X0562650Y0206405D01*
X0562498Y0206362D01*
X0562345Y0206323D01*
X0562190Y0206287D01*
X0562035Y0206256D01*
X0561879Y0206228D01*
X0561723Y0206204D01*
X0561566Y0206184D01*
X0561408Y0206168D01*
X0561251Y0206156D01*
X0561092Y0206148D01*
X0560934Y0206144D01*
X0560776Y0206144D01*
X0560618Y0206148D01*
X0560459Y0206156D01*
X0560302Y0206168D01*
X0560144Y0206184D01*
X0559987Y0206204D01*
X0559831Y0206228D01*
X0559675Y0206256D01*
X0559520Y0206287D01*
X0559365Y0206323D01*
X0559212Y0206362D01*
X0559060Y0206405D01*
X0558909Y0206452D01*
X0558759Y0206503D01*
X0558610Y0206558D01*
X0558463Y0206616D01*
X0558317Y0206678D01*
X0558173Y0206743D01*
X0558031Y0206813D01*
X0557890Y0206885D01*
X0557751Y0206962D01*
X0557615Y0207041D01*
X0557480Y0207125D01*
X0557347Y0207211D01*
X0557217Y0207301D01*
X0557089Y0207394D01*
X0556963Y0207490D01*
X0556840Y0207590D01*
X0556719Y0207692D01*
X0556601Y0207797D01*
X0556486Y0207906D01*
X0556373Y0208017D01*
X0556263Y0208131D01*
X0556156Y0208248D01*
X0556052Y0208367D01*
X0555951Y0208489D01*
X0555854Y0208614D01*
X0555759Y0208741D01*
X0555668Y0208870D01*
X0555579Y0209001D01*
X0555495Y0209135D01*
X0555413Y0209271D01*
X0555335Y0209408D01*
X0555261Y0209548D01*
X0555190Y0209690D01*
X0555122Y0209833D01*
X0555058Y0209978D01*
X0554998Y0210124D01*
X0554942Y0210272D01*
X0554889Y0210421D01*
X0554840Y0210572D01*
X0554795Y0210724D01*
X0554754Y0210877D01*
X0554716Y0211030D01*
X0554683Y0211185D01*
X0554653Y0211341D01*
X0554627Y0211497D01*
X0554606Y0211654D01*
X0554588Y0211811D01*
X0554574Y0211969D01*
X0554564Y0212127D01*
X0554558Y0212285D01*
X0554556Y0212443D01*
X0007312Y0212443D02*
X0007314Y0212601D01*
X0007320Y0212759D01*
X0007330Y0212917D01*
X0007344Y0213075D01*
X0007362Y0213232D01*
X0007383Y0213389D01*
X0007409Y0213545D01*
X0007439Y0213701D01*
X0007472Y0213856D01*
X0007510Y0214009D01*
X0007551Y0214162D01*
X0007596Y0214314D01*
X0007645Y0214465D01*
X0007698Y0214614D01*
X0007754Y0214762D01*
X0007814Y0214908D01*
X0007878Y0215053D01*
X0007946Y0215196D01*
X0008017Y0215338D01*
X0008091Y0215478D01*
X0008169Y0215615D01*
X0008251Y0215751D01*
X0008335Y0215885D01*
X0008424Y0216016D01*
X0008515Y0216145D01*
X0008610Y0216272D01*
X0008707Y0216397D01*
X0008808Y0216519D01*
X0008912Y0216638D01*
X0009019Y0216755D01*
X0009129Y0216869D01*
X0009242Y0216980D01*
X0009357Y0217089D01*
X0009475Y0217194D01*
X0009596Y0217296D01*
X0009719Y0217396D01*
X0009845Y0217492D01*
X0009973Y0217585D01*
X0010103Y0217675D01*
X0010236Y0217761D01*
X0010371Y0217845D01*
X0010507Y0217924D01*
X0010646Y0218001D01*
X0010787Y0218073D01*
X0010929Y0218143D01*
X0011073Y0218208D01*
X0011219Y0218270D01*
X0011366Y0218328D01*
X0011515Y0218383D01*
X0011665Y0218434D01*
X0011816Y0218481D01*
X0011968Y0218524D01*
X0012121Y0218563D01*
X0012276Y0218599D01*
X0012431Y0218630D01*
X0012587Y0218658D01*
X0012743Y0218682D01*
X0012900Y0218702D01*
X0013058Y0218718D01*
X0013215Y0218730D01*
X0013374Y0218738D01*
X0013532Y0218742D01*
X0013690Y0218742D01*
X0013848Y0218738D01*
X0014007Y0218730D01*
X0014164Y0218718D01*
X0014322Y0218702D01*
X0014479Y0218682D01*
X0014635Y0218658D01*
X0014791Y0218630D01*
X0014946Y0218599D01*
X0015101Y0218563D01*
X0015254Y0218524D01*
X0015406Y0218481D01*
X0015557Y0218434D01*
X0015707Y0218383D01*
X0015856Y0218328D01*
X0016003Y0218270D01*
X0016149Y0218208D01*
X0016293Y0218143D01*
X0016435Y0218073D01*
X0016576Y0218001D01*
X0016715Y0217924D01*
X0016851Y0217845D01*
X0016986Y0217761D01*
X0017119Y0217675D01*
X0017249Y0217585D01*
X0017377Y0217492D01*
X0017503Y0217396D01*
X0017626Y0217296D01*
X0017747Y0217194D01*
X0017865Y0217089D01*
X0017980Y0216980D01*
X0018093Y0216869D01*
X0018203Y0216755D01*
X0018310Y0216638D01*
X0018414Y0216519D01*
X0018515Y0216397D01*
X0018612Y0216272D01*
X0018707Y0216145D01*
X0018798Y0216016D01*
X0018887Y0215885D01*
X0018971Y0215751D01*
X0019053Y0215615D01*
X0019131Y0215478D01*
X0019205Y0215338D01*
X0019276Y0215196D01*
X0019344Y0215053D01*
X0019408Y0214908D01*
X0019468Y0214762D01*
X0019524Y0214614D01*
X0019577Y0214465D01*
X0019626Y0214314D01*
X0019671Y0214162D01*
X0019712Y0214009D01*
X0019750Y0213856D01*
X0019783Y0213701D01*
X0019813Y0213545D01*
X0019839Y0213389D01*
X0019860Y0213232D01*
X0019878Y0213075D01*
X0019892Y0212917D01*
X0019902Y0212759D01*
X0019908Y0212601D01*
X0019910Y0212443D01*
X0019908Y0212285D01*
X0019902Y0212127D01*
X0019892Y0211969D01*
X0019878Y0211811D01*
X0019860Y0211654D01*
X0019839Y0211497D01*
X0019813Y0211341D01*
X0019783Y0211185D01*
X0019750Y0211030D01*
X0019712Y0210877D01*
X0019671Y0210724D01*
X0019626Y0210572D01*
X0019577Y0210421D01*
X0019524Y0210272D01*
X0019468Y0210124D01*
X0019408Y0209978D01*
X0019344Y0209833D01*
X0019276Y0209690D01*
X0019205Y0209548D01*
X0019131Y0209408D01*
X0019053Y0209271D01*
X0018971Y0209135D01*
X0018887Y0209001D01*
X0018798Y0208870D01*
X0018707Y0208741D01*
X0018612Y0208614D01*
X0018515Y0208489D01*
X0018414Y0208367D01*
X0018310Y0208248D01*
X0018203Y0208131D01*
X0018093Y0208017D01*
X0017980Y0207906D01*
X0017865Y0207797D01*
X0017747Y0207692D01*
X0017626Y0207590D01*
X0017503Y0207490D01*
X0017377Y0207394D01*
X0017249Y0207301D01*
X0017119Y0207211D01*
X0016986Y0207125D01*
X0016851Y0207041D01*
X0016715Y0206962D01*
X0016576Y0206885D01*
X0016435Y0206813D01*
X0016293Y0206743D01*
X0016149Y0206678D01*
X0016003Y0206616D01*
X0015856Y0206558D01*
X0015707Y0206503D01*
X0015557Y0206452D01*
X0015406Y0206405D01*
X0015254Y0206362D01*
X0015101Y0206323D01*
X0014946Y0206287D01*
X0014791Y0206256D01*
X0014635Y0206228D01*
X0014479Y0206204D01*
X0014322Y0206184D01*
X0014164Y0206168D01*
X0014007Y0206156D01*
X0013848Y0206148D01*
X0013690Y0206144D01*
X0013532Y0206144D01*
X0013374Y0206148D01*
X0013215Y0206156D01*
X0013058Y0206168D01*
X0012900Y0206184D01*
X0012743Y0206204D01*
X0012587Y0206228D01*
X0012431Y0206256D01*
X0012276Y0206287D01*
X0012121Y0206323D01*
X0011968Y0206362D01*
X0011816Y0206405D01*
X0011665Y0206452D01*
X0011515Y0206503D01*
X0011366Y0206558D01*
X0011219Y0206616D01*
X0011073Y0206678D01*
X0010929Y0206743D01*
X0010787Y0206813D01*
X0010646Y0206885D01*
X0010507Y0206962D01*
X0010371Y0207041D01*
X0010236Y0207125D01*
X0010103Y0207211D01*
X0009973Y0207301D01*
X0009845Y0207394D01*
X0009719Y0207490D01*
X0009596Y0207590D01*
X0009475Y0207692D01*
X0009357Y0207797D01*
X0009242Y0207906D01*
X0009129Y0208017D01*
X0009019Y0208131D01*
X0008912Y0208248D01*
X0008808Y0208367D01*
X0008707Y0208489D01*
X0008610Y0208614D01*
X0008515Y0208741D01*
X0008424Y0208870D01*
X0008335Y0209001D01*
X0008251Y0209135D01*
X0008169Y0209271D01*
X0008091Y0209408D01*
X0008017Y0209548D01*
X0007946Y0209690D01*
X0007878Y0209833D01*
X0007814Y0209978D01*
X0007754Y0210124D01*
X0007698Y0210272D01*
X0007645Y0210421D01*
X0007596Y0210572D01*
X0007551Y0210724D01*
X0007510Y0210877D01*
X0007472Y0211030D01*
X0007439Y0211185D01*
X0007409Y0211341D01*
X0007383Y0211497D01*
X0007362Y0211654D01*
X0007344Y0211811D01*
X0007330Y0211969D01*
X0007320Y0212127D01*
X0007314Y0212285D01*
X0007312Y0212443D01*
M02*
