G75*
%MOIN*%
%OFA0B0*%
%FSLAX25Y25*%
%IPPOS*%
%LPD*%
%AMOC8*
5,1,8,0,0,1.08239X$1,22.5*
%
%ADD10R,0.05524X0.03950*%
%ADD11R,0.07099X0.11430*%
%ADD12R,0.03950X0.05524*%
%ADD13R,0.01587X0.04737*%
%ADD14R,0.04737X0.01587*%
%ADD15R,0.02178X0.05524*%
%ADD16R,0.05524X0.05524*%
%ADD17R,0.06800X0.03800*%
%ADD18R,0.03950X0.07887*%
%ADD19R,0.03556X0.07887*%
%ADD20C,0.10800*%
%ADD21R,0.05131X0.03950*%
%ADD22R,0.05131X0.04737*%
%ADD23R,0.05131X0.08280*%
%ADD24C,0.06800*%
%ADD25C,0.13398*%
%ADD26R,0.08700X0.06700*%
%ADD27R,0.08700X0.15800*%
%ADD28R,0.11430X0.07099*%
%ADD29OC8,0.06800*%
%ADD30R,0.02178X0.06312*%
%ADD31R,0.06706X0.06902*%
%ADD32C,0.07591*%
%ADD33C,0.05820*%
%ADD34C,0.01500*%
%ADD35C,0.05918*%
%ADD36C,0.04737*%
%ADD37C,0.03500*%
%ADD38C,0.05000*%
%ADD39C,0.08674*%
%ADD40R,0.06312X0.03556*%
%ADD41R,0.08674X0.06312*%
%ADD42R,0.06312X0.05839*%
%ADD43R,0.06312X0.08477*%
%ADD44C,0.05721*%
%ADD45C,0.08200*%
%ADD46C,0.05800*%
D10*
X0254800Y0039361D03*
X0254800Y0046447D03*
X0304400Y0046447D03*
X0304400Y0039361D03*
X0389600Y0084461D03*
X0398800Y0084461D03*
X0398800Y0091547D03*
X0389600Y0091547D03*
X0316800Y0125861D03*
X0316800Y0132947D03*
X0253300Y0149361D03*
X0253300Y0156447D03*
X0232800Y0156447D03*
X0223800Y0156447D03*
X0223800Y0149361D03*
X0232800Y0149361D03*
X0181300Y0154961D03*
X0181300Y0162047D03*
X0200800Y0176361D03*
X0209800Y0176361D03*
X0209800Y0183447D03*
X0200800Y0183447D03*
X0226800Y0117947D03*
X0236700Y0117947D03*
X0246700Y0117947D03*
X0246700Y0110861D03*
X0236700Y0110861D03*
X0226800Y0110861D03*
X0211800Y0110447D03*
X0211800Y0103361D03*
X0554300Y0080947D03*
X0554300Y0073861D03*
X0553300Y0169361D03*
X0553300Y0176447D03*
D11*
X0511812Y0212404D03*
X0500788Y0212404D03*
X0431812Y0212404D03*
X0420788Y0212404D03*
X0337312Y0212904D03*
X0326288Y0212904D03*
X0257812Y0212904D03*
X0246788Y0212904D03*
X0162312Y0212904D03*
X0151288Y0212904D03*
X0083812Y0212904D03*
X0072788Y0212904D03*
D12*
X0195757Y0203904D03*
X0202843Y0203904D03*
X0167343Y0158904D03*
X0160257Y0158904D03*
X0160257Y0151904D03*
X0167343Y0151904D03*
X0167343Y0144904D03*
X0160257Y0144904D03*
G36*
X0176456Y0120465D02*
X0179249Y0123258D01*
X0183154Y0119353D01*
X0180361Y0116560D01*
X0176456Y0120465D01*
G37*
G36*
X0171446Y0115454D02*
X0174239Y0118247D01*
X0178144Y0114342D01*
X0175351Y0111549D01*
X0171446Y0115454D01*
G37*
X0373757Y0088904D03*
X0380843Y0088904D03*
X0495257Y0123904D03*
X0502343Y0123904D03*
X0502343Y0130904D03*
X0495257Y0130904D03*
X0530757Y0051904D03*
X0537843Y0051904D03*
D13*
X0210194Y0120703D03*
X0208225Y0120703D03*
X0206257Y0120703D03*
X0204288Y0120703D03*
X0202320Y0120703D03*
X0200351Y0120703D03*
X0198383Y0120703D03*
X0196414Y0120703D03*
X0194446Y0120703D03*
X0192477Y0120703D03*
X0190509Y0120703D03*
X0188540Y0120703D03*
X0188540Y0156136D03*
X0190509Y0156136D03*
X0192477Y0156136D03*
X0194446Y0156136D03*
X0196414Y0156136D03*
X0198383Y0156136D03*
X0200351Y0156136D03*
X0202320Y0156136D03*
X0204288Y0156136D03*
X0206257Y0156136D03*
X0208225Y0156136D03*
X0210194Y0156136D03*
D14*
X0217083Y0149246D03*
X0217083Y0147278D03*
X0217083Y0145309D03*
X0217083Y0143341D03*
X0217083Y0141372D03*
X0217083Y0139404D03*
X0217083Y0137435D03*
X0217083Y0135467D03*
X0217083Y0133498D03*
X0217083Y0131530D03*
X0217083Y0129561D03*
X0217083Y0127593D03*
X0181650Y0127593D03*
X0181650Y0129561D03*
X0181650Y0131530D03*
X0181650Y0133498D03*
X0181650Y0135467D03*
X0181650Y0137435D03*
X0181650Y0139404D03*
X0181650Y0141372D03*
X0181650Y0143341D03*
X0181650Y0145309D03*
X0181650Y0147278D03*
X0181650Y0149246D03*
D15*
X0239461Y0147388D03*
X0242020Y0147388D03*
X0244580Y0147388D03*
X0247139Y0147388D03*
X0247139Y0170420D03*
X0244580Y0170420D03*
X0242020Y0170420D03*
X0239461Y0170420D03*
D16*
X0553300Y0183770D03*
X0553300Y0192038D03*
X0540300Y0043038D03*
X0540300Y0034770D03*
D17*
X0338300Y0039904D03*
X0316300Y0039904D03*
X0316300Y0054904D03*
X0338300Y0054904D03*
X0286800Y0054904D03*
X0264800Y0054904D03*
X0264800Y0039904D03*
X0286800Y0039904D03*
D18*
X0373805Y0101691D03*
X0378135Y0101691D03*
X0382466Y0101691D03*
X0386797Y0101691D03*
X0391128Y0101691D03*
X0395458Y0101691D03*
X0399789Y0101691D03*
X0399789Y0139092D03*
X0395458Y0139092D03*
X0391128Y0139092D03*
X0386797Y0139092D03*
X0382466Y0139092D03*
X0378135Y0139092D03*
X0373805Y0139092D03*
D19*
X0369671Y0139092D03*
X0403923Y0139092D03*
X0403923Y0101691D03*
X0369671Y0101691D03*
D20*
X0363847Y0054904D03*
X0383847Y0054904D03*
X0373847Y0044904D03*
X0363847Y0034904D03*
X0383847Y0034904D03*
D21*
X0206162Y0214345D03*
X0206162Y0219463D03*
D22*
X0191477Y0216865D03*
D23*
X0200576Y0168904D03*
X0210024Y0168904D03*
D24*
X0267800Y0130404D02*
X0267800Y0124404D01*
X0277800Y0124404D02*
X0277800Y0130404D01*
X0287800Y0130404D02*
X0287800Y0124404D01*
X0297800Y0124404D02*
X0297800Y0130404D01*
X0307800Y0130404D02*
X0307800Y0124404D01*
X0307800Y0111404D02*
X0307800Y0105404D01*
X0297800Y0105404D02*
X0297800Y0111404D01*
X0287800Y0111404D02*
X0287800Y0105404D01*
X0277800Y0105404D02*
X0277800Y0111404D01*
X0267800Y0111404D02*
X0267800Y0105404D01*
X0266682Y0072924D02*
X0266682Y0066924D01*
X0276682Y0066924D02*
X0276682Y0072924D01*
X0296603Y0072924D02*
X0296603Y0066924D01*
X0306603Y0066924D02*
X0306603Y0072924D01*
X0316603Y0072924D02*
X0316603Y0066924D01*
X0326603Y0066924D02*
X0326603Y0072924D01*
X0336603Y0072924D02*
X0336603Y0066924D01*
X0346603Y0066924D02*
X0346603Y0072924D01*
X0356603Y0072924D02*
X0356603Y0066924D01*
X0391091Y0066924D02*
X0391091Y0072924D01*
X0401091Y0072924D02*
X0401091Y0066924D01*
X0411091Y0066924D02*
X0411091Y0072924D01*
X0421091Y0072924D02*
X0421091Y0066924D01*
X0431091Y0066924D02*
X0431091Y0072924D01*
X0441091Y0072924D02*
X0441091Y0066924D01*
X0451091Y0066924D02*
X0451091Y0072924D01*
X0471013Y0072924D02*
X0471013Y0066924D01*
X0481013Y0066924D02*
X0481013Y0072924D01*
X0491013Y0072924D02*
X0491013Y0066924D01*
X0501013Y0066924D02*
X0501013Y0072924D01*
X0511013Y0072924D02*
X0511013Y0066924D01*
X0521013Y0066924D02*
X0521013Y0072924D01*
X0531013Y0072924D02*
X0531013Y0066924D01*
X0256682Y0066924D02*
X0256682Y0072924D01*
X0246682Y0072924D02*
X0246682Y0066924D01*
X0236682Y0066924D02*
X0236682Y0072924D01*
X0226682Y0072924D02*
X0226682Y0066924D01*
X0216682Y0066924D02*
X0216682Y0072924D01*
X0182194Y0072924D02*
X0182194Y0066924D01*
X0172194Y0066924D02*
X0172194Y0072924D01*
X0162194Y0072924D02*
X0162194Y0066924D01*
X0152194Y0066924D02*
X0152194Y0072924D01*
X0142194Y0072924D02*
X0142194Y0066924D01*
X0132194Y0066924D02*
X0132194Y0072924D01*
X0122194Y0072924D02*
X0122194Y0066924D01*
X0102272Y0066924D02*
X0102272Y0072924D01*
X0092272Y0072924D02*
X0092272Y0066924D01*
X0082272Y0066924D02*
X0082272Y0072924D01*
X0072272Y0072924D02*
X0072272Y0066924D01*
X0062272Y0066924D02*
X0062272Y0072924D01*
X0052272Y0072924D02*
X0052272Y0066924D01*
X0042272Y0066924D02*
X0042272Y0072924D01*
X0066300Y0048404D02*
X0066300Y0042404D01*
X0076300Y0042404D02*
X0076300Y0048404D01*
X0086300Y0048404D02*
X0086300Y0042404D01*
X0096300Y0042404D02*
X0096300Y0048404D01*
X0092272Y0210231D02*
X0092272Y0216231D01*
X0102272Y0216231D02*
X0102272Y0210231D01*
X0122194Y0210231D02*
X0122194Y0216231D01*
X0172194Y0216231D02*
X0172194Y0210231D01*
X0182194Y0210231D02*
X0182194Y0216231D01*
X0216682Y0216231D02*
X0216682Y0210231D01*
X0266682Y0210231D02*
X0266682Y0216231D01*
X0276682Y0216231D02*
X0276682Y0210231D01*
X0296603Y0210231D02*
X0296603Y0216231D01*
X0346603Y0216231D02*
X0346603Y0210231D01*
X0356603Y0210231D02*
X0356603Y0216231D01*
X0391091Y0216231D02*
X0391091Y0210231D01*
X0441091Y0210231D02*
X0441091Y0216231D01*
X0451091Y0216231D02*
X0451091Y0210231D01*
X0471013Y0210231D02*
X0471013Y0216231D01*
X0521013Y0216231D02*
X0521013Y0210231D01*
X0531013Y0210231D02*
X0531013Y0216231D01*
X0042272Y0216231D02*
X0042272Y0210231D01*
D25*
X0013611Y0039215D03*
X0350446Y0153388D03*
X0560855Y0212443D03*
X0560855Y0039215D03*
X0013611Y0212443D03*
D26*
X0145700Y0050004D03*
X0145700Y0041004D03*
X0145700Y0032004D03*
D27*
X0120900Y0040904D03*
D28*
X0166800Y0045416D03*
X0166800Y0034392D03*
D29*
X0230800Y0038404D03*
X0240800Y0038404D03*
X0240800Y0048404D03*
X0230800Y0048404D03*
X0404280Y0046183D03*
X0414280Y0046183D03*
X0414280Y0036183D03*
X0404280Y0036183D03*
D30*
X0203769Y0043743D03*
X0201209Y0043743D03*
X0198650Y0043743D03*
X0196091Y0043743D03*
X0193532Y0043743D03*
D31*
X0194713Y0033309D03*
X0202587Y0033309D03*
D32*
X0212430Y0033309D03*
X0184871Y0033309D03*
D33*
X0188808Y0043939D03*
X0208493Y0043939D03*
D34*
X0207706Y0036459D02*
X0212036Y0036459D01*
X0212651Y0036399D01*
X0213242Y0036219D01*
X0213786Y0035928D01*
X0214263Y0035537D01*
X0214655Y0035059D01*
X0214946Y0034515D01*
X0215125Y0033924D01*
X0215186Y0033309D01*
X0215125Y0032695D01*
X0214946Y0032104D01*
X0214655Y0031560D01*
X0214263Y0031082D01*
X0213786Y0030691D01*
X0213242Y0030400D01*
X0212651Y0030220D01*
X0212036Y0030160D01*
X0207706Y0030160D01*
X0207706Y0036459D01*
X0207706Y0036395D02*
X0212662Y0036395D01*
X0214742Y0034896D02*
X0207706Y0034896D01*
X0207706Y0033398D02*
X0215177Y0033398D01*
X0214837Y0031899D02*
X0207706Y0031899D01*
X0207706Y0030401D02*
X0213244Y0030401D01*
X0189595Y0030401D02*
X0184057Y0030401D01*
X0184059Y0030400D02*
X0183515Y0030691D01*
X0183037Y0031082D01*
X0182646Y0031560D01*
X0182355Y0032104D01*
X0182175Y0032695D01*
X0182115Y0033309D01*
X0182175Y0033924D01*
X0182355Y0034515D01*
X0182646Y0035059D01*
X0183037Y0035537D01*
X0183515Y0035928D01*
X0184059Y0036219D01*
X0184650Y0036399D01*
X0185265Y0036459D01*
X0189595Y0036459D01*
X0189595Y0030160D01*
X0185265Y0030160D01*
X0184650Y0030220D01*
X0184059Y0030400D01*
X0182464Y0031899D02*
X0189595Y0031899D01*
X0189595Y0033398D02*
X0182124Y0033398D01*
X0182559Y0034896D02*
X0189595Y0034896D01*
X0189595Y0036395D02*
X0184638Y0036395D01*
D35*
X0445174Y0140904D03*
D36*
X0474702Y0140904D03*
D37*
X0456524Y0035672D03*
X0436839Y0035672D03*
X0495894Y0035672D03*
X0515580Y0035672D03*
D38*
X0519517Y0045514D03*
X0491957Y0045514D03*
X0460461Y0045514D03*
X0432902Y0045514D03*
D39*
X0388300Y0154904D03*
D40*
X0511800Y0136065D03*
X0511800Y0131735D03*
X0511800Y0127404D03*
X0511800Y0123073D03*
X0511800Y0118743D03*
X0511800Y0114412D03*
X0511800Y0110081D03*
X0511800Y0105750D03*
X0511800Y0101420D03*
D41*
X0553020Y0096302D03*
X0553020Y0158506D03*
D42*
X0515225Y0096065D03*
D43*
X0515225Y0155061D03*
D44*
X0554595Y0139609D03*
X0554595Y0108113D03*
D45*
X0564800Y0080904D03*
X0564800Y0070904D03*
X0564800Y0060904D03*
D46*
X0198300Y0114404D03*
M02*
