G75*
%MOIN*%
%OFA0B0*%
%FSLAX25Y25*%
%IPPOS*%
%LPD*%
%AMOC8*
5,1,8,0,0,1.08239X$1,22.5*
%
%ADD10R,0.04724X0.03150*%
%ADD11R,0.06299X0.10630*%
%ADD12R,0.03150X0.04724*%
%ADD13R,0.00787X0.03937*%
%ADD14R,0.03937X0.00787*%
%ADD15R,0.01378X0.04724*%
%ADD16R,0.04724X0.04724*%
%ADD17R,0.06000X0.03000*%
%ADD18R,0.03150X0.07087*%
%ADD19R,0.02756X0.07087*%
%ADD20R,0.04331X0.03150*%
%ADD21R,0.04331X0.03937*%
%ADD22R,0.04331X0.07480*%
%ADD23R,0.07900X0.05900*%
%ADD24R,0.07900X0.15000*%
%ADD25R,0.10630X0.06299*%
%ADD26R,0.01378X0.05512*%
%ADD27R,0.05906X0.06102*%
%ADD28C,0.00500*%
%ADD29R,0.05512X0.02756*%
%ADD30R,0.07874X0.05512*%
%ADD31R,0.05512X0.05039*%
%ADD32R,0.05512X0.07677*%
D10*
X0254800Y0039361D03*
X0254800Y0046447D03*
X0304400Y0046447D03*
X0304400Y0039361D03*
X0389600Y0084461D03*
X0398800Y0084461D03*
X0398800Y0091547D03*
X0389600Y0091547D03*
X0316800Y0125861D03*
X0316800Y0132947D03*
X0253300Y0149361D03*
X0253300Y0156447D03*
X0232800Y0156447D03*
X0223800Y0156447D03*
X0223800Y0149361D03*
X0232800Y0149361D03*
X0181300Y0154961D03*
X0181300Y0162047D03*
X0200800Y0176361D03*
X0209800Y0176361D03*
X0209800Y0183447D03*
X0200800Y0183447D03*
X0226800Y0117947D03*
X0236700Y0117947D03*
X0246700Y0117947D03*
X0246700Y0110861D03*
X0236700Y0110861D03*
X0226800Y0110861D03*
X0211800Y0110447D03*
X0211800Y0103361D03*
X0554300Y0080947D03*
X0554300Y0073861D03*
X0553300Y0169361D03*
X0553300Y0176447D03*
D11*
X0511812Y0212404D03*
X0500788Y0212404D03*
X0431812Y0212404D03*
X0420788Y0212404D03*
X0337312Y0212904D03*
X0326288Y0212904D03*
X0257812Y0212904D03*
X0246788Y0212904D03*
X0162312Y0212904D03*
X0151288Y0212904D03*
X0083812Y0212904D03*
X0072788Y0212904D03*
D12*
X0195757Y0203904D03*
X0202843Y0203904D03*
X0167343Y0158904D03*
X0160257Y0158904D03*
X0160257Y0151904D03*
X0167343Y0151904D03*
X0167343Y0144904D03*
X0160257Y0144904D03*
G36*
X0177022Y0120465D02*
X0179249Y0122692D01*
X0182588Y0119353D01*
X0180361Y0117126D01*
X0177022Y0120465D01*
G37*
G36*
X0172012Y0115454D02*
X0174239Y0117681D01*
X0177578Y0114342D01*
X0175351Y0112115D01*
X0172012Y0115454D01*
G37*
X0373757Y0088904D03*
X0380843Y0088904D03*
X0495257Y0123904D03*
X0502343Y0123904D03*
X0502343Y0130904D03*
X0495257Y0130904D03*
X0530757Y0051904D03*
X0537843Y0051904D03*
D13*
X0210194Y0120703D03*
X0208225Y0120703D03*
X0206257Y0120703D03*
X0204288Y0120703D03*
X0202320Y0120703D03*
X0200351Y0120703D03*
X0198383Y0120703D03*
X0196414Y0120703D03*
X0194446Y0120703D03*
X0192477Y0120703D03*
X0190509Y0120703D03*
X0188540Y0120703D03*
X0188540Y0156136D03*
X0190509Y0156136D03*
X0192477Y0156136D03*
X0194446Y0156136D03*
X0196414Y0156136D03*
X0198383Y0156136D03*
X0200351Y0156136D03*
X0202320Y0156136D03*
X0204288Y0156136D03*
X0206257Y0156136D03*
X0208225Y0156136D03*
X0210194Y0156136D03*
D14*
X0217083Y0149246D03*
X0217083Y0147278D03*
X0217083Y0145309D03*
X0217083Y0143341D03*
X0217083Y0141372D03*
X0217083Y0139404D03*
X0217083Y0137435D03*
X0217083Y0135467D03*
X0217083Y0133498D03*
X0217083Y0131530D03*
X0217083Y0129561D03*
X0217083Y0127593D03*
X0181650Y0127593D03*
X0181650Y0129561D03*
X0181650Y0131530D03*
X0181650Y0133498D03*
X0181650Y0135467D03*
X0181650Y0137435D03*
X0181650Y0139404D03*
X0181650Y0141372D03*
X0181650Y0143341D03*
X0181650Y0145309D03*
X0181650Y0147278D03*
X0181650Y0149246D03*
D15*
X0239461Y0147388D03*
X0242020Y0147388D03*
X0244580Y0147388D03*
X0247139Y0147388D03*
X0247139Y0170420D03*
X0244580Y0170420D03*
X0242020Y0170420D03*
X0239461Y0170420D03*
D16*
X0553300Y0183770D03*
X0553300Y0192038D03*
X0540300Y0043038D03*
X0540300Y0034770D03*
D17*
X0338300Y0039904D03*
X0316300Y0039904D03*
X0316300Y0054904D03*
X0338300Y0054904D03*
X0286800Y0054904D03*
X0264800Y0054904D03*
X0264800Y0039904D03*
X0286800Y0039904D03*
D18*
X0373805Y0101691D03*
X0378135Y0101691D03*
X0382466Y0101691D03*
X0386797Y0101691D03*
X0391128Y0101691D03*
X0395458Y0101691D03*
X0399789Y0101691D03*
X0399789Y0139092D03*
X0395458Y0139092D03*
X0391128Y0139092D03*
X0386797Y0139092D03*
X0382466Y0139092D03*
X0378135Y0139092D03*
X0373805Y0139092D03*
D19*
X0369671Y0139092D03*
X0403923Y0139092D03*
X0403923Y0101691D03*
X0369671Y0101691D03*
D20*
X0206162Y0214345D03*
X0206162Y0219463D03*
D21*
X0191477Y0216865D03*
D22*
X0200576Y0168904D03*
X0210024Y0168904D03*
D23*
X0145700Y0050004D03*
X0145700Y0041004D03*
X0145700Y0032004D03*
D24*
X0120900Y0040904D03*
D25*
X0166800Y0045416D03*
X0166800Y0034392D03*
D26*
X0193532Y0043743D03*
X0196091Y0043743D03*
X0198650Y0043743D03*
X0201209Y0043743D03*
X0203769Y0043743D03*
D27*
X0202587Y0033309D03*
X0194713Y0033309D03*
D28*
X0189950Y0033386D02*
X0181750Y0033386D01*
X0181750Y0032888D02*
X0189950Y0032888D01*
X0189950Y0032389D02*
X0181750Y0032389D01*
X0181750Y0032009D02*
X0181750Y0034609D01*
X0183950Y0036809D01*
X0189950Y0036809D01*
X0189950Y0029909D01*
X0183850Y0029909D01*
X0182150Y0031609D01*
X0181750Y0032009D01*
X0181869Y0031891D02*
X0189950Y0031891D01*
X0189950Y0031392D02*
X0182368Y0031392D01*
X0182866Y0030894D02*
X0189950Y0030894D01*
X0189950Y0030395D02*
X0183365Y0030395D01*
X0181750Y0033885D02*
X0189950Y0033885D01*
X0189950Y0034383D02*
X0181750Y0034383D01*
X0182023Y0034882D02*
X0189950Y0034882D01*
X0189950Y0035380D02*
X0182521Y0035380D01*
X0183020Y0035879D02*
X0189950Y0035879D01*
X0189950Y0036377D02*
X0183518Y0036377D01*
X0207350Y0036377D02*
X0213483Y0036377D01*
X0213050Y0036809D02*
X0207350Y0036809D01*
X0207350Y0030009D01*
X0213250Y0030009D01*
X0215150Y0031909D01*
X0215150Y0034709D01*
X0213050Y0036809D01*
X0213981Y0035879D02*
X0207350Y0035879D01*
X0207350Y0035380D02*
X0214480Y0035380D01*
X0214978Y0034882D02*
X0207350Y0034882D01*
X0207350Y0034383D02*
X0215150Y0034383D01*
X0215150Y0033885D02*
X0207350Y0033885D01*
X0207350Y0033386D02*
X0215150Y0033386D01*
X0215150Y0032888D02*
X0207350Y0032888D01*
X0207350Y0032389D02*
X0215150Y0032389D01*
X0215131Y0031891D02*
X0207350Y0031891D01*
X0207350Y0031392D02*
X0214633Y0031392D01*
X0214134Y0030894D02*
X0207350Y0030894D01*
X0207350Y0030395D02*
X0213636Y0030395D01*
D29*
X0511800Y0101420D03*
X0511800Y0105750D03*
X0511800Y0110081D03*
X0511800Y0114412D03*
X0511800Y0118743D03*
X0511800Y0123073D03*
X0511800Y0127404D03*
X0511800Y0131735D03*
X0511800Y0136065D03*
D30*
X0553020Y0158506D03*
X0553020Y0096302D03*
D31*
X0515225Y0096065D03*
D32*
X0515225Y0155061D03*
M02*
