G75*
%MOIN*%
%OFA0B0*%
%FSLAX25Y25*%
%IPPOS*%
%LPD*%
%AMOC8*
5,1,8,0,0,1.08239X$1,22.5*
%
%ADD10C,0.00400*%
%ADD11C,0.00300*%
%ADD12C,0.00600*%
%ADD13C,0.00100*%
%ADD14C,0.00000*%
D10*
X0015214Y0021050D02*
X0018284Y0017981D01*
X0018284Y0017213D01*
X0019818Y0017213D02*
X0022888Y0017213D01*
X0021353Y0017213D02*
X0021353Y0021817D01*
X0022888Y0020283D01*
X0024422Y0021050D02*
X0024422Y0017981D01*
X0025190Y0017213D01*
X0026724Y0017213D01*
X0027491Y0017981D01*
X0024422Y0021050D01*
X0025190Y0021817D01*
X0026724Y0021817D01*
X0027491Y0021050D01*
X0027491Y0017981D01*
X0029026Y0017213D02*
X0032095Y0017213D01*
X0029026Y0020283D01*
X0029026Y0021050D01*
X0029793Y0021817D01*
X0031328Y0021817D01*
X0032095Y0021050D01*
X0038234Y0019515D02*
X0038234Y0017213D01*
X0039769Y0017213D02*
X0039769Y0019515D01*
X0039001Y0020283D01*
X0038234Y0019515D01*
X0039769Y0019515D02*
X0040536Y0020283D01*
X0041303Y0020283D01*
X0041303Y0017213D01*
X0042838Y0018748D02*
X0042838Y0019515D01*
X0043605Y0020283D01*
X0045140Y0020283D01*
X0045907Y0019515D01*
X0045907Y0017981D01*
X0045140Y0017213D01*
X0043605Y0017213D01*
X0042838Y0018748D02*
X0045907Y0018748D01*
X0047442Y0017213D02*
X0049744Y0018748D01*
X0047442Y0020283D01*
X0047442Y0023213D02*
X0050511Y0023213D01*
X0047442Y0026283D01*
X0047442Y0027050D01*
X0048209Y0027817D01*
X0049744Y0027817D01*
X0050511Y0027050D01*
X0052046Y0023213D02*
X0055115Y0023213D01*
X0053580Y0023213D02*
X0053580Y0027817D01*
X0055115Y0026283D01*
X0056650Y0025515D02*
X0056650Y0024748D01*
X0059719Y0024748D01*
X0059719Y0023981D02*
X0059719Y0025515D01*
X0058952Y0026283D01*
X0057417Y0026283D01*
X0056650Y0025515D01*
X0057417Y0023213D02*
X0058952Y0023213D01*
X0059719Y0023981D01*
X0058952Y0021817D02*
X0055882Y0017213D01*
X0055882Y0021817D01*
X0054348Y0020283D02*
X0054348Y0017981D01*
X0053580Y0017213D01*
X0051278Y0017213D01*
X0051278Y0020283D01*
X0049744Y0021817D02*
X0049744Y0017213D01*
X0058952Y0017213D02*
X0058952Y0021817D01*
X0060486Y0020283D02*
X0060486Y0017213D01*
X0062788Y0017213D01*
X0063556Y0017981D01*
X0063556Y0020283D01*
X0065090Y0020283D02*
X0067392Y0018748D01*
X0065090Y0017213D01*
X0067392Y0017213D02*
X0067392Y0021817D01*
X0067392Y0023213D02*
X0065858Y0023213D01*
X0066625Y0023213D02*
X0066625Y0026283D01*
X0067392Y0026283D01*
X0066625Y0027817D02*
X0066625Y0028585D01*
X0064323Y0026283D02*
X0061254Y0023213D01*
X0064323Y0023213D02*
X0061254Y0026283D01*
X0068927Y0026283D02*
X0071996Y0023213D01*
X0073531Y0021817D02*
X0073531Y0017213D01*
X0075833Y0017213D01*
X0076600Y0017981D01*
X0076600Y0019515D01*
X0075833Y0020283D01*
X0073531Y0020283D01*
X0071996Y0019515D02*
X0071996Y0017981D01*
X0071229Y0017213D01*
X0069694Y0017213D01*
X0068927Y0018748D02*
X0071996Y0018748D01*
X0071996Y0019515D02*
X0071229Y0020283D01*
X0069694Y0020283D01*
X0068927Y0019515D01*
X0068927Y0018748D01*
X0068927Y0023213D02*
X0071996Y0026283D01*
X0073531Y0025515D02*
X0073531Y0024748D01*
X0076600Y0024748D01*
X0076600Y0023981D02*
X0076600Y0025515D01*
X0075833Y0026283D01*
X0074298Y0026283D01*
X0073531Y0025515D01*
X0074298Y0023213D02*
X0075833Y0023213D01*
X0076600Y0023981D01*
X0018284Y0021817D02*
X0015214Y0021817D01*
X0015214Y0021050D01*
X0060448Y0141313D02*
X0059764Y0141997D01*
X0059764Y0143365D01*
X0061132Y0143365D01*
X0062500Y0141997D02*
X0061816Y0141313D01*
X0060448Y0141313D01*
X0062500Y0141997D02*
X0062500Y0144733D01*
X0061816Y0145417D01*
X0060448Y0145417D01*
X0059764Y0144733D01*
X0067721Y0145417D02*
X0067721Y0142681D01*
X0069089Y0141313D01*
X0070456Y0142681D01*
X0070456Y0145417D01*
X0071864Y0144733D02*
X0071864Y0144049D01*
X0072548Y0143365D01*
X0071864Y0142681D01*
X0071864Y0141997D01*
X0072548Y0141313D01*
X0073916Y0141313D01*
X0074600Y0141997D01*
X0073232Y0143365D02*
X0072548Y0143365D01*
X0071864Y0144733D02*
X0072548Y0145417D01*
X0073916Y0145417D01*
X0074600Y0144733D01*
D11*
X0039850Y0089916D02*
X0039850Y0087013D01*
X0039850Y0087981D02*
X0038399Y0087981D01*
X0037915Y0088465D01*
X0037915Y0089432D01*
X0038399Y0089916D01*
X0039850Y0089916D01*
X0038883Y0087981D02*
X0037915Y0087013D01*
X0036903Y0087013D02*
X0034969Y0087013D01*
X0035936Y0087013D02*
X0035936Y0089916D01*
X0036903Y0088948D01*
X0033957Y0089432D02*
X0033473Y0089916D01*
X0032506Y0089916D01*
X0032022Y0089432D01*
X0032022Y0088948D01*
X0033957Y0087013D01*
X0032022Y0087013D01*
X0044022Y0060116D02*
X0044022Y0059632D01*
X0045957Y0057697D01*
X0045957Y0057213D01*
X0046969Y0057213D02*
X0048903Y0057213D01*
X0047936Y0057213D02*
X0047936Y0060116D01*
X0048903Y0059148D01*
X0049915Y0058665D02*
X0050399Y0058181D01*
X0051850Y0058181D01*
X0050883Y0058181D02*
X0049915Y0057213D01*
X0049915Y0058665D02*
X0049915Y0059632D01*
X0050399Y0060116D01*
X0051850Y0060116D01*
X0051850Y0057213D01*
X0050450Y0047866D02*
X0048999Y0047866D01*
X0048515Y0047382D01*
X0048515Y0046415D01*
X0048999Y0045931D01*
X0050450Y0045931D01*
X0050450Y0044963D02*
X0050450Y0047866D01*
X0047503Y0047866D02*
X0047503Y0044963D01*
X0046052Y0044963D01*
X0045569Y0045447D01*
X0045569Y0045931D01*
X0046052Y0046415D01*
X0047503Y0046415D01*
X0047503Y0047866D02*
X0046052Y0047866D01*
X0045569Y0047382D01*
X0045569Y0046898D01*
X0046052Y0046415D01*
X0044557Y0046415D02*
X0043106Y0046415D01*
X0042622Y0045931D01*
X0042622Y0045447D01*
X0043106Y0044963D01*
X0044073Y0044963D01*
X0044557Y0045447D01*
X0044557Y0046415D01*
X0043589Y0047382D01*
X0042622Y0047866D01*
X0040050Y0039666D02*
X0038599Y0039666D01*
X0038115Y0039182D01*
X0038115Y0038215D01*
X0038599Y0037731D01*
X0040050Y0037731D01*
X0040050Y0036763D02*
X0040050Y0039666D01*
X0037103Y0039666D02*
X0037103Y0036763D01*
X0037103Y0038215D02*
X0036136Y0038215D01*
X0037103Y0039666D02*
X0035169Y0039666D01*
X0034157Y0038698D02*
X0033189Y0039666D01*
X0033189Y0036763D01*
X0032222Y0036763D02*
X0034157Y0036763D01*
X0028290Y0051563D02*
X0028290Y0054466D01*
X0026838Y0054466D01*
X0026355Y0053982D01*
X0026355Y0053015D01*
X0026838Y0052531D01*
X0028290Y0052531D01*
X0025343Y0053015D02*
X0024376Y0053015D01*
X0025343Y0054466D02*
X0023408Y0054466D01*
X0022397Y0053982D02*
X0022397Y0052047D01*
X0020462Y0053982D01*
X0020462Y0052047D01*
X0020945Y0051563D01*
X0021913Y0051563D01*
X0022397Y0052047D01*
X0022397Y0053982D02*
X0021913Y0054466D01*
X0020945Y0054466D01*
X0020462Y0053982D01*
X0025343Y0054466D02*
X0025343Y0051563D01*
X0044022Y0060116D02*
X0045957Y0060116D01*
D12*
X0037981Y0060376D02*
X0035619Y0060376D01*
X0035619Y0055651D02*
X0037981Y0055651D01*
X0037581Y0081051D02*
X0035219Y0081051D01*
X0035219Y0085776D02*
X0037581Y0085776D01*
D13*
X0037153Y0079465D02*
X0036653Y0079465D01*
X0036403Y0079214D01*
X0037403Y0078214D01*
X0037153Y0077963D01*
X0036653Y0077963D01*
X0036403Y0078214D01*
X0036403Y0079214D01*
X0037403Y0078214D01*
X0037403Y0079214D01*
X0037153Y0079465D01*
X0036653Y0079465D01*
X0036403Y0079214D01*
X0036403Y0078214D01*
X0036653Y0077963D01*
X0037153Y0077963D01*
X0037403Y0078214D01*
X0037403Y0079214D01*
X0037153Y0079465D01*
X0038376Y0079465D02*
X0038376Y0077963D01*
X0038376Y0079465D01*
X0038877Y0078964D01*
X0038376Y0079465D01*
X0039349Y0079465D02*
X0040350Y0079465D01*
X0040350Y0078714D01*
X0039850Y0078964D01*
X0039599Y0078964D01*
X0039349Y0078714D01*
X0039349Y0078214D01*
X0039599Y0077963D01*
X0040100Y0077963D01*
X0040350Y0078214D01*
X0040100Y0077963D01*
X0039599Y0077963D01*
X0039349Y0078214D01*
X0039349Y0078714D01*
X0039599Y0078964D01*
X0039850Y0078964D01*
X0040350Y0078714D01*
X0040350Y0079465D01*
X0039349Y0079465D01*
X0038877Y0077963D02*
X0037876Y0077963D01*
X0038877Y0077963D01*
X0035930Y0077963D02*
X0035930Y0079465D01*
X0035930Y0077963D01*
X0035930Y0078464D02*
X0034929Y0079465D01*
X0035930Y0078464D01*
X0035680Y0078714D02*
X0034929Y0077963D01*
X0035680Y0078714D01*
D14*
X0033800Y0048413D02*
X0033750Y0048413D01*
X0033733Y0048397D01*
X0033733Y0048363D01*
X0033750Y0048347D01*
X0033800Y0048347D01*
X0033800Y0048313D02*
X0033800Y0048413D01*
X0033708Y0048413D02*
X0033641Y0048413D01*
X0033616Y0048413D02*
X0033566Y0048413D01*
X0033549Y0048397D01*
X0033549Y0048363D01*
X0033566Y0048347D01*
X0033616Y0048347D01*
X0033582Y0048347D02*
X0033549Y0048313D01*
X0033524Y0048313D02*
X0033457Y0048313D01*
X0033490Y0048313D02*
X0033490Y0048413D01*
X0033524Y0048380D01*
X0033616Y0048413D02*
X0033616Y0048313D01*
X0033675Y0048313D02*
X0033675Y0048413D01*
X0033432Y0048413D02*
X0033365Y0048413D01*
X0033340Y0048413D02*
X0033290Y0048413D01*
X0033273Y0048397D01*
X0033273Y0048363D01*
X0033290Y0048347D01*
X0033340Y0048347D01*
X0033340Y0048313D02*
X0033340Y0048413D01*
X0033398Y0048413D02*
X0033398Y0048313D01*
X0033248Y0048313D02*
X0033181Y0048313D01*
X0033155Y0048330D02*
X0033139Y0048313D01*
X0033105Y0048313D01*
X0033089Y0048330D01*
X0033089Y0048347D01*
X0033105Y0048363D01*
X0033122Y0048363D01*
X0033105Y0048363D02*
X0033089Y0048380D01*
X0033089Y0048397D01*
X0033105Y0048413D01*
X0033139Y0048413D01*
X0033155Y0048397D01*
X0033214Y0048413D02*
X0033214Y0048313D01*
X0033248Y0048380D02*
X0033214Y0048413D01*
X0033063Y0048413D02*
X0033013Y0048413D01*
X0032997Y0048397D01*
X0032997Y0048363D01*
X0033013Y0048347D01*
X0033063Y0048347D01*
X0033030Y0048347D02*
X0032997Y0048313D01*
X0033063Y0048313D02*
X0033063Y0048413D01*
X0037413Y0041213D02*
X0037397Y0041197D01*
X0037397Y0041163D01*
X0037413Y0041147D01*
X0037463Y0041147D01*
X0037489Y0041147D02*
X0037489Y0041130D01*
X0037505Y0041113D01*
X0037539Y0041113D01*
X0037555Y0041130D01*
X0037581Y0041113D02*
X0037648Y0041113D01*
X0037614Y0041113D02*
X0037614Y0041213D01*
X0037648Y0041180D01*
X0037673Y0041163D02*
X0037690Y0041147D01*
X0037740Y0041147D01*
X0037740Y0041113D02*
X0037740Y0041213D01*
X0037690Y0041213D01*
X0037673Y0041197D01*
X0037673Y0041163D01*
X0037765Y0041213D02*
X0037832Y0041213D01*
X0037798Y0041213D02*
X0037798Y0041113D01*
X0037857Y0041113D02*
X0037924Y0041113D01*
X0037949Y0041113D02*
X0037982Y0041147D01*
X0037966Y0041147D02*
X0038016Y0041147D01*
X0038016Y0041113D02*
X0038016Y0041213D01*
X0037966Y0041213D01*
X0037949Y0041197D01*
X0037949Y0041163D01*
X0037966Y0041147D01*
X0037924Y0041180D02*
X0037890Y0041213D01*
X0037890Y0041113D01*
X0038041Y0041213D02*
X0038108Y0041213D01*
X0038133Y0041197D02*
X0038133Y0041163D01*
X0038150Y0041147D01*
X0038200Y0041147D01*
X0038200Y0041113D02*
X0038200Y0041213D01*
X0038150Y0041213D01*
X0038133Y0041197D01*
X0038075Y0041213D02*
X0038075Y0041113D01*
X0037555Y0041197D02*
X0037539Y0041213D01*
X0037505Y0041213D01*
X0037489Y0041197D01*
X0037489Y0041180D01*
X0037505Y0041163D01*
X0037489Y0041147D01*
X0037505Y0041163D02*
X0037522Y0041163D01*
X0037463Y0041113D02*
X0037463Y0041213D01*
X0037413Y0041213D01*
X0037430Y0041147D02*
X0037397Y0041113D01*
X0041797Y0048313D02*
X0041830Y0048347D01*
X0041813Y0048347D02*
X0041863Y0048347D01*
X0041889Y0048347D02*
X0041889Y0048330D01*
X0041905Y0048313D01*
X0041939Y0048313D01*
X0041955Y0048330D01*
X0041981Y0048313D02*
X0042048Y0048313D01*
X0042014Y0048313D02*
X0042014Y0048413D01*
X0042048Y0048380D01*
X0042073Y0048363D02*
X0042090Y0048347D01*
X0042140Y0048347D01*
X0042140Y0048313D02*
X0042140Y0048413D01*
X0042090Y0048413D01*
X0042073Y0048397D01*
X0042073Y0048363D01*
X0042165Y0048413D02*
X0042232Y0048413D01*
X0042198Y0048413D02*
X0042198Y0048313D01*
X0042257Y0048313D02*
X0042324Y0048313D01*
X0042349Y0048313D02*
X0042382Y0048347D01*
X0042366Y0048347D02*
X0042416Y0048347D01*
X0042416Y0048313D02*
X0042416Y0048413D01*
X0042366Y0048413D01*
X0042349Y0048397D01*
X0042349Y0048363D01*
X0042366Y0048347D01*
X0042324Y0048380D02*
X0042290Y0048413D01*
X0042290Y0048313D01*
X0042441Y0048413D02*
X0042508Y0048413D01*
X0042533Y0048397D02*
X0042533Y0048363D01*
X0042550Y0048347D01*
X0042600Y0048347D01*
X0042600Y0048313D02*
X0042600Y0048413D01*
X0042550Y0048413D01*
X0042533Y0048397D01*
X0042475Y0048413D02*
X0042475Y0048313D01*
X0041955Y0048397D02*
X0041939Y0048413D01*
X0041905Y0048413D01*
X0041889Y0048397D01*
X0041889Y0048380D01*
X0041905Y0048363D01*
X0041889Y0048347D01*
X0041905Y0048363D02*
X0041922Y0048363D01*
X0041863Y0048313D02*
X0041863Y0048413D01*
X0041813Y0048413D01*
X0041797Y0048397D01*
X0041797Y0048363D01*
X0041813Y0048347D01*
M02*
