%
M48
M72
T01C0.01969
T02C0.02362
T03C0.03150
T04C0.03200
T05C0.03346
T06C0.03937
T07C0.04000
T08C0.04528
T09C0.04724
T10C0.04921
T11C0.05118
T12C0.05906
T13C0.06299
T14C0.12598
%
T01
X188800Y54404
X250700Y87104
X198800Y100904
X194300Y97904
X196300Y108904
X211100Y115304
X201300Y127904
X195800Y127904
X190800Y127404
X182600Y123804
X189300Y134404
X174300Y141404
X188800Y142404
X192600Y149304
X202300Y148904
X217600Y153304
X200300Y161904
X194800Y168904
X247100Y153104
X259800Y145404
X296700Y153804
X373600Y131804
X390800Y131404
X382300Y146404
X436100Y153404
X480800Y140904
X506300Y154904
X545300Y139904
X518900Y122204
X475800Y123404
X430800Y89404
X510800Y85404
X533100Y34804
X334800Y90904
X271800Y61904
X275600Y38504
X206300Y136904
X239100Y212804
X318600Y212804
X412100Y212304
X493100Y212304
X540800Y172904
X143600Y212804
X64600Y212804
T02
X111800Y45404
X111800Y35904
X154300Y40404
T03
X436839Y35672
X456524Y35672
X495894Y35672
X515580Y35672
T04
X564800Y60904
X564800Y70904
X564800Y80904
T05
X208493Y43939
X188808Y43939
T06
X474702Y140904
T07
X307800Y127404
X297800Y127404
X287800Y127404
X277800Y127404
X267800Y127404
X267800Y108404
X277800Y108404
X287800Y108404
X297800Y108404
X307800Y108404
X306603Y69924
X296603Y69924
X276682Y69924
X266682Y69924
X256682Y69924
X246682Y69924
X236682Y69924
X226682Y69924
X216682Y69924
X182194Y69924
X172194Y69924
X162194Y69924
X152194Y69924
X142194Y69924
X132194Y69924
X122194Y69924
X102272Y69924
X92272Y69924
X82272Y69924
X72272Y69924
X62272Y69924
X52272Y69924
X42272Y69924
X66300Y45404
X76300Y45404
X86300Y45404
X96300Y45404
X230800Y48404
X240800Y48404
X240800Y38404
X230800Y38404
X316603Y69924
X326603Y69924
X336603Y69924
X346603Y69924
X356603Y69924
X391091Y69924
X401091Y69924
X411091Y69924
X421091Y69924
X431091Y69924
X441091Y69924
X451091Y69924
X471013Y69924
X481013Y69924
X491013Y69924
X501013Y69924
X511013Y69924
X521013Y69924
X531013Y69924
X414280Y46183
X404280Y46183
X404280Y36183
X414280Y36183
X391091Y213231
X356603Y213231
X346603Y213231
X296603Y213231
X276682Y213231
X266682Y213231
X216682Y213231
X182194Y213231
X172194Y213231
X122194Y213231
X102272Y213231
X92272Y213231
X42272Y213231
X441091Y213231
X451091Y213231
X471013Y213231
X521013Y213231
X531013Y213231
T08
X212430Y33309
X184871Y33309
T09
X432902Y45514
X460461Y45514
X491957Y45514
X519517Y45514
T10
X554595Y108113
X554595Y139609
T11
X445174Y140904
T12
X373847Y44904
T13
X363847Y54904
X383847Y54904
X383847Y34904
X363847Y34904
T14
X13611Y39215
X350446Y153388
X560855Y212443
X560855Y39215
X13611Y212443
M30
