G75*
%MOIN*%
%OFA0B0*%
%FSLAX25Y25*%
%IPPOS*%
%LPD*%
%AMOC8*
5,1,8,0,0,1.08239X$1,22.5*
%
%ADD10C,0.00000*%
D10*
X0001800Y0009513D02*
X0001800Y0151994D01*
X0001802Y0152175D01*
X0001809Y0152356D01*
X0001820Y0152537D01*
X0001835Y0152718D01*
X0001855Y0152898D01*
X0001879Y0153078D01*
X0001907Y0153257D01*
X0001940Y0153435D01*
X0001977Y0153612D01*
X0002018Y0153789D01*
X0002063Y0153964D01*
X0002113Y0154139D01*
X0002167Y0154312D01*
X0002225Y0154483D01*
X0002287Y0154654D01*
X0002354Y0154822D01*
X0002424Y0154989D01*
X0002498Y0155155D01*
X0002577Y0155318D01*
X0002659Y0155479D01*
X0002745Y0155639D01*
X0002835Y0155796D01*
X0002929Y0155951D01*
X0003026Y0156104D01*
X0003128Y0156254D01*
X0003232Y0156402D01*
X0003341Y0156548D01*
X0003452Y0156690D01*
X0003568Y0156830D01*
X0003686Y0156967D01*
X0003808Y0157102D01*
X0003933Y0157233D01*
X0004061Y0157361D01*
X0004192Y0157486D01*
X0004327Y0157608D01*
X0004464Y0157726D01*
X0004604Y0157842D01*
X0004746Y0157953D01*
X0004892Y0158062D01*
X0005040Y0158166D01*
X0005190Y0158268D01*
X0005343Y0158365D01*
X0005498Y0158459D01*
X0005655Y0158549D01*
X0005815Y0158635D01*
X0005976Y0158717D01*
X0006139Y0158796D01*
X0006305Y0158870D01*
X0006472Y0158940D01*
X0006640Y0159007D01*
X0006811Y0159069D01*
X0006982Y0159127D01*
X0007155Y0159181D01*
X0007330Y0159231D01*
X0007505Y0159276D01*
X0007682Y0159317D01*
X0007859Y0159354D01*
X0008037Y0159387D01*
X0008216Y0159415D01*
X0008396Y0159439D01*
X0008576Y0159459D01*
X0008757Y0159474D01*
X0008938Y0159485D01*
X0009119Y0159492D01*
X0009300Y0159494D01*
X0073040Y0159494D01*
X0073221Y0159492D01*
X0073402Y0159485D01*
X0073583Y0159474D01*
X0073764Y0159459D01*
X0073944Y0159439D01*
X0074124Y0159415D01*
X0074303Y0159387D01*
X0074481Y0159354D01*
X0074658Y0159317D01*
X0074835Y0159276D01*
X0075010Y0159231D01*
X0075185Y0159181D01*
X0075358Y0159127D01*
X0075529Y0159069D01*
X0075700Y0159007D01*
X0075868Y0158940D01*
X0076035Y0158870D01*
X0076201Y0158796D01*
X0076364Y0158717D01*
X0076525Y0158635D01*
X0076685Y0158549D01*
X0076842Y0158459D01*
X0076997Y0158365D01*
X0077150Y0158268D01*
X0077300Y0158166D01*
X0077448Y0158062D01*
X0077594Y0157953D01*
X0077736Y0157842D01*
X0077876Y0157726D01*
X0078013Y0157608D01*
X0078148Y0157486D01*
X0078279Y0157361D01*
X0078407Y0157233D01*
X0078532Y0157102D01*
X0078654Y0156967D01*
X0078772Y0156830D01*
X0078888Y0156690D01*
X0078999Y0156548D01*
X0079108Y0156402D01*
X0079212Y0156254D01*
X0079314Y0156104D01*
X0079411Y0155951D01*
X0079505Y0155796D01*
X0079595Y0155639D01*
X0079681Y0155479D01*
X0079763Y0155318D01*
X0079842Y0155155D01*
X0079916Y0154989D01*
X0079986Y0154822D01*
X0080053Y0154654D01*
X0080115Y0154483D01*
X0080173Y0154312D01*
X0080227Y0154139D01*
X0080277Y0153964D01*
X0080322Y0153789D01*
X0080363Y0153612D01*
X0080400Y0153435D01*
X0080433Y0153257D01*
X0080461Y0153078D01*
X0080485Y0152898D01*
X0080505Y0152718D01*
X0080520Y0152537D01*
X0080531Y0152356D01*
X0080538Y0152175D01*
X0080540Y0151994D01*
X0080540Y0009513D01*
X0080538Y0009332D01*
X0080531Y0009151D01*
X0080520Y0008970D01*
X0080505Y0008789D01*
X0080485Y0008609D01*
X0080461Y0008429D01*
X0080433Y0008250D01*
X0080400Y0008072D01*
X0080363Y0007895D01*
X0080322Y0007718D01*
X0080277Y0007543D01*
X0080227Y0007368D01*
X0080173Y0007195D01*
X0080115Y0007024D01*
X0080053Y0006853D01*
X0079986Y0006685D01*
X0079916Y0006518D01*
X0079842Y0006352D01*
X0079763Y0006189D01*
X0079681Y0006028D01*
X0079595Y0005868D01*
X0079505Y0005711D01*
X0079411Y0005556D01*
X0079314Y0005403D01*
X0079212Y0005253D01*
X0079108Y0005105D01*
X0078999Y0004959D01*
X0078888Y0004817D01*
X0078772Y0004677D01*
X0078654Y0004540D01*
X0078532Y0004405D01*
X0078407Y0004274D01*
X0078279Y0004146D01*
X0078148Y0004021D01*
X0078013Y0003899D01*
X0077876Y0003781D01*
X0077736Y0003665D01*
X0077594Y0003554D01*
X0077448Y0003445D01*
X0077300Y0003341D01*
X0077150Y0003239D01*
X0076997Y0003142D01*
X0076842Y0003048D01*
X0076685Y0002958D01*
X0076525Y0002872D01*
X0076364Y0002790D01*
X0076201Y0002711D01*
X0076035Y0002637D01*
X0075868Y0002567D01*
X0075700Y0002500D01*
X0075529Y0002438D01*
X0075358Y0002380D01*
X0075185Y0002326D01*
X0075010Y0002276D01*
X0074835Y0002231D01*
X0074658Y0002190D01*
X0074481Y0002153D01*
X0074303Y0002120D01*
X0074124Y0002092D01*
X0073944Y0002068D01*
X0073764Y0002048D01*
X0073583Y0002033D01*
X0073402Y0002022D01*
X0073221Y0002015D01*
X0073040Y0002013D01*
X0009300Y0002013D01*
X0009119Y0002015D01*
X0008938Y0002022D01*
X0008757Y0002033D01*
X0008576Y0002048D01*
X0008396Y0002068D01*
X0008216Y0002092D01*
X0008037Y0002120D01*
X0007859Y0002153D01*
X0007682Y0002190D01*
X0007505Y0002231D01*
X0007330Y0002276D01*
X0007155Y0002326D01*
X0006982Y0002380D01*
X0006811Y0002438D01*
X0006640Y0002500D01*
X0006472Y0002567D01*
X0006305Y0002637D01*
X0006139Y0002711D01*
X0005976Y0002790D01*
X0005815Y0002872D01*
X0005655Y0002958D01*
X0005498Y0003048D01*
X0005343Y0003142D01*
X0005190Y0003239D01*
X0005040Y0003341D01*
X0004892Y0003445D01*
X0004746Y0003554D01*
X0004604Y0003665D01*
X0004464Y0003781D01*
X0004327Y0003899D01*
X0004192Y0004021D01*
X0004061Y0004146D01*
X0003933Y0004274D01*
X0003808Y0004405D01*
X0003686Y0004540D01*
X0003568Y0004677D01*
X0003452Y0004817D01*
X0003341Y0004959D01*
X0003232Y0005105D01*
X0003128Y0005253D01*
X0003026Y0005403D01*
X0002929Y0005556D01*
X0002835Y0005711D01*
X0002745Y0005868D01*
X0002659Y0006028D01*
X0002577Y0006189D01*
X0002498Y0006352D01*
X0002424Y0006518D01*
X0002354Y0006685D01*
X0002287Y0006853D01*
X0002225Y0007024D01*
X0002167Y0007195D01*
X0002113Y0007368D01*
X0002063Y0007543D01*
X0002018Y0007718D01*
X0001977Y0007895D01*
X0001940Y0008072D01*
X0001907Y0008250D01*
X0001879Y0008429D01*
X0001855Y0008609D01*
X0001835Y0008789D01*
X0001820Y0008970D01*
X0001809Y0009151D01*
X0001802Y0009332D01*
X0001800Y0009513D01*
X0032902Y0105557D02*
X0032905Y0105799D01*
X0032914Y0106040D01*
X0032929Y0106281D01*
X0032949Y0106522D01*
X0032976Y0106762D01*
X0033009Y0107001D01*
X0033047Y0107240D01*
X0033091Y0107477D01*
X0033141Y0107714D01*
X0033197Y0107949D01*
X0033259Y0108182D01*
X0033326Y0108414D01*
X0033399Y0108645D01*
X0033477Y0108873D01*
X0033562Y0109099D01*
X0033651Y0109324D01*
X0033746Y0109546D01*
X0033847Y0109765D01*
X0033953Y0109983D01*
X0034064Y0110197D01*
X0034181Y0110409D01*
X0034302Y0110617D01*
X0034429Y0110823D01*
X0034561Y0111025D01*
X0034698Y0111225D01*
X0034839Y0111420D01*
X0034985Y0111613D01*
X0035136Y0111801D01*
X0035292Y0111986D01*
X0035452Y0112167D01*
X0035616Y0112344D01*
X0035785Y0112517D01*
X0035958Y0112686D01*
X0036135Y0112850D01*
X0036316Y0113010D01*
X0036501Y0113166D01*
X0036689Y0113317D01*
X0036882Y0113463D01*
X0037077Y0113604D01*
X0037277Y0113741D01*
X0037479Y0113873D01*
X0037685Y0114000D01*
X0037893Y0114121D01*
X0038105Y0114238D01*
X0038319Y0114349D01*
X0038537Y0114455D01*
X0038756Y0114556D01*
X0038978Y0114651D01*
X0039203Y0114740D01*
X0039429Y0114825D01*
X0039657Y0114903D01*
X0039888Y0114976D01*
X0040120Y0115043D01*
X0040353Y0115105D01*
X0040588Y0115161D01*
X0040825Y0115211D01*
X0041062Y0115255D01*
X0041301Y0115293D01*
X0041540Y0115326D01*
X0041780Y0115353D01*
X0042021Y0115373D01*
X0042262Y0115388D01*
X0042503Y0115397D01*
X0042745Y0115400D01*
X0042987Y0115397D01*
X0043228Y0115388D01*
X0043469Y0115373D01*
X0043710Y0115353D01*
X0043950Y0115326D01*
X0044189Y0115293D01*
X0044428Y0115255D01*
X0044665Y0115211D01*
X0044902Y0115161D01*
X0045137Y0115105D01*
X0045370Y0115043D01*
X0045602Y0114976D01*
X0045833Y0114903D01*
X0046061Y0114825D01*
X0046287Y0114740D01*
X0046512Y0114651D01*
X0046734Y0114556D01*
X0046953Y0114455D01*
X0047171Y0114349D01*
X0047385Y0114238D01*
X0047597Y0114121D01*
X0047805Y0114000D01*
X0048011Y0113873D01*
X0048213Y0113741D01*
X0048413Y0113604D01*
X0048608Y0113463D01*
X0048801Y0113317D01*
X0048989Y0113166D01*
X0049174Y0113010D01*
X0049355Y0112850D01*
X0049532Y0112686D01*
X0049705Y0112517D01*
X0049874Y0112344D01*
X0050038Y0112167D01*
X0050198Y0111986D01*
X0050354Y0111801D01*
X0050505Y0111613D01*
X0050651Y0111420D01*
X0050792Y0111225D01*
X0050929Y0111025D01*
X0051061Y0110823D01*
X0051188Y0110617D01*
X0051309Y0110409D01*
X0051426Y0110197D01*
X0051537Y0109983D01*
X0051643Y0109765D01*
X0051744Y0109546D01*
X0051839Y0109324D01*
X0051928Y0109099D01*
X0052013Y0108873D01*
X0052091Y0108645D01*
X0052164Y0108414D01*
X0052231Y0108182D01*
X0052293Y0107949D01*
X0052349Y0107714D01*
X0052399Y0107477D01*
X0052443Y0107240D01*
X0052481Y0107001D01*
X0052514Y0106762D01*
X0052541Y0106522D01*
X0052561Y0106281D01*
X0052576Y0106040D01*
X0052585Y0105799D01*
X0052588Y0105557D01*
X0052585Y0105315D01*
X0052576Y0105074D01*
X0052561Y0104833D01*
X0052541Y0104592D01*
X0052514Y0104352D01*
X0052481Y0104113D01*
X0052443Y0103874D01*
X0052399Y0103637D01*
X0052349Y0103400D01*
X0052293Y0103165D01*
X0052231Y0102932D01*
X0052164Y0102700D01*
X0052091Y0102469D01*
X0052013Y0102241D01*
X0051928Y0102015D01*
X0051839Y0101790D01*
X0051744Y0101568D01*
X0051643Y0101349D01*
X0051537Y0101131D01*
X0051426Y0100917D01*
X0051309Y0100705D01*
X0051188Y0100497D01*
X0051061Y0100291D01*
X0050929Y0100089D01*
X0050792Y0099889D01*
X0050651Y0099694D01*
X0050505Y0099501D01*
X0050354Y0099313D01*
X0050198Y0099128D01*
X0050038Y0098947D01*
X0049874Y0098770D01*
X0049705Y0098597D01*
X0049532Y0098428D01*
X0049355Y0098264D01*
X0049174Y0098104D01*
X0048989Y0097948D01*
X0048801Y0097797D01*
X0048608Y0097651D01*
X0048413Y0097510D01*
X0048213Y0097373D01*
X0048011Y0097241D01*
X0047805Y0097114D01*
X0047597Y0096993D01*
X0047385Y0096876D01*
X0047171Y0096765D01*
X0046953Y0096659D01*
X0046734Y0096558D01*
X0046512Y0096463D01*
X0046287Y0096374D01*
X0046061Y0096289D01*
X0045833Y0096211D01*
X0045602Y0096138D01*
X0045370Y0096071D01*
X0045137Y0096009D01*
X0044902Y0095953D01*
X0044665Y0095903D01*
X0044428Y0095859D01*
X0044189Y0095821D01*
X0043950Y0095788D01*
X0043710Y0095761D01*
X0043469Y0095741D01*
X0043228Y0095726D01*
X0042987Y0095717D01*
X0042745Y0095714D01*
X0042503Y0095717D01*
X0042262Y0095726D01*
X0042021Y0095741D01*
X0041780Y0095761D01*
X0041540Y0095788D01*
X0041301Y0095821D01*
X0041062Y0095859D01*
X0040825Y0095903D01*
X0040588Y0095953D01*
X0040353Y0096009D01*
X0040120Y0096071D01*
X0039888Y0096138D01*
X0039657Y0096211D01*
X0039429Y0096289D01*
X0039203Y0096374D01*
X0038978Y0096463D01*
X0038756Y0096558D01*
X0038537Y0096659D01*
X0038319Y0096765D01*
X0038105Y0096876D01*
X0037893Y0096993D01*
X0037685Y0097114D01*
X0037479Y0097241D01*
X0037277Y0097373D01*
X0037077Y0097510D01*
X0036882Y0097651D01*
X0036689Y0097797D01*
X0036501Y0097948D01*
X0036316Y0098104D01*
X0036135Y0098264D01*
X0035958Y0098428D01*
X0035785Y0098597D01*
X0035616Y0098770D01*
X0035452Y0098947D01*
X0035292Y0099128D01*
X0035136Y0099313D01*
X0034985Y0099501D01*
X0034839Y0099694D01*
X0034698Y0099889D01*
X0034561Y0100089D01*
X0034429Y0100291D01*
X0034302Y0100497D01*
X0034181Y0100705D01*
X0034064Y0100917D01*
X0033953Y0101131D01*
X0033847Y0101349D01*
X0033746Y0101568D01*
X0033651Y0101790D01*
X0033562Y0102015D01*
X0033477Y0102241D01*
X0033399Y0102469D01*
X0033326Y0102700D01*
X0033259Y0102932D01*
X0033197Y0103165D01*
X0033141Y0103400D01*
X0033091Y0103637D01*
X0033047Y0103874D01*
X0033009Y0104113D01*
X0032976Y0104352D01*
X0032949Y0104592D01*
X0032929Y0104833D01*
X0032914Y0105074D01*
X0032905Y0105315D01*
X0032902Y0105557D01*
M02*
