G75*
%MOIN*%
%OFA0B0*%
%FSLAX25Y25*%
%IPPOS*%
%LPD*%
%AMOC8*
5,1,8,0,0,1.08239X$1,22.5*
%
%ADD10C,0.00300*%
%ADD11C,0.00600*%
%ADD12C,0.00000*%
D10*
X0020262Y0021932D02*
X0022197Y0019997D01*
X0022197Y0019513D01*
X0022197Y0022416D02*
X0020262Y0022416D01*
X0020262Y0021932D01*
X0023208Y0019513D02*
X0025143Y0019513D01*
X0024176Y0019513D02*
X0024176Y0022416D01*
X0025143Y0021448D01*
X0026155Y0020965D02*
X0026638Y0020481D01*
X0028090Y0020481D01*
X0028090Y0019513D02*
X0028090Y0022416D01*
X0026638Y0022416D01*
X0026155Y0021932D01*
X0026155Y0020965D01*
X0027122Y0020481D02*
X0026155Y0019513D01*
X0027306Y0040163D02*
X0028273Y0040163D01*
X0028757Y0040647D01*
X0026822Y0042582D01*
X0026822Y0040647D01*
X0027306Y0040163D01*
X0028757Y0040647D02*
X0028757Y0042582D01*
X0028273Y0043066D01*
X0027306Y0043066D01*
X0026822Y0042582D01*
X0029769Y0043066D02*
X0031703Y0043066D01*
X0031703Y0040163D01*
X0031703Y0041615D02*
X0030736Y0041615D01*
X0032715Y0041615D02*
X0033199Y0041131D01*
X0034650Y0041131D01*
X0034650Y0040163D02*
X0034650Y0043066D01*
X0033199Y0043066D01*
X0032715Y0042582D01*
X0032715Y0041615D01*
X0031803Y0055763D02*
X0029869Y0058666D01*
X0031803Y0058666D02*
X0029869Y0055763D01*
X0032815Y0058666D02*
X0034750Y0058666D01*
X0033783Y0058666D02*
X0033783Y0055763D01*
X0031990Y0066713D02*
X0031990Y0069616D01*
X0030538Y0069616D01*
X0030055Y0069132D01*
X0030055Y0068165D01*
X0030538Y0067681D01*
X0031990Y0067681D01*
X0031022Y0067681D02*
X0030055Y0066713D01*
X0029043Y0066713D02*
X0027108Y0068648D01*
X0027108Y0069132D01*
X0027592Y0069616D01*
X0028559Y0069616D01*
X0029043Y0069132D01*
X0029043Y0066713D02*
X0027108Y0066713D01*
X0026097Y0066713D02*
X0024162Y0066713D01*
X0025129Y0066713D02*
X0025129Y0069616D01*
X0026097Y0068648D01*
X0013650Y0050066D02*
X0013650Y0047163D01*
X0013650Y0048131D02*
X0012199Y0048131D01*
X0011715Y0048615D01*
X0011715Y0049582D01*
X0012199Y0050066D01*
X0013650Y0050066D01*
X0010703Y0050066D02*
X0010703Y0047163D01*
X0010703Y0048615D02*
X0009736Y0048615D01*
X0010703Y0050066D02*
X0008769Y0050066D01*
X0007757Y0049098D02*
X0006789Y0050066D01*
X0006789Y0047163D01*
X0005822Y0047163D02*
X0007757Y0047163D01*
X0040922Y0063997D02*
X0041406Y0063513D01*
X0042373Y0063513D01*
X0042857Y0063997D01*
X0042857Y0064965D02*
X0041889Y0065448D01*
X0041406Y0065448D01*
X0040922Y0064965D01*
X0040922Y0063997D01*
X0042857Y0064965D02*
X0042857Y0066416D01*
X0040922Y0066416D01*
X0043869Y0065932D02*
X0044352Y0066416D01*
X0045320Y0066416D01*
X0045803Y0065932D01*
X0046815Y0065932D02*
X0046815Y0064965D01*
X0047299Y0064481D01*
X0048750Y0064481D01*
X0047783Y0064481D02*
X0046815Y0063513D01*
X0045803Y0063513D02*
X0043869Y0065448D01*
X0043869Y0065932D01*
X0043869Y0063513D02*
X0045803Y0063513D01*
X0046815Y0065932D02*
X0047299Y0066416D01*
X0048750Y0066416D01*
X0048750Y0063513D01*
X0063662Y0072797D02*
X0064145Y0072313D01*
X0065113Y0072313D01*
X0065597Y0072797D01*
X0063662Y0074732D01*
X0063662Y0072797D01*
X0063662Y0074732D02*
X0064145Y0075216D01*
X0065113Y0075216D01*
X0065597Y0074732D01*
X0065597Y0072797D01*
X0066608Y0072313D02*
X0068543Y0072313D01*
X0066608Y0074248D01*
X0066608Y0074732D01*
X0067092Y0075216D01*
X0068059Y0075216D01*
X0068543Y0074732D01*
X0069555Y0074732D02*
X0069555Y0073765D01*
X0070038Y0073281D01*
X0071490Y0073281D01*
X0071490Y0072313D02*
X0071490Y0075216D01*
X0070038Y0075216D01*
X0069555Y0074732D01*
X0070522Y0073281D02*
X0069555Y0072313D01*
X0059390Y0029416D02*
X0057938Y0029416D01*
X0057455Y0028932D01*
X0057455Y0027965D01*
X0057938Y0027481D01*
X0059390Y0027481D01*
X0059390Y0026513D02*
X0059390Y0029416D01*
X0058422Y0027481D02*
X0057455Y0026513D01*
X0056443Y0026513D02*
X0054508Y0026513D01*
X0055476Y0026513D02*
X0055476Y0029416D01*
X0056443Y0028448D01*
X0053497Y0028448D02*
X0053497Y0028932D01*
X0053013Y0029416D01*
X0052045Y0029416D01*
X0051562Y0028932D01*
X0051562Y0028448D01*
X0052045Y0027965D01*
X0053013Y0027965D01*
X0053497Y0028448D01*
X0053013Y0027965D02*
X0053497Y0027481D01*
X0053497Y0026997D01*
X0053013Y0026513D01*
X0052045Y0026513D01*
X0051562Y0026997D01*
X0051562Y0027481D01*
X0052045Y0027965D01*
D11*
X0054619Y0025376D02*
X0056981Y0025376D01*
X0056981Y0020651D02*
X0054619Y0020651D01*
X0044662Y0055332D02*
X0044662Y0057694D01*
X0039938Y0057694D02*
X0039938Y0055332D01*
X0027481Y0070651D02*
X0025119Y0070651D01*
X0025119Y0075376D02*
X0027481Y0075376D01*
X0024981Y0028876D02*
X0022619Y0028876D01*
X0022619Y0024151D02*
X0024981Y0024151D01*
X0055619Y0071651D02*
X0057981Y0071651D01*
X0057981Y0076376D02*
X0055619Y0076376D01*
D12*
X0037800Y0050113D02*
X0037800Y0050013D01*
X0037800Y0050047D02*
X0037750Y0050047D01*
X0037733Y0050063D01*
X0037733Y0050097D01*
X0037750Y0050113D01*
X0037800Y0050113D01*
X0037708Y0050113D02*
X0037641Y0050113D01*
X0037616Y0050113D02*
X0037566Y0050113D01*
X0037549Y0050097D01*
X0037549Y0050063D01*
X0037566Y0050047D01*
X0037616Y0050047D01*
X0037582Y0050047D02*
X0037549Y0050013D01*
X0037524Y0050013D02*
X0037457Y0050013D01*
X0037490Y0050013D02*
X0037490Y0050113D01*
X0037524Y0050080D01*
X0037616Y0050113D02*
X0037616Y0050013D01*
X0037675Y0050013D02*
X0037675Y0050113D01*
X0037432Y0050113D02*
X0037365Y0050113D01*
X0037340Y0050113D02*
X0037290Y0050113D01*
X0037273Y0050097D01*
X0037273Y0050063D01*
X0037290Y0050047D01*
X0037340Y0050047D01*
X0037340Y0050013D02*
X0037340Y0050113D01*
X0037398Y0050113D02*
X0037398Y0050013D01*
X0037248Y0050013D02*
X0037181Y0050013D01*
X0037155Y0050030D02*
X0037139Y0050013D01*
X0037105Y0050013D01*
X0037089Y0050030D01*
X0037089Y0050047D01*
X0037105Y0050063D01*
X0037122Y0050063D01*
X0037105Y0050063D02*
X0037089Y0050080D01*
X0037089Y0050097D01*
X0037105Y0050113D01*
X0037139Y0050113D01*
X0037155Y0050097D01*
X0037214Y0050113D02*
X0037214Y0050013D01*
X0037248Y0050080D02*
X0037214Y0050113D01*
X0037063Y0050113D02*
X0037013Y0050113D01*
X0036997Y0050097D01*
X0036997Y0050063D01*
X0037013Y0050047D01*
X0037063Y0050047D01*
X0037030Y0050047D02*
X0036997Y0050013D01*
X0037063Y0050013D02*
X0037063Y0050113D01*
X0019800Y0046113D02*
X0019750Y0046113D01*
X0019733Y0046097D01*
X0019733Y0046063D01*
X0019750Y0046047D01*
X0019800Y0046047D01*
X0019800Y0046013D02*
X0019800Y0046113D01*
X0019708Y0046113D02*
X0019641Y0046113D01*
X0019616Y0046113D02*
X0019566Y0046113D01*
X0019549Y0046097D01*
X0019549Y0046063D01*
X0019566Y0046047D01*
X0019616Y0046047D01*
X0019582Y0046047D02*
X0019549Y0046013D01*
X0019524Y0046013D02*
X0019457Y0046013D01*
X0019490Y0046013D02*
X0019490Y0046113D01*
X0019524Y0046080D01*
X0019616Y0046113D02*
X0019616Y0046013D01*
X0019675Y0046013D02*
X0019675Y0046113D01*
X0019432Y0046113D02*
X0019365Y0046113D01*
X0019340Y0046113D02*
X0019290Y0046113D01*
X0019273Y0046097D01*
X0019273Y0046063D01*
X0019290Y0046047D01*
X0019340Y0046047D01*
X0019340Y0046013D02*
X0019340Y0046113D01*
X0019398Y0046113D02*
X0019398Y0046013D01*
X0019248Y0046013D02*
X0019181Y0046013D01*
X0019155Y0046030D02*
X0019139Y0046013D01*
X0019105Y0046013D01*
X0019089Y0046030D01*
X0019089Y0046047D01*
X0019105Y0046063D01*
X0019122Y0046063D01*
X0019105Y0046063D02*
X0019089Y0046080D01*
X0019089Y0046097D01*
X0019105Y0046113D01*
X0019139Y0046113D01*
X0019155Y0046097D01*
X0019214Y0046113D02*
X0019214Y0046013D01*
X0019248Y0046080D02*
X0019214Y0046113D01*
X0019063Y0046113D02*
X0019013Y0046113D01*
X0018997Y0046097D01*
X0018997Y0046063D01*
X0019013Y0046047D01*
X0019063Y0046047D01*
X0019030Y0046047D02*
X0018997Y0046013D01*
X0019063Y0046013D02*
X0019063Y0046113D01*
M02*
