G75*
%MOIN*%
%OFA0B0*%
%FSLAX25Y25*%
%IPPOS*%
%LPD*%
%AMOC8*
5,1,8,0,0,1.08239X$1,22.5*
%
%ADD10C,0.06000*%
%ADD11C,0.10000*%
%ADD12C,0.05118*%
%ADD13R,0.03150X0.04724*%
%ADD14C,0.03369*%
%ADD15C,0.01000*%
%ADD16C,0.00600*%
%ADD17C,0.01600*%
%ADD18C,0.02975*%
D10*
X0011170Y0006100D02*
X0011170Y0012100D01*
X0021170Y0012100D02*
X0021170Y0006100D01*
X0031170Y0006100D02*
X0031170Y0012100D01*
X0041170Y0012100D02*
X0041170Y0006100D01*
X0051170Y0006100D02*
X0051170Y0012100D01*
X0061170Y0012100D02*
X0061170Y0006100D01*
X0071170Y0006100D02*
X0071170Y0012100D01*
X0071170Y0149407D02*
X0071170Y0155407D01*
X0061170Y0155407D02*
X0061170Y0149407D01*
X0011170Y0149407D02*
X0011170Y0155407D01*
D11*
X0025747Y0136334D03*
X0019123Y0123273D03*
X0018623Y0105557D03*
X0019123Y0087840D03*
X0025747Y0074779D03*
X0041495Y0070842D03*
X0057243Y0074779D03*
X0062617Y0087840D03*
X0063117Y0105557D03*
X0062617Y0123273D03*
X0057243Y0136334D03*
X0041495Y0140271D03*
D12*
X0049000Y0050813D03*
X0050200Y0039813D03*
X0041200Y0031413D03*
X0034600Y0031413D03*
D13*
X0033257Y0047013D03*
X0040343Y0047013D03*
X0041143Y0083413D03*
X0034057Y0083413D03*
D14*
X0033200Y0052613D03*
X0040400Y0052613D03*
X0049000Y0050813D03*
X0050200Y0039813D03*
X0050200Y0034213D03*
X0041200Y0031413D03*
X0034600Y0031413D03*
X0029800Y0039613D03*
X0019000Y0053213D03*
X0018800Y0043013D03*
X0009600Y0034013D03*
X0011000Y0022613D03*
X0059000Y0057213D03*
X0061000Y0061213D03*
X0063200Y0054613D03*
X0063200Y0049213D03*
X0073200Y0040213D03*
X0072800Y0066213D03*
X0050000Y0116613D03*
X0044200Y0117613D03*
X0050600Y0144213D03*
X0032200Y0144013D03*
X0029000Y0126413D03*
D15*
X0035200Y0132013D02*
X0035200Y0113813D01*
X0031200Y0109813D01*
X0031200Y0100822D01*
X0057243Y0074779D01*
X0035200Y0132013D02*
X0032200Y0144013D01*
D16*
X0029000Y0126413D02*
X0029000Y0119813D01*
X0025600Y0116413D01*
X0015400Y0116413D01*
X0009600Y0110613D01*
X0009600Y0034013D01*
X0013000Y0035813D02*
X0011000Y0037813D01*
X0011000Y0109813D01*
X0016200Y0115013D01*
X0028800Y0115013D01*
X0031800Y0118013D01*
X0050000Y0116613D02*
X0053200Y0113413D01*
X0068200Y0113413D01*
X0072800Y0108813D01*
X0072800Y0066213D01*
X0074800Y0069613D02*
X0074800Y0109413D01*
X0069400Y0114813D01*
X0057600Y0114813D01*
X0050600Y0121813D01*
X0050600Y0144213D01*
X0041900Y0083413D02*
X0041143Y0083413D01*
X0041900Y0083413D02*
X0041900Y0078670D01*
X0041495Y0070842D02*
X0034057Y0078280D01*
X0034057Y0083413D01*
X0033200Y0052613D02*
X0033200Y0049070D01*
X0033257Y0047013D01*
X0040343Y0047013D02*
X0040343Y0052557D01*
X0040400Y0052613D01*
X0059000Y0057213D02*
X0059000Y0022413D01*
X0051200Y0014613D01*
X0051200Y0009130D01*
X0051170Y0009100D01*
X0061170Y0009100D02*
X0063200Y0011130D01*
X0063200Y0049213D01*
X0067200Y0052813D02*
X0065400Y0054613D01*
X0063200Y0054613D01*
X0067200Y0052813D02*
X0067200Y0013070D01*
X0071170Y0009100D01*
X0073200Y0040213D02*
X0076400Y0043413D01*
X0076400Y0068013D01*
X0074800Y0069613D01*
X0018800Y0043013D02*
X0018800Y0020813D01*
X0011200Y0013213D01*
X0011200Y0009130D01*
X0011170Y0009100D01*
X0011000Y0022613D02*
X0013000Y0024613D01*
X0013000Y0035813D01*
D17*
X0004043Y0006835D02*
X0005128Y0005341D01*
X0006621Y0004256D01*
X0007007Y0004131D01*
X0006570Y0005185D01*
X0006570Y0013015D01*
X0007270Y0014706D01*
X0008564Y0016000D01*
X0010255Y0016700D01*
X0012000Y0016700D01*
X0016900Y0021600D01*
X0016900Y0040269D01*
X0016016Y0041153D01*
X0015516Y0042360D01*
X0015516Y0043667D01*
X0016016Y0044874D01*
X0016940Y0045798D01*
X0018147Y0046298D01*
X0019453Y0046298D01*
X0020660Y0045798D01*
X0021584Y0044874D01*
X0022084Y0043667D01*
X0022084Y0042360D01*
X0021584Y0041153D01*
X0020700Y0040269D01*
X0020700Y0020026D01*
X0015160Y0014487D01*
X0015770Y0013015D01*
X0015770Y0005185D01*
X0015119Y0003613D01*
X0017221Y0003613D01*
X0016570Y0005185D01*
X0016570Y0013015D01*
X0017270Y0014706D01*
X0018564Y0016000D01*
X0020255Y0016700D01*
X0022085Y0016700D01*
X0023776Y0016000D01*
X0025070Y0014706D01*
X0025770Y0013015D01*
X0025770Y0005185D01*
X0025119Y0003613D01*
X0027221Y0003613D01*
X0026570Y0005185D01*
X0026570Y0013015D01*
X0027270Y0014706D01*
X0028564Y0016000D01*
X0030255Y0016700D01*
X0032085Y0016700D01*
X0033776Y0016000D01*
X0035070Y0014706D01*
X0035770Y0013015D01*
X0035770Y0005185D01*
X0035119Y0003613D01*
X0037221Y0003613D01*
X0036570Y0005185D01*
X0036570Y0013015D01*
X0037270Y0014706D01*
X0038564Y0016000D01*
X0040255Y0016700D01*
X0042085Y0016700D01*
X0043776Y0016000D01*
X0045070Y0014706D01*
X0045770Y0013015D01*
X0045770Y0005185D01*
X0045119Y0003613D01*
X0047221Y0003613D01*
X0046570Y0005185D01*
X0046570Y0013015D01*
X0047270Y0014706D01*
X0048564Y0016000D01*
X0050255Y0016700D01*
X0050600Y0016700D01*
X0057100Y0023200D01*
X0057100Y0054469D01*
X0056216Y0055353D01*
X0055716Y0056560D01*
X0055716Y0057867D01*
X0056216Y0059074D01*
X0057140Y0059998D01*
X0058347Y0060498D01*
X0059653Y0060498D01*
X0060860Y0059998D01*
X0061784Y0059074D01*
X0062284Y0057867D01*
X0062284Y0057789D01*
X0062547Y0057898D01*
X0063853Y0057898D01*
X0065060Y0057398D01*
X0065945Y0056513D01*
X0066187Y0056513D01*
X0067987Y0054713D01*
X0067987Y0054713D01*
X0069100Y0053600D01*
X0069100Y0016222D01*
X0070255Y0016700D01*
X0072085Y0016700D01*
X0073776Y0016000D01*
X0075070Y0014706D01*
X0075770Y0013015D01*
X0075770Y0005185D01*
X0075334Y0004131D01*
X0075719Y0004256D01*
X0077212Y0005341D01*
X0078297Y0006835D01*
X0078868Y0008590D01*
X0078940Y0009513D01*
X0078940Y0151994D01*
X0078868Y0152917D01*
X0078297Y0154672D01*
X0077212Y0156166D01*
X0075719Y0157251D01*
X0075598Y0157290D01*
X0075618Y0157250D01*
X0075852Y0156531D01*
X0075970Y0155785D01*
X0075970Y0152607D01*
X0071370Y0152607D01*
X0071370Y0152207D01*
X0071370Y0144607D01*
X0071548Y0144607D01*
X0072294Y0144725D01*
X0073013Y0144959D01*
X0073686Y0145302D01*
X0074297Y0145746D01*
X0074831Y0146280D01*
X0075275Y0146891D01*
X0075618Y0147565D01*
X0075852Y0148283D01*
X0075970Y0149029D01*
X0075970Y0152207D01*
X0071370Y0152207D01*
X0070970Y0152207D01*
X0070970Y0144607D01*
X0070792Y0144607D01*
X0070046Y0144725D01*
X0069328Y0144959D01*
X0068654Y0145302D01*
X0068043Y0145746D01*
X0067509Y0146280D01*
X0067065Y0146891D01*
X0066722Y0147565D01*
X0066488Y0148283D01*
X0066370Y0149029D01*
X0066370Y0152207D01*
X0070970Y0152207D01*
X0070970Y0152607D01*
X0066370Y0152607D01*
X0066370Y0155785D01*
X0066488Y0156531D01*
X0066722Y0157250D01*
X0067050Y0157894D01*
X0065119Y0157894D01*
X0065770Y0156322D01*
X0065770Y0148492D01*
X0065070Y0146801D01*
X0063776Y0145507D01*
X0062085Y0144807D01*
X0060255Y0144807D01*
X0058564Y0145507D01*
X0057270Y0146801D01*
X0056570Y0148492D01*
X0056570Y0156322D01*
X0057221Y0157894D01*
X0015119Y0157894D01*
X0015770Y0156322D01*
X0015770Y0148492D01*
X0015070Y0146801D01*
X0013776Y0145507D01*
X0012085Y0144807D01*
X0010255Y0144807D01*
X0008564Y0145507D01*
X0007270Y0146801D01*
X0006570Y0148492D01*
X0006570Y0156322D01*
X0007007Y0157376D01*
X0006621Y0157251D01*
X0005128Y0156166D01*
X0004043Y0154672D01*
X0003473Y0152917D01*
X0003400Y0151994D01*
X0003400Y0009513D01*
X0003473Y0008590D01*
X0004043Y0006835D01*
X0004062Y0006809D02*
X0006570Y0006809D01*
X0006570Y0008407D02*
X0003532Y0008407D01*
X0003400Y0010006D02*
X0006570Y0010006D01*
X0006570Y0011604D02*
X0003400Y0011604D01*
X0003400Y0013203D02*
X0006648Y0013203D01*
X0007366Y0014801D02*
X0003400Y0014801D01*
X0003400Y0016400D02*
X0009531Y0016400D01*
X0010347Y0019329D02*
X0011653Y0019329D01*
X0012860Y0019829D01*
X0013784Y0020753D01*
X0014284Y0021960D01*
X0014284Y0023211D01*
X0014900Y0023826D01*
X0014900Y0036600D01*
X0012900Y0038600D01*
X0012900Y0085617D01*
X0013528Y0084102D01*
X0015384Y0082245D01*
X0017810Y0081240D01*
X0020436Y0081240D01*
X0022861Y0082245D01*
X0024718Y0084102D01*
X0025723Y0086527D01*
X0025723Y0089153D01*
X0024718Y0091579D01*
X0022861Y0093435D01*
X0020436Y0094440D01*
X0017810Y0094440D01*
X0015384Y0093435D01*
X0013528Y0091579D01*
X0012900Y0090063D01*
X0012900Y0102126D01*
X0013028Y0101818D01*
X0014884Y0099961D01*
X0017310Y0098957D01*
X0019936Y0098957D01*
X0022361Y0099961D01*
X0024218Y0101818D01*
X0025223Y0104244D01*
X0025223Y0106870D01*
X0024218Y0109295D01*
X0022361Y0111152D01*
X0019936Y0112157D01*
X0017310Y0112157D01*
X0015125Y0111252D01*
X0016987Y0113113D01*
X0029587Y0113113D01*
X0029587Y0113113D01*
X0028420Y0111603D01*
X0027900Y0111083D01*
X0027900Y0110930D01*
X0027806Y0110809D01*
X0027900Y0110079D01*
X0027900Y0100033D01*
X0027885Y0099182D01*
X0027900Y0099166D01*
X0027900Y0099144D01*
X0028502Y0098542D01*
X0039269Y0087376D01*
X0038906Y0087376D01*
X0037969Y0086438D01*
X0037969Y0080388D01*
X0038889Y0079468D01*
X0038813Y0079284D01*
X0038813Y0078056D01*
X0039230Y0077048D01*
X0038343Y0076681D01*
X0035957Y0079067D01*
X0035957Y0079451D01*
X0036294Y0079451D01*
X0037231Y0080388D01*
X0037231Y0086438D01*
X0036294Y0087376D01*
X0031819Y0087376D01*
X0030882Y0086438D01*
X0030882Y0080388D01*
X0031819Y0079451D01*
X0032157Y0079451D01*
X0032157Y0077493D01*
X0035656Y0073994D01*
X0034895Y0072155D01*
X0034895Y0069529D01*
X0035900Y0067104D01*
X0037756Y0065247D01*
X0040182Y0064242D01*
X0042808Y0064242D01*
X0045233Y0065247D01*
X0047090Y0067104D01*
X0048095Y0069529D01*
X0048095Y0072155D01*
X0047090Y0074581D01*
X0045233Y0076437D01*
X0044385Y0076789D01*
X0044517Y0076921D01*
X0044987Y0078056D01*
X0044987Y0079284D01*
X0044517Y0080419D01*
X0044318Y0080618D01*
X0044318Y0082140D01*
X0049548Y0076716D01*
X0049868Y0071115D01*
X0049745Y0070900D01*
X0049916Y0070274D01*
X0049953Y0069625D01*
X0050138Y0069460D01*
X0050203Y0069222D01*
X0050767Y0068899D01*
X0051251Y0068467D01*
X0051498Y0068481D01*
X0053381Y0067406D01*
X0053642Y0067058D01*
X0054106Y0066991D01*
X0054513Y0066759D01*
X0054933Y0066873D01*
X0058660Y0066341D01*
X0059473Y0066190D01*
X0059514Y0066219D01*
X0059564Y0066211D01*
X0060225Y0066707D01*
X0063318Y0068833D01*
X0063997Y0069222D01*
X0064024Y0069319D01*
X0064106Y0069376D01*
X0064249Y0070145D01*
X0065380Y0074292D01*
X0065671Y0074923D01*
X0065603Y0075109D01*
X0065655Y0075300D01*
X0065310Y0075903D01*
X0064039Y0079354D01*
X0063928Y0080017D01*
X0063747Y0080146D01*
X0063670Y0080356D01*
X0063060Y0080637D01*
X0062215Y0081240D01*
X0063930Y0081240D01*
X0066356Y0082245D01*
X0068212Y0084102D01*
X0069217Y0086527D01*
X0069217Y0089153D01*
X0068212Y0091579D01*
X0066356Y0093435D01*
X0063930Y0094440D01*
X0061304Y0094440D01*
X0058878Y0093435D01*
X0057022Y0091579D01*
X0056017Y0089153D01*
X0056017Y0086527D01*
X0057022Y0084102D01*
X0058327Y0082797D01*
X0057997Y0082742D01*
X0057992Y0082735D01*
X0055326Y0082271D01*
X0043703Y0094114D01*
X0044251Y0094114D01*
X0047162Y0094894D01*
X0049771Y0096400D01*
X0051901Y0098531D01*
X0053408Y0101140D01*
X0054187Y0104050D01*
X0054187Y0107063D01*
X0053408Y0109973D01*
X0052518Y0111513D01*
X0060251Y0111513D01*
X0059378Y0111152D01*
X0057522Y0109295D01*
X0056517Y0106870D01*
X0056517Y0104244D01*
X0057522Y0101818D01*
X0059378Y0099961D01*
X0061804Y0098957D01*
X0064430Y0098957D01*
X0066856Y0099961D01*
X0068712Y0101818D01*
X0069717Y0104244D01*
X0069717Y0106870D01*
X0068712Y0109295D01*
X0066856Y0111152D01*
X0065983Y0111513D01*
X0067413Y0111513D01*
X0070900Y0108026D01*
X0070900Y0068958D01*
X0070016Y0068074D01*
X0069516Y0066867D01*
X0069516Y0065560D01*
X0070016Y0064353D01*
X0070940Y0063429D01*
X0072147Y0062929D01*
X0073453Y0062929D01*
X0074500Y0063363D01*
X0074500Y0044200D01*
X0073797Y0043498D01*
X0072547Y0043498D01*
X0071340Y0042998D01*
X0070416Y0042074D01*
X0069916Y0040867D01*
X0069916Y0039560D01*
X0070416Y0038353D01*
X0071340Y0037429D01*
X0072547Y0036929D01*
X0073853Y0036929D01*
X0075060Y0037429D01*
X0075984Y0038353D01*
X0076484Y0039560D01*
X0076484Y0040811D01*
X0077187Y0041513D01*
X0078300Y0042626D01*
X0078300Y0068800D01*
X0077187Y0069913D01*
X0076700Y0070400D01*
X0076700Y0110200D01*
X0071300Y0115600D01*
X0070187Y0116713D01*
X0064027Y0116713D01*
X0066356Y0117678D01*
X0068212Y0119535D01*
X0069217Y0121960D01*
X0069217Y0124586D01*
X0068212Y0127012D01*
X0066356Y0128868D01*
X0063930Y0129873D01*
X0061304Y0129873D01*
X0058878Y0128868D01*
X0057022Y0127012D01*
X0056017Y0124586D01*
X0056017Y0121960D01*
X0057022Y0119535D01*
X0058878Y0117678D01*
X0061207Y0116713D01*
X0058387Y0116713D01*
X0052500Y0122600D01*
X0052500Y0131743D01*
X0053504Y0130739D01*
X0055930Y0129734D01*
X0058556Y0129734D01*
X0060982Y0130739D01*
X0062838Y0132596D01*
X0063843Y0135021D01*
X0063843Y0137647D01*
X0062838Y0140073D01*
X0060982Y0141929D01*
X0058556Y0142934D01*
X0055930Y0142934D01*
X0053504Y0141929D01*
X0052500Y0140925D01*
X0052500Y0141469D01*
X0053384Y0142353D01*
X0053884Y0143560D01*
X0053884Y0144867D01*
X0053384Y0146074D01*
X0052460Y0146998D01*
X0051253Y0147498D01*
X0049947Y0147498D01*
X0048740Y0146998D01*
X0047816Y0146074D01*
X0047316Y0144867D01*
X0047316Y0143560D01*
X0047816Y0142353D01*
X0048700Y0141469D01*
X0048700Y0121026D01*
X0049813Y0119913D01*
X0049829Y0119898D01*
X0049347Y0119898D01*
X0048140Y0119398D01*
X0047216Y0118474D01*
X0046716Y0117267D01*
X0046716Y0116339D01*
X0044251Y0116999D01*
X0041238Y0116999D01*
X0038900Y0116373D01*
X0038900Y0131871D01*
X0039059Y0132158D01*
X0038900Y0132710D01*
X0038900Y0133283D01*
X0038668Y0133515D01*
X0038412Y0134404D01*
X0040182Y0133671D01*
X0042808Y0133671D01*
X0045233Y0134676D01*
X0047090Y0136533D01*
X0048095Y0138958D01*
X0048095Y0141584D01*
X0047090Y0144010D01*
X0045233Y0145866D01*
X0042808Y0146871D01*
X0040182Y0146871D01*
X0037756Y0145866D01*
X0035900Y0144010D01*
X0035751Y0143650D01*
X0035484Y0144575D01*
X0035484Y0144667D01*
X0035398Y0144876D01*
X0035055Y0146065D01*
X0034943Y0146792D01*
X0034820Y0146883D01*
X0034777Y0147030D01*
X0034134Y0147386D01*
X0033540Y0147821D01*
X0033389Y0147798D01*
X0033255Y0147872D01*
X0032548Y0147669D01*
X0030741Y0147391D01*
X0030561Y0147481D01*
X0029905Y0147262D01*
X0029221Y0147157D01*
X0029102Y0146994D01*
X0028911Y0146931D01*
X0028601Y0146312D01*
X0028192Y0145754D01*
X0028223Y0145555D01*
X0028133Y0145375D01*
X0028351Y0144718D01*
X0028457Y0144034D01*
X0028619Y0143915D01*
X0028643Y0143844D01*
X0028700Y0143585D01*
X0028700Y0142944D01*
X0028881Y0142762D01*
X0029022Y0142121D01*
X0027060Y0142934D01*
X0024434Y0142934D01*
X0022008Y0141929D01*
X0020152Y0140073D01*
X0019147Y0137647D01*
X0019147Y0135021D01*
X0020152Y0132596D01*
X0022008Y0130739D01*
X0024434Y0129734D01*
X0027060Y0129734D01*
X0029485Y0130739D01*
X0031161Y0132415D01*
X0031300Y0131785D01*
X0031300Y0128758D01*
X0030860Y0129198D01*
X0029653Y0129698D01*
X0028347Y0129698D01*
X0027140Y0129198D01*
X0026216Y0128274D01*
X0025716Y0127067D01*
X0025716Y0125760D01*
X0026216Y0124553D01*
X0027100Y0123669D01*
X0027100Y0120600D01*
X0024813Y0118313D01*
X0023497Y0118313D01*
X0024718Y0119535D01*
X0025723Y0121960D01*
X0025723Y0124586D01*
X0024718Y0127012D01*
X0022861Y0128868D01*
X0020436Y0129873D01*
X0017810Y0129873D01*
X0015384Y0128868D01*
X0013528Y0127012D01*
X0012523Y0124586D01*
X0012523Y0121960D01*
X0013528Y0119535D01*
X0014749Y0118313D01*
X0014613Y0118313D01*
X0013500Y0117200D01*
X0007700Y0111400D01*
X0007700Y0036758D01*
X0006816Y0035874D01*
X0006316Y0034667D01*
X0006316Y0033360D01*
X0006816Y0032153D01*
X0007740Y0031229D01*
X0008947Y0030729D01*
X0010253Y0030729D01*
X0011100Y0031080D01*
X0011100Y0025898D01*
X0010347Y0025898D01*
X0009140Y0025398D01*
X0008216Y0024474D01*
X0007716Y0023267D01*
X0007716Y0021960D01*
X0008216Y0020753D01*
X0009140Y0019829D01*
X0010347Y0019329D01*
X0009700Y0019597D02*
X0003400Y0019597D01*
X0003400Y0017998D02*
X0013298Y0017998D01*
X0012300Y0019597D02*
X0014897Y0019597D01*
X0013968Y0021196D02*
X0016495Y0021196D01*
X0016900Y0022794D02*
X0014284Y0022794D01*
X0014900Y0024393D02*
X0016900Y0024393D01*
X0016900Y0025991D02*
X0014900Y0025991D01*
X0014900Y0027590D02*
X0016900Y0027590D01*
X0016900Y0029188D02*
X0014900Y0029188D01*
X0014900Y0030787D02*
X0016900Y0030787D01*
X0016900Y0032385D02*
X0014900Y0032385D01*
X0014900Y0033984D02*
X0016900Y0033984D01*
X0016900Y0035582D02*
X0014900Y0035582D01*
X0014320Y0037181D02*
X0016900Y0037181D01*
X0016900Y0038779D02*
X0012900Y0038779D01*
X0012900Y0040378D02*
X0016791Y0040378D01*
X0015675Y0041976D02*
X0012900Y0041976D01*
X0012900Y0043575D02*
X0015516Y0043575D01*
X0016315Y0045173D02*
X0012900Y0045173D01*
X0012900Y0046772D02*
X0030082Y0046772D01*
X0030082Y0048370D02*
X0012900Y0048370D01*
X0012900Y0049969D02*
X0030082Y0049969D01*
X0030082Y0050038D02*
X0030606Y0050563D01*
X0030416Y0050753D01*
X0029916Y0051960D01*
X0029916Y0053267D01*
X0030416Y0054474D01*
X0031340Y0055398D01*
X0032547Y0055898D01*
X0033853Y0055898D01*
X0035060Y0055398D01*
X0035984Y0054474D01*
X0036484Y0053267D01*
X0036484Y0051960D01*
X0035984Y0050753D01*
X0035851Y0050619D01*
X0036431Y0050038D01*
X0036431Y0043988D01*
X0035494Y0043051D01*
X0031019Y0043051D01*
X0030082Y0043988D01*
X0030082Y0050038D01*
X0030078Y0051567D02*
X0012900Y0051567D01*
X0012900Y0053166D02*
X0029916Y0053166D01*
X0030706Y0054764D02*
X0012900Y0054764D01*
X0012900Y0056363D02*
X0055797Y0056363D01*
X0055755Y0057961D02*
X0012900Y0057961D01*
X0012900Y0059560D02*
X0056702Y0059560D01*
X0056804Y0054764D02*
X0050330Y0054764D01*
X0049827Y0054972D02*
X0048173Y0054972D01*
X0046644Y0054339D01*
X0045474Y0053169D01*
X0044841Y0051641D01*
X0044841Y0049986D01*
X0045474Y0048457D01*
X0046644Y0047288D01*
X0048173Y0046654D01*
X0049827Y0046654D01*
X0051356Y0047288D01*
X0052526Y0048457D01*
X0053159Y0049986D01*
X0053159Y0051641D01*
X0052526Y0053169D01*
X0051356Y0054339D01*
X0049827Y0054972D01*
X0047670Y0054764D02*
X0042894Y0054764D01*
X0043184Y0054474D02*
X0042260Y0055398D01*
X0041053Y0055898D01*
X0039747Y0055898D01*
X0038540Y0055398D01*
X0037616Y0054474D01*
X0037116Y0053267D01*
X0037116Y0051960D01*
X0037616Y0050753D01*
X0037749Y0050619D01*
X0037169Y0050038D01*
X0037169Y0043988D01*
X0038106Y0043051D01*
X0042581Y0043051D01*
X0043518Y0043988D01*
X0043518Y0050038D01*
X0042994Y0050563D01*
X0043184Y0050753D01*
X0043684Y0051960D01*
X0043684Y0053267D01*
X0043184Y0054474D01*
X0043684Y0053166D02*
X0045473Y0053166D01*
X0044841Y0051567D02*
X0043522Y0051567D01*
X0043518Y0049969D02*
X0044848Y0049969D01*
X0045561Y0048370D02*
X0043518Y0048370D01*
X0043518Y0046772D02*
X0047889Y0046772D01*
X0049373Y0043972D02*
X0047844Y0043339D01*
X0046674Y0042169D01*
X0046041Y0040641D01*
X0046041Y0038986D01*
X0046674Y0037457D01*
X0047844Y0036288D01*
X0049373Y0035654D01*
X0051027Y0035654D01*
X0052556Y0036288D01*
X0053726Y0037457D01*
X0054359Y0038986D01*
X0054359Y0040641D01*
X0053726Y0042169D01*
X0052556Y0043339D01*
X0051027Y0043972D01*
X0049373Y0043972D01*
X0048412Y0043575D02*
X0043104Y0043575D01*
X0043518Y0045173D02*
X0057100Y0045173D01*
X0057100Y0043575D02*
X0051988Y0043575D01*
X0053806Y0041976D02*
X0057100Y0041976D01*
X0057100Y0040378D02*
X0054359Y0040378D01*
X0054273Y0038779D02*
X0057100Y0038779D01*
X0057100Y0037181D02*
X0053449Y0037181D01*
X0057100Y0035582D02*
X0020700Y0035582D01*
X0020700Y0033984D02*
X0031288Y0033984D01*
X0031074Y0033769D02*
X0030441Y0032241D01*
X0030441Y0030586D01*
X0031074Y0029057D01*
X0032244Y0027888D01*
X0033773Y0027254D01*
X0035427Y0027254D01*
X0036956Y0027888D01*
X0037900Y0028832D01*
X0038844Y0027888D01*
X0040373Y0027254D01*
X0042027Y0027254D01*
X0043556Y0027888D01*
X0044726Y0029057D01*
X0045359Y0030586D01*
X0045359Y0032241D01*
X0044726Y0033769D01*
X0043556Y0034939D01*
X0042027Y0035572D01*
X0040373Y0035572D01*
X0038844Y0034939D01*
X0037900Y0033995D01*
X0036956Y0034939D01*
X0035427Y0035572D01*
X0033773Y0035572D01*
X0032244Y0034939D01*
X0031074Y0033769D01*
X0030501Y0032385D02*
X0020700Y0032385D01*
X0020700Y0030787D02*
X0030441Y0030787D01*
X0031020Y0029188D02*
X0020700Y0029188D01*
X0020700Y0027590D02*
X0032963Y0027590D01*
X0036237Y0027590D02*
X0039563Y0027590D01*
X0042837Y0027590D02*
X0057100Y0027590D01*
X0057100Y0029188D02*
X0044780Y0029188D01*
X0045359Y0030787D02*
X0057100Y0030787D01*
X0057100Y0032385D02*
X0045299Y0032385D01*
X0044512Y0033984D02*
X0057100Y0033984D01*
X0057100Y0025991D02*
X0020700Y0025991D01*
X0020700Y0024393D02*
X0057100Y0024393D01*
X0056694Y0022794D02*
X0020700Y0022794D01*
X0020700Y0021196D02*
X0055095Y0021196D01*
X0053497Y0019597D02*
X0020271Y0019597D01*
X0018672Y0017998D02*
X0051898Y0017998D01*
X0049531Y0016400D02*
X0042809Y0016400D01*
X0044974Y0014801D02*
X0047366Y0014801D01*
X0046648Y0013203D02*
X0045692Y0013203D01*
X0045770Y0011604D02*
X0046570Y0011604D01*
X0046570Y0010006D02*
X0045770Y0010006D01*
X0045770Y0008407D02*
X0046570Y0008407D01*
X0046570Y0006809D02*
X0045770Y0006809D01*
X0045770Y0005210D02*
X0046570Y0005210D01*
X0039531Y0016400D02*
X0032809Y0016400D01*
X0034974Y0014801D02*
X0037366Y0014801D01*
X0036648Y0013203D02*
X0035692Y0013203D01*
X0035770Y0011604D02*
X0036570Y0011604D01*
X0036570Y0010006D02*
X0035770Y0010006D01*
X0035770Y0008407D02*
X0036570Y0008407D01*
X0036570Y0006809D02*
X0035770Y0006809D01*
X0035770Y0005210D02*
X0036570Y0005210D01*
X0029531Y0016400D02*
X0022809Y0016400D01*
X0024974Y0014801D02*
X0027366Y0014801D01*
X0026648Y0013203D02*
X0025692Y0013203D01*
X0025770Y0011604D02*
X0026570Y0011604D01*
X0026570Y0010006D02*
X0025770Y0010006D01*
X0025770Y0008407D02*
X0026570Y0008407D01*
X0026570Y0006809D02*
X0025770Y0006809D01*
X0025770Y0005210D02*
X0026570Y0005210D01*
X0019531Y0016400D02*
X0017074Y0016400D01*
X0017366Y0014801D02*
X0015475Y0014801D01*
X0015692Y0013203D02*
X0016648Y0013203D01*
X0016570Y0011604D02*
X0015770Y0011604D01*
X0015770Y0010006D02*
X0016570Y0010006D01*
X0016570Y0008407D02*
X0015770Y0008407D01*
X0015770Y0006809D02*
X0016570Y0006809D01*
X0016570Y0005210D02*
X0015770Y0005210D01*
X0008032Y0021196D02*
X0003400Y0021196D01*
X0003400Y0022794D02*
X0007716Y0022794D01*
X0008182Y0024393D02*
X0003400Y0024393D01*
X0003400Y0025991D02*
X0011100Y0025991D01*
X0011100Y0027590D02*
X0003400Y0027590D01*
X0003400Y0029188D02*
X0011100Y0029188D01*
X0011100Y0030787D02*
X0010392Y0030787D01*
X0008808Y0030787D02*
X0003400Y0030787D01*
X0003400Y0032385D02*
X0006720Y0032385D01*
X0006316Y0033984D02*
X0003400Y0033984D01*
X0003400Y0035582D02*
X0006695Y0035582D01*
X0007700Y0037181D02*
X0003400Y0037181D01*
X0003400Y0038779D02*
X0007700Y0038779D01*
X0007700Y0040378D02*
X0003400Y0040378D01*
X0003400Y0041976D02*
X0007700Y0041976D01*
X0007700Y0043575D02*
X0003400Y0043575D01*
X0003400Y0045173D02*
X0007700Y0045173D01*
X0007700Y0046772D02*
X0003400Y0046772D01*
X0003400Y0048370D02*
X0007700Y0048370D01*
X0007700Y0049969D02*
X0003400Y0049969D01*
X0003400Y0051567D02*
X0007700Y0051567D01*
X0007700Y0053166D02*
X0003400Y0053166D01*
X0003400Y0054764D02*
X0007700Y0054764D01*
X0007700Y0056363D02*
X0003400Y0056363D01*
X0003400Y0057961D02*
X0007700Y0057961D01*
X0007700Y0059560D02*
X0003400Y0059560D01*
X0003400Y0061158D02*
X0007700Y0061158D01*
X0007700Y0062757D02*
X0003400Y0062757D01*
X0003400Y0064355D02*
X0007700Y0064355D01*
X0007700Y0065954D02*
X0003400Y0065954D01*
X0003400Y0067552D02*
X0007700Y0067552D01*
X0007700Y0069151D02*
X0003400Y0069151D01*
X0003400Y0070749D02*
X0007700Y0070749D01*
X0007700Y0072348D02*
X0003400Y0072348D01*
X0003400Y0073946D02*
X0007700Y0073946D01*
X0007700Y0075545D02*
X0003400Y0075545D01*
X0003400Y0077143D02*
X0007700Y0077143D01*
X0007700Y0078742D02*
X0003400Y0078742D01*
X0003400Y0080340D02*
X0007700Y0080340D01*
X0007700Y0081939D02*
X0003400Y0081939D01*
X0003400Y0083537D02*
X0007700Y0083537D01*
X0007700Y0085136D02*
X0003400Y0085136D01*
X0003400Y0086734D02*
X0007700Y0086734D01*
X0007700Y0088333D02*
X0003400Y0088333D01*
X0003400Y0089932D02*
X0007700Y0089932D01*
X0007700Y0091530D02*
X0003400Y0091530D01*
X0003400Y0093129D02*
X0007700Y0093129D01*
X0007700Y0094727D02*
X0003400Y0094727D01*
X0003400Y0096326D02*
X0007700Y0096326D01*
X0007700Y0097924D02*
X0003400Y0097924D01*
X0003400Y0099523D02*
X0007700Y0099523D01*
X0007700Y0101121D02*
X0003400Y0101121D01*
X0003400Y0102720D02*
X0007700Y0102720D01*
X0007700Y0104318D02*
X0003400Y0104318D01*
X0003400Y0105917D02*
X0007700Y0105917D01*
X0007700Y0107515D02*
X0003400Y0107515D01*
X0003400Y0109114D02*
X0007700Y0109114D01*
X0007700Y0110712D02*
X0003400Y0110712D01*
X0003400Y0112311D02*
X0008610Y0112311D01*
X0010209Y0113909D02*
X0003400Y0113909D01*
X0003400Y0115508D02*
X0011807Y0115508D01*
X0013406Y0117106D02*
X0003400Y0117106D01*
X0003400Y0118705D02*
X0014358Y0118705D01*
X0013209Y0120303D02*
X0003400Y0120303D01*
X0003400Y0121902D02*
X0012547Y0121902D01*
X0012523Y0123500D02*
X0003400Y0123500D01*
X0003400Y0125099D02*
X0012735Y0125099D01*
X0013397Y0126697D02*
X0003400Y0126697D01*
X0003400Y0128296D02*
X0014812Y0128296D01*
X0019284Y0134690D02*
X0003400Y0134690D01*
X0003400Y0136288D02*
X0019147Y0136288D01*
X0019246Y0137887D02*
X0003400Y0137887D01*
X0003400Y0139485D02*
X0019908Y0139485D01*
X0021163Y0141084D02*
X0003400Y0141084D01*
X0003400Y0142682D02*
X0023826Y0142682D01*
X0027668Y0142682D02*
X0028899Y0142682D01*
X0028419Y0144281D02*
X0003400Y0144281D01*
X0003400Y0145879D02*
X0008192Y0145879D01*
X0006990Y0147478D02*
X0003400Y0147478D01*
X0003400Y0149076D02*
X0006570Y0149076D01*
X0006570Y0150675D02*
X0003400Y0150675D01*
X0003422Y0152273D02*
X0006570Y0152273D01*
X0006570Y0153872D02*
X0003783Y0153872D01*
X0004623Y0155470D02*
X0006570Y0155470D01*
X0006371Y0157069D02*
X0006879Y0157069D01*
X0014148Y0145879D02*
X0028284Y0145879D01*
X0030553Y0147478D02*
X0015350Y0147478D01*
X0015770Y0149076D02*
X0056570Y0149076D01*
X0056570Y0150675D02*
X0015770Y0150675D01*
X0015770Y0152273D02*
X0056570Y0152273D01*
X0056570Y0153872D02*
X0015770Y0153872D01*
X0015770Y0155470D02*
X0056570Y0155470D01*
X0056879Y0157069D02*
X0015461Y0157069D01*
X0019946Y0133091D02*
X0003400Y0133091D01*
X0003400Y0131493D02*
X0021254Y0131493D01*
X0023434Y0128296D02*
X0026238Y0128296D01*
X0025716Y0126697D02*
X0024848Y0126697D01*
X0025510Y0125099D02*
X0025990Y0125099D01*
X0025723Y0123500D02*
X0027100Y0123500D01*
X0027100Y0121902D02*
X0025699Y0121902D01*
X0025036Y0120303D02*
X0026803Y0120303D01*
X0025204Y0118705D02*
X0023888Y0118705D01*
X0022801Y0110712D02*
X0027819Y0110712D01*
X0027900Y0109114D02*
X0024293Y0109114D01*
X0024955Y0107515D02*
X0027900Y0107515D01*
X0027900Y0105917D02*
X0025223Y0105917D01*
X0025223Y0104318D02*
X0027900Y0104318D01*
X0027900Y0102720D02*
X0024591Y0102720D01*
X0023521Y0101121D02*
X0027900Y0101121D01*
X0027891Y0099523D02*
X0021302Y0099523D01*
X0023168Y0093129D02*
X0033722Y0093129D01*
X0032180Y0094727D02*
X0012900Y0094727D01*
X0012900Y0093129D02*
X0015077Y0093129D01*
X0013507Y0091530D02*
X0012900Y0091530D01*
X0012900Y0096326D02*
X0030639Y0096326D01*
X0029097Y0097924D02*
X0012900Y0097924D01*
X0012900Y0099523D02*
X0015944Y0099523D01*
X0013725Y0101121D02*
X0012900Y0101121D01*
X0016184Y0112311D02*
X0028967Y0112311D01*
X0027446Y0129894D02*
X0031300Y0129894D01*
X0031300Y0131493D02*
X0030239Y0131493D01*
X0024048Y0129894D02*
X0003400Y0129894D01*
X0024738Y0091530D02*
X0035263Y0091530D01*
X0036805Y0089932D02*
X0025400Y0089932D01*
X0025723Y0088333D02*
X0038346Y0088333D01*
X0038265Y0086734D02*
X0036935Y0086734D01*
X0037231Y0085136D02*
X0037969Y0085136D01*
X0037969Y0083537D02*
X0037231Y0083537D01*
X0037231Y0081939D02*
X0037969Y0081939D01*
X0038016Y0080340D02*
X0037183Y0080340D01*
X0036282Y0078742D02*
X0038813Y0078742D01*
X0039191Y0077143D02*
X0037881Y0077143D01*
X0035637Y0073946D02*
X0032347Y0073946D01*
X0032347Y0073466D02*
X0031342Y0071041D01*
X0029485Y0069184D01*
X0027060Y0068179D01*
X0024434Y0068179D01*
X0022008Y0069184D01*
X0020152Y0071041D01*
X0019147Y0073466D01*
X0019147Y0076092D01*
X0020152Y0078518D01*
X0022008Y0080374D01*
X0024434Y0081379D01*
X0027060Y0081379D01*
X0029485Y0080374D01*
X0031342Y0078518D01*
X0032347Y0076092D01*
X0032347Y0073466D01*
X0031884Y0072348D02*
X0034975Y0072348D01*
X0034895Y0070749D02*
X0031051Y0070749D01*
X0029406Y0069151D02*
X0035052Y0069151D01*
X0035714Y0067552D02*
X0012900Y0067552D01*
X0012900Y0065954D02*
X0037049Y0065954D01*
X0039909Y0064355D02*
X0012900Y0064355D01*
X0012900Y0062757D02*
X0074500Y0062757D01*
X0074500Y0061158D02*
X0012900Y0061158D01*
X0012900Y0069151D02*
X0022088Y0069151D01*
X0020443Y0070749D02*
X0012900Y0070749D01*
X0012900Y0072348D02*
X0019610Y0072348D01*
X0019147Y0073946D02*
X0012900Y0073946D01*
X0012900Y0075545D02*
X0019147Y0075545D01*
X0019582Y0077143D02*
X0012900Y0077143D01*
X0012900Y0078742D02*
X0020376Y0078742D01*
X0021974Y0080340D02*
X0012900Y0080340D01*
X0012900Y0081939D02*
X0016123Y0081939D01*
X0014092Y0083537D02*
X0012900Y0083537D01*
X0012900Y0085136D02*
X0013099Y0085136D01*
X0022123Y0081939D02*
X0030882Y0081939D01*
X0030882Y0083537D02*
X0024154Y0083537D01*
X0025147Y0085136D02*
X0030882Y0085136D01*
X0031178Y0086734D02*
X0025723Y0086734D01*
X0029519Y0080340D02*
X0030930Y0080340D01*
X0031118Y0078742D02*
X0032157Y0078742D01*
X0031911Y0077143D02*
X0032507Y0077143D01*
X0032347Y0075545D02*
X0034105Y0075545D01*
X0043081Y0064355D02*
X0070015Y0064355D01*
X0069516Y0065954D02*
X0045940Y0065954D01*
X0047276Y0067552D02*
X0053124Y0067552D01*
X0050327Y0069151D02*
X0047938Y0069151D01*
X0048095Y0070749D02*
X0049786Y0070749D01*
X0049797Y0072348D02*
X0048015Y0072348D01*
X0047353Y0073946D02*
X0049706Y0073946D01*
X0049615Y0075545D02*
X0046126Y0075545D01*
X0044609Y0077143D02*
X0049136Y0077143D01*
X0047594Y0078742D02*
X0044987Y0078742D01*
X0044550Y0080340D02*
X0046053Y0080340D01*
X0044512Y0081939D02*
X0044318Y0081939D01*
X0047808Y0089932D02*
X0056339Y0089932D01*
X0056017Y0088333D02*
X0049377Y0088333D01*
X0050946Y0086734D02*
X0056017Y0086734D01*
X0056593Y0085136D02*
X0052515Y0085136D01*
X0054084Y0083537D02*
X0057586Y0083537D01*
X0057002Y0091530D02*
X0046239Y0091530D01*
X0044670Y0093129D02*
X0058571Y0093129D01*
X0060438Y0099523D02*
X0052474Y0099523D01*
X0053397Y0101121D02*
X0058219Y0101121D01*
X0057148Y0102720D02*
X0053831Y0102720D01*
X0054187Y0104318D02*
X0056517Y0104318D01*
X0056517Y0105917D02*
X0054187Y0105917D01*
X0054066Y0107515D02*
X0056784Y0107515D01*
X0057446Y0109114D02*
X0053638Y0109114D01*
X0052981Y0110712D02*
X0058939Y0110712D01*
X0057994Y0117106D02*
X0060259Y0117106D01*
X0057852Y0118705D02*
X0056396Y0118705D01*
X0056703Y0120303D02*
X0054797Y0120303D01*
X0056041Y0121902D02*
X0053199Y0121902D01*
X0052500Y0123500D02*
X0056017Y0123500D01*
X0056229Y0125099D02*
X0052500Y0125099D01*
X0052500Y0126697D02*
X0056891Y0126697D01*
X0058306Y0128296D02*
X0052500Y0128296D01*
X0052500Y0129894D02*
X0055544Y0129894D01*
X0052751Y0131493D02*
X0052500Y0131493D01*
X0048700Y0131493D02*
X0038900Y0131493D01*
X0038900Y0133091D02*
X0048700Y0133091D01*
X0048700Y0134690D02*
X0045247Y0134690D01*
X0046846Y0136288D02*
X0048700Y0136288D01*
X0048700Y0137887D02*
X0047651Y0137887D01*
X0048095Y0139485D02*
X0048700Y0139485D01*
X0048700Y0141084D02*
X0048095Y0141084D01*
X0047679Y0142682D02*
X0047640Y0142682D01*
X0047316Y0144281D02*
X0046819Y0144281D01*
X0047735Y0145879D02*
X0045202Y0145879D01*
X0049899Y0147478D02*
X0034009Y0147478D01*
X0035109Y0145879D02*
X0037788Y0145879D01*
X0036171Y0144281D02*
X0035569Y0144281D01*
X0031309Y0147478D02*
X0030567Y0147478D01*
X0038900Y0129894D02*
X0048700Y0129894D01*
X0048700Y0128296D02*
X0038900Y0128296D01*
X0038900Y0126697D02*
X0048700Y0126697D01*
X0048700Y0125099D02*
X0038900Y0125099D01*
X0038900Y0123500D02*
X0048700Y0123500D01*
X0048700Y0121902D02*
X0038900Y0121902D01*
X0038900Y0120303D02*
X0049423Y0120303D01*
X0047447Y0118705D02*
X0038900Y0118705D01*
X0038900Y0117106D02*
X0046716Y0117106D01*
X0051294Y0097924D02*
X0070900Y0097924D01*
X0070900Y0096326D02*
X0049641Y0096326D01*
X0046539Y0094727D02*
X0070900Y0094727D01*
X0070900Y0093129D02*
X0066662Y0093129D01*
X0068232Y0091530D02*
X0070900Y0091530D01*
X0070900Y0089932D02*
X0068894Y0089932D01*
X0069217Y0088333D02*
X0070900Y0088333D01*
X0070900Y0086734D02*
X0069217Y0086734D01*
X0068641Y0085136D02*
X0070900Y0085136D01*
X0070900Y0083537D02*
X0067648Y0083537D01*
X0065617Y0081939D02*
X0070900Y0081939D01*
X0070900Y0080340D02*
X0063675Y0080340D01*
X0064264Y0078742D02*
X0070900Y0078742D01*
X0070900Y0077143D02*
X0064853Y0077143D01*
X0065515Y0075545D02*
X0070900Y0075545D01*
X0070900Y0073946D02*
X0065286Y0073946D01*
X0064850Y0072348D02*
X0070900Y0072348D01*
X0070900Y0070749D02*
X0064414Y0070749D01*
X0063873Y0069151D02*
X0070900Y0069151D01*
X0069800Y0067552D02*
X0061454Y0067552D01*
X0061298Y0059560D02*
X0074500Y0059560D01*
X0074500Y0057961D02*
X0062245Y0057961D01*
X0066338Y0056363D02*
X0074500Y0056363D01*
X0074500Y0054764D02*
X0067936Y0054764D01*
X0069100Y0053166D02*
X0074500Y0053166D01*
X0074500Y0051567D02*
X0069100Y0051567D01*
X0069100Y0049969D02*
X0074500Y0049969D01*
X0074500Y0048370D02*
X0069100Y0048370D01*
X0069100Y0046772D02*
X0074500Y0046772D01*
X0074500Y0045173D02*
X0069100Y0045173D01*
X0069100Y0043575D02*
X0073874Y0043575D01*
X0076484Y0040378D02*
X0078940Y0040378D01*
X0078940Y0041976D02*
X0077650Y0041976D01*
X0078300Y0043575D02*
X0078940Y0043575D01*
X0078940Y0045173D02*
X0078300Y0045173D01*
X0078300Y0046772D02*
X0078940Y0046772D01*
X0078940Y0048370D02*
X0078300Y0048370D01*
X0078300Y0049969D02*
X0078940Y0049969D01*
X0078940Y0051567D02*
X0078300Y0051567D01*
X0078300Y0053166D02*
X0078940Y0053166D01*
X0078940Y0054764D02*
X0078300Y0054764D01*
X0078300Y0056363D02*
X0078940Y0056363D01*
X0078940Y0057961D02*
X0078300Y0057961D01*
X0078300Y0059560D02*
X0078940Y0059560D01*
X0078940Y0061158D02*
X0078300Y0061158D01*
X0078300Y0062757D02*
X0078940Y0062757D01*
X0078940Y0064355D02*
X0078300Y0064355D01*
X0078300Y0065954D02*
X0078940Y0065954D01*
X0078940Y0067552D02*
X0078300Y0067552D01*
X0077950Y0069151D02*
X0078940Y0069151D01*
X0078940Y0070749D02*
X0076700Y0070749D01*
X0077187Y0069913D02*
X0077187Y0069913D01*
X0076700Y0072348D02*
X0078940Y0072348D01*
X0078940Y0073946D02*
X0076700Y0073946D01*
X0076700Y0075545D02*
X0078940Y0075545D01*
X0078940Y0077143D02*
X0076700Y0077143D01*
X0076700Y0078742D02*
X0078940Y0078742D01*
X0078940Y0080340D02*
X0076700Y0080340D01*
X0076700Y0081939D02*
X0078940Y0081939D01*
X0078940Y0083537D02*
X0076700Y0083537D01*
X0076700Y0085136D02*
X0078940Y0085136D01*
X0078940Y0086734D02*
X0076700Y0086734D01*
X0076700Y0088333D02*
X0078940Y0088333D01*
X0078940Y0089932D02*
X0076700Y0089932D01*
X0076700Y0091530D02*
X0078940Y0091530D01*
X0078940Y0093129D02*
X0076700Y0093129D01*
X0076700Y0094727D02*
X0078940Y0094727D01*
X0078940Y0096326D02*
X0076700Y0096326D01*
X0076700Y0097924D02*
X0078940Y0097924D01*
X0078940Y0099523D02*
X0076700Y0099523D01*
X0076700Y0101121D02*
X0078940Y0101121D01*
X0078940Y0102720D02*
X0076700Y0102720D01*
X0076700Y0104318D02*
X0078940Y0104318D01*
X0078940Y0105917D02*
X0076700Y0105917D01*
X0076700Y0107515D02*
X0078940Y0107515D01*
X0078940Y0109114D02*
X0076700Y0109114D01*
X0076188Y0110712D02*
X0078940Y0110712D01*
X0078940Y0112311D02*
X0074590Y0112311D01*
X0072991Y0113909D02*
X0078940Y0113909D01*
X0078940Y0115508D02*
X0071393Y0115508D01*
X0068530Y0120303D02*
X0078940Y0120303D01*
X0078940Y0118705D02*
X0067382Y0118705D01*
X0069193Y0121902D02*
X0078940Y0121902D01*
X0078940Y0123500D02*
X0069217Y0123500D01*
X0069005Y0125099D02*
X0078940Y0125099D01*
X0078940Y0126697D02*
X0068342Y0126697D01*
X0066928Y0128296D02*
X0078940Y0128296D01*
X0078940Y0129894D02*
X0058942Y0129894D01*
X0061735Y0131493D02*
X0078940Y0131493D01*
X0078940Y0133091D02*
X0063043Y0133091D01*
X0063706Y0134690D02*
X0078940Y0134690D01*
X0078940Y0136288D02*
X0063843Y0136288D01*
X0063744Y0137887D02*
X0078940Y0137887D01*
X0078940Y0139485D02*
X0063081Y0139485D01*
X0061827Y0141084D02*
X0078940Y0141084D01*
X0078940Y0142682D02*
X0059164Y0142682D01*
X0058192Y0145879D02*
X0053465Y0145879D01*
X0053884Y0144281D02*
X0078940Y0144281D01*
X0078940Y0145879D02*
X0074431Y0145879D01*
X0075574Y0147478D02*
X0078940Y0147478D01*
X0078940Y0149076D02*
X0075970Y0149076D01*
X0075970Y0150675D02*
X0078940Y0150675D01*
X0078918Y0152273D02*
X0071370Y0152273D01*
X0070970Y0152273D02*
X0065770Y0152273D01*
X0065770Y0150675D02*
X0066370Y0150675D01*
X0066370Y0149076D02*
X0065770Y0149076D01*
X0065350Y0147478D02*
X0066766Y0147478D01*
X0067910Y0145879D02*
X0064148Y0145879D01*
X0065770Y0153872D02*
X0066370Y0153872D01*
X0066370Y0155470D02*
X0065770Y0155470D01*
X0065461Y0157069D02*
X0066663Y0157069D01*
X0070970Y0150675D02*
X0071370Y0150675D01*
X0071370Y0149076D02*
X0070970Y0149076D01*
X0070970Y0147478D02*
X0071370Y0147478D01*
X0071370Y0145879D02*
X0070970Y0145879D01*
X0075970Y0153872D02*
X0078557Y0153872D01*
X0077717Y0155470D02*
X0075970Y0155470D01*
X0075969Y0157069D02*
X0075677Y0157069D01*
X0056990Y0147478D02*
X0051301Y0147478D01*
X0053521Y0142682D02*
X0055322Y0142682D01*
X0052659Y0141084D02*
X0052500Y0141084D01*
X0064975Y0117106D02*
X0078940Y0117106D01*
X0070900Y0107515D02*
X0069449Y0107515D01*
X0069717Y0105917D02*
X0070900Y0105917D01*
X0070900Y0104318D02*
X0069717Y0104318D01*
X0069086Y0102720D02*
X0070900Y0102720D01*
X0070900Y0101121D02*
X0068015Y0101121D01*
X0065796Y0099523D02*
X0070900Y0099523D01*
X0069813Y0109114D02*
X0068787Y0109114D01*
X0068214Y0110712D02*
X0067295Y0110712D01*
X0057100Y0053166D02*
X0052527Y0053166D01*
X0053159Y0051567D02*
X0057100Y0051567D01*
X0057100Y0049969D02*
X0053152Y0049969D01*
X0052439Y0048370D02*
X0057100Y0048370D01*
X0057100Y0046772D02*
X0050111Y0046772D01*
X0046594Y0041976D02*
X0021925Y0041976D01*
X0022084Y0043575D02*
X0030496Y0043575D01*
X0030082Y0045173D02*
X0021285Y0045173D01*
X0020809Y0040378D02*
X0046041Y0040378D01*
X0046127Y0038779D02*
X0020700Y0038779D01*
X0020700Y0037181D02*
X0046951Y0037181D01*
X0037582Y0043575D02*
X0036018Y0043575D01*
X0036431Y0045173D02*
X0037169Y0045173D01*
X0037169Y0046772D02*
X0036431Y0046772D01*
X0036431Y0048370D02*
X0037169Y0048370D01*
X0037169Y0049969D02*
X0036431Y0049969D01*
X0036322Y0051567D02*
X0037278Y0051567D01*
X0037116Y0053166D02*
X0036484Y0053166D01*
X0035694Y0054764D02*
X0037906Y0054764D01*
X0069100Y0041976D02*
X0070375Y0041976D01*
X0069916Y0040378D02*
X0069100Y0040378D01*
X0069100Y0038779D02*
X0070239Y0038779D01*
X0069100Y0037181D02*
X0071940Y0037181D01*
X0074460Y0037181D02*
X0078940Y0037181D01*
X0078940Y0038779D02*
X0076161Y0038779D01*
X0078940Y0035582D02*
X0069100Y0035582D01*
X0069100Y0033984D02*
X0078940Y0033984D01*
X0078940Y0032385D02*
X0069100Y0032385D01*
X0069100Y0030787D02*
X0078940Y0030787D01*
X0078940Y0029188D02*
X0069100Y0029188D01*
X0069100Y0027590D02*
X0078940Y0027590D01*
X0078940Y0025991D02*
X0069100Y0025991D01*
X0069100Y0024393D02*
X0078940Y0024393D01*
X0078940Y0022794D02*
X0069100Y0022794D01*
X0069100Y0021196D02*
X0078940Y0021196D01*
X0078940Y0019597D02*
X0069100Y0019597D01*
X0069100Y0017998D02*
X0078940Y0017998D01*
X0078940Y0016400D02*
X0072809Y0016400D01*
X0074974Y0014801D02*
X0078940Y0014801D01*
X0078940Y0013203D02*
X0075692Y0013203D01*
X0075770Y0011604D02*
X0078940Y0011604D01*
X0078940Y0010006D02*
X0075770Y0010006D01*
X0075770Y0008407D02*
X0078808Y0008407D01*
X0078278Y0006809D02*
X0075770Y0006809D01*
X0075770Y0005210D02*
X0077032Y0005210D01*
X0069531Y0016400D02*
X0069100Y0016400D01*
X0006570Y0005210D02*
X0005308Y0005210D01*
D18*
X0041900Y0078670D03*
X0031800Y0118013D03*
M02*
