G75*
%MOIN*%
%OFA0B0*%
%FSLAX25Y25*%
%IPPOS*%
%LPD*%
%AMOC8*
5,1,8,0,0,1.08239X$1,22.5*
%
%ADD10C,0.06800*%
%ADD11C,0.10800*%
%ADD12C,0.20485*%
%ADD13C,0.05918*%
%ADD14R,0.03950X0.05524*%
D10*
X0011170Y0006100D02*
X0011170Y0012100D01*
X0021170Y0012100D02*
X0021170Y0006100D01*
X0031170Y0006100D02*
X0031170Y0012100D01*
X0041170Y0012100D02*
X0041170Y0006100D01*
X0051170Y0006100D02*
X0051170Y0012100D01*
X0061170Y0012100D02*
X0061170Y0006100D01*
X0071170Y0006100D02*
X0071170Y0012100D01*
X0071170Y0149407D02*
X0071170Y0155407D01*
X0061170Y0155407D02*
X0061170Y0149407D01*
X0011170Y0149407D02*
X0011170Y0155407D01*
D11*
X0025747Y0136334D03*
X0019123Y0123273D03*
X0018623Y0105557D03*
X0019123Y0087840D03*
X0025747Y0074779D03*
X0041495Y0070842D03*
X0057243Y0074779D03*
X0062617Y0087840D03*
X0063117Y0105557D03*
X0062617Y0123273D03*
X0057243Y0136334D03*
X0041495Y0140271D03*
D12*
X0042745Y0105557D03*
D13*
X0049000Y0050813D03*
X0050200Y0039813D03*
X0041200Y0031413D03*
X0034600Y0031413D03*
D14*
X0033257Y0047013D03*
X0040343Y0047013D03*
X0041143Y0083413D03*
X0034057Y0083413D03*
M02*
