G75*
%MOIN*%
%OFA0B0*%
%FSLAX25Y25*%
%IPPOS*%
%LPD*%
%AMOC8*
5,1,8,0,0,1.08239X$1,22.5*
%
%ADD10C,0.00400*%
%ADD11C,0.00300*%
%ADD12C,0.00000*%
%ADD13C,0.00600*%
%ADD14C,0.00100*%
D10*
X0004234Y0046213D02*
X0004234Y0048515D01*
X0005001Y0049283D01*
X0005769Y0048515D01*
X0005769Y0046213D01*
X0007303Y0046213D02*
X0007303Y0049283D01*
X0006536Y0049283D01*
X0005769Y0048515D01*
X0008838Y0048515D02*
X0008838Y0047748D01*
X0011907Y0047748D01*
X0011907Y0046981D02*
X0011907Y0048515D01*
X0011140Y0049283D01*
X0009605Y0049283D01*
X0008838Y0048515D01*
X0009605Y0046213D02*
X0011140Y0046213D01*
X0011907Y0046981D01*
X0013442Y0046213D02*
X0015744Y0047748D01*
X0013442Y0049283D01*
X0015744Y0050817D02*
X0015744Y0046213D01*
X0017278Y0046213D02*
X0017278Y0049283D01*
X0017278Y0046213D02*
X0019580Y0046213D01*
X0020348Y0046981D01*
X0020348Y0049283D01*
X0021882Y0050817D02*
X0021882Y0046213D01*
X0024952Y0050817D01*
X0024952Y0046213D01*
X0026486Y0046213D02*
X0026486Y0049283D01*
X0026486Y0046213D02*
X0028788Y0046213D01*
X0029556Y0046981D01*
X0029556Y0049283D01*
X0031090Y0049283D02*
X0033392Y0047748D01*
X0031090Y0046213D01*
X0033392Y0046213D02*
X0033392Y0050817D01*
X0034927Y0048515D02*
X0034927Y0047748D01*
X0037996Y0047748D01*
X0037996Y0046981D02*
X0037996Y0048515D01*
X0037229Y0049283D01*
X0035694Y0049283D01*
X0034927Y0048515D01*
X0035694Y0046213D02*
X0037229Y0046213D01*
X0037996Y0046981D01*
X0039531Y0046213D02*
X0041833Y0046213D01*
X0042600Y0046981D01*
X0042600Y0048515D01*
X0041833Y0049283D01*
X0039531Y0049283D01*
X0039531Y0050817D02*
X0039531Y0046213D01*
X0040298Y0058213D02*
X0041833Y0058213D01*
X0042600Y0058981D01*
X0042600Y0060515D01*
X0041833Y0061283D01*
X0040298Y0061283D01*
X0039531Y0060515D01*
X0039531Y0059748D01*
X0042600Y0059748D01*
X0037996Y0058213D02*
X0034927Y0061283D01*
X0037996Y0061283D02*
X0034927Y0058213D01*
X0033392Y0058213D02*
X0031858Y0058213D01*
X0032625Y0058213D02*
X0032625Y0061283D01*
X0033392Y0061283D01*
X0032625Y0062817D02*
X0032625Y0063585D01*
X0030323Y0061283D02*
X0027254Y0058213D01*
X0030323Y0058213D02*
X0027254Y0061283D01*
X0025719Y0060515D02*
X0025719Y0058981D01*
X0024952Y0058213D01*
X0023417Y0058213D01*
X0022650Y0059748D02*
X0022650Y0060515D01*
X0023417Y0061283D01*
X0024952Y0061283D01*
X0025719Y0060515D01*
X0025719Y0059748D02*
X0022650Y0059748D01*
X0021115Y0058213D02*
X0018046Y0058213D01*
X0016511Y0058213D02*
X0013442Y0061283D01*
X0013442Y0062050D01*
X0014209Y0062817D01*
X0015744Y0062817D01*
X0016511Y0062050D01*
X0016511Y0058213D02*
X0013442Y0058213D01*
X0019580Y0058213D02*
X0019580Y0062817D01*
X0021115Y0061283D01*
X0060448Y0141313D02*
X0059764Y0141997D01*
X0059764Y0143365D01*
X0061132Y0143365D01*
X0062500Y0141997D02*
X0061816Y0141313D01*
X0060448Y0141313D01*
X0062500Y0141997D02*
X0062500Y0144733D01*
X0061816Y0145417D01*
X0060448Y0145417D01*
X0059764Y0144733D01*
X0067721Y0145417D02*
X0067721Y0142681D01*
X0069089Y0141313D01*
X0070456Y0142681D01*
X0070456Y0145417D01*
X0071864Y0144733D02*
X0071864Y0144049D01*
X0072548Y0143365D01*
X0071864Y0142681D01*
X0071864Y0141997D01*
X0072548Y0141313D01*
X0073916Y0141313D01*
X0074600Y0141997D01*
X0073232Y0143365D02*
X0072548Y0143365D01*
X0071864Y0144733D02*
X0072548Y0145417D01*
X0073916Y0145417D01*
X0074600Y0144733D01*
D11*
X0041050Y0089916D02*
X0041050Y0087013D01*
X0041050Y0087981D02*
X0039599Y0087981D01*
X0039115Y0088465D01*
X0039115Y0089432D01*
X0039599Y0089916D01*
X0041050Y0089916D01*
X0040083Y0087981D02*
X0039115Y0087013D01*
X0038103Y0087013D02*
X0036169Y0087013D01*
X0035157Y0087013D02*
X0033222Y0088948D01*
X0033222Y0089432D01*
X0033706Y0089916D01*
X0034673Y0089916D01*
X0035157Y0089432D01*
X0035157Y0087013D02*
X0033222Y0087013D01*
X0037136Y0087013D02*
X0037136Y0089916D01*
X0038103Y0088948D01*
X0040098Y0041667D02*
X0042567Y0037963D01*
X0043781Y0037963D02*
X0045016Y0039198D01*
X0044398Y0039198D02*
X0046250Y0039198D01*
X0046250Y0037963D02*
X0046250Y0041667D01*
X0044398Y0041667D01*
X0043781Y0041049D01*
X0043781Y0039815D01*
X0044398Y0039198D01*
X0042567Y0041667D02*
X0040098Y0037963D01*
D12*
X0042413Y0029013D02*
X0042397Y0028997D01*
X0042397Y0028963D01*
X0042413Y0028947D01*
X0042463Y0028947D01*
X0042489Y0028947D02*
X0042489Y0028930D01*
X0042505Y0028913D01*
X0042539Y0028913D01*
X0042555Y0028930D01*
X0042581Y0028913D02*
X0042648Y0028913D01*
X0042614Y0028913D02*
X0042614Y0029013D01*
X0042648Y0028980D01*
X0042673Y0028963D02*
X0042690Y0028947D01*
X0042740Y0028947D01*
X0042740Y0028913D02*
X0042740Y0029013D01*
X0042690Y0029013D01*
X0042673Y0028997D01*
X0042673Y0028963D01*
X0042765Y0029013D02*
X0042832Y0029013D01*
X0042798Y0029013D02*
X0042798Y0028913D01*
X0042857Y0028913D02*
X0042924Y0028913D01*
X0042949Y0028913D02*
X0042982Y0028947D01*
X0042966Y0028947D02*
X0043016Y0028947D01*
X0043016Y0028913D02*
X0043016Y0029013D01*
X0042966Y0029013D01*
X0042949Y0028997D01*
X0042949Y0028963D01*
X0042966Y0028947D01*
X0042924Y0028980D02*
X0042890Y0029013D01*
X0042890Y0028913D01*
X0043041Y0029013D02*
X0043108Y0029013D01*
X0043133Y0028997D02*
X0043133Y0028963D01*
X0043150Y0028947D01*
X0043200Y0028947D01*
X0043200Y0028913D02*
X0043200Y0029013D01*
X0043150Y0029013D01*
X0043133Y0028997D01*
X0043075Y0029013D02*
X0043075Y0028913D01*
X0042555Y0028997D02*
X0042539Y0029013D01*
X0042505Y0029013D01*
X0042489Y0028997D01*
X0042489Y0028980D01*
X0042505Y0028963D01*
X0042489Y0028947D01*
X0042505Y0028963D02*
X0042522Y0028963D01*
X0042463Y0028913D02*
X0042463Y0029013D01*
X0042413Y0029013D01*
X0042430Y0028947D02*
X0042397Y0028913D01*
X0036600Y0028913D02*
X0036600Y0029013D01*
X0036550Y0029013D01*
X0036533Y0028997D01*
X0036533Y0028963D01*
X0036550Y0028947D01*
X0036600Y0028947D01*
X0036508Y0029013D02*
X0036441Y0029013D01*
X0036416Y0029013D02*
X0036366Y0029013D01*
X0036349Y0028997D01*
X0036349Y0028963D01*
X0036366Y0028947D01*
X0036416Y0028947D01*
X0036382Y0028947D02*
X0036349Y0028913D01*
X0036324Y0028913D02*
X0036257Y0028913D01*
X0036290Y0028913D02*
X0036290Y0029013D01*
X0036324Y0028980D01*
X0036416Y0029013D02*
X0036416Y0028913D01*
X0036475Y0028913D02*
X0036475Y0029013D01*
X0036232Y0029013D02*
X0036165Y0029013D01*
X0036140Y0029013D02*
X0036090Y0029013D01*
X0036073Y0028997D01*
X0036073Y0028963D01*
X0036090Y0028947D01*
X0036140Y0028947D01*
X0036140Y0028913D02*
X0036140Y0029013D01*
X0036198Y0029013D02*
X0036198Y0028913D01*
X0036048Y0028913D02*
X0035981Y0028913D01*
X0035955Y0028930D02*
X0035939Y0028913D01*
X0035905Y0028913D01*
X0035889Y0028930D01*
X0035889Y0028947D01*
X0035905Y0028963D01*
X0035922Y0028963D01*
X0035905Y0028963D02*
X0035889Y0028980D01*
X0035889Y0028997D01*
X0035905Y0029013D01*
X0035939Y0029013D01*
X0035955Y0028997D01*
X0036014Y0029013D02*
X0036014Y0028913D01*
X0036048Y0028980D02*
X0036014Y0029013D01*
X0035863Y0029013D02*
X0035813Y0029013D01*
X0035797Y0028997D01*
X0035797Y0028963D01*
X0035813Y0028947D01*
X0035863Y0028947D01*
X0035830Y0028947D02*
X0035797Y0028913D01*
X0035863Y0028913D02*
X0035863Y0029013D01*
X0050197Y0048313D02*
X0050230Y0048347D01*
X0050213Y0048347D02*
X0050263Y0048347D01*
X0050289Y0048347D02*
X0050289Y0048330D01*
X0050305Y0048313D01*
X0050339Y0048313D01*
X0050355Y0048330D01*
X0050381Y0048313D02*
X0050448Y0048313D01*
X0050414Y0048313D02*
X0050414Y0048413D01*
X0050448Y0048380D01*
X0050473Y0048363D02*
X0050490Y0048347D01*
X0050540Y0048347D01*
X0050540Y0048313D02*
X0050540Y0048413D01*
X0050490Y0048413D01*
X0050473Y0048397D01*
X0050473Y0048363D01*
X0050565Y0048413D02*
X0050632Y0048413D01*
X0050598Y0048413D02*
X0050598Y0048313D01*
X0050657Y0048313D02*
X0050724Y0048313D01*
X0050749Y0048313D02*
X0050782Y0048347D01*
X0050766Y0048347D02*
X0050816Y0048347D01*
X0050816Y0048313D02*
X0050816Y0048413D01*
X0050766Y0048413D01*
X0050749Y0048397D01*
X0050749Y0048363D01*
X0050766Y0048347D01*
X0050724Y0048380D02*
X0050690Y0048413D01*
X0050690Y0048313D01*
X0050841Y0048413D02*
X0050908Y0048413D01*
X0050933Y0048397D02*
X0050933Y0048363D01*
X0050950Y0048347D01*
X0051000Y0048347D01*
X0051000Y0048313D02*
X0051000Y0048413D01*
X0050950Y0048413D01*
X0050933Y0048397D01*
X0050875Y0048413D02*
X0050875Y0048313D01*
X0050355Y0048397D02*
X0050339Y0048413D01*
X0050305Y0048413D01*
X0050289Y0048397D01*
X0050289Y0048380D01*
X0050305Y0048363D01*
X0050289Y0048347D01*
X0050305Y0048363D02*
X0050322Y0048363D01*
X0050263Y0048313D02*
X0050263Y0048413D01*
X0050213Y0048413D01*
X0050197Y0048397D01*
X0050197Y0048363D01*
X0050213Y0048347D01*
X0051413Y0037413D02*
X0051397Y0037397D01*
X0051397Y0037363D01*
X0051413Y0037347D01*
X0051463Y0037347D01*
X0051489Y0037347D02*
X0051489Y0037330D01*
X0051505Y0037313D01*
X0051539Y0037313D01*
X0051555Y0037330D01*
X0051581Y0037313D02*
X0051648Y0037313D01*
X0051614Y0037313D02*
X0051614Y0037413D01*
X0051648Y0037380D01*
X0051673Y0037363D02*
X0051690Y0037347D01*
X0051740Y0037347D01*
X0051740Y0037313D02*
X0051740Y0037413D01*
X0051690Y0037413D01*
X0051673Y0037397D01*
X0051673Y0037363D01*
X0051765Y0037413D02*
X0051832Y0037413D01*
X0051798Y0037413D02*
X0051798Y0037313D01*
X0051857Y0037313D02*
X0051924Y0037313D01*
X0051949Y0037313D02*
X0051982Y0037347D01*
X0051966Y0037347D02*
X0052016Y0037347D01*
X0052016Y0037313D02*
X0052016Y0037413D01*
X0051966Y0037413D01*
X0051949Y0037397D01*
X0051949Y0037363D01*
X0051966Y0037347D01*
X0051924Y0037380D02*
X0051890Y0037413D01*
X0051890Y0037313D01*
X0052041Y0037413D02*
X0052108Y0037413D01*
X0052133Y0037397D02*
X0052133Y0037363D01*
X0052150Y0037347D01*
X0052200Y0037347D01*
X0052200Y0037313D02*
X0052200Y0037413D01*
X0052150Y0037413D01*
X0052133Y0037397D01*
X0052075Y0037413D02*
X0052075Y0037313D01*
X0051555Y0037397D02*
X0051539Y0037413D01*
X0051505Y0037413D01*
X0051489Y0037397D01*
X0051489Y0037380D01*
X0051505Y0037363D01*
X0051489Y0037347D01*
X0051505Y0037363D02*
X0051522Y0037363D01*
X0051463Y0037313D02*
X0051463Y0037413D01*
X0051413Y0037413D01*
X0051430Y0037347D02*
X0051397Y0037313D01*
D13*
X0038781Y0081051D02*
X0036419Y0081051D01*
X0036419Y0085776D02*
X0038781Y0085776D01*
D14*
X0038603Y0079465D02*
X0038603Y0077963D01*
X0038603Y0079465D01*
X0039076Y0079465D02*
X0039076Y0079214D01*
X0040077Y0078214D01*
X0040077Y0077963D01*
X0040077Y0078214D01*
X0039076Y0079214D01*
X0039076Y0079465D01*
X0040077Y0079465D01*
X0039076Y0079465D01*
X0038353Y0078714D02*
X0037603Y0077963D01*
X0038353Y0078714D01*
X0038603Y0078464D02*
X0037603Y0079465D01*
X0038603Y0078464D01*
X0040549Y0078714D02*
X0041550Y0078714D01*
X0040799Y0079465D01*
X0040799Y0077963D01*
X0040799Y0079465D01*
X0041550Y0078714D01*
X0040549Y0078714D01*
M02*
