G75*
%MOIN*%
%OFA0B0*%
%FSLAX25Y25*%
%IPPOS*%
%LPD*%
%AMOC8*
5,1,8,0,0,1.08239X$1,22.5*
%
%ADD10C,0.00000*%
%ADD11C,0.04961*%
%ADD12R,0.05000X0.02200*%
%ADD13R,0.02200X0.05000*%
%ADD14C,0.06000*%
%ADD15R,0.01969X0.03937*%
%ADD16R,0.03150X0.04724*%
%ADD17R,0.04724X0.03150*%
%ADD18R,0.03937X0.01969*%
%ADD19R,0.05906X0.03543*%
%ADD20C,0.04156*%
%ADD21C,0.01600*%
%ADD22C,0.00800*%
%ADD23C,0.03369*%
%ADD24C,0.01200*%
%ADD25C,0.01000*%
%ADD26C,0.02975*%
D10*
X0001800Y0009513D02*
X0001800Y0151994D01*
X0001802Y0152175D01*
X0001809Y0152356D01*
X0001820Y0152537D01*
X0001835Y0152718D01*
X0001855Y0152898D01*
X0001879Y0153078D01*
X0001907Y0153257D01*
X0001940Y0153435D01*
X0001977Y0153612D01*
X0002018Y0153789D01*
X0002063Y0153964D01*
X0002113Y0154139D01*
X0002167Y0154312D01*
X0002225Y0154483D01*
X0002287Y0154654D01*
X0002354Y0154822D01*
X0002424Y0154989D01*
X0002498Y0155155D01*
X0002577Y0155318D01*
X0002659Y0155479D01*
X0002745Y0155639D01*
X0002835Y0155796D01*
X0002929Y0155951D01*
X0003026Y0156104D01*
X0003128Y0156254D01*
X0003232Y0156402D01*
X0003341Y0156548D01*
X0003452Y0156690D01*
X0003568Y0156830D01*
X0003686Y0156967D01*
X0003808Y0157102D01*
X0003933Y0157233D01*
X0004061Y0157361D01*
X0004192Y0157486D01*
X0004327Y0157608D01*
X0004464Y0157726D01*
X0004604Y0157842D01*
X0004746Y0157953D01*
X0004892Y0158062D01*
X0005040Y0158166D01*
X0005190Y0158268D01*
X0005343Y0158365D01*
X0005498Y0158459D01*
X0005655Y0158549D01*
X0005815Y0158635D01*
X0005976Y0158717D01*
X0006139Y0158796D01*
X0006305Y0158870D01*
X0006472Y0158940D01*
X0006640Y0159007D01*
X0006811Y0159069D01*
X0006982Y0159127D01*
X0007155Y0159181D01*
X0007330Y0159231D01*
X0007505Y0159276D01*
X0007682Y0159317D01*
X0007859Y0159354D01*
X0008037Y0159387D01*
X0008216Y0159415D01*
X0008396Y0159439D01*
X0008576Y0159459D01*
X0008757Y0159474D01*
X0008938Y0159485D01*
X0009119Y0159492D01*
X0009300Y0159494D01*
X0073040Y0159494D01*
X0073221Y0159492D01*
X0073402Y0159485D01*
X0073583Y0159474D01*
X0073764Y0159459D01*
X0073944Y0159439D01*
X0074124Y0159415D01*
X0074303Y0159387D01*
X0074481Y0159354D01*
X0074658Y0159317D01*
X0074835Y0159276D01*
X0075010Y0159231D01*
X0075185Y0159181D01*
X0075358Y0159127D01*
X0075529Y0159069D01*
X0075700Y0159007D01*
X0075868Y0158940D01*
X0076035Y0158870D01*
X0076201Y0158796D01*
X0076364Y0158717D01*
X0076525Y0158635D01*
X0076685Y0158549D01*
X0076842Y0158459D01*
X0076997Y0158365D01*
X0077150Y0158268D01*
X0077300Y0158166D01*
X0077448Y0158062D01*
X0077594Y0157953D01*
X0077736Y0157842D01*
X0077876Y0157726D01*
X0078013Y0157608D01*
X0078148Y0157486D01*
X0078279Y0157361D01*
X0078407Y0157233D01*
X0078532Y0157102D01*
X0078654Y0156967D01*
X0078772Y0156830D01*
X0078888Y0156690D01*
X0078999Y0156548D01*
X0079108Y0156402D01*
X0079212Y0156254D01*
X0079314Y0156104D01*
X0079411Y0155951D01*
X0079505Y0155796D01*
X0079595Y0155639D01*
X0079681Y0155479D01*
X0079763Y0155318D01*
X0079842Y0155155D01*
X0079916Y0154989D01*
X0079986Y0154822D01*
X0080053Y0154654D01*
X0080115Y0154483D01*
X0080173Y0154312D01*
X0080227Y0154139D01*
X0080277Y0153964D01*
X0080322Y0153789D01*
X0080363Y0153612D01*
X0080400Y0153435D01*
X0080433Y0153257D01*
X0080461Y0153078D01*
X0080485Y0152898D01*
X0080505Y0152718D01*
X0080520Y0152537D01*
X0080531Y0152356D01*
X0080538Y0152175D01*
X0080540Y0151994D01*
X0080540Y0009513D01*
X0080538Y0009332D01*
X0080531Y0009151D01*
X0080520Y0008970D01*
X0080505Y0008789D01*
X0080485Y0008609D01*
X0080461Y0008429D01*
X0080433Y0008250D01*
X0080400Y0008072D01*
X0080363Y0007895D01*
X0080322Y0007718D01*
X0080277Y0007543D01*
X0080227Y0007368D01*
X0080173Y0007195D01*
X0080115Y0007024D01*
X0080053Y0006853D01*
X0079986Y0006685D01*
X0079916Y0006518D01*
X0079842Y0006352D01*
X0079763Y0006189D01*
X0079681Y0006028D01*
X0079595Y0005868D01*
X0079505Y0005711D01*
X0079411Y0005556D01*
X0079314Y0005403D01*
X0079212Y0005253D01*
X0079108Y0005105D01*
X0078999Y0004959D01*
X0078888Y0004817D01*
X0078772Y0004677D01*
X0078654Y0004540D01*
X0078532Y0004405D01*
X0078407Y0004274D01*
X0078279Y0004146D01*
X0078148Y0004021D01*
X0078013Y0003899D01*
X0077876Y0003781D01*
X0077736Y0003665D01*
X0077594Y0003554D01*
X0077448Y0003445D01*
X0077300Y0003341D01*
X0077150Y0003239D01*
X0076997Y0003142D01*
X0076842Y0003048D01*
X0076685Y0002958D01*
X0076525Y0002872D01*
X0076364Y0002790D01*
X0076201Y0002711D01*
X0076035Y0002637D01*
X0075868Y0002567D01*
X0075700Y0002500D01*
X0075529Y0002438D01*
X0075358Y0002380D01*
X0075185Y0002326D01*
X0075010Y0002276D01*
X0074835Y0002231D01*
X0074658Y0002190D01*
X0074481Y0002153D01*
X0074303Y0002120D01*
X0074124Y0002092D01*
X0073944Y0002068D01*
X0073764Y0002048D01*
X0073583Y0002033D01*
X0073402Y0002022D01*
X0073221Y0002015D01*
X0073040Y0002013D01*
X0009300Y0002013D01*
X0009119Y0002015D01*
X0008938Y0002022D01*
X0008757Y0002033D01*
X0008576Y0002048D01*
X0008396Y0002068D01*
X0008216Y0002092D01*
X0008037Y0002120D01*
X0007859Y0002153D01*
X0007682Y0002190D01*
X0007505Y0002231D01*
X0007330Y0002276D01*
X0007155Y0002326D01*
X0006982Y0002380D01*
X0006811Y0002438D01*
X0006640Y0002500D01*
X0006472Y0002567D01*
X0006305Y0002637D01*
X0006139Y0002711D01*
X0005976Y0002790D01*
X0005815Y0002872D01*
X0005655Y0002958D01*
X0005498Y0003048D01*
X0005343Y0003142D01*
X0005190Y0003239D01*
X0005040Y0003341D01*
X0004892Y0003445D01*
X0004746Y0003554D01*
X0004604Y0003665D01*
X0004464Y0003781D01*
X0004327Y0003899D01*
X0004192Y0004021D01*
X0004061Y0004146D01*
X0003933Y0004274D01*
X0003808Y0004405D01*
X0003686Y0004540D01*
X0003568Y0004677D01*
X0003452Y0004817D01*
X0003341Y0004959D01*
X0003232Y0005105D01*
X0003128Y0005253D01*
X0003026Y0005403D01*
X0002929Y0005556D01*
X0002835Y0005711D01*
X0002745Y0005868D01*
X0002659Y0006028D01*
X0002577Y0006189D01*
X0002498Y0006352D01*
X0002424Y0006518D01*
X0002354Y0006685D01*
X0002287Y0006853D01*
X0002225Y0007024D01*
X0002167Y0007195D01*
X0002113Y0007368D01*
X0002063Y0007543D01*
X0002018Y0007718D01*
X0001977Y0007895D01*
X0001940Y0008072D01*
X0001907Y0008250D01*
X0001879Y0008429D01*
X0001855Y0008609D01*
X0001835Y0008789D01*
X0001820Y0008970D01*
X0001809Y0009151D01*
X0001802Y0009332D01*
X0001800Y0009513D01*
D11*
X0029845Y0080360D03*
X0021114Y0088095D03*
X0016978Y0099001D03*
X0018384Y0110580D03*
X0025010Y0120180D03*
X0035338Y0125600D03*
X0047002Y0125600D03*
X0057330Y0120180D03*
X0063956Y0110580D03*
X0065362Y0099001D03*
X0061226Y0088095D03*
X0052495Y0080360D03*
X0041170Y0077569D03*
D12*
X0024270Y0053907D03*
X0024270Y0050757D03*
X0024270Y0047608D03*
X0024270Y0044458D03*
X0024270Y0041309D03*
X0024270Y0038159D03*
X0024270Y0035009D03*
X0024270Y0031860D03*
X0058070Y0031860D03*
X0058070Y0035009D03*
X0058070Y0038159D03*
X0058070Y0041309D03*
X0058070Y0044458D03*
X0058070Y0047608D03*
X0058070Y0050757D03*
X0058070Y0053907D03*
D13*
X0052194Y0059783D03*
X0049044Y0059783D03*
X0045894Y0059783D03*
X0042745Y0059783D03*
X0039595Y0059783D03*
X0036446Y0059783D03*
X0033296Y0059783D03*
X0030146Y0059783D03*
X0030146Y0025983D03*
X0033296Y0025983D03*
X0036446Y0025983D03*
X0039595Y0025983D03*
X0042745Y0025983D03*
X0045894Y0025983D03*
X0049044Y0025983D03*
X0052194Y0025983D03*
D14*
X0051170Y0012100D02*
X0051170Y0006100D01*
X0041170Y0006100D02*
X0041170Y0012100D01*
X0031170Y0012100D02*
X0031170Y0006100D01*
X0021170Y0006100D02*
X0021170Y0012100D01*
X0011170Y0012100D02*
X0011170Y0006100D01*
X0061170Y0006100D02*
X0061170Y0012100D01*
X0071170Y0012100D02*
X0071170Y0006100D01*
X0071170Y0149407D02*
X0071170Y0155407D01*
X0061170Y0155407D02*
X0061170Y0149407D01*
X0011170Y0149407D02*
X0011170Y0155407D01*
D15*
X0034741Y0110970D03*
X0037300Y0118057D03*
X0039859Y0110970D03*
X0031359Y0093557D03*
X0028800Y0086470D03*
X0026241Y0093557D03*
X0019517Y0081860D03*
X0022076Y0074773D03*
X0016957Y0074773D03*
X0013733Y0088553D03*
X0011174Y0095639D03*
X0008615Y0088553D03*
X0043741Y0091057D03*
X0046300Y0083970D03*
X0048859Y0091057D03*
X0060265Y0074773D03*
X0062824Y0081860D03*
X0065383Y0074773D03*
X0068607Y0088553D03*
X0071166Y0095639D03*
X0073725Y0088553D03*
X0057355Y0127470D03*
X0054796Y0134557D03*
X0059914Y0134557D03*
X0052359Y0149470D03*
X0049800Y0156557D03*
X0047241Y0149470D03*
D16*
X0046757Y0143013D03*
X0053843Y0143013D03*
X0040843Y0156013D03*
X0033757Y0156013D03*
X0027843Y0142013D03*
X0020757Y0142013D03*
X0020627Y0068521D03*
X0023343Y0060013D03*
X0016257Y0060013D03*
X0013540Y0068521D03*
X0010257Y0021513D03*
X0017343Y0021513D03*
X0057257Y0026013D03*
X0064343Y0026013D03*
X0061780Y0068506D03*
X0068867Y0068506D03*
D17*
X0072666Y0075773D03*
X0072666Y0082860D03*
X0074166Y0103832D03*
X0074166Y0110919D03*
X0074300Y0128970D03*
X0074300Y0136057D03*
X0064942Y0135801D03*
X0064942Y0128714D03*
X0057418Y0114643D03*
X0057418Y0107557D03*
X0054300Y0093557D03*
X0054300Y0086470D03*
X0037300Y0085470D03*
X0037300Y0092557D03*
X0024922Y0107557D03*
X0024922Y0114643D03*
X0034300Y0142970D03*
X0034300Y0150057D03*
X0041300Y0150057D03*
X0041300Y0142970D03*
X0009674Y0109419D03*
X0009674Y0102332D03*
X0009674Y0082860D03*
X0009674Y0075773D03*
X0008442Y0125466D03*
X0008442Y0132553D03*
X0070300Y0032057D03*
X0070300Y0024970D03*
X0076800Y0024970D03*
X0076800Y0032057D03*
D18*
X0051343Y0112454D03*
X0051343Y0117572D03*
X0044257Y0115013D03*
X0027843Y0152013D03*
X0020757Y0149454D03*
X0020757Y0154572D03*
X0017257Y0130257D03*
X0017257Y0125139D03*
X0015186Y0117687D03*
X0008099Y0120246D03*
X0008099Y0115128D03*
X0024343Y0127698D03*
X0067154Y0117687D03*
X0074241Y0120246D03*
X0074241Y0115128D03*
D19*
X0047272Y0105285D03*
X0047272Y0098592D03*
X0035068Y0098592D03*
X0035068Y0105285D03*
D20*
X0041300Y0132013D03*
D21*
X0004221Y0006926D02*
X0005269Y0005483D01*
X0006644Y0004484D01*
X0006370Y0005145D01*
X0006370Y0013055D01*
X0007101Y0014819D01*
X0008451Y0016169D01*
X0010215Y0016900D01*
X0012125Y0016900D01*
X0013889Y0016169D01*
X0015239Y0014819D01*
X0015970Y0013055D01*
X0015970Y0005145D01*
X0015418Y0003813D01*
X0016922Y0003813D01*
X0016370Y0005145D01*
X0016370Y0013055D01*
X0017101Y0014819D01*
X0018451Y0016169D01*
X0020215Y0016900D01*
X0020934Y0016900D01*
X0023347Y0019313D01*
X0020718Y0019313D01*
X0020718Y0018406D01*
X0019664Y0017351D01*
X0015023Y0017351D01*
X0013969Y0018406D01*
X0013969Y0024621D01*
X0015023Y0025676D01*
X0017527Y0025676D01*
X0013281Y0029921D01*
X0013784Y0028706D01*
X0013784Y0027320D01*
X0013254Y0026040D01*
X0012733Y0025519D01*
X0013631Y0024621D01*
X0013631Y0018406D01*
X0012577Y0017351D01*
X0007936Y0017351D01*
X0006882Y0018406D01*
X0006882Y0024621D01*
X0007823Y0025563D01*
X0007346Y0026040D01*
X0006816Y0027320D01*
X0006816Y0028706D01*
X0007346Y0029987D01*
X0008326Y0030967D01*
X0009607Y0031498D01*
X0010993Y0031498D01*
X0012208Y0030995D01*
X0003600Y0039602D01*
X0003600Y0099370D01*
X0004889Y0100658D01*
X0005512Y0101281D01*
X0005512Y0104653D01*
X0006566Y0105707D01*
X0012782Y0105707D01*
X0013836Y0104653D01*
X0013836Y0101913D01*
X0014553Y0102630D01*
X0016127Y0103281D01*
X0017829Y0103281D01*
X0019403Y0102630D01*
X0020607Y0101426D01*
X0021258Y0099853D01*
X0021258Y0098150D01*
X0020607Y0096577D01*
X0019403Y0095373D01*
X0017829Y0094721D01*
X0016127Y0094721D01*
X0014553Y0095373D01*
X0014286Y0095640D01*
X0013958Y0095312D01*
X0013958Y0092925D01*
X0013354Y0092321D01*
X0013733Y0092321D01*
X0013733Y0088553D01*
X0013733Y0088553D01*
X0013733Y0092321D01*
X0014954Y0092321D01*
X0015412Y0092199D01*
X0015823Y0091962D01*
X0016158Y0091626D01*
X0016395Y0091216D01*
X0016517Y0090758D01*
X0016517Y0088553D01*
X0013733Y0088553D01*
X0011726Y0088553D01*
X0011726Y0088553D01*
X0013733Y0088553D01*
X0013733Y0088553D01*
X0013733Y0088553D01*
X0016517Y0088553D01*
X0016517Y0086347D01*
X0016395Y0085889D01*
X0016158Y0085479D01*
X0015823Y0085144D01*
X0015412Y0084907D01*
X0014954Y0084784D01*
X0013836Y0084784D01*
X0013836Y0080539D01*
X0012782Y0079485D01*
X0008000Y0079485D01*
X0008000Y0079148D01*
X0012782Y0079148D01*
X0013836Y0078094D01*
X0013836Y0073453D01*
X0013067Y0072683D01*
X0014173Y0072683D01*
X0014173Y0077487D01*
X0015228Y0078542D01*
X0017336Y0078542D01*
X0016732Y0079146D01*
X0016732Y0084574D01*
X0017657Y0085499D01*
X0017485Y0085670D01*
X0016834Y0087243D01*
X0016834Y0088946D01*
X0017485Y0090519D01*
X0018690Y0091724D01*
X0020263Y0092375D01*
X0021966Y0092375D01*
X0023457Y0091758D01*
X0023457Y0093557D01*
X0026241Y0093557D01*
X0026241Y0093557D01*
X0023457Y0093557D01*
X0023457Y0095762D01*
X0023479Y0095845D01*
X0022722Y0096602D01*
X0022722Y0104182D01*
X0021814Y0104182D01*
X0020760Y0105236D01*
X0020760Y0106932D01*
X0019235Y0106300D01*
X0017532Y0106300D01*
X0015959Y0106952D01*
X0014755Y0108156D01*
X0014104Y0109729D01*
X0014104Y0111432D01*
X0014197Y0111656D01*
X0014000Y0111853D01*
X0014000Y0110634D01*
X0013836Y0110470D01*
X0013836Y0107098D01*
X0012782Y0106044D01*
X0006566Y0106044D01*
X0005512Y0107098D01*
X0005512Y0111739D01*
X0006116Y0112343D01*
X0005894Y0112343D01*
X0005436Y0112466D01*
X0005025Y0112703D01*
X0004690Y0113038D01*
X0004453Y0113449D01*
X0004331Y0113906D01*
X0004331Y0115127D01*
X0008099Y0115127D01*
X0008099Y0115128D01*
X0004331Y0115128D01*
X0004331Y0116349D01*
X0004453Y0116807D01*
X0004690Y0117217D01*
X0005025Y0117552D01*
X0005196Y0117651D01*
X0004331Y0118516D01*
X0004331Y0121976D01*
X0004890Y0122535D01*
X0004280Y0123146D01*
X0004280Y0127787D01*
X0005334Y0128841D01*
X0008705Y0128841D01*
X0009042Y0129178D01*
X0005334Y0129178D01*
X0004280Y0130232D01*
X0004280Y0134873D01*
X0005334Y0135928D01*
X0011550Y0135928D01*
X0012264Y0135213D01*
X0028573Y0135213D01*
X0029326Y0135967D01*
X0030607Y0136498D01*
X0031993Y0136498D01*
X0033274Y0135967D01*
X0034254Y0134987D01*
X0034784Y0133706D01*
X0034784Y0132320D01*
X0034254Y0131040D01*
X0033274Y0130060D01*
X0031993Y0129529D01*
X0030607Y0129529D01*
X0029326Y0130060D01*
X0028573Y0130813D01*
X0021025Y0130813D01*
X0021025Y0129879D01*
X0021629Y0130483D01*
X0027057Y0130483D01*
X0028112Y0129428D01*
X0028112Y0125969D01*
X0027210Y0125067D01*
X0027210Y0123901D01*
X0027434Y0123808D01*
X0028639Y0122604D01*
X0029290Y0121031D01*
X0029290Y0119328D01*
X0028639Y0117755D01*
X0028466Y0117582D01*
X0029084Y0116964D01*
X0029084Y0116843D01*
X0031979Y0116843D01*
X0033268Y0115555D01*
X0034084Y0114739D01*
X0035120Y0114739D01*
X0034516Y0115343D01*
X0034516Y0120771D01*
X0035065Y0121320D01*
X0034487Y0121320D01*
X0032914Y0121972D01*
X0031710Y0123176D01*
X0031058Y0124749D01*
X0031058Y0126452D01*
X0031710Y0128025D01*
X0032914Y0129229D01*
X0034487Y0129881D01*
X0035500Y0129881D01*
X0035500Y0135913D01*
X0033783Y0135913D01*
X0032827Y0136309D01*
X0032423Y0136713D01*
X0013554Y0136713D01*
X0012500Y0137768D01*
X0012500Y0140813D01*
X0007889Y0140813D01*
X0004389Y0144313D01*
X0003600Y0145102D01*
X0003600Y0009513D01*
X0003670Y0008622D01*
X0004221Y0006926D01*
X0004306Y0006809D02*
X0006370Y0006809D01*
X0006370Y0008407D02*
X0003740Y0008407D01*
X0003600Y0010006D02*
X0006370Y0010006D01*
X0006370Y0011604D02*
X0003600Y0011604D01*
X0003600Y0013203D02*
X0006431Y0013203D01*
X0007094Y0014801D02*
X0003600Y0014801D01*
X0003600Y0016400D02*
X0009008Y0016400D01*
X0007289Y0017998D02*
X0003600Y0017998D01*
X0003600Y0019597D02*
X0006882Y0019597D01*
X0006882Y0021196D02*
X0003600Y0021196D01*
X0003600Y0022794D02*
X0006882Y0022794D01*
X0006882Y0024393D02*
X0003600Y0024393D01*
X0003600Y0025991D02*
X0007395Y0025991D01*
X0006816Y0027590D02*
X0003600Y0027590D01*
X0003600Y0029188D02*
X0007015Y0029188D01*
X0008146Y0030787D02*
X0003600Y0030787D01*
X0003600Y0032385D02*
X0010817Y0032385D01*
X0009218Y0033984D02*
X0003600Y0033984D01*
X0003600Y0035582D02*
X0007620Y0035582D01*
X0006021Y0037181D02*
X0003600Y0037181D01*
X0003600Y0038779D02*
X0004423Y0038779D01*
X0003600Y0040378D02*
X0003600Y0040378D01*
X0003600Y0041976D02*
X0003600Y0041976D01*
X0003600Y0043575D02*
X0003600Y0043575D01*
X0003600Y0045173D02*
X0003600Y0045173D01*
X0003600Y0046772D02*
X0003600Y0046772D01*
X0003600Y0048370D02*
X0003600Y0048370D01*
X0003600Y0049969D02*
X0003600Y0049969D01*
X0003600Y0051567D02*
X0003600Y0051567D01*
X0003600Y0053166D02*
X0003600Y0053166D01*
X0003600Y0054764D02*
X0003600Y0054764D01*
X0003600Y0056363D02*
X0003600Y0056363D01*
X0003600Y0057961D02*
X0003600Y0057961D01*
X0003600Y0059560D02*
X0003600Y0059560D01*
X0003600Y0061158D02*
X0003600Y0061158D01*
X0003600Y0062757D02*
X0003600Y0062757D01*
X0003600Y0064355D02*
X0003600Y0064355D01*
X0003600Y0065954D02*
X0003600Y0065954D01*
X0003600Y0067552D02*
X0003600Y0067552D01*
X0003600Y0069151D02*
X0003600Y0069151D01*
X0003600Y0070749D02*
X0003600Y0070749D01*
X0003600Y0072348D02*
X0003600Y0072348D01*
X0003600Y0073946D02*
X0003600Y0073946D01*
X0003600Y0075545D02*
X0003600Y0075545D01*
X0003600Y0077143D02*
X0003600Y0077143D01*
X0003600Y0078742D02*
X0003600Y0078742D01*
X0003600Y0080340D02*
X0003600Y0080340D01*
X0003600Y0081939D02*
X0003600Y0081939D01*
X0003600Y0083537D02*
X0003600Y0083537D01*
X0003600Y0085136D02*
X0003600Y0085136D01*
X0003600Y0086734D02*
X0003600Y0086734D01*
X0003600Y0088333D02*
X0003600Y0088333D01*
X0003600Y0089932D02*
X0003600Y0089932D01*
X0003600Y0091530D02*
X0003600Y0091530D01*
X0003600Y0093129D02*
X0003600Y0093129D01*
X0003600Y0094727D02*
X0003600Y0094727D01*
X0003600Y0096326D02*
X0003600Y0096326D01*
X0003600Y0097924D02*
X0003600Y0097924D01*
X0003600Y0099523D02*
X0003753Y0099523D01*
X0003600Y0101121D02*
X0005352Y0101121D01*
X0005512Y0102720D02*
X0003600Y0102720D01*
X0003600Y0104318D02*
X0005512Y0104318D01*
X0003600Y0105917D02*
X0020760Y0105917D01*
X0021678Y0104318D02*
X0013836Y0104318D01*
X0013836Y0102720D02*
X0014770Y0102720D01*
X0015396Y0107515D02*
X0013836Y0107515D01*
X0013836Y0109114D02*
X0014358Y0109114D01*
X0014104Y0110712D02*
X0014000Y0110712D01*
X0017386Y0114800D02*
X0017386Y0114902D01*
X0017900Y0114902D01*
X0018954Y0115957D01*
X0018954Y0119416D01*
X0017900Y0120471D01*
X0012472Y0120471D01*
X0012463Y0120462D01*
X0011868Y0121057D01*
X0011868Y0121976D01*
X0011651Y0122193D01*
X0012604Y0123146D01*
X0012604Y0126517D01*
X0014051Y0127964D01*
X0014353Y0127662D01*
X0014183Y0127564D01*
X0013848Y0127229D01*
X0013611Y0126818D01*
X0013488Y0126361D01*
X0013488Y0125139D01*
X0013488Y0123918D01*
X0013611Y0123460D01*
X0013848Y0123050D01*
X0014183Y0122715D01*
X0014593Y0122478D01*
X0015051Y0122355D01*
X0017257Y0122355D01*
X0019462Y0122355D01*
X0019920Y0122478D01*
X0020330Y0122715D01*
X0020666Y0123050D01*
X0020903Y0123460D01*
X0021025Y0123918D01*
X0021025Y0125139D01*
X0017257Y0125139D01*
X0017257Y0125139D01*
X0017257Y0122355D01*
X0017257Y0125139D01*
X0017257Y0125139D01*
X0021025Y0125139D01*
X0021025Y0125518D01*
X0021629Y0124914D01*
X0022810Y0124914D01*
X0022810Y0123901D01*
X0022585Y0123808D01*
X0021381Y0122604D01*
X0020730Y0121031D01*
X0020730Y0119328D01*
X0021381Y0117755D01*
X0021466Y0117670D01*
X0020760Y0116964D01*
X0020760Y0114229D01*
X0019235Y0114861D01*
X0017532Y0114861D01*
X0017386Y0114800D01*
X0018505Y0115508D02*
X0020760Y0115508D01*
X0020902Y0117106D02*
X0018954Y0117106D01*
X0018954Y0118705D02*
X0020988Y0118705D01*
X0020730Y0120303D02*
X0018068Y0120303D01*
X0017257Y0123500D02*
X0017257Y0123500D01*
X0017257Y0125099D02*
X0017257Y0125099D01*
X0017257Y0125139D02*
X0013488Y0125139D01*
X0017257Y0125139D01*
X0017257Y0125139D01*
X0013488Y0125099D02*
X0012604Y0125099D01*
X0012604Y0123500D02*
X0013600Y0123500D01*
X0011868Y0121902D02*
X0021090Y0121902D01*
X0020913Y0123500D02*
X0022277Y0123500D01*
X0021445Y0125099D02*
X0021025Y0125099D01*
X0021025Y0129894D02*
X0021041Y0129894D01*
X0027242Y0125099D02*
X0031058Y0125099D01*
X0031160Y0126697D02*
X0028112Y0126697D01*
X0028112Y0128296D02*
X0031980Y0128296D01*
X0032875Y0129894D02*
X0035500Y0129894D01*
X0035500Y0131493D02*
X0034441Y0131493D01*
X0034784Y0133091D02*
X0035500Y0133091D01*
X0035500Y0134690D02*
X0034377Y0134690D01*
X0032878Y0136288D02*
X0032498Y0136288D01*
X0034300Y0138513D02*
X0041300Y0138513D01*
X0041300Y0132013D01*
X0042722Y0126213D02*
X0039618Y0126213D01*
X0039618Y0124749D01*
X0039500Y0124463D01*
X0039500Y0121355D01*
X0040084Y0120771D01*
X0040084Y0115343D01*
X0039480Y0114739D01*
X0039859Y0114739D01*
X0039859Y0110970D01*
X0039859Y0110970D01*
X0039859Y0107202D01*
X0041080Y0107202D01*
X0041538Y0107324D01*
X0041949Y0107561D01*
X0042284Y0107896D01*
X0042521Y0108307D01*
X0042643Y0108765D01*
X0042643Y0110970D01*
X0039859Y0110970D01*
X0039859Y0107202D01*
X0039820Y0107202D01*
X0039820Y0102768D01*
X0038991Y0101939D01*
X0039820Y0101109D01*
X0039820Y0096075D01*
X0039677Y0095931D01*
X0040408Y0095931D01*
X0041462Y0094877D01*
X0041462Y0094276D01*
X0041651Y0094466D01*
X0042062Y0094703D01*
X0042520Y0094825D01*
X0043741Y0094825D01*
X0043741Y0091057D01*
X0043741Y0091057D01*
X0043741Y0094825D01*
X0044962Y0094825D01*
X0045420Y0094703D01*
X0045830Y0094466D01*
X0046166Y0094130D01*
X0046264Y0093960D01*
X0047129Y0094825D01*
X0050138Y0094825D01*
X0050138Y0095020D01*
X0043574Y0095020D01*
X0042520Y0096075D01*
X0042520Y0101109D01*
X0043349Y0101939D01*
X0042520Y0102768D01*
X0042520Y0107802D01*
X0043574Y0108857D01*
X0050971Y0108857D01*
X0052025Y0107802D01*
X0052025Y0107485D01*
X0052940Y0107485D01*
X0053256Y0107169D01*
X0053256Y0109670D01*
X0048629Y0109670D01*
X0047575Y0110724D01*
X0047575Y0112833D01*
X0046971Y0112229D01*
X0042643Y0112229D01*
X0042643Y0110970D01*
X0039859Y0110970D01*
X0039859Y0110970D01*
X0039859Y0110970D01*
X0039859Y0114739D01*
X0040488Y0114739D01*
X0040488Y0116743D01*
X0041543Y0117798D01*
X0042057Y0117798D01*
X0042057Y0123766D01*
X0042815Y0124524D01*
X0042722Y0124749D01*
X0042722Y0126213D01*
X0042722Y0125099D02*
X0039618Y0125099D01*
X0039500Y0123500D02*
X0042057Y0123500D01*
X0042057Y0121902D02*
X0039500Y0121902D01*
X0040084Y0120303D02*
X0042057Y0120303D01*
X0042057Y0118705D02*
X0040084Y0118705D01*
X0040084Y0117106D02*
X0040851Y0117106D01*
X0040488Y0115508D02*
X0040084Y0115508D01*
X0039859Y0113909D02*
X0039859Y0113909D01*
X0039859Y0112311D02*
X0039859Y0112311D01*
X0039859Y0110712D02*
X0039859Y0110712D01*
X0039859Y0109114D02*
X0039859Y0109114D01*
X0039859Y0107515D02*
X0039859Y0107515D01*
X0039820Y0105917D02*
X0042520Y0105917D01*
X0042520Y0107515D02*
X0041869Y0107515D01*
X0042643Y0109114D02*
X0053256Y0109114D01*
X0053256Y0107515D02*
X0052025Y0107515D01*
X0047587Y0110712D02*
X0042643Y0110712D01*
X0042520Y0104318D02*
X0039820Y0104318D01*
X0039772Y0102720D02*
X0042568Y0102720D01*
X0042531Y0101121D02*
X0039809Y0101121D01*
X0039820Y0099523D02*
X0042520Y0099523D01*
X0042520Y0097924D02*
X0039820Y0097924D01*
X0039820Y0096326D02*
X0042520Y0096326D01*
X0042153Y0094727D02*
X0041462Y0094727D01*
X0043741Y0094727D02*
X0043741Y0094727D01*
X0043741Y0093129D02*
X0043741Y0093129D01*
X0043741Y0091530D02*
X0043741Y0091530D01*
X0045328Y0094727D02*
X0047031Y0094727D01*
X0040957Y0089731D02*
X0040957Y0088851D01*
X0041079Y0088393D01*
X0041126Y0088313D01*
X0040939Y0088313D01*
X0040408Y0088845D01*
X0034192Y0088845D01*
X0033138Y0087790D01*
X0033138Y0083150D01*
X0033981Y0082306D01*
X0033763Y0082087D01*
X0033474Y0082785D01*
X0032269Y0083989D01*
X0031703Y0084224D01*
X0032087Y0084608D01*
X0032587Y0085816D01*
X0032587Y0087124D01*
X0032087Y0088332D01*
X0031584Y0088835D01*
X0031584Y0089184D01*
X0030980Y0089788D01*
X0033089Y0089788D01*
X0033337Y0090037D01*
X0034192Y0089182D01*
X0040408Y0089182D01*
X0040957Y0089731D01*
X0040920Y0088333D02*
X0041114Y0088333D01*
X0033680Y0088333D02*
X0032086Y0088333D01*
X0032587Y0086734D02*
X0033138Y0086734D01*
X0033138Y0085136D02*
X0032306Y0085136D01*
X0032721Y0083537D02*
X0033138Y0083537D01*
X0033600Y0078241D02*
X0033600Y0075925D01*
X0032389Y0074713D01*
X0031100Y0073425D01*
X0031100Y0064083D01*
X0030147Y0064083D01*
X0030147Y0059784D01*
X0030146Y0059784D01*
X0030146Y0064083D01*
X0028809Y0064083D01*
X0028352Y0063961D01*
X0027941Y0063724D01*
X0027606Y0063389D01*
X0027369Y0062978D01*
X0027246Y0062520D01*
X0027246Y0059784D01*
X0030146Y0059784D01*
X0030146Y0059783D01*
X0027246Y0059783D01*
X0027246Y0057046D01*
X0027311Y0056807D01*
X0026509Y0056807D01*
X0026595Y0056956D01*
X0026718Y0057414D01*
X0026718Y0060013D01*
X0023343Y0060013D01*
X0019969Y0060013D01*
X0019969Y0057414D01*
X0020022Y0057213D01*
X0019631Y0057213D01*
X0019631Y0061813D01*
X0019969Y0061813D01*
X0019968Y0060013D01*
X0023343Y0060013D01*
X0023343Y0060013D01*
X0023343Y0060013D01*
X0026718Y0060013D01*
X0026718Y0062613D01*
X0026595Y0063070D01*
X0026549Y0063151D01*
X0026711Y0063313D01*
X0028000Y0064602D01*
X0028000Y0076491D01*
X0028993Y0076080D01*
X0030696Y0076080D01*
X0032269Y0076732D01*
X0033474Y0077936D01*
X0033600Y0078241D01*
X0033600Y0077143D02*
X0032681Y0077143D01*
X0033220Y0075545D02*
X0028000Y0075545D01*
X0028000Y0073946D02*
X0031622Y0073946D01*
X0031100Y0072348D02*
X0028000Y0072348D01*
X0028000Y0070749D02*
X0031100Y0070749D01*
X0031100Y0069151D02*
X0028000Y0069151D01*
X0028000Y0067552D02*
X0031100Y0067552D01*
X0031100Y0065954D02*
X0028000Y0065954D01*
X0027753Y0064355D02*
X0031100Y0064355D01*
X0030147Y0062757D02*
X0030146Y0062757D01*
X0030146Y0061158D02*
X0030147Y0061158D01*
X0030147Y0059783D02*
X0030147Y0055483D01*
X0033843Y0055483D01*
X0033346Y0054987D01*
X0032816Y0053706D01*
X0032816Y0052320D01*
X0033346Y0051040D01*
X0034326Y0050060D01*
X0035607Y0049529D01*
X0036888Y0049529D01*
X0036346Y0048987D01*
X0035816Y0047706D01*
X0035816Y0046320D01*
X0036346Y0045040D01*
X0037326Y0044060D01*
X0038607Y0043529D01*
X0039993Y0043529D01*
X0041274Y0044060D01*
X0042254Y0045040D01*
X0042784Y0046320D01*
X0042784Y0047706D01*
X0042254Y0048987D01*
X0041795Y0049446D01*
X0041795Y0055483D01*
X0044845Y0055483D01*
X0044316Y0054206D01*
X0044316Y0052820D01*
X0044846Y0051540D01*
X0045826Y0050560D01*
X0047107Y0050029D01*
X0048493Y0050029D01*
X0049774Y0050560D01*
X0050754Y0051540D01*
X0051284Y0052820D01*
X0051284Y0052886D01*
X0053770Y0055372D01*
X0053770Y0049808D01*
X0052983Y0049808D01*
X0051889Y0048713D01*
X0050600Y0047425D01*
X0050600Y0046288D01*
X0049826Y0045967D01*
X0048846Y0044987D01*
X0048316Y0043706D01*
X0048316Y0042320D01*
X0048846Y0041040D01*
X0049826Y0040060D01*
X0051107Y0039529D01*
X0052493Y0039529D01*
X0053770Y0040058D01*
X0053770Y0037176D01*
X0052993Y0037498D01*
X0051607Y0037498D01*
X0050326Y0036967D01*
X0049346Y0035987D01*
X0048816Y0034706D01*
X0048816Y0033320D01*
X0049346Y0032040D01*
X0050326Y0031060D01*
X0051607Y0030529D01*
X0052673Y0030529D01*
X0052919Y0030283D01*
X0052194Y0030283D01*
X0052194Y0025984D01*
X0052194Y0025984D01*
X0052194Y0030283D01*
X0028570Y0030283D01*
X0028570Y0033600D01*
X0029707Y0033129D01*
X0031093Y0033129D01*
X0032374Y0033660D01*
X0033354Y0034640D01*
X0033884Y0035920D01*
X0033884Y0037306D01*
X0033354Y0038587D01*
X0032600Y0039341D01*
X0032600Y0040325D01*
X0031311Y0041613D01*
X0029416Y0043509D01*
X0028570Y0043509D01*
X0028570Y0044316D01*
X0028826Y0044060D01*
X0030107Y0043529D01*
X0031493Y0043529D01*
X0032774Y0044060D01*
X0033754Y0045040D01*
X0034284Y0046320D01*
X0034284Y0047706D01*
X0033754Y0048987D01*
X0033000Y0049741D01*
X0033000Y0050925D01*
X0031711Y0052213D01*
X0030967Y0052957D01*
X0028570Y0052957D01*
X0028570Y0055548D01*
X0028809Y0055483D01*
X0030146Y0055483D01*
X0030146Y0059783D01*
X0030147Y0059783D01*
X0030146Y0059560D02*
X0030147Y0059560D01*
X0030146Y0057961D02*
X0030147Y0057961D01*
X0030146Y0056363D02*
X0030147Y0056363D01*
X0028570Y0054764D02*
X0033254Y0054764D01*
X0032816Y0053166D02*
X0028570Y0053166D01*
X0027246Y0057961D02*
X0026718Y0057961D01*
X0026718Y0059560D02*
X0027246Y0059560D01*
X0027246Y0061158D02*
X0026718Y0061158D01*
X0026679Y0062757D02*
X0027310Y0062757D01*
X0032357Y0051567D02*
X0033128Y0051567D01*
X0033000Y0049969D02*
X0034546Y0049969D01*
X0034009Y0048370D02*
X0036091Y0048370D01*
X0035816Y0046772D02*
X0034284Y0046772D01*
X0033809Y0045173D02*
X0036291Y0045173D01*
X0038497Y0043575D02*
X0031603Y0043575D01*
X0030948Y0041976D02*
X0048458Y0041976D01*
X0048316Y0043575D02*
X0040103Y0043575D01*
X0042309Y0045173D02*
X0049032Y0045173D01*
X0050600Y0046772D02*
X0042784Y0046772D01*
X0042509Y0048370D02*
X0051546Y0048370D01*
X0053770Y0049969D02*
X0041795Y0049969D01*
X0041795Y0051567D02*
X0044835Y0051567D01*
X0044316Y0053166D02*
X0041795Y0053166D01*
X0041795Y0054764D02*
X0044547Y0054764D01*
X0050765Y0051567D02*
X0053770Y0051567D01*
X0053770Y0053166D02*
X0051564Y0053166D01*
X0053162Y0054764D02*
X0053770Y0054764D01*
X0055094Y0056807D02*
X0055094Y0063029D01*
X0054039Y0064083D01*
X0052981Y0064083D01*
X0057711Y0068813D01*
X0058065Y0069167D01*
X0058065Y0069110D01*
X0058406Y0068769D01*
X0058406Y0065398D01*
X0059460Y0064343D01*
X0064101Y0064343D01*
X0065155Y0065398D01*
X0065155Y0071005D01*
X0065383Y0071005D01*
X0065492Y0071005D01*
X0065492Y0065398D01*
X0066547Y0064343D01*
X0066667Y0064343D01*
X0066667Y0053074D01*
X0065774Y0053967D01*
X0064493Y0054498D01*
X0063107Y0054498D01*
X0062370Y0054192D01*
X0062370Y0055685D01*
X0063274Y0056060D01*
X0064254Y0057040D01*
X0064784Y0058320D01*
X0064784Y0059706D01*
X0064254Y0060987D01*
X0063274Y0061967D01*
X0061993Y0062498D01*
X0060607Y0062498D01*
X0059326Y0061967D01*
X0058346Y0060987D01*
X0057816Y0059706D01*
X0057816Y0058640D01*
X0055982Y0056807D01*
X0055094Y0056807D01*
X0055094Y0057961D02*
X0057137Y0057961D01*
X0057816Y0059560D02*
X0055094Y0059560D01*
X0055094Y0061158D02*
X0058517Y0061158D01*
X0059448Y0064355D02*
X0053253Y0064355D01*
X0054852Y0065954D02*
X0058406Y0065954D01*
X0058406Y0067552D02*
X0056450Y0067552D01*
X0058049Y0069151D02*
X0058065Y0069151D01*
X0055094Y0062757D02*
X0066667Y0062757D01*
X0066667Y0061158D02*
X0064083Y0061158D01*
X0064784Y0059560D02*
X0066667Y0059560D01*
X0066667Y0057961D02*
X0064636Y0057961D01*
X0063577Y0056363D02*
X0066667Y0056363D01*
X0066667Y0054764D02*
X0062370Y0054764D01*
X0066575Y0053166D02*
X0066667Y0053166D01*
X0066535Y0064355D02*
X0064113Y0064355D01*
X0065155Y0065954D02*
X0065492Y0065954D01*
X0065492Y0067552D02*
X0065155Y0067552D01*
X0065155Y0069151D02*
X0065492Y0069151D01*
X0065492Y0070749D02*
X0065155Y0070749D01*
X0065383Y0071005D02*
X0065383Y0074773D01*
X0065383Y0071005D01*
X0065383Y0072348D02*
X0065383Y0072348D01*
X0065383Y0073946D02*
X0065383Y0073946D01*
X0065383Y0074773D02*
X0065383Y0074773D01*
X0073725Y0088553D02*
X0073725Y0092321D01*
X0073346Y0092321D01*
X0073950Y0092925D01*
X0073950Y0098353D01*
X0072896Y0099408D01*
X0070509Y0099408D01*
X0070004Y0099912D01*
X0069344Y0100572D01*
X0068991Y0101426D01*
X0067787Y0102630D01*
X0066214Y0103281D01*
X0064511Y0103281D01*
X0062938Y0102630D01*
X0061734Y0101426D01*
X0061082Y0099853D01*
X0061082Y0098343D01*
X0059618Y0099807D01*
X0059618Y0104182D01*
X0060526Y0104182D01*
X0061580Y0105236D01*
X0061580Y0106932D01*
X0063105Y0106300D01*
X0064808Y0106300D01*
X0066381Y0106952D01*
X0067585Y0108156D01*
X0068237Y0109729D01*
X0068237Y0111432D01*
X0068144Y0111656D01*
X0069354Y0112867D01*
X0069354Y0114902D01*
X0069868Y0114902D01*
X0070472Y0115506D01*
X0070472Y0113708D01*
X0070004Y0113239D01*
X0070004Y0108598D01*
X0071058Y0107544D01*
X0077274Y0107544D01*
X0078328Y0108598D01*
X0078328Y0113239D01*
X0078009Y0113558D01*
X0078009Y0116857D01*
X0077144Y0117723D01*
X0077315Y0117821D01*
X0077650Y0118156D01*
X0077887Y0118567D01*
X0078009Y0119024D01*
X0078009Y0120246D01*
X0078009Y0121467D01*
X0077887Y0121925D01*
X0077650Y0122335D01*
X0077315Y0122670D01*
X0076904Y0122907D01*
X0076446Y0123030D01*
X0074241Y0123030D01*
X0074241Y0120246D01*
X0074241Y0120246D01*
X0074241Y0123030D01*
X0072035Y0123030D01*
X0071578Y0122907D01*
X0071167Y0122670D01*
X0070832Y0122335D01*
X0070595Y0121925D01*
X0070472Y0121467D01*
X0070472Y0120246D01*
X0074241Y0120246D01*
X0078009Y0120246D01*
X0074241Y0120246D01*
X0074241Y0120246D01*
X0074241Y0120246D01*
X0070472Y0120246D01*
X0070472Y0119867D01*
X0069868Y0120471D01*
X0064440Y0120471D01*
X0063386Y0119416D01*
X0063386Y0115957D01*
X0064440Y0114902D01*
X0064954Y0114902D01*
X0064954Y0114800D01*
X0064808Y0114861D01*
X0063105Y0114861D01*
X0061580Y0114229D01*
X0061580Y0116964D01*
X0060874Y0117670D01*
X0060959Y0117755D01*
X0061611Y0119328D01*
X0061611Y0121031D01*
X0060959Y0122604D01*
X0059755Y0123808D01*
X0059555Y0123891D01*
X0059555Y0124172D01*
X0060139Y0124756D01*
X0060139Y0130184D01*
X0059535Y0130788D01*
X0060780Y0130788D01*
X0060780Y0126394D01*
X0061653Y0125520D01*
X0061316Y0124706D01*
X0061316Y0123320D01*
X0061846Y0122040D01*
X0062826Y0121060D01*
X0064107Y0120529D01*
X0065493Y0120529D01*
X0066774Y0121060D01*
X0067754Y0122040D01*
X0068284Y0123320D01*
X0068284Y0124706D01*
X0068022Y0125339D01*
X0068050Y0125339D01*
X0069104Y0126394D01*
X0069104Y0131035D01*
X0068050Y0132089D01*
X0062698Y0132089D01*
X0062698Y0132426D01*
X0068050Y0132426D01*
X0069104Y0133480D01*
X0069104Y0138121D01*
X0068050Y0139176D01*
X0061834Y0139176D01*
X0060984Y0138325D01*
X0058184Y0138325D01*
X0057319Y0137460D01*
X0057221Y0137630D01*
X0056886Y0137966D01*
X0056475Y0138203D01*
X0056017Y0138325D01*
X0054796Y0138325D01*
X0053789Y0138325D01*
X0054315Y0138851D01*
X0056164Y0138851D01*
X0057218Y0139906D01*
X0057218Y0146121D01*
X0056164Y0147176D01*
X0055119Y0147176D01*
X0055143Y0147265D01*
X0055143Y0149470D01*
X0052359Y0149470D01*
X0052359Y0149470D01*
X0055143Y0149470D01*
X0055143Y0151676D01*
X0055021Y0152133D01*
X0055000Y0152168D01*
X0055100Y0152268D01*
X0055100Y0157694D01*
X0056948Y0157694D01*
X0056722Y0157250D01*
X0056488Y0156531D01*
X0056370Y0155785D01*
X0056370Y0152607D01*
X0060970Y0152607D01*
X0060970Y0152207D01*
X0061370Y0152207D01*
X0061370Y0144607D01*
X0061548Y0144607D01*
X0062294Y0144725D01*
X0063013Y0144959D01*
X0063686Y0145302D01*
X0064297Y0145746D01*
X0064831Y0146280D01*
X0065275Y0146891D01*
X0065618Y0147565D01*
X0065852Y0148283D01*
X0065970Y0149029D01*
X0065970Y0152207D01*
X0061370Y0152207D01*
X0061370Y0152607D01*
X0065970Y0152607D01*
X0065970Y0155785D01*
X0065852Y0156531D01*
X0065618Y0157250D01*
X0065392Y0157694D01*
X0066922Y0157694D01*
X0066370Y0156362D01*
X0066370Y0148452D01*
X0067101Y0146688D01*
X0068451Y0145338D01*
X0070215Y0144607D01*
X0071900Y0144607D01*
X0071900Y0139431D01*
X0071192Y0139431D01*
X0070138Y0138377D01*
X0070138Y0133736D01*
X0071192Y0132682D01*
X0077408Y0132682D01*
X0078462Y0133736D01*
X0078462Y0138377D01*
X0077408Y0139431D01*
X0076700Y0139431D01*
X0076700Y0149755D01*
X0076335Y0150637D01*
X0075970Y0151001D01*
X0075970Y0156362D01*
X0075696Y0157023D01*
X0077071Y0156024D01*
X0078119Y0154581D01*
X0078670Y0152885D01*
X0078740Y0151994D01*
X0078740Y0043895D01*
X0078493Y0043998D01*
X0077107Y0043998D01*
X0075826Y0043467D01*
X0074846Y0042487D01*
X0074316Y0041206D01*
X0074316Y0040157D01*
X0073493Y0040498D01*
X0072107Y0040498D01*
X0070826Y0039967D01*
X0069846Y0038987D01*
X0069316Y0037706D01*
X0069316Y0036320D01*
X0069684Y0035431D01*
X0067192Y0035431D01*
X0066138Y0034377D01*
X0066138Y0030176D01*
X0064343Y0030176D01*
X0062532Y0030176D01*
X0062370Y0030132D01*
X0062370Y0032809D01*
X0063207Y0032809D01*
X0064496Y0034098D01*
X0078500Y0048102D01*
X0078500Y0102610D01*
X0078328Y0102781D01*
X0078328Y0106153D01*
X0077274Y0107207D01*
X0071058Y0107207D01*
X0070004Y0106153D01*
X0070004Y0101512D01*
X0071058Y0100457D01*
X0074100Y0100457D01*
X0074100Y0092321D01*
X0073725Y0092321D01*
X0073725Y0088553D01*
X0073725Y0088553D01*
X0073725Y0089932D02*
X0073725Y0089932D01*
X0073725Y0091530D02*
X0073725Y0091530D01*
X0073950Y0093129D02*
X0074100Y0093129D01*
X0074100Y0094727D02*
X0073950Y0094727D01*
X0073950Y0096326D02*
X0074100Y0096326D01*
X0074100Y0097924D02*
X0073950Y0097924D01*
X0074100Y0099523D02*
X0070394Y0099523D01*
X0070395Y0101121D02*
X0069117Y0101121D01*
X0070004Y0102720D02*
X0067570Y0102720D01*
X0070004Y0104318D02*
X0060662Y0104318D01*
X0061580Y0105917D02*
X0070004Y0105917D01*
X0070004Y0109114D02*
X0067982Y0109114D01*
X0068237Y0110712D02*
X0070004Y0110712D01*
X0070004Y0112311D02*
X0068798Y0112311D01*
X0069354Y0113909D02*
X0070472Y0113909D01*
X0070472Y0120303D02*
X0070036Y0120303D01*
X0070589Y0121902D02*
X0067616Y0121902D01*
X0068284Y0123500D02*
X0078740Y0123500D01*
X0078740Y0121902D02*
X0077893Y0121902D01*
X0078009Y0120303D02*
X0078740Y0120303D01*
X0078740Y0118705D02*
X0077924Y0118705D01*
X0077761Y0117106D02*
X0078740Y0117106D01*
X0078740Y0115508D02*
X0078009Y0115508D01*
X0078009Y0113909D02*
X0078740Y0113909D01*
X0078740Y0112311D02*
X0078328Y0112311D01*
X0078328Y0110712D02*
X0078740Y0110712D01*
X0078740Y0109114D02*
X0078328Y0109114D01*
X0078740Y0107515D02*
X0066944Y0107515D01*
X0063154Y0102720D02*
X0059618Y0102720D01*
X0059618Y0101121D02*
X0061607Y0101121D01*
X0061082Y0099523D02*
X0059902Y0099523D01*
X0061580Y0115508D02*
X0063835Y0115508D01*
X0063386Y0117106D02*
X0061438Y0117106D01*
X0061352Y0118705D02*
X0063386Y0118705D01*
X0064273Y0120303D02*
X0061611Y0120303D01*
X0061250Y0121902D02*
X0061984Y0121902D01*
X0061316Y0123500D02*
X0060063Y0123500D01*
X0060139Y0125099D02*
X0061478Y0125099D01*
X0060780Y0126697D02*
X0060139Y0126697D01*
X0060139Y0128296D02*
X0060780Y0128296D01*
X0060780Y0129894D02*
X0060139Y0129894D01*
X0057746Y0137887D02*
X0056964Y0137887D01*
X0056798Y0139485D02*
X0071900Y0139485D01*
X0071900Y0141084D02*
X0057218Y0141084D01*
X0057218Y0142682D02*
X0071900Y0142682D01*
X0071900Y0144281D02*
X0057218Y0144281D01*
X0057218Y0145879D02*
X0057910Y0145879D01*
X0058043Y0145746D02*
X0057509Y0146280D01*
X0057065Y0146891D01*
X0056722Y0147565D01*
X0056488Y0148283D01*
X0056370Y0149029D01*
X0056370Y0152207D01*
X0060970Y0152207D01*
X0060970Y0144607D01*
X0060792Y0144607D01*
X0060046Y0144725D01*
X0059328Y0144959D01*
X0058654Y0145302D01*
X0058043Y0145746D01*
X0056766Y0147478D02*
X0055143Y0147478D01*
X0055143Y0149076D02*
X0056370Y0149076D01*
X0056370Y0150675D02*
X0055143Y0150675D01*
X0055100Y0152273D02*
X0060970Y0152273D01*
X0061370Y0152273D02*
X0066370Y0152273D01*
X0066370Y0150675D02*
X0065970Y0150675D01*
X0065970Y0149076D02*
X0066370Y0149076D01*
X0066774Y0147478D02*
X0065574Y0147478D01*
X0064431Y0145879D02*
X0067910Y0145879D01*
X0069104Y0137887D02*
X0070138Y0137887D01*
X0070138Y0136288D02*
X0069104Y0136288D01*
X0069104Y0134690D02*
X0070138Y0134690D01*
X0070783Y0133091D02*
X0068715Y0133091D01*
X0068646Y0131493D02*
X0070407Y0131493D01*
X0070497Y0131650D02*
X0070260Y0131240D01*
X0070138Y0130782D01*
X0070138Y0128970D01*
X0070138Y0127158D01*
X0070260Y0126700D01*
X0070497Y0126290D01*
X0070833Y0125955D01*
X0071243Y0125718D01*
X0071701Y0125595D01*
X0074300Y0125595D01*
X0074300Y0128970D01*
X0074300Y0125595D01*
X0076899Y0125595D01*
X0077357Y0125718D01*
X0077767Y0125955D01*
X0078103Y0126290D01*
X0078340Y0126700D01*
X0078462Y0127158D01*
X0078462Y0128970D01*
X0074300Y0128970D01*
X0074300Y0128970D01*
X0074300Y0128970D01*
X0070138Y0128970D01*
X0074300Y0128970D01*
X0074300Y0128970D01*
X0078462Y0128970D01*
X0078462Y0130782D01*
X0078340Y0131240D01*
X0078103Y0131650D01*
X0077767Y0131985D01*
X0077357Y0132222D01*
X0076899Y0132345D01*
X0074300Y0132345D01*
X0074300Y0128970D01*
X0074300Y0128970D01*
X0074300Y0132345D01*
X0071701Y0132345D01*
X0071243Y0132222D01*
X0070833Y0131985D01*
X0070497Y0131650D01*
X0070138Y0129894D02*
X0069104Y0129894D01*
X0069104Y0128296D02*
X0070138Y0128296D01*
X0070262Y0126697D02*
X0069104Y0126697D01*
X0068122Y0125099D02*
X0078740Y0125099D01*
X0078740Y0126697D02*
X0078338Y0126697D01*
X0078462Y0128296D02*
X0078740Y0128296D01*
X0078740Y0129894D02*
X0078462Y0129894D01*
X0078193Y0131493D02*
X0078740Y0131493D01*
X0078740Y0133091D02*
X0077817Y0133091D01*
X0078462Y0134690D02*
X0078740Y0134690D01*
X0078740Y0136288D02*
X0078462Y0136288D01*
X0078462Y0137887D02*
X0078740Y0137887D01*
X0078740Y0139485D02*
X0076700Y0139485D01*
X0076700Y0141084D02*
X0078740Y0141084D01*
X0078740Y0142682D02*
X0076700Y0142682D01*
X0076700Y0144281D02*
X0078740Y0144281D01*
X0078740Y0145879D02*
X0076700Y0145879D01*
X0076700Y0147478D02*
X0078740Y0147478D01*
X0078740Y0149076D02*
X0076700Y0149076D01*
X0076296Y0150675D02*
X0078740Y0150675D01*
X0078718Y0152273D02*
X0075970Y0152273D01*
X0075970Y0153872D02*
X0078349Y0153872D01*
X0077473Y0155470D02*
X0075970Y0155470D01*
X0066663Y0157069D02*
X0065677Y0157069D01*
X0065970Y0155470D02*
X0066370Y0155470D01*
X0066370Y0153872D02*
X0065970Y0153872D01*
X0061370Y0150675D02*
X0060970Y0150675D01*
X0060970Y0149076D02*
X0061370Y0149076D01*
X0061370Y0147478D02*
X0060970Y0147478D01*
X0060970Y0145879D02*
X0061370Y0145879D01*
X0056370Y0153872D02*
X0055100Y0153872D01*
X0055100Y0155470D02*
X0056370Y0155470D01*
X0056663Y0157069D02*
X0055100Y0157069D01*
X0049800Y0156557D02*
X0041387Y0156557D01*
X0040843Y0156013D01*
X0041300Y0155557D01*
X0041300Y0150057D01*
X0041300Y0146513D02*
X0020757Y0146513D01*
X0020757Y0142013D01*
X0020757Y0146513D02*
X0020757Y0149454D01*
X0012351Y0149454D01*
X0011170Y0150635D01*
X0011170Y0152407D01*
X0006020Y0142682D02*
X0003600Y0142682D01*
X0003600Y0141084D02*
X0007618Y0141084D01*
X0004421Y0144281D02*
X0003600Y0144281D01*
X0003600Y0139485D02*
X0012500Y0139485D01*
X0012500Y0137887D02*
X0003600Y0137887D01*
X0003600Y0136288D02*
X0030102Y0136288D01*
X0027843Y0142013D02*
X0028800Y0142970D01*
X0034300Y0142970D01*
X0034300Y0138513D01*
X0029725Y0129894D02*
X0027646Y0129894D01*
X0027742Y0123500D02*
X0031575Y0123500D01*
X0033083Y0121902D02*
X0028929Y0121902D01*
X0029290Y0120303D02*
X0034516Y0120303D01*
X0034516Y0118705D02*
X0029032Y0118705D01*
X0028942Y0117106D02*
X0034516Y0117106D01*
X0034516Y0115508D02*
X0033315Y0115508D01*
X0022722Y0102720D02*
X0019186Y0102720D01*
X0020733Y0101121D02*
X0022722Y0101121D01*
X0022722Y0099523D02*
X0021258Y0099523D01*
X0021165Y0097924D02*
X0022722Y0097924D01*
X0022999Y0096326D02*
X0020356Y0096326D01*
X0017844Y0094727D02*
X0023457Y0094727D01*
X0023457Y0093129D02*
X0013958Y0093129D01*
X0013958Y0094727D02*
X0016112Y0094727D01*
X0016213Y0091530D02*
X0018496Y0091530D01*
X0017242Y0089932D02*
X0016517Y0089932D01*
X0016517Y0088333D02*
X0016834Y0088333D01*
X0017045Y0086734D02*
X0016517Y0086734D01*
X0015809Y0085136D02*
X0017294Y0085136D01*
X0016732Y0083537D02*
X0013836Y0083537D01*
X0013836Y0081939D02*
X0016732Y0081939D01*
X0016732Y0080340D02*
X0013637Y0080340D01*
X0013188Y0078742D02*
X0017136Y0078742D01*
X0014173Y0077143D02*
X0013836Y0077143D01*
X0013836Y0075545D02*
X0014173Y0075545D01*
X0014173Y0073946D02*
X0013836Y0073946D01*
X0019631Y0061158D02*
X0019969Y0061158D01*
X0019969Y0059560D02*
X0019631Y0059560D01*
X0019631Y0057961D02*
X0019969Y0057961D01*
X0028570Y0043575D02*
X0029997Y0043575D01*
X0032547Y0040378D02*
X0049508Y0040378D01*
X0050842Y0037181D02*
X0033884Y0037181D01*
X0033744Y0035582D02*
X0049178Y0035582D01*
X0048816Y0033984D02*
X0032698Y0033984D01*
X0033162Y0038779D02*
X0053770Y0038779D01*
X0053758Y0037181D02*
X0053770Y0037181D01*
X0050985Y0030787D02*
X0028570Y0030787D01*
X0028570Y0032385D02*
X0049203Y0032385D01*
X0052194Y0029188D02*
X0052194Y0029188D01*
X0052194Y0027590D02*
X0052194Y0027590D01*
X0052194Y0025991D02*
X0052194Y0025991D01*
X0052194Y0025983D02*
X0052194Y0022713D01*
X0052194Y0022713D01*
X0052194Y0025983D01*
X0052194Y0025983D01*
X0052194Y0024393D02*
X0052194Y0024393D01*
X0052194Y0022794D02*
X0052194Y0022794D01*
X0060439Y0022713D02*
X0060631Y0022906D01*
X0060631Y0028960D01*
X0061062Y0028960D01*
X0060969Y0028613D01*
X0060968Y0026013D01*
X0060969Y0026013D02*
X0060969Y0023414D01*
X0061091Y0022956D01*
X0061231Y0022713D01*
X0060439Y0022713D01*
X0060520Y0022794D02*
X0061185Y0022794D01*
X0060969Y0024393D02*
X0060631Y0024393D01*
X0060631Y0025991D02*
X0060969Y0025991D01*
X0060969Y0026013D02*
X0064343Y0026013D01*
X0064343Y0026013D01*
X0060968Y0026013D01*
X0060969Y0027590D02*
X0060631Y0027590D01*
X0062370Y0030787D02*
X0066138Y0030787D01*
X0066138Y0032385D02*
X0062370Y0032385D01*
X0064381Y0033984D02*
X0066138Y0033984D01*
X0065980Y0035582D02*
X0069622Y0035582D01*
X0069316Y0037181D02*
X0067579Y0037181D01*
X0069177Y0038779D02*
X0069760Y0038779D01*
X0070776Y0040378D02*
X0071817Y0040378D01*
X0072374Y0041976D02*
X0074635Y0041976D01*
X0074316Y0040378D02*
X0073783Y0040378D01*
X0073973Y0043575D02*
X0076086Y0043575D01*
X0075571Y0045173D02*
X0078740Y0045173D01*
X0078740Y0046772D02*
X0077170Y0046772D01*
X0078500Y0048370D02*
X0078740Y0048370D01*
X0078740Y0049969D02*
X0078500Y0049969D01*
X0078500Y0051567D02*
X0078740Y0051567D01*
X0078740Y0053166D02*
X0078500Y0053166D01*
X0078500Y0054764D02*
X0078740Y0054764D01*
X0078740Y0056363D02*
X0078500Y0056363D01*
X0078500Y0057961D02*
X0078740Y0057961D01*
X0078740Y0059560D02*
X0078500Y0059560D01*
X0078500Y0061158D02*
X0078740Y0061158D01*
X0078740Y0062757D02*
X0078500Y0062757D01*
X0078500Y0064355D02*
X0078740Y0064355D01*
X0078740Y0065954D02*
X0078500Y0065954D01*
X0078500Y0067552D02*
X0078740Y0067552D01*
X0078740Y0069151D02*
X0078500Y0069151D01*
X0078500Y0070749D02*
X0078740Y0070749D01*
X0078740Y0072348D02*
X0078500Y0072348D01*
X0078500Y0073946D02*
X0078740Y0073946D01*
X0078740Y0075545D02*
X0078500Y0075545D01*
X0078500Y0077143D02*
X0078740Y0077143D01*
X0078740Y0078742D02*
X0078500Y0078742D01*
X0078500Y0080340D02*
X0078740Y0080340D01*
X0078740Y0081939D02*
X0078500Y0081939D01*
X0078500Y0083537D02*
X0078740Y0083537D01*
X0078740Y0085136D02*
X0078500Y0085136D01*
X0078500Y0086734D02*
X0078740Y0086734D01*
X0078740Y0088333D02*
X0078500Y0088333D01*
X0078500Y0089932D02*
X0078740Y0089932D01*
X0078740Y0091530D02*
X0078500Y0091530D01*
X0078500Y0093129D02*
X0078740Y0093129D01*
X0078740Y0094727D02*
X0078500Y0094727D01*
X0078500Y0096326D02*
X0078740Y0096326D01*
X0078740Y0097924D02*
X0078500Y0097924D01*
X0078500Y0099523D02*
X0078740Y0099523D01*
X0078740Y0101121D02*
X0078500Y0101121D01*
X0078390Y0102720D02*
X0078740Y0102720D01*
X0078740Y0104318D02*
X0078328Y0104318D01*
X0078328Y0105917D02*
X0078740Y0105917D01*
X0074241Y0120303D02*
X0074241Y0120303D01*
X0074241Y0121902D02*
X0074241Y0121902D01*
X0074300Y0126697D02*
X0074300Y0126697D01*
X0074300Y0128296D02*
X0074300Y0128296D01*
X0074300Y0129894D02*
X0074300Y0129894D01*
X0074300Y0131493D02*
X0074300Y0131493D01*
X0055175Y0130788D02*
X0054571Y0130184D01*
X0054571Y0124756D01*
X0055155Y0124172D01*
X0055155Y0123912D01*
X0054906Y0123808D01*
X0053702Y0122604D01*
X0053050Y0121031D01*
X0053050Y0120357D01*
X0051343Y0120357D01*
X0049138Y0120357D01*
X0048680Y0120234D01*
X0048270Y0119997D01*
X0047934Y0119662D01*
X0047697Y0119251D01*
X0047575Y0118794D01*
X0047575Y0117572D01*
X0047575Y0117194D01*
X0046971Y0117798D01*
X0046457Y0117798D01*
X0046457Y0121320D01*
X0047853Y0121320D01*
X0049427Y0121972D01*
X0050631Y0123176D01*
X0051282Y0124749D01*
X0051282Y0126452D01*
X0050631Y0128025D01*
X0049427Y0129229D01*
X0047853Y0129881D01*
X0046600Y0129881D01*
X0046600Y0136634D01*
X0046846Y0136040D01*
X0047826Y0135060D01*
X0049107Y0134529D01*
X0050493Y0134529D01*
X0051774Y0135060D01*
X0052012Y0135298D01*
X0052012Y0134557D01*
X0054796Y0134557D01*
X0054796Y0138325D01*
X0054796Y0134557D01*
X0054796Y0134557D01*
X0054796Y0134557D01*
X0052012Y0134557D01*
X0052012Y0132351D01*
X0052134Y0131893D01*
X0052371Y0131483D01*
X0052707Y0131148D01*
X0053117Y0130911D01*
X0053575Y0130788D01*
X0054796Y0130788D01*
X0054796Y0134557D01*
X0054796Y0134557D01*
X0054796Y0130788D01*
X0055175Y0130788D01*
X0054796Y0131493D02*
X0054796Y0131493D01*
X0054796Y0133091D02*
X0054796Y0133091D01*
X0054796Y0134690D02*
X0054796Y0134690D01*
X0054796Y0136288D02*
X0054796Y0136288D01*
X0054796Y0137887D02*
X0054796Y0137887D01*
X0053843Y0142057D02*
X0049800Y0138013D01*
X0050881Y0134690D02*
X0052012Y0134690D01*
X0052012Y0133091D02*
X0046600Y0133091D01*
X0046600Y0131493D02*
X0052366Y0131493D01*
X0054571Y0129894D02*
X0046600Y0129894D01*
X0046600Y0134690D02*
X0048719Y0134690D01*
X0046743Y0136288D02*
X0046600Y0136288D01*
X0046757Y0143013D02*
X0047241Y0143498D01*
X0047241Y0149470D01*
X0053843Y0143013D02*
X0053843Y0142057D01*
X0054571Y0128296D02*
X0050360Y0128296D01*
X0051181Y0126697D02*
X0054571Y0126697D01*
X0054571Y0125099D02*
X0051282Y0125099D01*
X0050765Y0123500D02*
X0054598Y0123500D01*
X0053411Y0121902D02*
X0049258Y0121902D01*
X0048938Y0120303D02*
X0046457Y0120303D01*
X0046457Y0118705D02*
X0047575Y0118705D01*
X0047575Y0117572D02*
X0051343Y0117572D01*
X0047575Y0117572D01*
X0047575Y0112311D02*
X0047052Y0112311D01*
X0051343Y0117572D02*
X0051343Y0117572D01*
X0051343Y0117573D02*
X0051343Y0120357D01*
X0051343Y0117573D01*
X0051343Y0117573D01*
X0051343Y0118705D02*
X0051343Y0118705D01*
X0051343Y0120303D02*
X0051343Y0120303D01*
X0041300Y0142970D02*
X0041300Y0146513D01*
X0034300Y0150057D02*
X0029800Y0150057D01*
X0027843Y0152013D01*
X0022198Y0156013D02*
X0033757Y0156013D01*
X0022198Y0156013D02*
X0020757Y0154572D01*
X0013578Y0126697D02*
X0012784Y0126697D01*
X0006083Y0112311D02*
X0003600Y0112311D01*
X0003600Y0113909D02*
X0004331Y0113909D01*
X0004331Y0115508D02*
X0003600Y0115508D01*
X0003600Y0117106D02*
X0004626Y0117106D01*
X0004331Y0118705D02*
X0003600Y0118705D01*
X0003600Y0120303D02*
X0004331Y0120303D01*
X0004331Y0121902D02*
X0003600Y0121902D01*
X0003600Y0123500D02*
X0004280Y0123500D01*
X0004280Y0125099D02*
X0003600Y0125099D01*
X0003600Y0126697D02*
X0004280Y0126697D01*
X0004789Y0128296D02*
X0003600Y0128296D01*
X0003600Y0129894D02*
X0004618Y0129894D01*
X0004280Y0131493D02*
X0003600Y0131493D01*
X0003600Y0133091D02*
X0004280Y0133091D01*
X0004280Y0134690D02*
X0003600Y0134690D01*
X0003600Y0110712D02*
X0005512Y0110712D01*
X0005512Y0109114D02*
X0003600Y0109114D01*
X0003600Y0107515D02*
X0005512Y0107515D01*
X0013733Y0091530D02*
X0013733Y0091530D01*
X0013733Y0089932D02*
X0013733Y0089932D01*
X0022301Y0081533D02*
X0022301Y0079146D01*
X0021697Y0078542D01*
X0022076Y0078542D01*
X0022076Y0074773D01*
X0022076Y0074773D01*
X0022076Y0078542D01*
X0023297Y0078542D01*
X0023600Y0078460D01*
X0023600Y0084527D01*
X0023539Y0084466D01*
X0023314Y0084373D01*
X0023314Y0082546D01*
X0022301Y0081533D01*
X0022707Y0081939D02*
X0023600Y0081939D01*
X0023600Y0083537D02*
X0023314Y0083537D01*
X0023600Y0080340D02*
X0022301Y0080340D01*
X0021897Y0078742D02*
X0023600Y0078742D01*
X0022076Y0077143D02*
X0022076Y0077143D01*
X0022076Y0075545D02*
X0022076Y0075545D01*
X0033232Y0089932D02*
X0033443Y0089932D01*
X0014014Y0029188D02*
X0013585Y0029188D01*
X0013784Y0027590D02*
X0015613Y0027590D01*
X0017211Y0025991D02*
X0013205Y0025991D01*
X0013631Y0024393D02*
X0013969Y0024393D01*
X0013969Y0022794D02*
X0013631Y0022794D01*
X0013631Y0021196D02*
X0013969Y0021196D01*
X0013969Y0019597D02*
X0013631Y0019597D01*
X0013224Y0017998D02*
X0014376Y0017998D01*
X0013332Y0016400D02*
X0019008Y0016400D01*
X0020311Y0017998D02*
X0022032Y0017998D01*
X0017094Y0014801D02*
X0015247Y0014801D01*
X0015909Y0013203D02*
X0016431Y0013203D01*
X0016370Y0011604D02*
X0015970Y0011604D01*
X0015970Y0010006D02*
X0016370Y0010006D01*
X0016370Y0008407D02*
X0015970Y0008407D01*
X0015970Y0006809D02*
X0016370Y0006809D01*
X0016370Y0005210D02*
X0015970Y0005210D01*
X0006370Y0005210D02*
X0005645Y0005210D01*
X0064343Y0026014D02*
X0064343Y0030176D01*
X0064343Y0026014D01*
X0064343Y0026014D01*
X0064343Y0027590D02*
X0064343Y0027590D01*
X0064343Y0029188D02*
X0064343Y0029188D01*
D22*
X0064343Y0026013D02*
X0060643Y0022313D01*
X0053900Y0022313D01*
X0052194Y0024020D01*
X0052194Y0025983D01*
X0052194Y0029620D01*
X0050800Y0031013D01*
X0042300Y0031013D01*
X0042300Y0039513D01*
X0052800Y0050013D01*
X0052800Y0054513D01*
X0057300Y0059013D01*
X0057300Y0062013D01*
X0058300Y0063013D01*
X0064300Y0063013D01*
X0065300Y0064013D01*
X0065300Y0074691D01*
X0065383Y0074773D01*
X0068800Y0077513D02*
X0065800Y0080513D01*
X0065800Y0090513D01*
X0057418Y0098895D01*
X0057418Y0107557D01*
X0057418Y0114643D02*
X0053532Y0114643D01*
X0051343Y0112454D01*
X0051343Y0117572D02*
X0047800Y0117572D01*
X0047800Y0111013D01*
X0039859Y0111013D01*
X0039859Y0110970D01*
X0039859Y0114513D01*
X0034800Y0114513D01*
X0029800Y0119513D01*
X0029800Y0128513D01*
X0028300Y0130013D01*
X0020800Y0130013D01*
X0020800Y0125139D01*
X0017257Y0125139D01*
X0017257Y0130257D02*
X0013233Y0130257D01*
X0008442Y0125466D01*
X0008099Y0120246D02*
X0009568Y0120246D01*
X0011800Y0118013D01*
X0011800Y0111545D01*
X0009674Y0109419D01*
X0009674Y0102332D02*
X0005800Y0098458D01*
X0005800Y0040513D01*
X0020330Y0025983D01*
X0030146Y0025983D01*
X0033296Y0022509D02*
X0032300Y0021513D01*
X0017343Y0021513D01*
X0021300Y0014013D02*
X0021170Y0013883D01*
X0021170Y0009100D01*
X0010257Y0021513D02*
X0010257Y0027970D01*
X0010300Y0028013D01*
X0015800Y0038513D02*
X0023916Y0038513D01*
X0024270Y0038159D01*
X0024270Y0035009D02*
X0016804Y0035009D01*
X0009800Y0042013D01*
X0009800Y0064781D01*
X0013540Y0068521D01*
X0013800Y0064013D02*
X0024300Y0064013D01*
X0025800Y0065513D01*
X0025800Y0088513D01*
X0028800Y0091513D01*
X0028800Y0097013D01*
X0025422Y0097013D01*
X0024922Y0097513D01*
X0024922Y0107557D01*
X0024922Y0114643D02*
X0031068Y0114643D01*
X0034741Y0110970D01*
X0029839Y0110513D02*
X0035068Y0105285D01*
X0033146Y0100513D02*
X0028300Y0100513D01*
X0031359Y0093557D02*
X0036300Y0093557D01*
X0037300Y0092557D01*
X0035068Y0098592D02*
X0033146Y0100513D01*
X0029839Y0110513D02*
X0029800Y0110513D01*
X0025010Y0120180D02*
X0025010Y0127032D01*
X0024343Y0127698D01*
X0031300Y0133013D02*
X0008442Y0133013D01*
X0008442Y0132553D01*
X0015186Y0117687D02*
X0015186Y0113778D01*
X0018384Y0110580D01*
X0016978Y0099001D02*
X0014536Y0099001D01*
X0011174Y0095639D01*
X0013600Y0088553D02*
X0013733Y0088553D01*
X0013600Y0088553D02*
X0013600Y0078313D01*
X0022076Y0078313D01*
X0022076Y0074773D01*
X0016957Y0072191D02*
X0020627Y0068521D01*
X0016957Y0072191D02*
X0016957Y0074773D01*
X0019517Y0081860D02*
X0021114Y0083457D01*
X0021114Y0088095D01*
X0028800Y0086470D02*
X0029300Y0086470D01*
X0032800Y0089013D02*
X0032800Y0083513D01*
X0033800Y0082513D01*
X0033800Y0075513D01*
X0030800Y0072513D01*
X0030800Y0060013D01*
X0030300Y0059513D01*
X0030300Y0059630D01*
X0030146Y0059783D01*
X0030300Y0059513D02*
X0030300Y0053513D01*
X0035300Y0048513D01*
X0035300Y0038013D01*
X0042300Y0031013D01*
X0045894Y0025983D02*
X0045894Y0021919D01*
X0048800Y0019013D01*
X0073800Y0019013D01*
X0076800Y0022013D01*
X0076800Y0024970D01*
X0076800Y0032057D02*
X0077800Y0033057D01*
X0077800Y0040513D01*
X0076300Y0049013D02*
X0062296Y0035009D01*
X0058070Y0035009D01*
X0058070Y0031860D02*
X0057257Y0031046D01*
X0057257Y0026013D01*
X0058070Y0031860D02*
X0054454Y0031860D01*
X0052300Y0034013D01*
X0049044Y0025983D02*
X0049044Y0022269D01*
X0050800Y0020513D01*
X0068300Y0020513D01*
X0070300Y0022513D01*
X0070300Y0024970D01*
X0070300Y0032057D02*
X0072800Y0034557D01*
X0072800Y0037013D01*
X0076300Y0049013D02*
X0076300Y0101698D01*
X0074166Y0103832D01*
X0074166Y0110919D02*
X0074241Y0110994D01*
X0074241Y0115128D01*
X0067154Y0113778D02*
X0063956Y0110580D01*
X0067154Y0113778D02*
X0067154Y0117687D01*
X0064800Y0124013D02*
X0064800Y0128572D01*
X0064942Y0128714D01*
X0064942Y0135801D02*
X0061158Y0135801D01*
X0059914Y0134557D01*
X0057355Y0127470D02*
X0057355Y0120204D01*
X0057330Y0120180D01*
X0052028Y0105285D02*
X0053800Y0103513D01*
X0052028Y0105285D02*
X0047272Y0105285D01*
X0047272Y0098592D02*
X0053221Y0098592D01*
X0053300Y0098513D01*
X0054300Y0093557D02*
X0051800Y0091057D01*
X0048859Y0091057D01*
X0046300Y0083970D02*
X0046300Y0079013D01*
X0051300Y0074013D01*
X0053257Y0074013D01*
X0056800Y0071013D02*
X0056800Y0084013D01*
X0054343Y0086470D01*
X0054300Y0086470D01*
X0060265Y0074773D02*
X0060265Y0070021D01*
X0061780Y0068506D01*
X0056800Y0071013D02*
X0049044Y0063257D01*
X0049044Y0059783D01*
X0052194Y0059783D02*
X0052300Y0059677D01*
X0052300Y0057013D01*
X0048800Y0053513D01*
X0047800Y0053513D01*
X0045894Y0059783D02*
X0045894Y0066608D01*
X0048300Y0069013D01*
X0048300Y0071513D01*
X0043300Y0071513D02*
X0042745Y0070958D01*
X0042745Y0059783D01*
X0039595Y0059783D02*
X0039595Y0047309D01*
X0039300Y0047013D01*
X0036300Y0053013D02*
X0036446Y0053159D01*
X0036446Y0059783D01*
X0033300Y0059787D02*
X0033300Y0065513D01*
X0036300Y0065513D01*
X0033300Y0065513D02*
X0033300Y0072513D01*
X0035800Y0075013D01*
X0035800Y0081013D01*
X0037300Y0082513D01*
X0037300Y0085470D01*
X0041698Y0089013D02*
X0032800Y0089013D01*
X0041698Y0089013D02*
X0043741Y0091057D01*
X0044257Y0115013D02*
X0044257Y0122855D01*
X0047002Y0125600D01*
X0037300Y0123639D02*
X0037300Y0118057D01*
X0037300Y0123639D02*
X0035338Y0125600D01*
X0052359Y0149470D02*
X0058233Y0149470D01*
X0061170Y0152407D01*
X0065362Y0099001D02*
X0067804Y0099001D01*
X0071166Y0095639D01*
X0068607Y0088553D02*
X0068607Y0086919D01*
X0072666Y0082860D01*
X0068800Y0077513D02*
X0068800Y0072513D01*
X0072300Y0072513D01*
X0072300Y0051013D01*
X0062800Y0041513D01*
X0058275Y0041513D01*
X0058070Y0041309D01*
X0058070Y0044458D02*
X0058125Y0044513D01*
X0062800Y0044513D01*
X0068867Y0050580D01*
X0068867Y0068506D01*
X0074300Y0074139D02*
X0072666Y0075773D01*
X0074300Y0074139D02*
X0074300Y0050513D01*
X0061946Y0038159D01*
X0058070Y0038159D01*
X0058070Y0047608D02*
X0053894Y0047608D01*
X0052800Y0046513D01*
X0052800Y0044013D01*
X0051800Y0043013D01*
X0058070Y0050757D02*
X0058326Y0051013D01*
X0063800Y0051013D01*
X0058070Y0055783D02*
X0061300Y0059013D01*
X0058070Y0055783D02*
X0058070Y0053907D01*
X0062824Y0081860D02*
X0062824Y0086497D01*
X0061226Y0088095D01*
X0033300Y0059787D02*
X0033296Y0059783D01*
X0030056Y0050757D02*
X0030800Y0050013D01*
X0030800Y0047013D01*
X0030056Y0050757D02*
X0024270Y0050757D01*
X0024270Y0047608D02*
X0018706Y0047608D01*
X0017800Y0048513D01*
X0020745Y0044458D02*
X0017800Y0041513D01*
X0015800Y0038513D02*
X0011800Y0042513D01*
X0011800Y0062013D01*
X0013800Y0064013D01*
X0016257Y0060013D02*
X0016257Y0055557D01*
X0016800Y0055013D01*
X0023164Y0055013D01*
X0024270Y0053907D01*
X0024270Y0044458D02*
X0020745Y0044458D01*
X0024270Y0041309D02*
X0028505Y0041309D01*
X0030400Y0039413D01*
X0030400Y0036613D01*
X0033296Y0025983D02*
X0033296Y0022509D01*
X0024270Y0031860D02*
X0017454Y0031860D01*
X0007800Y0041513D01*
X0007800Y0072899D01*
X0009674Y0074773D01*
X0009674Y0075773D01*
X0009674Y0082860D02*
X0009674Y0087494D01*
X0008615Y0088553D01*
X0016257Y0060013D02*
X0016300Y0059970D01*
D23*
X0016800Y0055013D03*
X0017800Y0048513D03*
X0017800Y0041513D03*
X0010300Y0028013D03*
X0030400Y0036613D03*
X0030800Y0047013D03*
X0036300Y0053013D03*
X0039300Y0047013D03*
X0044300Y0049013D03*
X0047800Y0053513D03*
X0051800Y0043013D03*
X0052300Y0034013D03*
X0063800Y0051013D03*
X0061300Y0059013D03*
X0072800Y0037013D03*
X0077800Y0040513D03*
X0048300Y0071513D03*
X0043300Y0071513D03*
X0036300Y0065513D03*
X0053300Y0098513D03*
X0053800Y0103513D03*
X0064800Y0124013D03*
X0049800Y0138013D03*
X0031300Y0133013D03*
X0029800Y0110513D03*
X0028300Y0100513D03*
D24*
X0040843Y0156013D02*
X0040843Y0156057D01*
X0071170Y0152407D02*
X0074300Y0149277D01*
X0074300Y0136057D01*
D25*
X0042745Y0025983D02*
X0042745Y0012446D01*
X0041170Y0010872D01*
X0041170Y0009100D01*
X0031300Y0011013D02*
X0039595Y0019309D01*
X0039595Y0025983D01*
X0036446Y0025983D02*
X0036446Y0020159D01*
X0034800Y0018513D01*
X0025800Y0018513D01*
X0021300Y0014013D01*
X0031300Y0011013D02*
X0031300Y0009230D01*
X0031170Y0009100D01*
D26*
X0053257Y0074013D03*
X0029300Y0086470D03*
M02*
